%TF.GenerationSoftware,KiCad,Pcbnew,9.0.5*%
%TF.CreationDate,2026-04-03T09:30:41+02:00*%
%TF.ProjectId,toern_revG,746f6572-6e5f-4726-9576-472e6b696361,rev?*%
%TF.SameCoordinates,Original*%
%TF.FileFunction,Soldermask,Bot*%
%TF.FilePolarity,Negative*%
%FSLAX46Y46*%
G04 Gerber Fmt 4.6, Leading zero omitted, Abs format (unit mm)*
G04 Created by KiCad (PCBNEW 9.0.5) date 2026-04-03 09:30:41*
%MOMM*%
%LPD*%
G01*
G04 APERTURE LIST*
G04 Aperture macros list*
%AMRoundRect*
0 Rectangle with rounded corners*
0 $1 Rounding radius*
0 $2 $3 $4 $5 $6 $7 $8 $9 X,Y pos of 4 corners*
0 Add a 4 corners polygon primitive as box body*
4,1,4,$2,$3,$4,$5,$6,$7,$8,$9,$2,$3,0*
0 Add four circle primitives for the rounded corners*
1,1,$1+$1,$2,$3*
1,1,$1+$1,$4,$5*
1,1,$1+$1,$6,$7*
1,1,$1+$1,$8,$9*
0 Add four rect primitives between the rounded corners*
20,1,$1+$1,$2,$3,$4,$5,0*
20,1,$1+$1,$4,$5,$6,$7,0*
20,1,$1+$1,$6,$7,$8,$9,0*
20,1,$1+$1,$8,$9,$2,$3,0*%
G04 Aperture macros list end*
%ADD10RoundRect,0.250000X-0.250000X0.250000X-0.250000X-0.250000X0.250000X-0.250000X0.250000X0.250000X0*%
%ADD11C,1.000000*%
%ADD12R,1.700000X1.700000*%
%ADD13C,1.700000*%
%ADD14RoundRect,0.250000X0.625000X-0.350000X0.625000X0.350000X-0.625000X0.350000X-0.625000X-0.350000X0*%
%ADD15O,1.750000X1.200000*%
%ADD16RoundRect,0.250000X-0.350000X-0.625000X0.350000X-0.625000X0.350000X0.625000X-0.350000X0.625000X0*%
%ADD17O,1.200000X1.750000*%
%ADD18C,0.650000*%
%ADD19O,2.100000X1.000000*%
%ADD20O,1.600000X1.000000*%
%ADD21C,2.200000*%
%ADD22O,1.712000X3.220000*%
%ADD23C,3.000000*%
%ADD24RoundRect,0.250000X0.350000X0.625000X-0.350000X0.625000X-0.350000X-0.625000X0.350000X-0.625000X0*%
%ADD25C,1.500000*%
%ADD26C,1.950000*%
%ADD27R,1.600000X1.600000*%
%ADD28C,1.600000*%
%ADD29C,1.524000*%
G04 APERTURE END LIST*
D10*
%TO.C,MK1*%
X112000000Y-66500000D03*
D11*
X112000000Y-68400000D03*
%TD*%
D12*
%TO.C,J2*%
X45000000Y-53440000D03*
D13*
X45000000Y-55980000D03*
X45000000Y-58520000D03*
X45000000Y-61060000D03*
X45000000Y-63600000D03*
%TD*%
D14*
%TO.C,J15*%
X185000000Y-62865836D03*
D15*
X185000000Y-60865836D03*
X185000000Y-58865836D03*
X185000000Y-56865836D03*
X185000000Y-54865836D03*
%TD*%
D16*
%TO.C,J11.5*%
X63000000Y-81600000D03*
D17*
X65000000Y-81600000D03*
X67000000Y-81600000D03*
X69000000Y-81600000D03*
X71000000Y-81600000D03*
%TD*%
D16*
%TO.C,J11*%
X63000000Y-90000000D03*
D17*
X65000000Y-90000000D03*
X67000000Y-90000000D03*
X69000000Y-90000000D03*
X71000000Y-90000000D03*
%TD*%
D18*
%TO.C,J4*%
X36550000Y-49970000D03*
X36550000Y-55750000D03*
D19*
X37080000Y-48540000D03*
D20*
X32900000Y-48540000D03*
D19*
X37080000Y-57180000D03*
D20*
X32900000Y-57180000D03*
%TD*%
D21*
%TO.C,MountingHole3*%
X159550000Y-31150000D03*
%TD*%
D16*
%TO.C,J12*%
X61000000Y-38000000D03*
D17*
X63000000Y-38000000D03*
X65000000Y-38000000D03*
X67000000Y-38000000D03*
X69000000Y-38000000D03*
%TD*%
D22*
%TO.C,J3*%
X189650000Y-88950000D03*
X187250000Y-90950000D03*
X181750000Y-90950000D03*
%TD*%
D16*
%TO.C,J9*%
X78400000Y-30000000D03*
D17*
X80400000Y-30000000D03*
X82400000Y-30000000D03*
%TD*%
D12*
%TO.C,J21*%
X119000726Y-53440000D03*
D13*
X119000726Y-55980000D03*
X119000726Y-58520000D03*
X119000726Y-61060000D03*
X119000726Y-63600000D03*
%TD*%
D23*
%TO.C,J7*%
X150120000Y-85350000D03*
X133890000Y-85350000D03*
X150120000Y-91700000D03*
X133890000Y-91700000D03*
X150120000Y-79000000D03*
X133890000Y-79000000D03*
%TD*%
D12*
%TO.C,J18*%
X66000000Y-53440000D03*
D13*
X66000000Y-55980000D03*
X66000000Y-58520000D03*
X66000000Y-61060000D03*
X66000000Y-63600000D03*
%TD*%
D12*
%TO.C,J20*%
X102998419Y-53440000D03*
D13*
X102998419Y-55980000D03*
X102998419Y-58520000D03*
X102998419Y-61060000D03*
X102998419Y-63600000D03*
%TD*%
D23*
%TO.C,J5*%
X42331020Y-43307339D03*
X42331020Y-27077339D03*
X35981020Y-43307339D03*
X35981020Y-27077339D03*
X48681020Y-43307339D03*
X48681020Y-27077339D03*
%TD*%
D14*
%TO.C,J10*%
X35000000Y-70000000D03*
D15*
X35000000Y-68000000D03*
%TD*%
D21*
%TO.C,MountingHole2*%
X119600000Y-69500000D03*
%TD*%
D24*
%TO.C,J16*%
X188000000Y-28500000D03*
D17*
X186000000Y-28500000D03*
%TD*%
D21*
%TO.C,MountingHole1*%
X71450000Y-74700000D03*
%TD*%
D16*
%TO.C,J13*%
X74500000Y-38000000D03*
D17*
X76500000Y-38000000D03*
X78500000Y-38000000D03*
X80500000Y-38000000D03*
X82500000Y-38000000D03*
%TD*%
D12*
%TO.C,J19*%
X81998914Y-53440000D03*
D13*
X81998914Y-55980000D03*
X81998914Y-58520000D03*
X81998914Y-61060000D03*
X81998914Y-63600000D03*
%TD*%
D25*
%TO.C,S1*%
X184750000Y-47000000D03*
X184750000Y-43000000D03*
X184750000Y-39000000D03*
X182250000Y-39000000D03*
X182250000Y-43000000D03*
X182250000Y-47000000D03*
D26*
X186500000Y-49000000D03*
X180500000Y-49000000D03*
X186500000Y-37000000D03*
X180500000Y-37000000D03*
%TD*%
D22*
%TO.C,J17*%
X189650000Y-75900000D03*
X187250000Y-77900000D03*
X181750000Y-77900000D03*
%TD*%
D12*
%TO.C,J22*%
X140000000Y-53440000D03*
D13*
X140000000Y-55980000D03*
X140000000Y-58520000D03*
X140000000Y-61060000D03*
X140000000Y-63600000D03*
%TD*%
D23*
%TO.C,J6*%
X172875000Y-85350000D03*
X156645000Y-85350000D03*
X172875000Y-91700000D03*
X156645000Y-91700000D03*
X172875000Y-79000000D03*
X156645000Y-79000000D03*
%TD*%
D21*
%TO.C,MountingHole4*%
X34350000Y-61850000D03*
%TD*%
D12*
%TO.C,J24*%
X177002175Y-53440000D03*
D13*
X177002175Y-55980000D03*
X177002175Y-58520000D03*
X177002175Y-61060000D03*
X177002175Y-63600000D03*
%TD*%
D16*
%TO.C,J14*%
X61000000Y-30000000D03*
D17*
X63000000Y-30000000D03*
X65000000Y-30000000D03*
X67000000Y-30000000D03*
X69000000Y-30000000D03*
%TD*%
D21*
%TO.C,MountingHole5*%
X188050000Y-68800000D03*
%TD*%
D27*
%TO.C,U6*%
X115560000Y-42150000D03*
D28*
X118100000Y-42150000D03*
X120640000Y-42150000D03*
X123180000Y-42150000D03*
X125720000Y-42150000D03*
X128260000Y-42150000D03*
X130800000Y-42150000D03*
X133340000Y-42150000D03*
X135880000Y-42150000D03*
X138420000Y-42150000D03*
X140960000Y-42150000D03*
X143500000Y-42150000D03*
X146040000Y-42150000D03*
X148580000Y-42150000D03*
X151120000Y-42150000D03*
X153660000Y-42150000D03*
X156200000Y-42150000D03*
X158740000Y-42150000D03*
X161280000Y-42150000D03*
X163820000Y-42150000D03*
X166360000Y-42150000D03*
X168900000Y-42150000D03*
X171440000Y-42150000D03*
X173980000Y-42150000D03*
X173980000Y-26910000D03*
X171440000Y-26910000D03*
X168900000Y-26910000D03*
X166360000Y-26910000D03*
X163820000Y-26910000D03*
X161280000Y-26910000D03*
X158740000Y-26910000D03*
X156200000Y-26910000D03*
X153660000Y-26910000D03*
X151120000Y-26910000D03*
X148580000Y-26910000D03*
X146040000Y-26910000D03*
X143500000Y-26910000D03*
X140960000Y-26910000D03*
X138420000Y-26910000D03*
X135880000Y-26910000D03*
X133340000Y-26910000D03*
X130800000Y-26910000D03*
X128260000Y-26910000D03*
X125720000Y-26910000D03*
X123180000Y-26910000D03*
X120640000Y-26910000D03*
X118100000Y-26910000D03*
X115560000Y-26910000D03*
D29*
X116270000Y-33030000D03*
X116270000Y-36030000D03*
%TD*%
D23*
%TO.C,J1*%
X42350000Y-91230000D03*
X42350000Y-75000000D03*
X36000000Y-91230000D03*
X36000000Y-75000000D03*
X48700000Y-91230000D03*
X48700000Y-75000000D03*
%TD*%
D12*
%TO.C,J23*%
X156001958Y-53440000D03*
D13*
X156001958Y-55980000D03*
X156001958Y-58520000D03*
X156001958Y-61060000D03*
X156001958Y-63600000D03*
%TD*%
M02*
