%TF.GenerationSoftware,KiCad,Pcbnew,9.0.5*%
%TF.CreationDate,2026-04-03T09:30:41+02:00*%
%TF.ProjectId,toern_revG,746f6572-6e5f-4726-9576-472e6b696361,rev?*%
%TF.SameCoordinates,Original*%
%TF.FileFunction,Soldermask,Top*%
%TF.FilePolarity,Negative*%
%FSLAX46Y46*%
G04 Gerber Fmt 4.6, Leading zero omitted, Abs format (unit mm)*
G04 Created by KiCad (PCBNEW 9.0.5) date 2026-04-03 09:30:41*
%MOMM*%
%LPD*%
G01*
G04 APERTURE LIST*
G04 Aperture macros list*
%AMRoundRect*
0 Rectangle with rounded corners*
0 $1 Rounding radius*
0 $2 $3 $4 $5 $6 $7 $8 $9 X,Y pos of 4 corners*
0 Add a 4 corners polygon primitive as box body*
4,1,4,$2,$3,$4,$5,$6,$7,$8,$9,$2,$3,0*
0 Add four circle primitives for the rounded corners*
1,1,$1+$1,$2,$3*
1,1,$1+$1,$4,$5*
1,1,$1+$1,$6,$7*
1,1,$1+$1,$8,$9*
0 Add four rect primitives between the rounded corners*
20,1,$1+$1,$2,$3,$4,$5,0*
20,1,$1+$1,$4,$5,$6,$7,0*
20,1,$1+$1,$6,$7,$8,$9,0*
20,1,$1+$1,$8,$9,$2,$3,0*%
%AMRotRect*
0 Rectangle, with rotation*
0 The origin of the aperture is its center*
0 $1 length*
0 $2 width*
0 $3 Rotation angle, in degrees counterclockwise*
0 Add horizontal line*
21,1,$1,$2,0,0,$3*%
%AMFreePoly0*
4,1,23,0.550000,-0.750000,0.000000,-0.750000,0.000000,-0.745722,-0.065263,-0.745722,-0.191342,-0.711940,-0.304381,-0.646677,-0.396677,-0.554381,-0.461940,-0.441342,-0.495722,-0.315263,-0.495722,-0.250000,-0.500000,-0.250000,-0.500000,0.250000,-0.495722,0.250000,-0.495722,0.315263,-0.461940,0.441342,-0.396677,0.554381,-0.304381,0.646677,-0.191342,0.711940,-0.065263,0.745722,0.000000,0.745722,
0.000000,0.750000,0.550000,0.750000,0.550000,-0.750000,0.550000,-0.750000,$1*%
%AMFreePoly1*
4,1,23,0.000000,0.745722,0.065263,0.745722,0.191342,0.711940,0.304381,0.646677,0.396677,0.554381,0.461940,0.441342,0.495722,0.315263,0.495722,0.250000,0.500000,0.250000,0.500000,-0.250000,0.495722,-0.250000,0.495722,-0.315263,0.461940,-0.441342,0.396677,-0.554381,0.304381,-0.646677,0.191342,-0.711940,0.065263,-0.745722,0.000000,-0.745722,0.000000,-0.750000,-0.550000,-0.750000,
-0.550000,0.750000,0.000000,0.750000,0.000000,0.745722,0.000000,0.745722,$1*%
G04 Aperture macros list end*
%ADD10RoundRect,0.135000X-0.185000X0.135000X-0.185000X-0.135000X0.185000X-0.135000X0.185000X0.135000X0*%
%ADD11RoundRect,0.250000X-0.250000X0.250000X-0.250000X-0.250000X0.250000X-0.250000X0.250000X0.250000X0*%
%ADD12C,1.000000*%
%ADD13R,1.700000X1.700000*%
%ADD14C,1.700000*%
%ADD15RoundRect,0.140000X-0.140000X-0.170000X0.140000X-0.170000X0.140000X0.170000X-0.140000X0.170000X0*%
%ADD16RoundRect,0.200000X-0.275000X0.200000X-0.275000X-0.200000X0.275000X-0.200000X0.275000X0.200000X0*%
%ADD17RoundRect,0.225000X-0.225000X-0.250000X0.225000X-0.250000X0.225000X0.250000X-0.225000X0.250000X0*%
%ADD18RoundRect,0.140000X0.170000X-0.140000X0.170000X0.140000X-0.170000X0.140000X-0.170000X-0.140000X0*%
%ADD19RoundRect,0.135000X-0.135000X-0.185000X0.135000X-0.185000X0.135000X0.185000X-0.135000X0.185000X0*%
%ADD20RoundRect,0.250000X0.625000X-0.350000X0.625000X0.350000X-0.625000X0.350000X-0.625000X-0.350000X0*%
%ADD21O,1.750000X1.200000*%
%ADD22RoundRect,0.250000X-0.350000X-0.625000X0.350000X-0.625000X0.350000X0.625000X-0.350000X0.625000X0*%
%ADD23O,1.200000X1.750000*%
%ADD24RoundRect,0.225000X0.225000X0.250000X-0.225000X0.250000X-0.225000X-0.250000X0.225000X-0.250000X0*%
%ADD25R,1.450000X0.600000*%
%ADD26R,1.450000X0.300000*%
%ADD27O,2.100000X1.000000*%
%ADD28O,1.600000X1.000000*%
%ADD29R,0.800000X0.300000*%
%ADD30R,0.300000X0.800000*%
%ADD31R,1.800000X1.800000*%
%ADD32O,1.712000X3.220000*%
%ADD33RoundRect,0.140000X0.140000X0.170000X-0.140000X0.170000X-0.140000X-0.170000X0.140000X-0.170000X0*%
%ADD34RoundRect,0.140000X-0.170000X0.140000X-0.170000X-0.140000X0.170000X-0.140000X0.170000X0.140000X0*%
%ADD35RoundRect,0.150000X-0.512500X-0.150000X0.512500X-0.150000X0.512500X0.150000X-0.512500X0.150000X0*%
%ADD36FreePoly0,90.000000*%
%ADD37R,1.500000X1.000000*%
%ADD38FreePoly1,90.000000*%
%ADD39RoundRect,0.147500X0.172500X-0.147500X0.172500X0.147500X-0.172500X0.147500X-0.172500X-0.147500X0*%
%ADD40RoundRect,0.225000X-0.250000X0.225000X-0.250000X-0.225000X0.250000X-0.225000X0.250000X0.225000X0*%
%ADD41R,1.208024X0.466344*%
%ADD42C,3.000000*%
%ADD43RoundRect,0.250000X0.262500X0.450000X-0.262500X0.450000X-0.262500X-0.450000X0.262500X-0.450000X0*%
%ADD44RoundRect,0.150000X-0.150000X0.512500X-0.150000X-0.512500X0.150000X-0.512500X0.150000X0.512500X0*%
%ADD45RoundRect,0.200000X-0.200000X-0.275000X0.200000X-0.275000X0.200000X0.275000X-0.200000X0.275000X0*%
%ADD46RoundRect,0.250000X-1.000000X1.950000X-1.000000X-1.950000X1.000000X-1.950000X1.000000X1.950000X0*%
%ADD47RoundRect,0.135000X0.135000X0.185000X-0.135000X0.185000X-0.135000X-0.185000X0.135000X-0.185000X0*%
%ADD48RoundRect,0.150000X0.150000X-0.825000X0.150000X0.825000X-0.150000X0.825000X-0.150000X-0.825000X0*%
%ADD49RoundRect,0.250000X0.350000X0.625000X-0.350000X0.625000X-0.350000X-0.625000X0.350000X-0.625000X0*%
%ADD50RoundRect,0.125000X-0.125000X0.125000X-0.125000X-0.125000X0.125000X-0.125000X0.125000X0.125000X0*%
%ADD51C,1.500000*%
%ADD52C,1.950000*%
%ADD53RoundRect,0.062500X0.062500X-0.337500X0.062500X0.337500X-0.062500X0.337500X-0.062500X-0.337500X0*%
%ADD54RoundRect,0.062500X0.337500X-0.062500X0.337500X0.062500X-0.337500X0.062500X-0.337500X-0.062500X0*%
%ADD55R,3.600000X3.600000*%
%ADD56R,0.700000X1.400000*%
%ADD57R,0.700000X1.200000*%
%ADD58R,1.200000X0.800000*%
%ADD59R,1.500000X1.900000*%
%ADD60RotRect,0.200000X0.200000X45.000000*%
%ADD61R,0.500000X0.500000*%
%ADD62R,1.000000X1.400000*%
%ADD63R,1.200000X1.200000*%
%ADD64R,1.200000X3.200000*%
%ADD65RoundRect,0.135000X0.185000X-0.135000X0.185000X0.135000X-0.185000X0.135000X-0.185000X-0.135000X0*%
%ADD66R,1.600000X1.600000*%
%ADD67C,1.600000*%
%ADD68C,1.524000*%
G04 APERTURE END LIST*
%TO.C,JP1*%
G36*
X175750000Y-38550000D02*
G01*
X177250000Y-38550000D01*
X177250000Y-37050000D01*
X175750000Y-37050000D01*
X175750000Y-38550000D01*
G37*
%TD*%
D10*
%TO.C,R19*%
X150000000Y-30000000D03*
X150000000Y-31020000D03*
%TD*%
D11*
%TO.C,MK1*%
X112000000Y-66500000D03*
D12*
X112000000Y-68400000D03*
%TD*%
D13*
%TO.C,J2*%
X45000000Y-53440000D03*
D14*
X45000000Y-55980000D03*
X45000000Y-58520000D03*
X45000000Y-61060000D03*
X45000000Y-63600000D03*
%TD*%
D15*
%TO.C,C8*%
X102500000Y-48500000D03*
X103460000Y-48500000D03*
%TD*%
D16*
%TO.C,R11*%
X115500000Y-66000000D03*
X115500000Y-67650000D03*
%TD*%
D17*
%TO.C,C35*%
X186500000Y-32000000D03*
X188050000Y-32000000D03*
%TD*%
D18*
%TO.C,C25*%
X95565000Y-37552500D03*
X95565000Y-36592500D03*
%TD*%
D19*
%TO.C,R12*%
X101480000Y-43540000D03*
X102500000Y-43540000D03*
%TD*%
D20*
%TO.C,J15*%
X185000000Y-62865836D03*
D21*
X185000000Y-60865836D03*
X185000000Y-58865836D03*
X185000000Y-56865836D03*
X185000000Y-54865836D03*
%TD*%
D22*
%TO.C,J11.5*%
X63000000Y-81600000D03*
D23*
X65000000Y-81600000D03*
X67000000Y-81600000D03*
X69000000Y-81600000D03*
X71000000Y-81600000D03*
%TD*%
D24*
%TO.C,C16*%
X59275000Y-43500000D03*
X57725000Y-43500000D03*
%TD*%
D16*
%TO.C,R7*%
X178000000Y-68000000D03*
X178000000Y-69650000D03*
%TD*%
D22*
%TO.C,J11*%
X63000000Y-90000000D03*
D23*
X65000000Y-90000000D03*
X67000000Y-90000000D03*
X69000000Y-90000000D03*
X71000000Y-90000000D03*
%TD*%
D24*
%TO.C,C18*%
X116830000Y-47850000D03*
X115280000Y-47850000D03*
%TD*%
D25*
%TO.C,J4*%
X37995000Y-49610000D03*
X37995000Y-50410000D03*
D26*
X37995000Y-51610000D03*
X37995000Y-52610000D03*
X37995000Y-53110000D03*
X37995000Y-54110000D03*
D25*
X37995000Y-55310000D03*
X37995000Y-56110000D03*
X37995000Y-56110000D03*
X37995000Y-55310000D03*
D26*
X37995000Y-54610000D03*
X37995000Y-53610000D03*
X37995000Y-52110000D03*
X37995000Y-51110000D03*
D25*
X37995000Y-50410000D03*
X37995000Y-49610000D03*
D27*
X37080000Y-48540000D03*
D28*
X32900000Y-48540000D03*
D27*
X37080000Y-57180000D03*
D28*
X32900000Y-57180000D03*
%TD*%
D29*
%TO.C,IC1*%
X182425000Y-30975000D03*
X182425000Y-30475000D03*
X182425000Y-29975000D03*
X182425000Y-29475000D03*
D30*
X181675000Y-28725000D03*
X181175000Y-28725000D03*
X180675000Y-28725000D03*
X180175000Y-28725000D03*
D29*
X179425000Y-29475000D03*
X179425000Y-29975000D03*
X179425000Y-30475000D03*
X179425000Y-30975000D03*
D30*
X180175000Y-31725000D03*
X180675000Y-31725000D03*
X181175000Y-31725000D03*
X181675000Y-31725000D03*
D31*
X180925000Y-30225000D03*
%TD*%
D10*
%TO.C,R4*%
X103920000Y-39000000D03*
X103920000Y-40020000D03*
%TD*%
D22*
%TO.C,J12*%
X61000000Y-38000000D03*
D23*
X63000000Y-38000000D03*
X65000000Y-38000000D03*
X67000000Y-38000000D03*
X69000000Y-38000000D03*
%TD*%
D19*
%TO.C,R13*%
X101480000Y-44680000D03*
X102500000Y-44680000D03*
%TD*%
D32*
%TO.C,J3*%
X189650000Y-88950000D03*
X187250000Y-90950000D03*
X181750000Y-90950000D03*
%TD*%
D33*
%TO.C,C21*%
X122180000Y-77020000D03*
X121220000Y-77020000D03*
%TD*%
D34*
%TO.C,C1*%
X101617500Y-49910000D03*
X101617500Y-50870000D03*
%TD*%
D35*
%TO.C,U5*%
X137632500Y-47740000D03*
X137632500Y-48690000D03*
X137632500Y-49640000D03*
X139907500Y-49640000D03*
X139907500Y-48690000D03*
X139907500Y-47740000D03*
%TD*%
D15*
%TO.C,C12*%
X110020000Y-40000000D03*
X110980000Y-40000000D03*
%TD*%
D36*
%TO.C,JP1*%
X176500000Y-39100000D03*
D37*
X176500000Y-37800000D03*
D38*
X176500000Y-36500000D03*
%TD*%
D35*
%TO.C,U1*%
X97620920Y-49585520D03*
X97620920Y-50535520D03*
X97620920Y-51485520D03*
X99895920Y-51485520D03*
X99895920Y-49585520D03*
%TD*%
D24*
%TO.C,C19*%
X116845000Y-46310000D03*
X115295000Y-46310000D03*
%TD*%
D17*
%TO.C,C22*%
X121225000Y-75500000D03*
X122775000Y-75500000D03*
%TD*%
D24*
%TO.C,C26*%
X82050000Y-26800000D03*
X80500000Y-26800000D03*
%TD*%
D39*
%TO.C,D5*%
X177726122Y-27421250D03*
X177726122Y-26451250D03*
%TD*%
D10*
%TO.C,R2*%
X106140000Y-39000000D03*
X106140000Y-40020000D03*
%TD*%
D40*
%TO.C,C5*%
X151600000Y-29300000D03*
X151600000Y-30850000D03*
%TD*%
D41*
%TO.C,U4*%
X150276600Y-47320000D03*
X150276600Y-49860000D03*
X157160000Y-49860000D03*
X157160000Y-48590000D03*
X157160000Y-47320000D03*
%TD*%
D10*
%TO.C,R1*%
X107230000Y-39000000D03*
X107230000Y-40020000D03*
%TD*%
D22*
%TO.C,J9*%
X78400000Y-30000000D03*
D23*
X80400000Y-30000000D03*
X82400000Y-30000000D03*
%TD*%
D34*
%TO.C,C13*%
X111900000Y-47320000D03*
X111900000Y-48280000D03*
%TD*%
D17*
%TO.C,C36*%
X60675000Y-71800000D03*
X62225000Y-71800000D03*
%TD*%
D13*
%TO.C,J21*%
X119000726Y-53440000D03*
D14*
X119000726Y-55980000D03*
X119000726Y-58520000D03*
X119000726Y-61060000D03*
X119000726Y-63600000D03*
%TD*%
D42*
%TO.C,J7*%
X150120000Y-85350000D03*
X133890000Y-85350000D03*
X150120000Y-91700000D03*
X133890000Y-91700000D03*
X150120000Y-79000000D03*
X133890000Y-79000000D03*
%TD*%
D15*
%TO.C,C14*%
X156210000Y-45760000D03*
X157170000Y-45760000D03*
%TD*%
D19*
%TO.C,R24*%
X183990000Y-33500000D03*
X185010000Y-33500000D03*
%TD*%
%TO.C,R10*%
X39990000Y-60500000D03*
X41010000Y-60500000D03*
%TD*%
D43*
%TO.C,R22*%
X58912500Y-74000000D03*
X57087500Y-74000000D03*
%TD*%
D13*
%TO.C,J18*%
X66000000Y-53440000D03*
D14*
X66000000Y-55980000D03*
X66000000Y-58520000D03*
X66000000Y-61060000D03*
X66000000Y-63600000D03*
%TD*%
D44*
%TO.C,U7*%
X98880000Y-35285000D03*
X97930000Y-35285000D03*
X96980000Y-35285000D03*
X96980000Y-37560000D03*
X98880000Y-37560000D03*
%TD*%
D45*
%TO.C,R8*%
X180675000Y-68000000D03*
X182325000Y-68000000D03*
%TD*%
D19*
%TO.C,R9*%
X39990000Y-62000000D03*
X41010000Y-62000000D03*
%TD*%
D13*
%TO.C,J20*%
X102998419Y-53440000D03*
D14*
X102998419Y-55980000D03*
X102998419Y-58520000D03*
X102998419Y-61060000D03*
X102998419Y-63600000D03*
%TD*%
D46*
%TO.C,C6*%
X90000000Y-31300000D03*
X90000000Y-38700000D03*
%TD*%
D24*
%TO.C,C20*%
X116840000Y-44790000D03*
X115290000Y-44790000D03*
%TD*%
D17*
%TO.C,C31*%
X60725000Y-70000000D03*
X62275000Y-70000000D03*
%TD*%
D42*
%TO.C,J5*%
X42331020Y-43307339D03*
X42331020Y-27077339D03*
X35981020Y-43307339D03*
X35981020Y-27077339D03*
X48681020Y-43307339D03*
X48681020Y-27077339D03*
%TD*%
D40*
%TO.C,C4*%
X95450000Y-46050000D03*
X95450000Y-47600000D03*
%TD*%
D24*
%TO.C,C30*%
X62275000Y-68000000D03*
X60725000Y-68000000D03*
%TD*%
D20*
%TO.C,J10*%
X35000000Y-70000000D03*
D21*
X35000000Y-68000000D03*
%TD*%
D24*
%TO.C,C17*%
X59275000Y-45500000D03*
X57725000Y-45500000D03*
%TD*%
D47*
%TO.C,R16*%
X119240000Y-77500000D03*
X118220000Y-77500000D03*
%TD*%
D39*
%TO.C,D4*%
X180083674Y-27417915D03*
X180083674Y-26447915D03*
%TD*%
D10*
%TO.C,R26*%
X176544200Y-26411978D03*
X176544200Y-27431978D03*
%TD*%
D34*
%TO.C,C15*%
X141567500Y-48690000D03*
X141567500Y-49650000D03*
%TD*%
D48*
%TO.C,U13*%
X50110000Y-70950000D03*
X51380000Y-70950000D03*
X52650000Y-70950000D03*
X53920000Y-70950000D03*
X55190000Y-70950000D03*
X56460000Y-70950000D03*
X57730000Y-70950000D03*
X59000000Y-70950000D03*
X59000000Y-66000000D03*
X57730000Y-66000000D03*
X56460000Y-66000000D03*
X55190000Y-66000000D03*
X53920000Y-66000000D03*
X52650000Y-66000000D03*
X51380000Y-66000000D03*
X50110000Y-66000000D03*
%TD*%
D49*
%TO.C,J16*%
X188000000Y-28500000D03*
D23*
X186000000Y-28500000D03*
%TD*%
D10*
%TO.C,R5*%
X102870000Y-39000000D03*
X102870000Y-40020000D03*
%TD*%
D35*
%TO.C,U2*%
X97632500Y-46000000D03*
X97632500Y-46950000D03*
X97632500Y-47900000D03*
X99907500Y-47900000D03*
X99907500Y-46000000D03*
%TD*%
D10*
%TO.C,R3*%
X105050000Y-39000000D03*
X105050000Y-40020000D03*
%TD*%
D50*
%TO.C,D1*%
X148276528Y-47347164D03*
X148276528Y-49547164D03*
%TD*%
D22*
%TO.C,J13*%
X74500000Y-38000000D03*
D23*
X76500000Y-38000000D03*
X78500000Y-38000000D03*
X80500000Y-38000000D03*
X82500000Y-38000000D03*
%TD*%
D13*
%TO.C,J19*%
X81998914Y-53440000D03*
D14*
X81998914Y-55980000D03*
X81998914Y-58520000D03*
X81998914Y-61060000D03*
X81998914Y-63600000D03*
%TD*%
D24*
%TO.C,C28*%
X65775000Y-70000000D03*
X64225000Y-70000000D03*
%TD*%
D51*
%TO.C,S1*%
X184750000Y-47000000D03*
X184750000Y-43000000D03*
X184750000Y-39000000D03*
X182250000Y-39000000D03*
X182250000Y-43000000D03*
X182250000Y-47000000D03*
D52*
X186500000Y-49000000D03*
X180500000Y-49000000D03*
X186500000Y-37000000D03*
X180500000Y-37000000D03*
%TD*%
D10*
%TO.C,R23*%
X178000000Y-31500000D03*
X178000000Y-32520000D03*
%TD*%
D17*
%TO.C,C27*%
X57225000Y-76000000D03*
X58775000Y-76000000D03*
%TD*%
D24*
%TO.C,C24*%
X98880000Y-33022500D03*
X97330000Y-33022500D03*
%TD*%
D40*
%TO.C,C3*%
X95443778Y-49508225D03*
X95443778Y-51058225D03*
%TD*%
D32*
%TO.C,J17*%
X189650000Y-75900000D03*
X187250000Y-77900000D03*
X181750000Y-77900000D03*
%TD*%
D53*
%TO.C,U3*%
X106410000Y-47400000D03*
X106910000Y-47400000D03*
X107410000Y-47400000D03*
X107910000Y-47400000D03*
X108410000Y-47400000D03*
X108910000Y-47400000D03*
X109410000Y-47400000D03*
X109910000Y-47400000D03*
D54*
X110610000Y-46700000D03*
X110610000Y-46200000D03*
X110610000Y-45700000D03*
X110610000Y-45200000D03*
X110610000Y-44700000D03*
X110610000Y-44200000D03*
X110610000Y-43700000D03*
X110610000Y-43200000D03*
D53*
X109910000Y-42500000D03*
X109410000Y-42500000D03*
X108910000Y-42500000D03*
X108410000Y-42500000D03*
X107910000Y-42500000D03*
X107410000Y-42500000D03*
X106910000Y-42500000D03*
X106410000Y-42500000D03*
D54*
X105710000Y-43200000D03*
X105710000Y-43700000D03*
X105710000Y-44200000D03*
X105710000Y-44700000D03*
X105710000Y-45200000D03*
X105710000Y-45700000D03*
X105710000Y-46200000D03*
X105710000Y-46700000D03*
D55*
X108160000Y-44950000D03*
%TD*%
D56*
%TO.C,J8*%
X118125000Y-79300000D03*
X119225000Y-79300000D03*
X120325000Y-79300000D03*
X121425000Y-79300000D03*
X122525000Y-79300000D03*
X123625000Y-79300000D03*
X124725000Y-79300000D03*
X125825000Y-79300000D03*
D57*
X126775000Y-79200000D03*
D58*
X127625000Y-89700000D03*
D59*
X114325000Y-94300000D03*
D60*
X115075000Y-94750000D03*
D61*
X115325000Y-95000000D03*
D62*
X116225000Y-79300000D03*
D63*
X127625000Y-83500000D03*
D64*
X127625000Y-93300000D03*
%TD*%
D15*
%TO.C,C11*%
X110020000Y-41000000D03*
X110980000Y-41000000D03*
%TD*%
D13*
%TO.C,J22*%
X140000000Y-53440000D03*
D14*
X140000000Y-55980000D03*
X140000000Y-58520000D03*
X140000000Y-61060000D03*
X140000000Y-63600000D03*
%TD*%
D43*
%TO.C,R21*%
X62412500Y-66000000D03*
X60587500Y-66000000D03*
%TD*%
D15*
%TO.C,C10*%
X108400000Y-50520000D03*
X109360000Y-50520000D03*
%TD*%
D42*
%TO.C,J6*%
X172875000Y-85350000D03*
X156645000Y-85350000D03*
X172875000Y-91700000D03*
X156645000Y-91700000D03*
X172875000Y-79000000D03*
X156645000Y-79000000D03*
%TD*%
D17*
%TO.C,C29*%
X64225000Y-68000000D03*
X65775000Y-68000000D03*
%TD*%
D40*
%TO.C,C33*%
X176500000Y-31225000D03*
X176500000Y-32775000D03*
%TD*%
D13*
%TO.C,J24*%
X177002175Y-53440000D03*
D14*
X177002175Y-55980000D03*
X177002175Y-58520000D03*
X177002175Y-61060000D03*
X177002175Y-63600000D03*
%TD*%
D65*
%TO.C,R25*%
X178990000Y-27431978D03*
X178990000Y-26411978D03*
%TD*%
D34*
%TO.C,C2*%
X103500000Y-46500000D03*
X103500000Y-47460000D03*
%TD*%
D22*
%TO.C,J14*%
X61000000Y-30000000D03*
D23*
X63000000Y-30000000D03*
X65000000Y-30000000D03*
X67000000Y-30000000D03*
X69000000Y-30000000D03*
%TD*%
D17*
%TO.C,C32*%
X180402879Y-33301621D03*
X181952879Y-33301621D03*
%TD*%
D33*
%TO.C,C23*%
X98895000Y-39232500D03*
X97935000Y-39232500D03*
%TD*%
D65*
%TO.C,R15*%
X148500000Y-31020000D03*
X148500000Y-30000000D03*
%TD*%
D15*
%TO.C,C7*%
X107040000Y-53000000D03*
X108000000Y-53000000D03*
%TD*%
D45*
%TO.C,R20*%
X137675000Y-29000000D03*
X139325000Y-29000000D03*
%TD*%
D66*
%TO.C,U6*%
X115560000Y-42150000D03*
D67*
X118100000Y-42150000D03*
X120640000Y-42150000D03*
X123180000Y-42150000D03*
X125720000Y-42150000D03*
X128260000Y-42150000D03*
X130800000Y-42150000D03*
X133340000Y-42150000D03*
X135880000Y-42150000D03*
X138420000Y-42150000D03*
X140960000Y-42150000D03*
X143500000Y-42150000D03*
X146040000Y-42150000D03*
X148580000Y-42150000D03*
X151120000Y-42150000D03*
X153660000Y-42150000D03*
X156200000Y-42150000D03*
X158740000Y-42150000D03*
X161280000Y-42150000D03*
X163820000Y-42150000D03*
X166360000Y-42150000D03*
X168900000Y-42150000D03*
X171440000Y-42150000D03*
X173980000Y-42150000D03*
X173980000Y-26910000D03*
X171440000Y-26910000D03*
X168900000Y-26910000D03*
X166360000Y-26910000D03*
X163820000Y-26910000D03*
X161280000Y-26910000D03*
X158740000Y-26910000D03*
X156200000Y-26910000D03*
X153660000Y-26910000D03*
X151120000Y-26910000D03*
X148580000Y-26910000D03*
X146040000Y-26910000D03*
X143500000Y-26910000D03*
X140960000Y-26910000D03*
X138420000Y-26910000D03*
X135880000Y-26910000D03*
X133340000Y-26910000D03*
X130800000Y-26910000D03*
X128260000Y-26910000D03*
X125720000Y-26910000D03*
X123180000Y-26910000D03*
X120640000Y-26910000D03*
X118100000Y-26910000D03*
X115560000Y-26910000D03*
D68*
X116270000Y-33030000D03*
X116270000Y-36030000D03*
%TD*%
D16*
%TO.C,R6*%
X146340000Y-47635000D03*
X146340000Y-49285000D03*
%TD*%
D15*
%TO.C,C9*%
X108440000Y-51680000D03*
X109400000Y-51680000D03*
%TD*%
D19*
%TO.C,R14*%
X184000000Y-32000000D03*
X185020000Y-32000000D03*
%TD*%
D42*
%TO.C,J1*%
X42350000Y-91230000D03*
X42350000Y-75000000D03*
X36000000Y-91230000D03*
X36000000Y-75000000D03*
X48700000Y-91230000D03*
X48700000Y-75000000D03*
%TD*%
D13*
%TO.C,J23*%
X156001958Y-53440000D03*
D14*
X156001958Y-55980000D03*
X156001958Y-58520000D03*
X156001958Y-61060000D03*
X156001958Y-63600000D03*
%TD*%
M02*
