M48
; DRILL file {KiCad 9.0.5} date 2026-04-03T09:30:41+0200
; FORMAT={-:-/ absolute / inch / decimal}
; #@! TF.CreationDate,2026-04-03T09:30:41+02:00
; #@! TF.GenerationSoftware,Kicad,Pcbnew,9.0.5
; #@! TF.FileFunction,Plated,1,4,PTH
FMAT,2
INCH
; #@! TA.AperFunction,Plated,PTH,ViaDrill
T1C0.0118
; #@! TA.AperFunction,Plated,PTH,ViaDrill
T2C0.0157
; #@! TA.AperFunction,Plated,PTH,ComponentDrill
T3C0.0236
; #@! TA.AperFunction,Plated,PTH,ComponentDrill
T4C0.0240
; #@! TA.AperFunction,Plated,PTH,ComponentDrill
T5C0.0256
; #@! TA.AperFunction,Plated,PTH,ComponentDrill
T6C0.0295
; #@! TA.AperFunction,Plated,PTH,ComponentDrill
T7C0.0394
; #@! TA.AperFunction,Plated,PTH,ComponentDrill
T8C0.0433
; #@! TA.AperFunction,Plated,PTH,ComponentDrill
T9C0.0512
; #@! TA.AperFunction,Plated,PTH,ComponentDrill
T10C0.0551
%
G90
G05
T1
X1.2815Y-2.3386
X1.3976Y-3.2677
X1.4374Y-2.0917
X1.4398Y-2.1192
X1.4567Y-1.2008
X1.4567Y-2.5591
X1.4764Y-3.1496
X1.5354Y-3.0315
X1.5945Y-1.4173
X1.6051Y-2.0461
X1.6051Y-2.0839
X1.6051Y-2.1228
X1.6051Y-2.163
X1.6142Y-1.2008
X1.6339Y-1.8504
X1.6535Y-2.3622
X1.6535Y-2.4213
X1.752Y-3.248
X1.8504Y-2.1063
X1.8504Y-3.1496
X1.8898Y-1.8898
X1.9685Y-1.2205
X1.9685Y-1.4961
X1.9685Y-2.6772
X2.0079Y-2.0866
X2.0079Y-2.4606
X2.0276Y-2.7165
X2.0866Y-2.874
X2.1457Y-1.9685
X2.2228Y-2.6575
X2.2441Y-1.0827
X2.2835Y-1.3976
X2.3031Y-3.4646
X2.3819Y-1.378
X2.3819Y-1.6535
X2.4213Y-1.9094
X2.5Y-2.7165
X2.5197Y-2.1063
X2.5591Y-1.2982
X2.6378Y-2.7165
X2.6949Y-3.0098
X2.7559Y-3.3858
X2.7756Y-1.0827
X2.815Y-1.3976
X2.8543Y-1.9685
X2.874Y-3.3701
X2.9528Y-2.5984
X2.9921Y-1.8701
X3.1693Y-1.8307
X3.248Y-1.9291
X3.3268Y-2.0866
X3.366Y-2.1408
X3.3661Y-1.6197
X3.3878Y-1.1654
X3.4Y-2.0615
X3.4055Y-2.0079
X3.4646Y-2.126
X3.5177Y-1.3976
X3.5433Y-1.7717
X3.563Y-3.0512
X3.7626Y-1.4047
X3.795Y-2.0252
X3.8005Y-1.848
X3.8165Y-1.5449
X3.8559Y-1.3406
X3.9343Y-1.5441
X3.9764Y-2.1063
X3.9941Y-1.3406
X4.0728Y-1.7126
X4.0945Y-1.763
X4.0945Y-3.6417
X4.1142Y-1.8898
X4.1279Y-1.8524
X4.1464Y-2.0485
X4.1535Y-1.122
X4.1535Y-1.3406
X4.1535Y-1.8701
X4.1827Y-1.9894
X4.2126Y-1.1634
X4.2126Y-1.3583
X4.2291Y-1.9366
X4.2315Y-1.99
X4.2323Y-2.7953
X4.2673Y-1.5449
X4.2913Y-2.0866
X4.3071Y-1.9449
X4.3307Y-1.2402
X4.3374Y-1.9902
X4.3378Y-2.035
X4.3457Y-1.5004
X4.3504Y-1.9094
X4.3937Y-1.4138
X4.4063Y-1.9299
X4.4291Y-1.5748
X4.4488Y-1.6929
X4.4685Y-1.1024
X4.4685Y-1.4173
X4.4949Y-1.9358
X4.5193Y-1.3506
X4.5276Y-1.1811
X4.7441Y-1.4567
X4.7804Y-1.2826
X4.7835Y-2.1063
X4.8031Y-2.874
X4.8031Y-3.0709
X4.8394Y-3.0315
X4.8651Y-1.3021
X4.8732Y-2.9732
X4.8839Y-1.9882
X4.9016Y-3.0345
X4.9213Y-1.1398
X4.9606Y-1.8307
X4.9911Y-3.0689
X5.0197Y-1.2402
X5.0197Y-1.9469
X5.0591Y-2.874
X5.1181Y-1.9685
X5.1378Y-1.1811
X5.1378Y-1.5358
X5.1378Y-2.3425
X5.1378Y-3.5039
X5.1772Y-2.0079
X5.1772Y-2.874
X5.2165Y-1.5354
X5.2362Y-1.1811
X5.2559Y-1.8898
X5.3146Y-1.7709
X5.315Y-1.9291
X5.3346Y-1.1811
X5.3346Y-1.2795
X5.3799Y-1.9169
X5.4528Y-3.1102
X5.4587Y-3.3858
X5.4594Y-1.5594
X5.5039Y-1.5622
X5.5118Y-3.4646
X5.561Y-1.5551
X5.5744Y-1.9858
X5.6087Y-1.9169
X5.6102Y-2.0472
X5.6299Y-2.126
X5.6496Y-1.1811
X5.6693Y-3.563
X5.748Y-3.3465
X5.7677Y-1.5157
X5.7677Y-3.0709
X5.7874Y-1.2205
X5.8858Y-2.5984
X5.9087Y-1.7606
X5.935Y-1.1516
X5.9646Y-2.5984
X6.0356Y-1.1888
X6.0433Y-2.1063
X6.0929Y-1.5228
X6.1512Y-1.8303
X6.1563Y-1.2598
X6.248Y-1.9626
X6.2598Y-1.8016
X6.2598Y-2.126
X6.2795Y-2.7756
X6.3386Y-2.6083
X6.3386Y-3.622
X6.3583Y-3.0512
X6.3898Y-1.1811
X6.437Y-3.3268
X6.465Y-1.1531
X6.5157Y-1.2992
X6.5354Y-2.1457
X6.5551Y-3.4646
X6.5748Y-1.2008
X6.5748Y-3.0512
X6.5945Y-1.2795
X6.6535Y-3.3268
X6.752Y-1.122
X6.752Y-1.2992
X6.752Y-1.8465
X6.8701Y-2.1063
X6.9291Y-3.5039
X6.9488Y-1.6535
X7.0256Y-1.126
X7.0472Y-1.2992
X7.1043Y-1.1703
X7.1043Y-1.2087
X7.1319Y-1.7539
X7.1319Y-1.7972
X7.1349Y-1.0827
X7.1437Y-1.2096
X7.1447Y-1.1722
X7.1654Y-2.0866
X7.1654Y-2.1457
X7.1654Y-2.2244
X7.185Y-1.063
X7.185Y-1.752
X7.185Y-1.7913
X7.1969Y-3.3976
X7.1988Y-1.6142
X7.2047Y-1.2992
X7.2047Y-1.4567
X7.2047Y-1.9094
X7.2047Y-1.9488
X7.2047Y-2.815
X7.2165Y-1.1614
X7.2244Y-1.752
X7.2244Y-1.7913
X7.2244Y-3.5827
X7.2441Y-1.9094
X7.2441Y-1.9488
X7.2441Y-3.7205
X7.2559Y-1.4567
X7.2638Y-1.752
X7.2638Y-1.7913
X7.2835Y-1.9094
X7.2835Y-1.9488
X7.3031Y-1.752
X7.3031Y-1.7913
X7.3228Y-1.3189
X7.3425Y-1.752
X7.3425Y-1.7913
X7.3425Y-3.2087
X7.3622Y-3.4055
X7.3819Y-1.6732
X7.3819Y-1.7913
X7.3819Y-1.8307
X7.3839Y-1.8681
X7.4213Y-3.248
X7.4409Y-1.6339
X7.4449Y-1.6772
X7.4646Y-2.8701
X7.4803Y-2.6161
T2
X5.8465Y-1.3514
X7.4311Y-1.3484
T4
X4.5776Y-1.3004
X4.5776Y-1.4185
T5
X4.4094Y-2.6181
X4.4094Y-2.6929
T6
X1.378Y-2.6772
X1.378Y-2.7559
X2.4016Y-1.1811
X2.4016Y-1.4961
X2.4803Y-1.1811
X2.4803Y-1.4961
X2.4803Y-3.2126
X2.4803Y-3.5433
X2.5591Y-1.1811
X2.5591Y-1.4961
X2.5591Y-3.2126
X2.5591Y-3.5433
X2.6378Y-1.1811
X2.6378Y-1.4961
X2.6378Y-3.2126
X2.6378Y-3.5433
X2.7165Y-1.1811
X2.7165Y-1.4961
X2.7165Y-3.2126
X2.7165Y-3.5433
X2.7953Y-3.2126
X2.7953Y-3.5433
X2.9331Y-1.4961
X3.0118Y-1.4961
X3.0866Y-1.1811
X3.0906Y-1.4961
X3.1654Y-1.1811
X3.1693Y-1.4961
X3.2441Y-1.1811
X3.248Y-1.4961
X7.2835Y-2.1601
X7.2835Y-2.2388
X7.2835Y-2.3176
X7.2835Y-2.3963
X7.2835Y-2.475
X7.3228Y-1.122
X7.4016Y-1.122
T7
X1.7717Y-2.1039
X1.7717Y-2.2039
X1.7717Y-2.3039
X1.7717Y-2.4039
X1.7717Y-2.5039
X2.5984Y-2.1039
X2.5984Y-2.2039
X2.5984Y-2.3039
X2.5984Y-2.4039
X2.5984Y-2.5039
X3.2283Y-2.1039
X3.2283Y-2.2039
X3.2283Y-2.3039
X3.2283Y-2.4039
X3.2283Y-2.5039
X4.0551Y-2.1039
X4.0551Y-2.2039
X4.0551Y-2.3039
X4.0551Y-2.4039
X4.0551Y-2.5039
X4.6851Y-2.1039
X4.6851Y-2.2039
X4.6851Y-2.3039
X4.6851Y-2.4039
X4.6851Y-2.5039
X5.5118Y-2.1039
X5.5118Y-2.2039
X5.5118Y-2.3039
X5.5118Y-2.4039
X5.5118Y-2.5039
X6.1418Y-2.1039
X6.1418Y-2.2039
X6.1418Y-2.3039
X6.1418Y-2.4039
X6.1418Y-2.5039
X6.9686Y-2.1039
X6.9686Y-2.2039
X6.9686Y-2.3039
X6.9686Y-2.4039
X6.9686Y-2.5039
X7.1752Y-1.5354
X7.1752Y-1.6929
X7.1752Y-1.8504
X7.2736Y-1.5354
X7.2736Y-1.6929
X7.2736Y-1.8504
T8
X4.5496Y-1.0594
X4.5496Y-1.6594
X4.6496Y-1.0594
X4.6496Y-1.6594
X4.7496Y-1.0594
X4.7496Y-1.6594
X4.8496Y-1.0594
X4.8496Y-1.6594
X4.9496Y-1.0594
X4.9496Y-1.6594
X5.0496Y-1.0594
X5.0496Y-1.6594
X5.1496Y-1.0594
X5.1496Y-1.6594
X5.2496Y-1.0594
X5.2496Y-1.6594
X5.3496Y-1.0594
X5.3496Y-1.6594
X5.4496Y-1.0594
X5.4496Y-1.6594
X5.5496Y-1.0594
X5.5496Y-1.6594
X5.6496Y-1.0594
X5.6496Y-1.6594
X5.7496Y-1.0594
X5.7496Y-1.6594
X5.8496Y-1.0594
X5.8496Y-1.6594
X5.9496Y-1.0594
X5.9496Y-1.6594
X6.0496Y-1.0594
X6.0496Y-1.6594
X6.1496Y-1.0594
X6.1496Y-1.6594
X6.2496Y-1.0594
X6.2496Y-1.6594
X6.3496Y-1.0594
X6.3496Y-1.6594
X6.4496Y-1.0594
X6.4496Y-1.6594
X6.5496Y-1.0594
X6.5496Y-1.6594
X6.6496Y-1.0594
X6.6496Y-1.6594
X6.7496Y-1.0594
X6.7496Y-1.6594
X6.8496Y-1.0594
X6.8496Y-1.6594
T9
X7.1063Y-1.4567
X7.1063Y-1.9291
X7.3425Y-1.4567
X7.3425Y-1.9291
T10
X1.4166Y-1.066
X1.4166Y-1.705
X1.4173Y-2.9528
X1.4173Y-3.5917
X1.6666Y-1.066
X1.6666Y-1.705
X1.6673Y-2.9528
X1.6673Y-3.5917
X1.9166Y-1.066
X1.9166Y-1.705
X1.9173Y-2.9528
X1.9173Y-3.5917
X5.2713Y-3.1102
X5.2713Y-3.3602
X5.2713Y-3.6102
X5.9102Y-3.1102
X5.9102Y-3.3602
X5.9102Y-3.6102
X6.1671Y-3.1102
X6.1671Y-3.3602
X6.1671Y-3.6102
X6.8061Y-3.1102
X6.8061Y-3.3602
X6.8061Y-3.6102
T3
G00X1.3071Y-1.911
M15
G01X1.2835Y-1.911
M16
G05
G00X1.3071Y-2.2512
M15
G01X1.2835Y-2.2512
M16
G05
G00X1.4815Y-1.911
M15
G01X1.4382Y-1.911
M16
G05
G00X1.4815Y-2.2512
M15
G01X1.4382Y-2.2512
M16
G05
T7
G00X7.1555Y-3.0866
M15
G01X7.1555Y-3.0472
M16
G05
G00X7.1555Y-3.6004
M15
G01X7.1555Y-3.561
M16
G05
G00X7.372Y-3.0866
M15
G01X7.372Y-3.0472
M16
G05
G00X7.372Y-3.6004
M15
G01X7.372Y-3.561
M16
G05
G00X7.4665Y-3.0079
M15
G01X7.4665Y-2.9685
M16
G05
G00X7.4665Y-3.5217
M15
G01X7.4665Y-3.4823
M16
G05
M30
