%TF.GenerationSoftware,KiCad,Pcbnew,9.0.5*%
%TF.CreationDate,2026-01-16T18:46:35+01:00*%
%TF.ProjectId,toern_revE,746f6572-6e5f-4726-9576-452e6b696361,rev?*%
%TF.SameCoordinates,Original*%
%TF.FileFunction,Soldermask,Bot*%
%TF.FilePolarity,Negative*%
%FSLAX46Y46*%
G04 Gerber Fmt 4.6, Leading zero omitted, Abs format (unit mm)*
G04 Created by KiCad (PCBNEW 9.0.5) date 2026-01-16 18:46:35*
%MOMM*%
%LPD*%
G01*
G04 APERTURE LIST*
G04 Aperture macros list*
%AMRoundRect*
0 Rectangle with rounded corners*
0 $1 Rounding radius*
0 $2 $3 $4 $5 $6 $7 $8 $9 X,Y pos of 4 corners*
0 Add a 4 corners polygon primitive as box body*
4,1,4,$2,$3,$4,$5,$6,$7,$8,$9,$2,$3,0*
0 Add four circle primitives for the rounded corners*
1,1,$1+$1,$2,$3*
1,1,$1+$1,$4,$5*
1,1,$1+$1,$6,$7*
1,1,$1+$1,$8,$9*
0 Add four rect primitives between the rounded corners*
20,1,$1+$1,$2,$3,$4,$5,0*
20,1,$1+$1,$4,$5,$6,$7,0*
20,1,$1+$1,$6,$7,$8,$9,0*
20,1,$1+$1,$8,$9,$2,$3,0*%
G04 Aperture macros list end*
%ADD10C,1.700000*%
%ADD11R,1.700000X1.700000*%
%ADD12C,1.200000*%
%ADD13C,0.650000*%
%ADD14O,2.100000X1.000000*%
%ADD15O,1.600000X1.000000*%
%ADD16C,1.500000*%
%ADD17C,1.950000*%
%ADD18C,3.000000*%
%ADD19C,1.524000*%
%ADD20C,1.600000*%
%ADD21R,1.600000X1.600000*%
%ADD22O,1.700000X1.700000*%
%ADD23O,1.200000X1.750000*%
%ADD24RoundRect,0.250000X-0.350000X-0.625000X0.350000X-0.625000X0.350000X0.625000X-0.350000X0.625000X0*%
%ADD25O,1.750000X1.200000*%
%ADD26RoundRect,0.250000X0.625000X-0.350000X0.625000X0.350000X-0.625000X0.350000X-0.625000X-0.350000X0*%
%ADD27RoundRect,0.250000X0.350000X0.625000X-0.350000X0.625000X-0.350000X-0.625000X0.350000X-0.625000X0*%
%ADD28C,1.000000*%
%ADD29RoundRect,0.250000X-0.250000X-0.250000X0.250000X-0.250000X0.250000X0.250000X-0.250000X0.250000X0*%
G04 APERTURE END LIST*
D10*
%TO.C,U14-1*%
X156025000Y-63610000D03*
X156025000Y-61070000D03*
X156025000Y-58530000D03*
X156025000Y-55990000D03*
D11*
X156025000Y-53450000D03*
%TD*%
%TO.C,U13-2*%
X140025000Y-53450000D03*
D10*
X140025000Y-55990000D03*
X140025000Y-58530000D03*
X140025000Y-61070000D03*
X140025000Y-63610000D03*
%TD*%
D11*
%TO.C,U14-2*%
X177025000Y-53450000D03*
D10*
X177025000Y-55990000D03*
X177025000Y-58530000D03*
X177025000Y-61070000D03*
X177025000Y-63610000D03*
%TD*%
D11*
%TO.C,U13-1*%
X119025000Y-53450000D03*
D10*
X119025000Y-55990000D03*
X119025000Y-58530000D03*
X119025000Y-61070000D03*
X119025000Y-63610000D03*
%TD*%
D11*
%TO.C,U12-2*%
X103025000Y-53450000D03*
D10*
X103025000Y-55990000D03*
X103025000Y-58530000D03*
X103025000Y-61070000D03*
X103025000Y-63610000D03*
%TD*%
D11*
%TO.C,U12-1*%
X82025000Y-53450000D03*
D10*
X82025000Y-55990000D03*
X82025000Y-58530000D03*
X82025000Y-61070000D03*
X82025000Y-63610000D03*
%TD*%
D11*
%TO.C,U11-2*%
X66000000Y-53500000D03*
D10*
X66000000Y-56040000D03*
X66000000Y-58580000D03*
X66000000Y-61120000D03*
X66000000Y-63660000D03*
%TD*%
D11*
%TO.C,U11-1*%
X45000000Y-53500000D03*
D10*
X45000000Y-56040000D03*
X45000000Y-58580000D03*
X45000000Y-61120000D03*
X45000000Y-63660000D03*
%TD*%
D12*
%TO.C,J2*%
X188000000Y-90000000D03*
X182000000Y-90000000D03*
%TD*%
%TO.C,J3*%
X187950000Y-77000000D03*
X181950000Y-77000000D03*
%TD*%
D13*
%TO.C,J4*%
X36550000Y-49970000D03*
X36550000Y-55750000D03*
D14*
X37080000Y-48540000D03*
D15*
X32900000Y-48540000D03*
D14*
X37080000Y-57180000D03*
D15*
X32900000Y-57180000D03*
%TD*%
D16*
%TO.C,SW1*%
X184750000Y-47000000D03*
X184750000Y-43000000D03*
X184750000Y-39000000D03*
X182250000Y-39000000D03*
X182250000Y-43000000D03*
X182250000Y-47000000D03*
D17*
X186500000Y-49000000D03*
X180500000Y-49000000D03*
X186500000Y-37000000D03*
X180500000Y-37000000D03*
%TD*%
D18*
%TO.C,J1*%
X48700000Y-75000000D03*
X48700000Y-91230000D03*
X36000000Y-75000000D03*
X36000000Y-91230000D03*
X42350000Y-75000000D03*
X42350000Y-91230000D03*
%TD*%
D19*
%TO.C,U6*%
X116270000Y-36030000D03*
X116270000Y-33030000D03*
D20*
X115560000Y-26910000D03*
X118100000Y-26910000D03*
X120640000Y-26910000D03*
X123180000Y-26910000D03*
X125720000Y-26910000D03*
X128260000Y-26910000D03*
X130800000Y-26910000D03*
X133340000Y-26910000D03*
X135880000Y-26910000D03*
X138420000Y-26910000D03*
X140960000Y-26910000D03*
X143500000Y-26910000D03*
X146040000Y-26910000D03*
X148580000Y-26910000D03*
X151120000Y-26910000D03*
X153660000Y-26910000D03*
X156200000Y-26910000D03*
X158740000Y-26910000D03*
X161280000Y-26910000D03*
X163820000Y-26910000D03*
X166360000Y-26910000D03*
X168900000Y-26910000D03*
X171440000Y-26910000D03*
X173980000Y-26910000D03*
X173980000Y-42150000D03*
X171440000Y-42150000D03*
X168900000Y-42150000D03*
X166360000Y-42150000D03*
X163820000Y-42150000D03*
X161280000Y-42150000D03*
X158740000Y-42150000D03*
X156200000Y-42150000D03*
X153660000Y-42150000D03*
X151120000Y-42150000D03*
X148580000Y-42150000D03*
X146040000Y-42150000D03*
X143500000Y-42150000D03*
X140960000Y-42150000D03*
X138420000Y-42150000D03*
X135880000Y-42150000D03*
X133340000Y-42150000D03*
X130800000Y-42150000D03*
X128260000Y-42150000D03*
X125720000Y-42150000D03*
X123180000Y-42150000D03*
X120640000Y-42150000D03*
X118100000Y-42150000D03*
D21*
X115560000Y-42150000D03*
%TD*%
D22*
%TO.C,U12*%
X177000000Y-63585051D03*
X156000000Y-63585000D03*
X177000000Y-61045051D03*
X156000000Y-61045000D03*
X177000000Y-58505051D03*
X156000000Y-58505000D03*
X177000000Y-55965051D03*
X156000000Y-55965000D03*
D11*
X177000000Y-53425051D03*
X156000000Y-53425000D03*
%TD*%
D23*
%TO.C,J14*%
X69000000Y-30000000D03*
X67000000Y-30000000D03*
X65000000Y-30000000D03*
X63000000Y-30000000D03*
D24*
X61000000Y-30000000D03*
%TD*%
D18*
%TO.C,J6*%
X156645000Y-79000000D03*
X172875000Y-79000000D03*
X156645000Y-91700000D03*
X172875000Y-91700000D03*
X156645000Y-85350000D03*
X172875000Y-85350000D03*
%TD*%
D23*
%TO.C,J13*%
X82500000Y-38000000D03*
X80500000Y-38000000D03*
X78500000Y-38000000D03*
X76500000Y-38000000D03*
D24*
X74500000Y-38000000D03*
%TD*%
D25*
%TO.C,J16*%
X187000000Y-30000000D03*
D26*
X187000000Y-32000000D03*
%TD*%
D18*
%TO.C,J5*%
X48681020Y-27077339D03*
X48681020Y-43307339D03*
X35981020Y-27077339D03*
X35981020Y-43307339D03*
X42331020Y-27077339D03*
X42331020Y-43307339D03*
%TD*%
D22*
%TO.C,U9*%
X140000000Y-63620051D03*
X119000000Y-63620000D03*
X140000000Y-61080051D03*
X119000000Y-61080000D03*
X140000000Y-58540051D03*
X119000000Y-58540000D03*
X140000000Y-56000051D03*
X119000000Y-56000000D03*
D11*
X140000000Y-53460051D03*
X119000000Y-53460000D03*
%TD*%
D18*
%TO.C,J7*%
X133890000Y-79000000D03*
X150120000Y-79000000D03*
X133890000Y-91700000D03*
X150120000Y-91700000D03*
X133890000Y-85350000D03*
X150120000Y-85350000D03*
%TD*%
D23*
%TO.C,J9*%
X78500000Y-31000000D03*
X80500000Y-31000000D03*
D27*
X82500000Y-31000000D03*
%TD*%
D23*
%TO.C,J12*%
X69000000Y-38000000D03*
X67000000Y-38000000D03*
X65000000Y-38000000D03*
X63000000Y-38000000D03*
D24*
X61000000Y-38000000D03*
%TD*%
D22*
%TO.C,U10*%
X103000000Y-63585051D03*
X82000000Y-63585000D03*
X103000000Y-61045051D03*
X82000000Y-61045000D03*
X103000000Y-58505051D03*
X82000000Y-58505000D03*
X103000000Y-55965051D03*
X82000000Y-55965000D03*
D11*
X103000000Y-53425051D03*
X82000000Y-53425000D03*
%TD*%
D23*
%TO.C,J11*%
X71000000Y-90000000D03*
X69000000Y-90000000D03*
X67000000Y-90000000D03*
X65000000Y-90000000D03*
D24*
X63000000Y-90000000D03*
%TD*%
D23*
%TO.C,J11.5*%
X71000000Y-81600000D03*
X69000000Y-81600000D03*
X67000000Y-81600000D03*
X65000000Y-81600000D03*
D24*
X63000000Y-81600000D03*
%TD*%
D25*
%TO.C,J15*%
X185000000Y-54865836D03*
X185000000Y-56865836D03*
X185000000Y-58865836D03*
X185000000Y-60865836D03*
D26*
X185000000Y-62865836D03*
%TD*%
D28*
%TO.C,MK1*%
X108000000Y-88500000D03*
D29*
X106100000Y-88500000D03*
%TD*%
D22*
%TO.C,U11*%
X66000000Y-63585051D03*
X45000000Y-63585000D03*
X66000000Y-61045051D03*
X45000000Y-61045000D03*
X66000000Y-58505051D03*
X45000000Y-58505000D03*
X66000000Y-55965051D03*
X45000000Y-55965000D03*
D11*
X66000000Y-53425051D03*
X45000000Y-53425000D03*
%TD*%
M02*
