%TF.GenerationSoftware,KiCad,Pcbnew,8.0.0*%
%TF.CreationDate,2024-12-30T19:36:06+01:00*%
%TF.ProjectId,teensyAudioMidi,7465656e-7379-4417-9564-696f4d696469,rev?*%
%TF.SameCoordinates,Original*%
%TF.FileFunction,Paste,Top*%
%TF.FilePolarity,Positive*%
%FSLAX46Y46*%
G04 Gerber Fmt 4.6, Leading zero omitted, Abs format (unit mm)*
G04 Created by KiCad (PCBNEW 8.0.0) date 2024-12-30 19:36:06*
%MOMM*%
%LPD*%
G01*
G04 APERTURE LIST*
G04 Aperture macros list*
%AMRoundRect*
0 Rectangle with rounded corners*
0 $1 Rounding radius*
0 $2 $3 $4 $5 $6 $7 $8 $9 X,Y pos of 4 corners*
0 Add a 4 corners polygon primitive as box body*
4,1,4,$2,$3,$4,$5,$6,$7,$8,$9,$2,$3,0*
0 Add four circle primitives for the rounded corners*
1,1,$1+$1,$2,$3*
1,1,$1+$1,$4,$5*
1,1,$1+$1,$6,$7*
1,1,$1+$1,$8,$9*
0 Add four rect primitives between the rounded corners*
20,1,$1+$1,$2,$3,$4,$5,0*
20,1,$1+$1,$4,$5,$6,$7,0*
20,1,$1+$1,$6,$7,$8,$9,0*
20,1,$1+$1,$8,$9,$2,$3,0*%
%AMRotRect*
0 Rectangle, with rotation*
0 The origin of the aperture is its center*
0 $1 length*
0 $2 width*
0 $3 Rotation angle, in degrees counterclockwise*
0 Add horizontal line*
21,1,$1,$2,0,0,$3*%
G04 Aperture macros list end*
%ADD10RoundRect,0.225000X0.225000X0.375000X-0.225000X0.375000X-0.225000X-0.375000X0.225000X-0.375000X0*%
%ADD11RoundRect,0.140000X-0.140000X-0.170000X0.140000X-0.170000X0.140000X0.170000X-0.140000X0.170000X0*%
%ADD12RoundRect,0.200000X-0.275000X0.200000X-0.275000X-0.200000X0.275000X-0.200000X0.275000X0.200000X0*%
%ADD13RoundRect,0.140000X0.170000X-0.140000X0.170000X0.140000X-0.170000X0.140000X-0.170000X-0.140000X0*%
%ADD14RoundRect,0.135000X-0.135000X-0.185000X0.135000X-0.185000X0.135000X0.185000X-0.135000X0.185000X0*%
%ADD15RoundRect,0.225000X0.225000X0.250000X-0.225000X0.250000X-0.225000X-0.250000X0.225000X-0.250000X0*%
%ADD16RoundRect,0.200000X-0.200000X-0.275000X0.200000X-0.275000X0.200000X0.275000X-0.200000X0.275000X0*%
%ADD17R,1.450000X0.600000*%
%ADD18R,1.450000X0.300000*%
%ADD19RoundRect,0.135000X-0.185000X0.135000X-0.185000X-0.135000X0.185000X-0.135000X0.185000X0.135000X0*%
%ADD20RoundRect,0.225000X0.250000X-0.225000X0.250000X0.225000X-0.250000X0.225000X-0.250000X-0.225000X0*%
%ADD21RoundRect,0.140000X0.140000X0.170000X-0.140000X0.170000X-0.140000X-0.170000X0.140000X-0.170000X0*%
%ADD22RoundRect,0.140000X-0.170000X0.140000X-0.170000X-0.140000X0.170000X-0.140000X0.170000X0.140000X0*%
%ADD23RoundRect,0.150000X-0.512500X-0.150000X0.512500X-0.150000X0.512500X0.150000X-0.512500X0.150000X0*%
%ADD24RoundRect,0.225000X-0.225000X-0.250000X0.225000X-0.250000X0.225000X0.250000X-0.225000X0.250000X0*%
%ADD25RoundRect,0.218750X-0.218750X-0.256250X0.218750X-0.256250X0.218750X0.256250X-0.218750X0.256250X0*%
%ADD26RoundRect,0.150000X-0.150000X0.512500X-0.150000X-0.512500X0.150000X-0.512500X0.150000X0.512500X0*%
%ADD27RoundRect,0.200000X0.200000X0.275000X-0.200000X0.275000X-0.200000X-0.275000X0.200000X-0.275000X0*%
%ADD28RoundRect,0.225000X-0.250000X0.225000X-0.250000X-0.225000X0.250000X-0.225000X0.250000X0.225000X0*%
%ADD29RoundRect,0.135000X0.135000X0.185000X-0.135000X0.185000X-0.135000X-0.185000X0.135000X-0.185000X0*%
%ADD30RoundRect,0.150000X0.587500X0.150000X-0.587500X0.150000X-0.587500X-0.150000X0.587500X-0.150000X0*%
%ADD31RoundRect,0.125000X-0.125000X0.125000X-0.125000X-0.125000X0.125000X-0.125000X0.125000X0.125000X0*%
%ADD32RoundRect,0.242500X0.242500X-0.242500X0.242500X0.242500X-0.242500X0.242500X-0.242500X-0.242500X0*%
%ADD33RoundRect,0.062500X0.062500X-0.337500X0.062500X0.337500X-0.062500X0.337500X-0.062500X-0.337500X0*%
%ADD34RoundRect,0.062500X0.337500X-0.062500X0.337500X0.062500X-0.337500X0.062500X-0.337500X-0.062500X0*%
%ADD35R,0.700000X1.400000*%
%ADD36R,0.700000X1.200000*%
%ADD37R,1.200000X0.800000*%
%ADD38R,1.500000X1.900000*%
%ADD39RotRect,0.200000X0.200000X45.000000*%
%ADD40R,0.500000X0.500000*%
%ADD41R,1.000000X1.400000*%
%ADD42R,1.200000X1.200000*%
%ADD43R,1.200000X3.200000*%
%ADD44RoundRect,0.200000X0.275000X-0.200000X0.275000X0.200000X-0.275000X0.200000X-0.275000X-0.200000X0*%
%ADD45R,1.208024X0.466344*%
%ADD46R,1.500000X3.000000*%
G04 APERTURE END LIST*
D10*
X180500000Y-33000000D03*
X183800000Y-33000000D03*
D11*
X102500000Y-48500000D03*
X103460000Y-48500000D03*
D12*
X111000000Y-84000000D03*
X111000000Y-85650000D03*
D13*
X95565000Y-37552500D03*
X95565000Y-36592500D03*
D14*
X101480000Y-43540000D03*
X102500000Y-43540000D03*
D15*
X59275000Y-43500000D03*
X57725000Y-43500000D03*
D16*
X186675000Y-70500000D03*
X188325000Y-70500000D03*
D15*
X116830000Y-47850000D03*
X115280000Y-47850000D03*
D17*
X37995000Y-49610000D03*
X37995000Y-50410000D03*
D18*
X37995000Y-51610000D03*
X37995000Y-52610000D03*
X37995000Y-53110000D03*
X37995000Y-54110000D03*
D17*
X37995000Y-55310000D03*
X37995000Y-56110000D03*
X37995000Y-56110000D03*
X37995000Y-55310000D03*
D18*
X37995000Y-54610000D03*
X37995000Y-53610000D03*
X37995000Y-52110000D03*
X37995000Y-51110000D03*
D17*
X37995000Y-50410000D03*
X37995000Y-49610000D03*
D19*
X103920000Y-39000000D03*
X103920000Y-40020000D03*
D20*
X177030000Y-30110000D03*
X177030000Y-28560000D03*
D14*
X101480000Y-44680000D03*
X102500000Y-44680000D03*
D21*
X122180000Y-77020000D03*
X121220000Y-77020000D03*
D22*
X101617500Y-50870000D03*
X101617500Y-49910000D03*
D23*
X137632500Y-47740000D03*
X137632500Y-48690000D03*
X137632500Y-49640000D03*
X139907500Y-49640000D03*
X139907500Y-48690000D03*
X139907500Y-47740000D03*
D11*
X110020000Y-40000000D03*
X110980000Y-40000000D03*
D23*
X97620920Y-49585520D03*
X97620920Y-50535520D03*
X97620920Y-51485520D03*
X99895920Y-51485520D03*
X99895920Y-49585520D03*
D15*
X116845000Y-46310000D03*
X115295000Y-46310000D03*
D24*
X121225000Y-75500000D03*
X122775000Y-75500000D03*
D19*
X106140000Y-39000000D03*
X106140000Y-40020000D03*
X107230000Y-39000000D03*
X107230000Y-40020000D03*
D22*
X111900000Y-47320000D03*
X111900000Y-48280000D03*
D23*
X179255000Y-28205000D03*
X179255000Y-29155000D03*
X179255000Y-30105000D03*
X181530000Y-30105000D03*
X181530000Y-28205000D03*
D11*
X156210000Y-45760000D03*
X157170000Y-45760000D03*
D25*
X182742500Y-26460000D03*
X184317500Y-26460000D03*
D14*
X40500000Y-60500000D03*
X41520000Y-60500000D03*
D26*
X98880000Y-35285000D03*
X97930000Y-35285000D03*
X96980000Y-35285000D03*
X96980000Y-37560000D03*
X98880000Y-37560000D03*
D27*
X185650000Y-83500000D03*
X184000000Y-83500000D03*
D14*
X40500000Y-62000000D03*
X41520000Y-62000000D03*
D15*
X116840000Y-44790000D03*
X115290000Y-44790000D03*
D28*
X95450000Y-47600000D03*
X95450000Y-46050000D03*
D15*
X59275000Y-45500000D03*
X57725000Y-45500000D03*
D29*
X119240000Y-77500000D03*
X118220000Y-77500000D03*
D22*
X141567500Y-49650000D03*
X141567500Y-48690000D03*
D30*
X176500000Y-33055000D03*
X178375000Y-32105000D03*
X178375000Y-34005000D03*
D19*
X102870000Y-39000000D03*
X102870000Y-40020000D03*
D23*
X99907500Y-46000000D03*
X99907500Y-47900000D03*
X97632500Y-47900000D03*
X97632500Y-46950000D03*
X97632500Y-46000000D03*
D19*
X105050000Y-39000000D03*
X105050000Y-40020000D03*
D31*
X148276528Y-47347164D03*
X148276528Y-49547164D03*
D14*
X177710000Y-35920000D03*
X176690000Y-35920000D03*
D27*
X180965000Y-26460000D03*
X179315000Y-26460000D03*
D15*
X98880000Y-33022500D03*
X97330000Y-33022500D03*
D28*
X95443778Y-49508225D03*
X95443778Y-51058225D03*
D32*
X106960000Y-46150000D03*
X108160000Y-46150000D03*
X109360000Y-46150000D03*
X106960000Y-44950000D03*
X108160000Y-44950000D03*
X109360000Y-44950000D03*
X106960000Y-43750000D03*
X108160000Y-43750000D03*
X109360000Y-43750000D03*
D33*
X106410000Y-47400000D03*
X106910000Y-47400000D03*
X107410000Y-47400000D03*
X107910000Y-47400000D03*
X108410000Y-47400000D03*
X108910000Y-47400000D03*
X109410000Y-47400000D03*
X109910000Y-47400000D03*
D34*
X110610000Y-46700000D03*
X110610000Y-46200000D03*
X110610000Y-45700000D03*
X110610000Y-45200000D03*
X110610000Y-44700000D03*
X110610000Y-44200000D03*
X110610000Y-43700000D03*
X110610000Y-43200000D03*
D33*
X109910000Y-42500000D03*
X109410000Y-42500000D03*
X108910000Y-42500000D03*
X108410000Y-42500000D03*
X107910000Y-42500000D03*
X107410000Y-42500000D03*
X106910000Y-42500000D03*
X106410000Y-42500000D03*
D34*
X105710000Y-43200000D03*
X105710000Y-43700000D03*
X105710000Y-44200000D03*
X105710000Y-44700000D03*
X105710000Y-45200000D03*
X105710000Y-45700000D03*
X105710000Y-46200000D03*
X105710000Y-46700000D03*
D35*
X118125000Y-79300000D03*
X119225000Y-79300000D03*
X120325000Y-79300000D03*
X121425000Y-79300000D03*
X122525000Y-79300000D03*
X123625000Y-79300000D03*
X124725000Y-79300000D03*
X125825000Y-79300000D03*
D36*
X126775000Y-79200000D03*
D37*
X127625000Y-89700000D03*
D38*
X114325000Y-94300000D03*
D39*
X115075000Y-94750000D03*
D40*
X115325000Y-95000000D03*
D41*
X116225000Y-79300000D03*
D42*
X127625000Y-83500000D03*
D43*
X127625000Y-93300000D03*
D11*
X110020000Y-41000000D03*
X110980000Y-41000000D03*
D44*
X183770000Y-29900000D03*
X183770000Y-28250000D03*
D11*
X108400000Y-50520000D03*
X109360000Y-50520000D03*
D22*
X103500000Y-47460000D03*
X103500000Y-46500000D03*
D21*
X98895000Y-39232500D03*
X97935000Y-39232500D03*
D11*
X107040000Y-53000000D03*
X108000000Y-53000000D03*
D12*
X146340000Y-47635000D03*
X146340000Y-49285000D03*
D11*
X108440000Y-51680000D03*
X109400000Y-51680000D03*
D45*
X150276600Y-47320000D03*
X150276600Y-49860000D03*
X157160000Y-49860000D03*
X157160000Y-48590000D03*
X157160000Y-47320000D03*
D46*
X179850000Y-80500000D03*
X189350000Y-80500000D03*
X185750000Y-80500000D03*
X181450000Y-73500000D03*
X188350000Y-73500000D03*
X179900000Y-93500000D03*
X189400000Y-93500000D03*
X185800000Y-93500000D03*
X181500000Y-86500000D03*
X188400000Y-86500000D03*
M02*
