%TF.GenerationSoftware,KiCad,Pcbnew,9.0.1*%
%TF.CreationDate,2026-02-21T23:53:56+05:00*%
%TF.ProjectId,toern_revF,746f6572-6e5f-4726-9576-462e6b696361,rev?*%
%TF.SameCoordinates,Original*%
%TF.FileFunction,Paste,Top*%
%TF.FilePolarity,Positive*%
%FSLAX46Y46*%
G04 Gerber Fmt 4.6, Leading zero omitted, Abs format (unit mm)*
G04 Created by KiCad (PCBNEW 9.0.1) date 2026-02-21 23:53:56*
%MOMM*%
%LPD*%
G01*
G04 APERTURE LIST*
G04 Aperture macros list*
%AMRoundRect*
0 Rectangle with rounded corners*
0 $1 Rounding radius*
0 $2 $3 $4 $5 $6 $7 $8 $9 X,Y pos of 4 corners*
0 Add a 4 corners polygon primitive as box body*
4,1,4,$2,$3,$4,$5,$6,$7,$8,$9,$2,$3,0*
0 Add four circle primitives for the rounded corners*
1,1,$1+$1,$2,$3*
1,1,$1+$1,$4,$5*
1,1,$1+$1,$6,$7*
1,1,$1+$1,$8,$9*
0 Add four rect primitives between the rounded corners*
20,1,$1+$1,$2,$3,$4,$5,0*
20,1,$1+$1,$4,$5,$6,$7,0*
20,1,$1+$1,$6,$7,$8,$9,0*
20,1,$1+$1,$8,$9,$2,$3,0*%
%AMRotRect*
0 Rectangle, with rotation*
0 The origin of the aperture is its center*
0 $1 length*
0 $2 width*
0 $3 Rotation angle, in degrees counterclockwise*
0 Add horizontal line*
21,1,$1,$2,0,0,$3*%
G04 Aperture macros list end*
%ADD10R,1.300000X1.000000*%
%ADD11R,0.310000X0.650000*%
%ADD12R,0.310000X0.500000*%
%ADD13R,0.800000X0.300000*%
%ADD14R,0.300000X0.800000*%
%ADD15R,1.800000X1.800000*%
%ADD16RoundRect,0.135000X-0.185000X0.135000X-0.185000X-0.135000X0.185000X-0.135000X0.185000X0.135000X0*%
%ADD17RoundRect,0.225000X0.225000X0.375000X-0.225000X0.375000X-0.225000X-0.375000X0.225000X-0.375000X0*%
%ADD18RoundRect,0.140000X-0.140000X-0.170000X0.140000X-0.170000X0.140000X0.170000X-0.140000X0.170000X0*%
%ADD19RoundRect,0.200000X-0.275000X0.200000X-0.275000X-0.200000X0.275000X-0.200000X0.275000X0.200000X0*%
%ADD20RoundRect,0.225000X-0.250000X0.225000X-0.250000X-0.225000X0.250000X-0.225000X0.250000X0.225000X0*%
%ADD21RoundRect,0.140000X0.170000X-0.140000X0.170000X0.140000X-0.170000X0.140000X-0.170000X-0.140000X0*%
%ADD22RoundRect,0.135000X-0.135000X-0.185000X0.135000X-0.185000X0.135000X0.185000X-0.135000X0.185000X0*%
%ADD23RoundRect,0.225000X0.225000X0.250000X-0.225000X0.250000X-0.225000X-0.250000X0.225000X-0.250000X0*%
%ADD24R,1.450000X0.600000*%
%ADD25R,1.450000X0.300000*%
%ADD26RoundRect,0.140000X0.140000X0.170000X-0.140000X0.170000X-0.140000X-0.170000X0.140000X-0.170000X0*%
%ADD27RoundRect,0.140000X-0.170000X0.140000X-0.170000X-0.140000X0.170000X-0.140000X0.170000X0.140000X0*%
%ADD28RoundRect,0.150000X-0.512500X-0.150000X0.512500X-0.150000X0.512500X0.150000X-0.512500X0.150000X0*%
%ADD29RoundRect,0.225000X-0.225000X-0.250000X0.225000X-0.250000X0.225000X0.250000X-0.225000X0.250000X0*%
%ADD30RoundRect,0.079500X-0.100500X0.079500X-0.100500X-0.079500X0.100500X-0.079500X0.100500X0.079500X0*%
%ADD31RoundRect,0.147500X0.147500X0.172500X-0.147500X0.172500X-0.147500X-0.172500X0.147500X-0.172500X0*%
%ADD32R,1.208024X0.466344*%
%ADD33RoundRect,0.250000X0.262500X0.450000X-0.262500X0.450000X-0.262500X-0.450000X0.262500X-0.450000X0*%
%ADD34RoundRect,0.150000X-0.150000X0.512500X-0.150000X-0.512500X0.150000X-0.512500X0.150000X0.512500X0*%
%ADD35RoundRect,0.200000X-0.200000X-0.275000X0.200000X-0.275000X0.200000X0.275000X-0.200000X0.275000X0*%
%ADD36RoundRect,0.250000X-1.000000X1.950000X-1.000000X-1.950000X1.000000X-1.950000X1.000000X1.950000X0*%
%ADD37RoundRect,0.135000X0.135000X0.185000X-0.135000X0.185000X-0.135000X-0.185000X0.135000X-0.185000X0*%
%ADD38RoundRect,0.150000X0.150000X-0.825000X0.150000X0.825000X-0.150000X0.825000X-0.150000X-0.825000X0*%
%ADD39RoundRect,0.125000X-0.125000X0.125000X-0.125000X-0.125000X0.125000X-0.125000X0.125000X0.125000X0*%
%ADD40RoundRect,0.242500X0.242500X-0.242500X0.242500X0.242500X-0.242500X0.242500X-0.242500X-0.242500X0*%
%ADD41RoundRect,0.062500X0.062500X-0.337500X0.062500X0.337500X-0.062500X0.337500X-0.062500X-0.337500X0*%
%ADD42RoundRect,0.062500X0.337500X-0.062500X0.337500X0.062500X-0.337500X0.062500X-0.337500X-0.062500X0*%
%ADD43R,0.700000X1.400000*%
%ADD44R,0.700000X1.200000*%
%ADD45R,1.200000X0.800000*%
%ADD46R,1.500000X1.900000*%
%ADD47RotRect,0.200000X0.200000X45.000000*%
%ADD48R,0.500000X0.500000*%
%ADD49R,1.000000X1.400000*%
%ADD50R,1.200000X1.200000*%
%ADD51R,1.200000X3.200000*%
%ADD52RoundRect,0.135000X0.185000X-0.135000X0.185000X0.135000X-0.185000X0.135000X-0.185000X-0.135000X0*%
G04 APERTURE END LIST*
D10*
X177575000Y-36525000D03*
D11*
X177575000Y-35700000D03*
D12*
X178075000Y-37425000D03*
X177075000Y-37425000D03*
D13*
X182425000Y-30975000D03*
X182425000Y-30475000D03*
X182425000Y-29975000D03*
X182425000Y-29475000D03*
D14*
X181675000Y-28725000D03*
X181175000Y-28725000D03*
X180675000Y-28725000D03*
X180175000Y-28725000D03*
D13*
X179425000Y-29475000D03*
X179425000Y-29975000D03*
X179425000Y-30475000D03*
X179425000Y-30975000D03*
D14*
X180175000Y-31725000D03*
X180675000Y-31725000D03*
X181175000Y-31725000D03*
X181675000Y-31725000D03*
D15*
X180925000Y-30225000D03*
D16*
X175775000Y-36415000D03*
X175775000Y-37435000D03*
D17*
X180050000Y-39625000D03*
X176750000Y-39625000D03*
D16*
X151000000Y-30902500D03*
X151000000Y-31922500D03*
D18*
X102500000Y-48500000D03*
X103460000Y-48500000D03*
D19*
X115500000Y-66000000D03*
X115500000Y-67650000D03*
D20*
X184875000Y-30200000D03*
X184875000Y-31750000D03*
D21*
X95565000Y-37552500D03*
X95565000Y-36592500D03*
D22*
X101480000Y-43540000D03*
X102500000Y-43540000D03*
D23*
X59275000Y-43500000D03*
X57725000Y-43500000D03*
D19*
X178000000Y-68000000D03*
X178000000Y-69650000D03*
D23*
X116830000Y-47850000D03*
X115280000Y-47850000D03*
D24*
X37995000Y-49610000D03*
X37995000Y-50410000D03*
D25*
X37995000Y-51610000D03*
X37995000Y-52610000D03*
X37995000Y-53110000D03*
X37995000Y-54110000D03*
D24*
X37995000Y-55310000D03*
X37995000Y-56110000D03*
X37995000Y-56110000D03*
X37995000Y-55310000D03*
D25*
X37995000Y-54610000D03*
X37995000Y-53610000D03*
X37995000Y-52110000D03*
X37995000Y-51110000D03*
D24*
X37995000Y-50410000D03*
X37995000Y-49610000D03*
D16*
X103920000Y-39000000D03*
X103920000Y-40020000D03*
D22*
X101480000Y-44680000D03*
X102500000Y-44680000D03*
D26*
X122180000Y-77020000D03*
X121220000Y-77020000D03*
D27*
X101617500Y-49910000D03*
X101617500Y-50870000D03*
D28*
X137632500Y-47740000D03*
X137632500Y-48690000D03*
X137632500Y-49640000D03*
X139907500Y-49640000D03*
X139907500Y-48690000D03*
X139907500Y-47740000D03*
D16*
X183600000Y-32390000D03*
X183600000Y-33410000D03*
D18*
X110020000Y-40000000D03*
X110980000Y-40000000D03*
D28*
X97620920Y-49585520D03*
X97620920Y-50535520D03*
X97620920Y-51485520D03*
X99895920Y-51485520D03*
X99895920Y-49585520D03*
D23*
X116845000Y-46310000D03*
X115295000Y-46310000D03*
D27*
X178275000Y-30125000D03*
X178275000Y-31085000D03*
D16*
X183575000Y-30390000D03*
X183575000Y-31410000D03*
D29*
X121225000Y-75500000D03*
X122775000Y-75500000D03*
D30*
X74500000Y-28695000D03*
X74500000Y-29385000D03*
D31*
X179360000Y-27550000D03*
X178390000Y-27550000D03*
D16*
X106140000Y-39000000D03*
X106140000Y-40020000D03*
D32*
X150276600Y-47320000D03*
X150276600Y-49860000D03*
X157160000Y-49860000D03*
X157160000Y-48590000D03*
X157160000Y-47320000D03*
D16*
X107230000Y-39000000D03*
X107230000Y-40020000D03*
D27*
X111900000Y-47320000D03*
X111900000Y-48280000D03*
D18*
X156210000Y-45760000D03*
X157170000Y-45760000D03*
D22*
X181590000Y-32950000D03*
X182610000Y-32950000D03*
X40500000Y-60500000D03*
X41520000Y-60500000D03*
D33*
X58912500Y-74000000D03*
X57087500Y-74000000D03*
D34*
X98880000Y-35285000D03*
X97930000Y-35285000D03*
X96980000Y-35285000D03*
X96980000Y-37560000D03*
X98880000Y-37560000D03*
D35*
X180675000Y-68000000D03*
X182325000Y-68000000D03*
D22*
X40500000Y-62000000D03*
X41520000Y-62000000D03*
D36*
X90000000Y-31300000D03*
X90000000Y-38700000D03*
D23*
X116840000Y-44790000D03*
X115290000Y-44790000D03*
D29*
X60725000Y-70000000D03*
X62275000Y-70000000D03*
D20*
X95450000Y-46050000D03*
X95450000Y-47600000D03*
D23*
X62275000Y-68000000D03*
X60725000Y-68000000D03*
X59275000Y-45500000D03*
X57725000Y-45500000D03*
D37*
X119240000Y-77500000D03*
X118220000Y-77500000D03*
D31*
X179360000Y-26425000D03*
X178390000Y-26425000D03*
D37*
X177385000Y-27550000D03*
X176365000Y-27550000D03*
D27*
X141567500Y-48690000D03*
X141567500Y-49650000D03*
D38*
X50110000Y-70950000D03*
X51380000Y-70950000D03*
X52650000Y-70950000D03*
X53920000Y-70950000D03*
X55190000Y-70950000D03*
X56460000Y-70950000D03*
X57730000Y-70950000D03*
X59000000Y-70950000D03*
X59000000Y-66000000D03*
X57730000Y-66000000D03*
X56460000Y-66000000D03*
X55190000Y-66000000D03*
X53920000Y-66000000D03*
X52650000Y-66000000D03*
X51380000Y-66000000D03*
X50110000Y-66000000D03*
D16*
X102870000Y-39000000D03*
X102870000Y-40020000D03*
D28*
X97632500Y-46000000D03*
X97632500Y-46950000D03*
X97632500Y-47900000D03*
X99907500Y-47900000D03*
X99907500Y-46000000D03*
D16*
X105050000Y-39000000D03*
X105050000Y-40020000D03*
D39*
X148276528Y-47347164D03*
X148276528Y-49547164D03*
D23*
X65775000Y-70000000D03*
X64225000Y-70000000D03*
D16*
X178950000Y-32990000D03*
X178950000Y-34010000D03*
D29*
X57225000Y-76000000D03*
X58775000Y-76000000D03*
D23*
X98880000Y-33022500D03*
X97330000Y-33022500D03*
D20*
X95443778Y-49508225D03*
X95443778Y-51058225D03*
D40*
X106960000Y-46150000D03*
X108160000Y-46150000D03*
X109360000Y-46150000D03*
X106960000Y-44950000D03*
X108160000Y-44950000D03*
X109360000Y-44950000D03*
X106960000Y-43750000D03*
X108160000Y-43750000D03*
X109360000Y-43750000D03*
D41*
X106410000Y-47400000D03*
X106910000Y-47400000D03*
X107410000Y-47400000D03*
X107910000Y-47400000D03*
X108410000Y-47400000D03*
X108910000Y-47400000D03*
X109410000Y-47400000D03*
X109910000Y-47400000D03*
D42*
X110610000Y-46700000D03*
X110610000Y-46200000D03*
X110610000Y-45700000D03*
X110610000Y-45200000D03*
X110610000Y-44700000D03*
X110610000Y-44200000D03*
X110610000Y-43700000D03*
X110610000Y-43200000D03*
D41*
X109910000Y-42500000D03*
X109410000Y-42500000D03*
X108910000Y-42500000D03*
X108410000Y-42500000D03*
X107910000Y-42500000D03*
X107410000Y-42500000D03*
X106910000Y-42500000D03*
X106410000Y-42500000D03*
D42*
X105710000Y-43200000D03*
X105710000Y-43700000D03*
X105710000Y-44200000D03*
X105710000Y-44700000D03*
X105710000Y-45200000D03*
X105710000Y-45700000D03*
X105710000Y-46200000D03*
X105710000Y-46700000D03*
D43*
X118125000Y-79300000D03*
X119225000Y-79300000D03*
X120325000Y-79300000D03*
X121425000Y-79300000D03*
X122525000Y-79300000D03*
X123625000Y-79300000D03*
X124725000Y-79300000D03*
X125825000Y-79300000D03*
D44*
X126775000Y-79200000D03*
D45*
X127625000Y-89700000D03*
D46*
X114325000Y-94300000D03*
D47*
X115075000Y-94750000D03*
D48*
X115325000Y-95000000D03*
D49*
X116225000Y-79300000D03*
D50*
X127625000Y-83500000D03*
D51*
X127625000Y-93300000D03*
D18*
X110020000Y-41000000D03*
X110980000Y-41000000D03*
D33*
X62412500Y-66000000D03*
X60587500Y-66000000D03*
D18*
X108400000Y-50520000D03*
X109360000Y-50520000D03*
D29*
X64225000Y-68000000D03*
X65775000Y-68000000D03*
D20*
X177000000Y-30100000D03*
X177000000Y-31650000D03*
D37*
X177385000Y-26400000D03*
X176365000Y-26400000D03*
D27*
X103500000Y-46500000D03*
X103500000Y-47460000D03*
D20*
X180200000Y-33400000D03*
X180200000Y-34950000D03*
D26*
X98895000Y-39232500D03*
X97935000Y-39232500D03*
D52*
X148500000Y-31922500D03*
X148500000Y-30902500D03*
D18*
X107040000Y-53000000D03*
X108000000Y-53000000D03*
D35*
X137675000Y-29000000D03*
X139325000Y-29000000D03*
D19*
X146340000Y-47635000D03*
X146340000Y-49285000D03*
D18*
X108440000Y-51680000D03*
X109400000Y-51680000D03*
M02*
