M48
; DRILL file {KiCad 9.0.1} date 2026-02-21T23:53:51+0500
; FORMAT={-:-/ absolute / metric / decimal}
; #@! TF.CreationDate,2026-02-21T23:53:51+05:00
; #@! TF.GenerationSoftware,Kicad,Pcbnew,9.0.1
; #@! TF.FileFunction,MixedPlating,1,4
FMAT,2
METRIC
; #@! TA.AperFunction,Plated,PTH,ViaDrill
T1C0.300
; #@! TA.AperFunction,Plated,PTH,ViaDrill
T2C0.400
; #@! TA.AperFunction,Plated,PTH,ComponentDrill
T3C0.520
; #@! TA.AperFunction,Plated,PTH,ComponentDrill
T4C0.600
; #@! TA.AperFunction,Plated,PTH,ComponentDrill
T5C0.650
; #@! TA.AperFunction,Plated,PTH,ComponentDrill
T6C0.750
; #@! TA.AperFunction,Plated,PTH,ComponentDrill
T7C1.000
; #@! TA.AperFunction,Plated,PTH,ComponentDrill
T8C1.100
; #@! TA.AperFunction,Plated,PTH,ComponentDrill
T9C1.300
; #@! TA.AperFunction,Plated,PTH,ComponentDrill
T10C1.400
; #@! TA.AperFunction,Plated,PTH,ComponentDrill
T11C2.000
; #@! TA.AperFunction,NonPlated,NPTH,ComponentDrill
T12C0.650
%
G90
G05
T1
X36.51Y-53.13
X36.571Y-53.827
X40.77Y-51.97
X40.77Y-52.93
X40.77Y-53.92
X40.77Y-54.94
X42.5Y-60.0
X42.5Y-61.5
X50.0Y-68.0
X51.0Y-53.0
X51.0Y-62.5
X51.5Y-69.0
X53.0Y-73.0
X56.5Y-68.5
X58.0Y-35.5
X61.05Y-72.5
X63.5Y-69.0
X65.0Y-32.975
X67.0Y-69.0
X72.5Y-50.0
X73.0Y-85.6
X75.0Y-66.0
X76.0Y-29.99
X76.0Y-47.5
X80.5Y-46.5
X82.5Y-49.0
X84.5Y-53.0
X85.497Y-54.375
X85.5Y-41.14
X86.361Y-52.361
X86.5Y-51.0
X88.0Y-54.0
X90.0Y-35.5
X90.0Y-45.0
X90.5Y-77.5
X95.57Y-35.68
X96.392Y-51.44
X96.532Y-46.94
X96.94Y-39.24
X97.94Y-34.05
X99.93Y-39.22
X101.0Y-53.5
X101.45Y-34.05
X103.45Y-43.5
X104.0Y-44.78
X104.0Y-92.5
X104.5Y-48.0
X104.847Y-47.05
X105.319Y-52.031
X105.5Y-28.5
X105.5Y-34.05
X105.5Y-47.5
X106.24Y-50.53
X107.0Y-29.55
X107.0Y-34.5
X107.42Y-49.19
X107.48Y-50.545
X107.5Y-71.0
X108.39Y-39.24
X109.0Y-53.0
X109.401Y-49.401
X110.17Y-50.55
X110.18Y-51.69
X110.38Y-38.11
X110.5Y-48.5
X111.6Y-35.91
X111.92Y-49.02
X112.5Y-40.0
X113.0Y-43.0
X113.5Y-36.0
X114.17Y-49.17
X114.79Y-34.305
X120.5Y-37.0
X121.422Y-32.578
X121.5Y-53.5
X122.0Y-73.0
X122.92Y-77.0
X123.573Y-33.073
X123.78Y-75.52
X124.05Y-50.5
X124.5Y-77.076
X125.0Y-28.95
X126.0Y-46.5
X126.775Y-77.95
X127.5Y-31.5
X127.5Y-49.45
X128.5Y-73.0
X130.0Y-50.0
X130.5Y-30.0
X130.5Y-39.01
X130.5Y-59.5
X130.5Y-89.0
X131.5Y-51.0
X131.5Y-73.0
X132.5Y-39.0
X133.0Y-30.0
X133.5Y-48.0
X134.99Y-44.98
X135.0Y-49.0
X135.5Y-30.0
X135.5Y-32.5
X136.65Y-48.69
X138.67Y-39.61
X139.8Y-39.68
X141.25Y-39.5
X141.59Y-50.44
X142.5Y-52.0
X144.0Y-52.0
X149.5Y-66.0
X150.0Y-29.0
X150.08Y-44.72
X151.5Y-66.0
X153.305Y-30.195
X154.76Y-38.68
X156.24Y-46.49
X156.37Y-32.0
X158.7Y-49.85
X159.0Y-45.76
X159.0Y-54.0
X159.5Y-70.5
X161.0Y-66.25
X165.26Y-29.24
X166.0Y-54.5
X168.06Y-32.09
X171.5Y-46.9
X174.25Y-30.125
X174.25Y-31.175
X174.275Y-28.9
X175.075Y-36.375
X175.3Y-40.975
X175.725Y-38.475
X176.0Y-89.0
X176.275Y-28.7
X177.55Y-34.325
X178.175Y-31.925
X180.125Y-27.85
X180.2Y-36.075
X180.45Y-29.725
X180.45Y-30.7
X181.225Y-27.875
X181.45Y-30.725
X181.475Y-29.775
X182.0Y-53.0
X182.0Y-54.5
X182.0Y-56.5
X182.375Y-28.7
X182.5Y-46.0
X182.5Y-47.0
X183.0Y-71.5
X183.3Y-29.5
X184.0Y-47.0
X184.5Y-44.5
X184.5Y-45.5
X185.5Y-44.5
X185.5Y-45.5
X186.0Y-48.5
X186.0Y-49.5
X186.5Y-44.5
X186.5Y-45.5
X187.0Y-40.5
X187.0Y-41.5
X187.0Y-48.5
X187.0Y-49.5
X187.5Y-44.5
X187.5Y-45.5
X188.0Y-40.5
X188.0Y-41.5
X188.0Y-48.5
X188.0Y-49.5
X188.5Y-44.5
X188.5Y-45.5
X188.5Y-67.0
X189.5Y-40.5
X189.5Y-41.5
X189.5Y-42.5
X189.5Y-43.5
X189.5Y-44.5
X189.5Y-45.5
X189.5Y-46.5
T2
X148.5Y-34.325
X177.35Y-33.125
X177.925Y-41.6
X182.025Y-35.9
X182.15Y-38.45
X183.625Y-34.275
T3
X116.27Y-33.03
X116.27Y-36.03
T5
X112.0Y-66.5
X112.0Y-68.4
T6
X35.0Y-68.0
X35.0Y-70.0
X61.0Y-30.0
X61.0Y-38.0
X63.0Y-30.0
X63.0Y-38.0
X63.0Y-81.6
X63.0Y-90.0
X65.0Y-30.0
X65.0Y-38.0
X65.0Y-81.6
X65.0Y-90.0
X67.0Y-30.0
X67.0Y-38.0
X67.0Y-81.6
X67.0Y-90.0
X69.0Y-30.0
X69.0Y-38.0
X69.0Y-81.6
X69.0Y-90.0
X71.0Y-81.6
X71.0Y-90.0
X74.5Y-38.0
X76.5Y-38.0
X78.5Y-31.0
X78.5Y-38.0
X80.5Y-31.0
X80.5Y-38.0
X82.5Y-31.0
X82.5Y-38.0
X185.0Y-54.866
X185.0Y-56.866
X185.0Y-58.866
X185.0Y-60.866
X185.0Y-62.866
X187.875Y-29.975
X187.875Y-31.975
T7
X45.0Y-53.425
X45.0Y-55.965
X45.0Y-58.505
X45.0Y-61.045
X45.0Y-63.585
X66.0Y-53.425
X66.0Y-55.965
X66.0Y-58.505
X66.0Y-61.045
X66.0Y-63.585
X82.0Y-53.425
X82.0Y-55.965
X82.0Y-58.505
X82.0Y-61.045
X82.0Y-63.585
X103.0Y-53.425
X103.0Y-55.965
X103.0Y-58.505
X103.0Y-61.045
X103.0Y-63.585
X119.0Y-53.46
X119.0Y-56.0
X119.0Y-58.54
X119.0Y-61.08
X119.0Y-63.62
X140.0Y-53.46
X140.0Y-56.0
X140.0Y-58.54
X140.0Y-61.08
X140.0Y-63.62
X156.0Y-53.425
X156.0Y-55.965
X156.0Y-58.505
X156.0Y-61.045
X156.0Y-63.585
X177.0Y-53.425
X177.0Y-55.965
X177.0Y-58.505
X177.0Y-61.045
X177.0Y-63.585
X185.5Y-39.15
X185.5Y-43.15
X185.5Y-47.15
X188.0Y-39.15
X188.0Y-43.15
X188.0Y-47.15
T8
X115.56Y-26.91
X115.56Y-42.15
X118.1Y-26.91
X118.1Y-42.15
X120.64Y-26.91
X120.64Y-42.15
X123.18Y-26.91
X123.18Y-42.15
X125.72Y-26.91
X125.72Y-42.15
X128.26Y-26.91
X128.26Y-42.15
X130.8Y-26.91
X130.8Y-42.15
X133.34Y-26.91
X133.34Y-42.15
X135.88Y-26.91
X135.88Y-42.15
X138.42Y-26.91
X138.42Y-42.15
X140.96Y-26.91
X140.96Y-42.15
X143.5Y-26.91
X143.5Y-42.15
X146.04Y-26.91
X146.04Y-42.15
X148.58Y-26.91
X148.58Y-42.15
X151.12Y-26.91
X151.12Y-42.15
X153.66Y-26.91
X153.66Y-42.15
X156.2Y-26.91
X156.2Y-42.15
X158.74Y-26.91
X158.74Y-42.15
X161.28Y-26.91
X161.28Y-42.15
X163.82Y-26.91
X163.82Y-42.15
X166.36Y-26.91
X166.36Y-42.15
X168.9Y-26.91
X168.9Y-42.15
X171.44Y-26.91
X171.44Y-42.15
X173.98Y-26.91
X173.98Y-42.15
T9
X183.75Y-37.15
X183.75Y-49.15
X189.75Y-37.15
X189.75Y-49.15
T10
X35.981Y-27.077
X35.981Y-43.307
X36.0Y-75.0
X36.0Y-91.23
X42.331Y-27.077
X42.331Y-43.307
X42.35Y-75.0
X42.35Y-91.23
X48.681Y-27.077
X48.681Y-43.307
X48.7Y-75.0
X48.7Y-91.23
X133.89Y-79.0
X133.89Y-85.35
X133.89Y-91.7
X150.12Y-79.0
X150.12Y-85.35
X150.12Y-91.7
X156.645Y-79.0
X156.645Y-85.35
X156.645Y-91.7
X172.875Y-79.0
X172.875Y-85.35
X172.875Y-91.7
T11
X180.9Y-77.9
X180.9Y-90.9
X186.4Y-77.9
X186.4Y-90.9
X188.8Y-75.9
X188.8Y-88.9
T12
X36.55Y-49.97
X36.55Y-55.75
T4
G00X33.2Y-48.54
M15
G01X32.6Y-48.54
M16
G05
G00X33.2Y-57.18
M15
G01X32.6Y-57.18
M16
G05
G00X37.63Y-48.54
M15
G01X36.53Y-48.54
M16
G05
G00X37.63Y-57.18
M15
G01X36.53Y-57.18
M16
G05
M30
