0
SECTION
2
HEADER
9
$INSUNITS
70
4
9
$ACADVER
1
AC1014
9
$HANDSEED
5
FFFF
0
ENDSEC
0
SECTION
2
TABLES
0
TABLE
2
VPORT
5
8
100
AcDbSymbolTable
0
ENDTAB
0
TABLE
2
LTYPE
5
5
100
AcDbSymbolTable
0
LTYPE
5
14
100
AcDbSymbolTableRecord
100
AcDbLinetypeTableRecord
2
BYBLOCK
70
0
0
LTYPE
5
15
100
AcDbSymbolTableRecord
100
AcDbLinetypeTableRecord
2
BYLAYER
70
0
0
LTYPE
5
16
100
AcDbSymbolTableRecord
100
AcDbLinetypeTableRecord
2
DASHED
70
0
3
Dashed __ __ __ __ __ __ __ __ __ __ __ __ __ _
72
65
73
2
40
0.75
49
0.5
74
0
49
-0.25
74
0
0
ENDTAB
0
TABLE
2
LAYER
5
2
100
AcDbSymbolTable
70
2
0
LAYER
5
50
100
AcDbSymbolTableRecord
100
AcDbLayerTableRecord
2
0
70
0
62
7
6
CONTINUOUS
0
ENDTAB
0
TABLE
2
STYLE
5
3
100
AcDbSymbolTable
70
1
0
STYLE
5
11
100
AcDbSymbolTableRecord
100
AcDbTextStyleTableRecord
2
STANDARD
70
0
0
ENDTAB
0
TABLE
2
VIEW
5
6
100
AcDbSymbolTable
70
0
0
ENDTAB
0
TABLE
2
UCS
5
7
100
AcDbSymbolTable
70
0
0
ENDTAB
0
TABLE
2
APPID
5
9
100
AcDbSymbolTable
70
2
0
APPID
5
12
100
AcDbSymbolTableRecord
100
AcDbRegAppTableRecord
2
ACAD
70
0
0
ENDTAB
0
TABLE
2
DIMSTYLE
5
A
100
AcDbSymbolTable
70
1
0
ENDTAB
0
TABLE
2
BLOCK_RECORD
5
1
100
AcDbSymbolTable
70
1
0
BLOCK_RECORD
5
1F
100
AcDbSymbolTableRecord
100
AcDbBlockTableRecord
2
*MODEL_SPACE
0
BLOCK_RECORD
5
1B
100
AcDbSymbolTableRecord
100
AcDbBlockTableRecord
2
*PAPER_SPACE
0
ENDTAB
0
ENDSEC
0
SECTION
2
BLOCKS
0
BLOCK
5
20
100
AcDbEntity
100
AcDbBlockBegin
2
*MODEL_SPACE
0
ENDBLK
5
21
100
AcDbEntity
100
AcDbBlockEnd
0
BLOCK
5
1C
100
AcDbEntity
100
AcDbBlockBegin
2
*PAPER_SPACE
0
ENDBLK
5
1D
100
AcDbEntity
100
AcDbBlockEnd
0
ENDSEC
0
SECTION
2
ENTITIES
0
LINE
5
100
100
AcDbEntity
8
0
100
AcDbLine
10
0
20
0
30
0
11
-8.4946022333088837e-18
21
12.99999999989339
31
0
0
LINE
5
101
100
AcDbEntity
8
0
100
AcDbLine
10
-8.4946022333088837e-18
20
12.99999999989339
30
0
11
3.2000000000124729
21
12.999999999887512
31
0
0
LINE
5
102
100
AcDbEntity
8
0
100
AcDbLine
10
3.2000000000124729
20
12.999999999887512
30
0
11
3.200000000004751
21
32.999999999887514
31
0
0
LINE
5
103
100
AcDbEntity
8
0
100
AcDbLine
10
3.200000000004751
20
32.999999999887514
30
0
11
3.4935863958014258e-15
21
32.999999999890036
31
0
0
LINE
5
104
100
AcDbEntity
8
0
100
AcDbLine
10
3.4935863958014258e-15
20
32.999999999890036
30
0
11
6.9956673937840396e-15
21
53.000000000515008
31
0
0
LINE
5
105
100
AcDbEntity
8
0
100
AcDbLine
10
6.9956673937840396e-15
20
53.000000000515008
30
0
11
3.1999999999970297
21
53.000000000505381
31
0
0
LINE
5
106
100
AcDbEntity
8
0
100
AcDbLine
10
3.1999999999970297
20
53.000000000505381
30
0
11
3.2000000000054185
21
73.000000000505381
31
0
0
LINE
5
107
100
AcDbEntity
8
0
100
AcDbLine
10
3.2000000000054185
20
73.000000000505381
30
0
11
6.2888679393503978e-15
21
73.000000000511648
31
0
0
LINE
5
108
100
AcDbEntity
8
0
100
AcDbLine
10
6.2888679393503978e-15
20
73.000000000511648
30
0
11
5.5820684848481718e-15
21
92.999999999460385
31
0
0
LINE
5
109
100
AcDbEntity
8
0
100
AcDbLine
10
5.5820684848481718e-15
20
92.999999999460385
30
0
11
3.2000000000138078
21
92.999999999464592
31
0
0
LINE
5
110
100
AcDbEntity
8
0
100
AcDbLine
10
3.2000000000138078
20
92.999999999464592
30
0
11
3.2000000000050428
21
112.99999999946459
31
0
0
LINE
5
111
100
AcDbEntity
8
0
100
AcDbLine
10
3.2000000000050428
20
112.99999999946459
30
0
11
2.3695046785733619e-15
21
112.9999999994846
31
0
0
LINE
5
112
100
AcDbEntity
8
0
100
AcDbLine
10
2.3695046785733619e-15
20
112.9999999994846
30
0
11
-8.4305912770003609e-16
21
132.99999999994978
31
0
0
LINE
5
113
100
AcDbEntity
8
0
100
AcDbLine
10
-8.4305912770003609e-16
20
132.99999999994978
30
0
11
3.1999999999962765
21
132.99999999995075
31
0
0
LINE
5
114
100
AcDbEntity
8
0
100
AcDbLine
10
3.1999999999962765
20
132.99999999995075
30
0
11
3.200000000005808
21
152.99999999995075
31
0
0
LINE
5
115
100
AcDbEntity
8
0
100
AcDbLine
10
3.200000000005808
20
152.99999999995075
30
0
11
5.8075292863829374e-12
21
152.99999999994958
31
0
0
LINE
5
116
100
AcDbEntity
8
0
100
AcDbLine
10
5.8075292863829374e-12
20
152.99999999994958
30
0
11
8.3183380467089056e-12
21
165.99999999993793
31
0
0
LINE
5
117
100
AcDbEntity
8
0
100
AcDbLine
10
8.3183380467089056e-12
20
165.99999999993793
30
0
11
13.000000000012964
21
165.99999999993793
31
0
0
LINE
5
118
100
AcDbEntity
8
0
100
AcDbLine
10
13.000000000012964
20
165.99999999993793
30
0
11
13.000000000024006
21
162.79999999993791
31
0
0
LINE
5
119
100
AcDbEntity
8
0
100
AcDbLine
10
13.000000000024006
20
162.79999999993791
30
0
11
33.000000000024002
21
162.8000000000047
31
0
0
LINE
5
120
100
AcDbEntity
8
0
100
AcDbLine
10
33.000000000024002
20
162.8000000000047
30
0
11
33.000000000013252
21
166.00000000001242
31
0
0
LINE
5
121
100
AcDbEntity
8
0
100
AcDbLine
10
33.000000000013252
20
166.00000000001242
30
0
11
53.000000000013259
21
166.00000000008691
31
0
0
LINE
5
122
100
AcDbEntity
8
0
100
AcDbLine
10
53.000000000013259
20
166.00000000008691
30
0
11
52.999999999983665
21
162.80000000008675
31
0
0
LINE
5
123
100
AcDbEntity
8
0
100
AcDbLine
10
52.999999999983665
20
162.80000000008675
30
0
11
72.999999999983672
21
162.80000000016884
31
0
0
LINE
5
124
100
AcDbEntity
8
0
100
AcDbLine
10
72.999999999983672
20
162.80000000016884
30
0
11
73.00000000001296
21
166.00000000017928
31
0
0
LINE
5
125
100
AcDbEntity
8
0
100
AcDbLine
10
73.00000000001296
20
166.00000000017928
30
0
11
93.00000000001296
21
166.00000000027165
31
0
0
LINE
5
126
100
AcDbEntity
8
0
100
AcDbLine
10
93.00000000001296
20
166.00000000027165
30
0
11
92.999999999984169
21
162.80000000025035
31
0
0
LINE
5
127
100
AcDbEntity
8
0
100
AcDbLine
10
92.999999999984169
20
162.80000000025035
30
0
11
112.99999999998417
21
162.80000000033212
31
0
0
LINE
5
128
100
AcDbEntity
8
0
100
AcDbLine
10
112.99999999998417
20
162.80000000033212
30
0
11
113.00000000000109
21
166.00000000036303
31
0
0
LINE
5
129
100
AcDbEntity
8
0
100
AcDbLine
10
113.00000000000109
20
166.00000000036303
30
0
11
133.00000000000108
21
166.00000000045441
31
0
0
LINE
5
130
100
AcDbEntity
8
0
100
AcDbLine
10
133.00000000000108
20
166.00000000045441
30
0
11
132.99999999998383
21
162.80000000041423
31
0
0
LINE
5
131
100
AcDbEntity
8
0
100
AcDbLine
10
132.99999999998383
20
162.80000000041423
30
0
11
152.99999999998383
21
162.80000000049631
31
0
0
LINE
5
132
100
AcDbEntity
8
0
100
AcDbLine
10
152.99999999998383
20
162.80000000049631
30
0
11
153.00000000000057
21
166.00000000054681
31
0
0
LINE
5
133
100
AcDbEntity
8
0
100
AcDbLine
10
153.00000000000057
20
166.00000000054681
30
0
11
173.00000000000057
21
166.0000000006392
31
0
0
LINE
5
134
100
AcDbEntity
8
0
100
AcDbLine
10
173.00000000000057
20
166.0000000006392
30
0
11
172.99999999998093
21
162.80000000057834
31
0
0
LINE
5
135
100
AcDbEntity
8
0
100
AcDbLine
10
172.99999999998093
20
162.80000000057834
30
0
11
192.99999999998093
21
162.8000000006603
31
0
0
LINE
5
136
100
AcDbEntity
8
0
100
AcDbLine
10
192.99999999998093
20
162.8000000006603
30
0
11
193.00000000000071
21
166.00000000073098
31
0
0
LINE
5
137
100
AcDbEntity
8
0
100
AcDbLine
10
193.00000000000071
20
166.00000000073098
30
0
11
213.00000000000071
21
166.00000000082306
31
0
0
LINE
5
138
100
AcDbEntity
8
0
100
AcDbLine
10
213.00000000000071
20
166.00000000082306
30
0
11
213.00000000000719
21
162.8000000008069
31
0
0
LINE
5
139
100
AcDbEntity
8
0
100
AcDbLine
10
213.00000000000719
20
162.8000000008069
30
0
11
233.00000000000719
21
162.8000000009535
31
0
0
LINE
5
140
100
AcDbEntity
8
0
100
AcDbLine
10
233.00000000000719
20
162.8000000009535
30
0
11
233.00000000000071
21
166.00000000090003
31
0
0
LINE
5
141
100
AcDbEntity
8
0
100
AcDbLine
10
233.00000000000071
20
166.00000000090003
30
0
11
246.00000000000395
21
166.00000000095005
31
0
0
LINE
5
142
100
AcDbEntity
8
0
100
AcDbLine
10
246.00000000000395
20
166.00000000095005
30
0
11
246.00000000000452
21
152.99999999976177
31
0
0
LINE
5
143
100
AcDbEntity
8
0
100
AcDbLine
10
246.00000000000452
20
152.99999999976177
30
0
11
242.80000000000456
21
152.99999999976055
31
0
0
LINE
5
144
100
AcDbEntity
8
0
100
AcDbLine
10
242.80000000000456
20
152.99999999976055
30
0
11
242.80000000003329
21
132.99999999976055
31
0
0
LINE
5
145
100
AcDbEntity
8
0
100
AcDbLine
10
242.80000000003329
20
132.99999999976055
30
0
11
246.00000000015424
21
132.99999999975802
31
0
0
LINE
5
146
100
AcDbEntity
8
0
100
AcDbLine
10
246.00000000015424
20
132.99999999975802
30
0
11
246.00000000024482
21
112.99999999975802
31
0
0
LINE
5
147
100
AcDbEntity
8
0
100
AcDbLine
10
246.00000000024482
20
112.99999999975802
30
0
11
242.80000000003514
21
112.99999999976053
31
0
0
LINE
5
148
100
AcDbEntity
8
0
100
AcDbLine
10
242.80000000003514
20
112.99999999976053
30
0
11
242.80000000003699
21
92.999999999760547
31
0
0
LINE
5
149
100
AcDbEntity
8
0
100
AcDbLine
10
242.80000000003699
20
92.999999999760547
30
0
11
246.00000000033518
21
92.999999999784023
31
0
0
LINE
5
150
100
AcDbEntity
8
0
100
AcDbLine
10
246.00000000033518
20
92.999999999784023
30
0
11
246.00000000042553
21
72.999999999784023
31
0
0
LINE
5
151
100
AcDbEntity
8
0
100
AcDbLine
10
246.00000000042553
20
72.999999999784023
30
0
11
242.8000000000352
21
72.999999999760576
31
0
0
LINE
5
152
100
AcDbEntity
8
0
100
AcDbLine
10
242.8000000000352
20
72.999999999760576
30
0
11
242.80000000003338
21
52.999999999760576
31
0
0
LINE
5
153
100
AcDbEntity
8
0
100
AcDbLine
10
242.80000000003338
20
52.999999999760576
30
0
11
246.00000000009771
21
52.999999999774865
31
0
0
LINE
5
154
100
AcDbEntity
8
0
100
AcDbLine
10
246.00000000009771
20
52.999999999774865
30
0
11
246.0000000001923
21
32.999999999774865
31
0
0
LINE
5
155
100
AcDbEntity
8
0
100
AcDbLine
10
246.0000000001923
20
32.999999999774865
30
0
11
242.80000000003719
21
32.999999999771582
31
0
0
LINE
5
156
100
AcDbEntity
8
0
100
AcDbLine
10
242.80000000003719
20
32.999999999771582
30
0
11
242.80000000004097
21
12.999999999771582
31
0
0
LINE
5
157
100
AcDbEntity
8
0
100
AcDbLine
10
242.80000000004097
20
12.999999999771582
30
0
11
246.00000000036206
21
12.999999999769976
31
0
0
LINE
5
158
100
AcDbEntity
8
0
100
AcDbLine
10
246.00000000036206
20
12.999999999769976
30
0
11
246.00000000034834
21
-4.0002230052823717e-10
31
0
0
LINE
5
159
100
AcDbEntity
8
0
100
AcDbLine
10
246.00000000034834
20
-4.0002230052823717e-10
30
0
11
233.00000000033742
21
-3.3293686268059428e-10
31
0
0
LINE
5
160
100
AcDbEntity
8
0
100
AcDbLine
10
233.00000000033742
20
-3.3293686268059428e-10
30
0
11
233.00000000036786
21
3.1999999978683684
31
0
0
LINE
5
161
100
AcDbEntity
8
0
100
AcDbLine
10
233.00000000036786
20
3.1999999978683684
30
0
11
213.00000000036786
21
3.1999999980442668
31
0
0
LINE
5
162
100
AcDbEntity
8
0
100
AcDbLine
10
213.00000000036786
20
3.1999999980442668
30
0
11
213.00000000033609
21
-4.8193736194759264e-10
31
0
0
LINE
5
163
100
AcDbEntity
8
0
100
AcDbLine
10
213.00000000033609
20
-4.8193736194759264e-10
30
0
11
192.99999999950447
21
-5.315828537162726e-10
31
0
0
LINE
5
164
100
AcDbEntity
8
0
100
AcDbLine
10
192.99999999950447
20
-5.315828537162726e-10
30
0
11
192.99999999950526
21
3.1999999982201648
31
0
0
LINE
5
165
100
AcDbEntity
8
0
100
AcDbLine
10
192.99999999950526
20
3.1999999982201648
30
0
11
172.99999999950526
21
3.1999999984046261
31
0
0
LINE
5
166
100
AcDbEntity
8
0
100
AcDbLine
10
172.99999999950526
20
3.1999999984046261
30
0
11
172.99999999949551
21
-5.4093057183065727e-10
31
0
0
LINE
5
167
100
AcDbEntity
8
0
100
AcDbLine
10
172.99999999949551
20
-5.4093057183065727e-10
30
0
11
152.99999999912004
21
-5.5027828994345478e-10
31
0
0
LINE
5
168
100
AcDbEntity
8
0
100
AcDbLine
10
152.99999999912004
20
-5.5027828994345478e-10
30
0
11
152.99999999912467
21
3.1999999985890875
31
0
0
LINE
5
169
100
AcDbEntity
8
0
100
AcDbLine
10
152.99999999912467
20
3.1999999985890875
30
0
11
132.99999999912467
21
3.1999999987735324
31
0
0
LINE
5
170
100
AcDbEntity
8
0
100
AcDbLine
10
132.99999999912467
20
3.1999999987735324
30
0
11
132.99999999912444
21
-5.4111126425322192e-10
31
0
0
LINE
5
171
100
AcDbEntity
8
0
100
AcDbLine
10
132.99999999912444
20
-5.4111126425322192e-10
30
0
11
112.99999999995855
21
-5.3194423856312368e-10
31
0
0
LINE
5
172
100
AcDbEntity
8
0
100
AcDbLine
10
112.99999999995855
20
-5.3194423856312368e-10
30
0
11
112.99999999995961
21
3.1999999989576215
31
0
0
LINE
5
173
100
AcDbEntity
8
0
100
AcDbLine
10
112.99999999995961
20
3.1999999989576215
30
0
11
92.999999999959613
21
3.1999999991424217
31
0
0
LINE
5
174
100
AcDbEntity
8
0
100
AcDbLine
10
92.999999999959613
20
3.1999999991424217
30
0
11
92.999999999958561
21
-5.2795024938381134e-10
31
0
0
LINE
5
175
100
AcDbEntity
8
0
100
AcDbLine
10
92.999999999958561
20
-5.2795024938381134e-10
30
0
11
72.999999999470703
21
-5.2395626020439468e-10
31
0
0
LINE
5
176
100
AcDbEntity
8
0
100
AcDbLine
10
72.999999999470703
20
-5.2395626020439468e-10
30
0
11
72.999999999472379
21
3.1999999993272215
31
0
0
LINE
5
177
100
AcDbEntity
8
0
100
AcDbLine
10
72.999999999472379
20
3.1999999993272215
30
0
11
52.999999999472386
21
3.1999999995116664
31
0
0
LINE
5
178
100
AcDbEntity
8
0
100
AcDbLine
10
52.999999999472386
20
3.1999999995116664
30
0
11
52.99999999946175
21
-4.9752752229452794e-10
31
0
0
LINE
5
179
100
AcDbEntity
8
0
100
AcDbLine
10
52.99999999946175
20
-4.9752752229452794e-10
30
0
11
32.999999998560781
21
-4.7109878437967123e-10
31
0
0
LINE
5
180
100
AcDbEntity
8
0
100
AcDbLine
10
32.999999998560781
20
-4.7109878437967123e-10
30
0
11
32.999999998561876
21
3.1999999996961108
31
0
0
LINE
5
181
100
AcDbEntity
8
0
100
AcDbLine
10
32.999999998561876
20
3.1999999996961108
30
0
11
12.999999998561876
21
3.1999999998779662
31
0
0
LINE
5
182
100
AcDbEntity
8
0
100
AcDbLine
10
12.999999998561876
20
3.1999999998779662
30
0
11
12.999999998532568
21
-1.2203505262567271e-10
31
0
0
LINE
5
183
100
AcDbEntity
8
0
100
AcDbLine
10
12.999999998532568
20
-1.2203505262567271e-10
30
0
11
0
21
0
31
0
0
LWPOLYLINE
5
184
100
AcDbEntity
8
0
100
AcDbPolyline
90
65
70
1
43
0.0
10
1.9846671462122911
20
236.27779963815183
10
14.984506568429886
20
236.27779673881335
10
14.984506568462361
20
239.47779411203823
10
34.984506568462365
20
239.47779411203913
10
34.984506568462365
20
236.27779411185375
10
54.984506568462365
20
236.27779411188044
10
54.984506568458102
20
239.47779411206849
10
74.984506568458102
20
239.47779411208361
10
74.984506568458059
20
236.27779411293483
10
94.984506568458059
20
236.27779411293483
10
94.984506568458059
20
239.47779411208359
10
114.98450656845806
20
239.47779411208359
10
114.98450656845806
20
236.27779411293483
10
134.98450656845807
20
236.27779411293483
10
134.98450656845804
20
239.47779411221683
10
154.98450656845807
20
239.47779411228342
10
154.98450656846873
20
236.27779411281546
10
174.9845065684687
20
236.27779411275577
10
174.98450656846714
20
239.47779411228342
10
194.98450656846714
20
239.47779411228342
10
194.98450656846722
20
236.27779411276009
10
214.98450656846722
20
236.27779411276447
10
214.98482772399535
20
239.47779411228342
10
234.98482772399535
20
239.47779411228342
10
234.9848277239966
20
236.2777941126962
10
247.98466714621418
20
236.27779411267542
10
247.98466714620218
20
228.77781858563512
10
234.98482772398464
20
228.77781772582321
10
234.97848289713289
20
225.57779411378561
10
214.97848289713289
20
225.57779411378561
10
214.97848289713289
20
228.77779411293548
10
194.97848289713303
20
228.77779411293503
10
194.97848289713303
20
225.5777941137855
10
174.97848289713295
20
225.57779411378544
10
174.97848289713295
20
228.77779411293503
10
154.97848289713295
20
228.77779411293503
10
154.97848289713369
20
225.57779411378544
10
134.97848289713372
20
225.57779411378544
10
134.97848289713372
20
228.77779411293483
10
114.97848289713372
20
228.77779411293471
10
114.97848289713369
20
225.57779411378561
10
94.978482897133688
20
225.57779411378579
10
94.978482897133688
20
228.7777941129346
10
83.780036359654929
20
228.77779411293437
10
83.780037567059011
20
224.4756749947517
10
81.222632198802941
20
226.418107269291
10
77.864718795988324
20
221.9991800715203
10
80.412177923898454
20
220.06339016628431
10
77.387039089569015
20
216.08236830839007
10
74.829793334320215
20
218.0059370916203
10
71.47188733722453
20
213.58700426630276
10
73.983928023707335
20
211.67812858918009
10
56.650928023753778
20
211.67808848555086
10
56.65093409736776
20
208.4779023559671
10
46.650934097386084
20
208.47788324885522
10
46.650927927144885
20
211.67781004836914
10
29.317927927145977
20
211.67780412732654
10
29.317928973001578
20
208.47780187905448
10
19.317928973002157
20
208.47779848417821
10
19.317927811966911
20
211.67776647797498
10
1.9849278119800458
20
211.6777877556521
10
1.9849364618388019
20
218.97779466288603
10
5.1846697586844357
20
218.9777937051289
10
5.1846698780323841
20
228.97779370599096
10
1.9846671462083876
20
228.97779273091282
0
LWPOLYLINE
5
185
100
AcDbEntity
8
0
100
AcDbPolyline
90
12
70
1
43
0.0
10
170.84595843385148
20
188.35145967315501
10
336.84595843385119
20
188.35145967315333
10
336.84595843384636
20
182.80145967315335
10
333.64595843384666
20
182.80145967315599
10
333.64595843384762
20
177.80145967315599
10
336.84595843384756
20
177.80145967315599
10
336.84595843384773
20
172.25145967315598
10
170.84595843385529
20
172.25145967315282
10
170.84595843385529
20
177.80145967315551
10
174.04595843385547
20
177.80145967315551
10
174.04595843385167
20
182.80145967315551
10
170.84595843385148
20
182.80145967315232
0
LINE
5
186
100
AcDbEntity
8
0
100
AcDbLine
10
304.71481672065988
20
162.80000000012581
30
0
11
324.71481672065983
21
162.80000000020789
31
0
0
LINE
5
187
100
AcDbEntity
8
0
100
AcDbLine
10
324.71481672018484
20
3.199999999327221
30
0
11
304.71481672015096
21
3.199999999511669
31
0
0
LINE
5
188
100
AcDbEntity
8
0
100
AcDbLine
10
384.71481672067728
20
166.00000000049346
30
0
11
384.71481672066
21
162.80000000045328
31
0
0
LINE
5
189
100
AcDbEntity
8
0
100
AcDbLine
10
415.91319766888557
20
166.00000000063758
30
0
11
415.91319766800643
21
-5.5863313974668927e-10
31
0
0
LINE
5
190
100
AcDbEntity
8
0
100
AcDbLine
10
254.91481672068122
20
113.00000000000847
30
0
11
251.71481672067617
21
113.00000000002846
31
0
0
LINE
5
191
100
AcDbEntity
8
0
100
AcDbLine
10
324.71481672065983
20
162.80000000020789
30
0
11
324.7148167206891
21
166.00000000021834
31
0
0
LINE
5
192
100
AcDbEntity
8
0
100
AcDbLine
10
254.9148167206732
20
53.000000000998845
30
0
11
254.91481672068159
21
73.000000000998838
31
0
0
LINE
5
193
100
AcDbEntity
8
0
100
AcDbLine
10
384.71481672066
20
162.80000000045328
30
0
11
404.71481672065977
21
162.80000000053536
31
0
0
LINE
5
194
100
AcDbEntity
8
0
100
AcDbLine
10
324.7148167206891
20
166.00000000021834
30
0
11
344.7148167206891
21
166.00000000031071
31
0
0
LINE
5
195
100
AcDbEntity
8
0
100
AcDbLine
10
404.71481672065977
20
162.80000000053536
30
0
11
404.71481672065977
21
166.00000000058594
31
0
0
LINE
5
196
100
AcDbEntity
8
0
100
AcDbLine
10
404.71481672065977
20
166.00000000058594
30
0
11
415.91319766888557
21
166.00000000063758
31
0
0
LINE
5
197
100
AcDbEntity
8
0
100
AcDbLine
10
251.71481672068151
20
153.00000000000398
30
0
11
251.71481672068529
21
165.99999999989737
31
0
0
LINE
5
198
100
AcDbEntity
8
0
100
AcDbLine
10
251.71481672067617
20
133.00000000000415
30
0
11
254.91481672067243
21
133.00000000000512
31
0
0
LINE
5
199
100
AcDbEntity
8
0
100
AcDbLine
10
404.71481671978529
20
3.1999999985872218
30
0
11
384.71481671980087
21
3.1999999987735328
31
0
0
LINE
5
200
100
AcDbEntity
8
0
100
AcDbLine
10
251.71481672067617
20
73.000000001005105
30
0
11
251.71481672067617
21
93.000000000004249
31
0
0
LINE
5
201
100
AcDbEntity
8
0
100
AcDbLine
10
384.71481671980087
20
3.1999999987735328
30
0
11
384.71481671979848
21
-5.5656534936332491e-10
31
0
0
LINE
5
202
100
AcDbEntity
8
0
100
AcDbLine
10
304.71481672068956
20
166.00000000012591
30
0
11
304.71481672065988
21
162.80000000012581
31
0
0
LINE
5
203
100
AcDbEntity
8
0
100
AcDbLine
10
404.71481671978063
20
-5.6573246087765483e-10
30
0
11
404.71481671978529
21
3.1999999985872218
31
0
0
LINE
5
204
100
AcDbEntity
8
0
100
AcDbLine
10
254.91481672068198
20
153.00000000000514
30
0
11
251.71481672068151
21
153.00000000000398
31
0
0
LINE
5
205
100
AcDbEntity
8
0
100
AcDbLine
10
415.91319766800643
20
-5.5863313974668927e-10
30
0
11
404.71481671978063
21
-5.6573246087765483e-10
31
0
0
LINE
5
206
100
AcDbEntity
8
0
100
AcDbLine
10
264.71481672070024
20
162.79999999997696
30
0
11
284.71481672070024
21
162.80000000004375
31
0
0
LINE
5
207
100
AcDbEntity
8
0
100
AcDbLine
10
284.71481672070024
20
162.80000000004375
30
0
11
284.71481672068956
21
166.00000000005141
31
0
0
LINE
5
208
100
AcDbEntity
8
0
100
AcDbLine
10
251.71481672068529
20
165.99999999989737
30
0
11
264.71481672068921
21
165.99999999997692
31
0
0
LINE
5
209
100
AcDbEntity
8
0
100
AcDbLine
10
254.91481672068863
20
12.999999999887512
30
0
11
254.91481672068093
21
32.999999999887514
31
0
0
LINE
5
210
100
AcDbEntity
8
0
100
AcDbLine
10
254.91481672067243
20
133.00000000000512
30
0
11
254.91481672068198
21
153.00000000000514
31
0
0
LINE
5
211
100
AcDbEntity
8
0
100
AcDbLine
10
251.71481672067617
20
113.00000000002846
30
0
11
251.71481672067617
21
133.00000000000415
31
0
0
LINE
5
212
100
AcDbEntity
8
0
100
AcDbLine
10
254.91481672069
20
93.00000000000847
30
0
11
254.91481672068122
21
113.00000000000847
31
0
0
LINE
5
213
100
AcDbEntity
8
0
100
AcDbLine
10
251.71481672067617
20
12.99999999989339
30
0
11
254.91481672068863
21
12.999999999887512
31
0
0
LINE
5
214
100
AcDbEntity
8
0
100
AcDbLine
10
251.71481672067617
20
93.000000000004249
30
0
11
254.91481672069
21
93.00000000000847
31
0
0
LINE
5
215
100
AcDbEntity
8
0
100
AcDbLine
10
254.91481672068159
20
73.000000000998838
30
0
11
251.71481672067617
21
73.000000001005105
31
0
0
LINE
5
216
100
AcDbEntity
8
0
100
AcDbLine
10
284.71481671923698
20
-4.7109871559314342e-10
30
0
11
284.71481671923806
21
3.1999999996961104
31
0
0
LINE
5
217
100
AcDbEntity
8
0
100
AcDbLine
10
251.71481672067617
20
53.000000001008473
30
0
11
254.9148167206732
21
53.000000000998845
31
0
0
LINE
5
218
100
AcDbEntity
8
0
100
AcDbLine
10
324.71481672018319
20
-5.3898718821443481e-10
30
0
11
324.71481672018484
21
3.199999999327221
31
0
0
LINE
5
219
100
AcDbEntity
8
0
100
AcDbLine
10
251.71481672067617
20
32.999999999890036
30
0
11
251.71481672067617
21
53.000000001008473
31
0
0
LINE
5
220
100
AcDbEntity
8
0
100
AcDbLine
10
264.71481672068921
20
165.99999999997692
30
0
11
264.71481672070024
21
162.79999999997696
31
0
0
LINE
5
221
100
AcDbEntity
8
0
100
AcDbLine
10
344.71481672063487
20
3.1999999991405548
30
0
11
344.71481672063385
21
-5.4484639022689407e-10
31
0
0
LINE
5
222
100
AcDbEntity
8
0
100
AcDbLine
10
254.91481672068093
20
32.999999999887514
30
0
11
251.71481672067617
21
32.999999999890036
31
0
0
LINE
5
223
100
AcDbEntity
8
0
100
AcDbLine
10
284.71481672068956
20
166.00000000005141
30
0
11
304.71481672068956
21
166.00000000012591
31
0
0
LINE
5
224
100
AcDbEntity
8
0
100
AcDbLine
10
344.71481672063385
20
-5.4484639022689407e-10
30
0
11
324.71481672018319
21
-5.3898718821443481e-10
31
0
0
LINE
5
225
100
AcDbEntity
8
0
100
AcDbLine
10
304.71481672014033
20
-5.0509763038775191e-10
30
0
11
284.71481671923698
21
-4.7109871559314342e-10
31
0
0
LINE
5
226
100
AcDbEntity
8
0
100
AcDbLine
10
364.71481672066216
20
3.1999999989576211
30
0
11
344.71481672063487
21
3.1999999991405548
31
0
0
LINE
5
227
100
AcDbEntity
8
0
100
AcDbLine
10
304.71481672015096
20
3.199999999511669
30
0
11
304.71481672014033
21
-5.0509763038775191e-10
31
0
0
LINE
5
228
100
AcDbEntity
8
0
100
AcDbLine
10
284.71481671923806
20
3.1999999996961104
30
0
11
264.71481671923846
21
3.199999999876102
31
0
0
LINE
5
229
100
AcDbEntity
8
0
100
AcDbLine
10
364.71481672066113
20
-5.47398237848995e-10
30
0
11
364.71481672066216
21
3.1999999989576211
31
0
0
LINE
5
230
100
AcDbEntity
8
0
100
AcDbLine
10
384.71481671979848
20
-5.5656534936332491e-10
30
0
11
364.71481672066113
21
-5.47398237848995e-10
31
0
0
LINE
5
231
100
AcDbEntity
8
0
100
AcDbLine
10
251.71481672067617
20
0
30
0
11
251.71481672067617
21
12.99999999989339
31
0
0
LINE
5
232
100
AcDbEntity
8
0
100
AcDbLine
10
264.71481671920913
20
-1.238670277459164e-10
30
0
11
251.71481672067617
21
0
31
0
0
LINE
5
233
100
AcDbEntity
8
0
100
AcDbLine
10
264.71481671923846
20
3.199999999876102
30
0
11
264.71481671920913
21
-1.238670277459164e-10
31
0
0
LINE
5
234
100
AcDbEntity
8
0
100
AcDbLine
10
364.71481672066034
20
162.80000000037117
30
0
11
364.71481672067728
21
166.00000000040208
31
0
0
LINE
5
235
100
AcDbEntity
8
0
100
AcDbLine
10
344.7148167206891
20
166.00000000031071
30
0
11
344.71481672066034
21
162.80000000028937
31
0
0
LINE
5
236
100
AcDbEntity
8
0
100
AcDbLine
10
364.71481672067728
20
166.00000000040208
30
0
11
384.71481672067728
21
166.00000000049346
31
0
0
LINE
5
237
100
AcDbEntity
8
0
100
AcDbLine
10
344.71481672066034
20
162.80000000028937
30
0
11
364.71481672066034
21
162.80000000037117
31
0
0
CIRCLE
5
238
100
AcDbEntity
8
0
100
AcDbCircle
10
18.184667146179862
20
223.87779411200879
30
0
40
6.0000000000000009
210
0
220
0
230
1
0
CIRCLE
5
239
100
AcDbEntity
8
0
100
AcDbCircle
10
66.484667146179845
20
223.87779411200879
30
0
40
6.0000000000000009
210
0
220
0
230
1
0
LWPOLYLINE
5
240
100
AcDbEntity
8
0
100
AcDbPolyline
90
8
70
1
43
0.0
10
44.134667146164503
20
233.77779411187203
10
53.234667146144247
20
233.77779411187203
42
-0.41421356237309509
10
55.684667146144243
20
231.32779411187201
10
55.684667146211069
20
230.22779411187202
42
-0.41421356237309509
10
53.234667146211059
20
227.777794111872
10
44.134667146144238
20
227.777794111872
42
-0.41421356237309509
10
41.684667146144243
20
230.22779411187202
10
41.684667146144243
20
231.32779411185174
42
-0.41421356237309509
0
LINE
5
241
100
AcDbEntity
8
0
100
AcDbLine
10
3.2000000000124729
20
16.601516571346444
30
0
11
3.2000000000124729
21
14.238137460195883
31
0
0
LWPOLYLINE
5
242
100
AcDbEntity
8
0
100
AcDbPolyline
90
44
70
1
43
0.0
10
3.7440964221746698
20
190.40661423511722
10
3.7441065067726815
20
197.70662114234926
10
13.744106066430959
20
197.70660732779652
10
13.744106066429151
20
200.90660732764172
10
33.744106066429083
20
200.90660732776234
10
33.744106066445781
20
197.70660732873671
10
53.744106066445724
20
197.70660732884122
10
53.74410606644544
20
200.90660732788302
10
73.744106066445354
20
200.90660732800364
10
73.744106066445212
20
197.70660732884085
10
93.74410606644517
20
197.70660732884062
10
93.744106066445383
20
200.90660732812435
10
113.74410606644531
20
200.90660732824489
10
113.7441060664442
20
197.70660732884036
10
133.74410606644412
20
197.70660732888885
10
133.74410606642482
20
200.90660732847397
10
153.74410606643306
20
200.90660732848605
10
153.74410606642354
20
197.70660732977123
10
163.74410562613232
20
197.70660732982836
10
163.74410562614574
20
190.40660042258935
10
166.94410562474161
20
190.40660042261081
10
166.94410562480982
20
180.40660042174875
10
163.74410562626946
20
180.40661423437388
10
163.74410562628282
20
173.10660732713487
10
153.7441060665798
20
173.10660732719532
10
153.74410606658029
20
169.9066073283656
10
133.74410606658037
20
169.90660732835352
10
133.74410606657452
20
173.10660732834947
10
113.7441060665746
20
173.1066073282667
10
113.74410606657517
20
169.90660732834147
10
93.744106066575199
20
169.90660732832941
10
93.744106066573323
20
173.10660732818388
10
73.744106066573394
20
173.10660732810106
10
73.744106066592693
20
169.90660732816789
10
53.744106066592735
20
169.90660732800634
10
53.744106066576038
20
173.106607327951
10
33.744106066576137
20
173.10660732780093
10
33.744106066578091
20
169.9066073278448
10
13.744106066578116
20
169.90660732784988
10
13.744106066578755
20
173.10660732745885
10
3.7441065069058181
20
173.10660732725421
10
3.7441065069072739
20
180.40661423449322
10
0.54410650684493878
20
180.40661423432584
10
0.54410650683689488
20
190.40661423518793
0
LWPOLYLINE
5
243
100
AcDbEntity
8
0
100
AcDbPolyline
90
8
70
1
43
0.0
10
100.74410562627347
20
177.1066073281977
10
88.74410562627348
20
177.10660732819761
42
-0.41421356237309509
10
87.744105626273466
20
178.10660732819764
10
87.744105626273466
20
178.20660732819763
42
-0.41421356237309509
10
88.74410562627348
20
179.20660732819766
10
100.74410562627347
20
179.20660732819761
42
-0.41421356237309509
10
101.74410562627344
20
178.20660732819763
10
101.74410562627344
20
178.10660732819767
42
-0.41421356237309509
0
CIRCLE
5
244
100
AcDbEntity
8
0
100
AcDbCircle
10
114.94410562615488
20
185.50660732827157
30
0
40
6.0000000000000009
210
-0
220
0
230
1
0
ARC
5
245
100
AcDbEntity
8
0
100
AcDbCircle
10
69.189136553598388
20
181.30660732809679
30
0
40
0.50000000000002276
210
-0
220
0
230
1
100
AcDbArc
50
-59.996141542328864
51
0
0
ARC
5
246
100
AcDbEntity
8
0
100
AcDbCircle
10
75.189136553598402
20
189.45080015652056
30
0
40
0.50000000000002065
210
0
220
0
230
1
100
AcDbArc
50
90.984806365414272
51
180
0
LINE
5
247
100
AcDbEntity
8
0
100
AcDbLine
10
71.689136553598388
20
181.30660732809679
30
0
11
71.689136553598388
21
189.45072631321122
31
0
0
LINE
5
248
100
AcDbEntity
8
0
100
AcDbLine
10
74.689136553598388
20
181.30660732809602
30
0
11
74.689136553598388
21
189.45080015652056
31
0
0
ARC
5
249
100
AcDbEntity
8
0
100
AcDbCircle
10
75.189136553598402
20
181.30660732809602
30
0
40
0.50000000000000711
210
0
220
0
230
1
100
AcDbArc
50
180
51
270.06861481800331
0
ARC
5
250
100
AcDbEntity
8
0
100
AcDbCircle
10
75.189136553597578
20
181.30660732809679
30
0
40
0.50000000000079126
210
-0
220
0
230
1
100
AcDbArc
50
-89.931385181902343
51
0
0
LINE
5
251
100
AcDbEntity
8
0
100
AcDbLine
10
77.689136553598345
20
181.30660732809673
30
0
11
77.689136553598345
21
189.45075758968267
31
0
0
ARC
5
252
100
AcDbEntity
8
0
100
AcDbCircle
10
78.189136553598388
20
181.30660732809673
30
0
40
0.50000000000004263
210
0
220
0
230
1
100
AcDbArc
50
180
51
239.99311321975105
0
ARC
5
253
100
AcDbEntity
8
0
100
AcDbCircle
10
72.189136553526566
20
181.30660732809679
30
0
40
0.49999999992817123
210
0
220
0
230
1
100
AcDbArc
50
-180
51
0
0
LINE
5
254
100
AcDbEntity
8
0
100
AcDbLine
10
72.68913655359836
20
189.45072631320895
30
0
11
72.68913655359836
21
181.30660732816938
31
0
0
ARC
5
255
100
AcDbEntity
8
0
100
AcDbCircle
10
69.189136553598388
20
189.45072492749151
30
0
40
0.50000000000000711
210
0
220
-0
230
1
100
AcDbArc
50
0
51
60.008620237237899
0
ARC
5
256
100
AcDbEntity
8
0
100
AcDbCircle
10
78.189136553598317
20
189.45075758968258
30
0
40
0.50000000000004263
210
0
220
-0
230
1
100
AcDbArc
50
0
51
119.99512231956089
0
LINE
5
257
100
AcDbEntity
8
0
100
AcDbLine
10
68.689136553598388
20
181.30660732809687
30
0
11
68.689136553598388
21
189.45072492749148
31
0
0
ARC
5
258
100
AcDbEntity
8
0
100
AcDbCircle
10
78.189136553598317
20
181.30660732809679
30
0
40
0.50000000000002709
210
0
220
0
230
1
100
AcDbArc
50
-120.00688678023862
51
0
0
ARC
5
259
100
AcDbEntity
8
0
100
AcDbCircle
10
69.189136553598431
20
189.45072492749148
30
0
40
0.50000000000001998
210
0
220
-0
230
1
100
AcDbArc
50
60.008620237243761
51
180
0
LINE
5
260
100
AcDbEntity
8
0
100
AcDbLine
10
78.68913655359836
20
189.45075758968258
30
0
11
78.68913655359836
21
181.30660732809679
31
0
0
ARC
5
261
100
AcDbEntity
8
0
100
AcDbCircle
10
72.189136553598217
20
189.45072631321122
30
0
40
0.49999999999981892
210
0
220
0
230
1
100
AcDbArc
50
90.012905763154947
51
180
0
ARC
5
262
100
AcDbEntity
8
0
100
AcDbCircle
10
75.189136553594068
20
189.45080015651624
30
0
40
0.50000000000428813
210
0
220
-0
230
1
100
AcDbArc
50
0
51
90.984806364909161
0
ARC
5
263
100
AcDbEntity
8
0
100
AcDbCircle
10
69.189136553598431
20
181.30660732809687
30
0
40
0.50000000000004263
210
0
220
0
230
1
100
AcDbArc
50
180
51
300.00385845766198
0
CIRCLE
5
264
100
AcDbEntity
8
0
100
AcDbCircle
10
137.34410562615486
20
185.50660732836428
30
0
40
6.0000000000000009
210
-0
220
0
230
1
0
LINE
5
265
100
AcDbEntity
8
0
100
AcDbLine
10
75.689136553598345
20
189.45080015651624
30
0
11
75.689136553598345
21
181.30660732809679
31
0
0
LINE
5
266
100
AcDbEntity
8
0
100
AcDbLine
10
69.689136553598402
20
189.45072492749151
30
0
11
69.689136553598402
21
181.30660732809679
31
0
0
ARC
5
267
100
AcDbEntity
8
0
100
AcDbCircle
10
78.189136553598317
20
189.45075758968267
30
0
40
0.50000000000000844
210
0
220
0
230
1
100
AcDbArc
50
119.99512231956577
51
180
0
ARC
5
268
100
AcDbEntity
8
0
100
AcDbCircle
10
72.189136553596271
20
189.45072631320895
30
0
40
0.50000000000209432
210
0
220
-0
230
1
100
AcDbArc
50
0
51
90.012905762931794
0
LWPOLYLINE
5
269
100
AcDbEntity
8
0
100
AcDbPolyline
90
65
70
1
43
0.0
10
84.989185191641866
20
210.86802719774658
10
97.989342594315644
20
210.8680271372865
10
97.995369440722229
20
207.66802719864185
10
117.99536944072204
20
207.6680271987118
10
117.99536944071087
20
210.86802719786161
10
137.99536944071053
20
210.86802719793113
10
137.9953694407217
20
207.6680271987816
10
157.99536944072162
20
207.66802719885146
10
157.99536944071036
20
210.86802719800104
10
177.99536944071014
20
210.86802719807096
10
177.99536944072065
20
207.66802719892138
10
197.99536944072054
20
207.66802719899135
10
197.99536944070928
20
210.86802719814074
10
217.99536944070908
20
210.86802719821054
10
217.99536944072031
20
207.66802719906144
10
237.99536944072017
20
207.66802719913161
10
237.99536944070894
20
210.86802719828034
10
249.19373535733286
20
210.8680271983194
10
249.19373565565567
20
206.58486159250006
10
251.74157493827522
20
208.52094956407601
10
255.109050144235
20
204.089442322623
10
252.56120213519043
20
202.15334959635231
10
255.58634930508214
20
198.17233407258254
10
258.13419867942503
20
200.10842781761914
10
261.50167388538466
20
195.67692057616611
10
258.98981966976811
20
193.76818108315862
10
276.32281966976791
20
193.76818296450858
10
276.32281496706872
20
190.56759912589951
10
286.32281496705639
20
190.56758363419641
10
286.32282019544283
20
193.76807379850385
10
303.65582019544252
20
193.76807661962349
10
303.65582097596791
20
190.56807620412965
10
313.65582097596769
20
190.56807781804815
10
313.65582072203517
20
193.7680714880652
10
330.98882072203418
20
193.76807978740857
10
330.98880756197298
20
201.06808669463578
10
327.78916681808107
20
201.06808609564922
10
327.7891654123431
20
211.06808609651122
10
330.98918519163254
20
211.06808665318533
10
330.98918519160316
20
218.36809356042434
10
317.98934576938575
20
218.36809085808528
10
317.98934576934209
20
221.56802719766375
10
297.98934576934221
20
221.56802719759472
10
297.98934576935346
20
218.36802719740939
10
277.98934576935358
20
218.3680271973661
10
277.9893457693467
20
221.56802719755416
10
257.98934576934693
20
221.56802719749925
10
257.98934576935812
20
218.36802719835049
10
237.98934576935835
20
218.36802719828054
10
237.98934576934712
20
221.5680271974293
10
217.98934576934732
20
221.56802719735936
10
217.98934576935858
20
218.36802719821063
10
197.98934576935869
20
218.36802719814068
10
197.98934576934755
20
221.56802719742262
10
177.98934576934769
20
221.56802719741927
10
177.98934576934818
20
218.36802719795133
10
157.98934576934835
20
218.36802719782168
10
157.98934576933871
20
221.56802719734935
10
137.98934576933897
20
221.56802719727938
10
137.98934576935008
20
218.36802719775613
10
117.98934576935025
20
218.36802719769051
10
117.9893473115508
20
221.5680271970854
10
97.989347311550972
20
221.56802719701807
10
97.989342594277403
20
218.36802719755235
10
84.989185191603625
20
218.36802719748607
0
LWPOLYLINE
5
270
100
AcDbEntity
8
0
100
AcDbPolyline
90
8
70
1
43
0.0
10
270.78918519167422
20
206.36802719734453
10
279.78918519167479
20
206.36802719737602
42
0.41421356237274126
10
280.7891851916695
20
207.3680271973783
10
280.78918519166501
20
209.86802719737966
42
0.41421356237308465
10
279.78918519166149
20
210.86802719737602
10
270.7891851916616
20
210.86802719734467
42
0.41421356237308465
10
269.78918519166513
20
209.86802719734118
10
269.78918519167075
20
207.36802719734231
42
0.41421356237345919
0
CIRCLE
5
271
100
AcDbEntity
8
0
100
AcDbCircle
10
307.37918519165981
20
207.67096410072824
30
0
40
3.4000000000000004
210
0
220
0
230
1
0
CIRCLE
5
272
100
AcDbEntity
8
0
100
AcDbCircle
10
321.17918519165988
20
207.67096410072824
30
0
40
3.4000000000000004
210
0
220
0
230
1
0
LWPOLYLINE
5
273
100
AcDbEntity
8
0
100
AcDbPolyline
90
36
70
1
43
0.0
10
285.25775348140769
20
237.44492479248987
10
285.25821553815996
20
240.64492479298372
10
265.25821915479213
20
240.64781264709978
10
265.25775709813144
20
237.44781264709979
10
255.25775720238823
20
237.44925657398383
10
255.25667425710108
20
229.94925665216854
10
265.25667415284414
20
229.94781272512074
10
265.25621209618913
20
226.74781275830267
10
285.25620847955673
20
226.74492490469675
10
285.25667053621254
20
229.94492487151666
10
305.25666691958025
20
229.94203701790966
10
305.25620486292416
20
226.74203705108638
10
325.25620124630251
20
226.73914919747918
10
325.25666330295837
20
229.93914916429702
10
345.25665968621519
20
229.93626131068996
10
345.25619762955904
20
226.73626134396105
10
365.25619401280488
20
226.73337349036044
10
365.25665606946058
20
229.93337345710586
10
385.25665245285052
20
229.93048560349865
10
385.2561903961946
20
226.730485636997
10
405.2561867795215
20
226.72759778339002
10
405.25664883617708
20
229.92759774992163
10
415.25664873178408
20
229.92615382284907
10
415.25773167708252
20
237.42615382284907
10
405.25773178121261
20
237.42759767088859
10
405.25819381269866
20
240.62759767138618
10
385.25819745476923
20
240.63048552498063
10
385.25773539812019
20
237.43048552452561
10
365.25773901472928
20
237.43337337814765
10
365.25820107141203
20
240.63337337864482
10
345.25820468805921
20
240.63626123226044
10
345.25774263143916
20
237.43626123177523
10
325.25774624807127
20
237.43914908550121
10
325.25820830480512
20
240.63914908599423
10
305.25821192143758
20
240.64203693930443
10
305.2577498647745
20
237.44203693881036
0
CIRCLE
5
274
100
AcDbEntity
8
0
100
AcDbCircle
10
460.24291474740028
20
138.77524242635951
30
0
40
4.75
210
0
220
-0
230
1
0
LWPOLYLINE
5
275
100
AcDbEntity
8
0
100
AcDbPolyline
90
36
70
1
43
0.0
10
446.37442111552667
20
162.92524242637512
10
446.37442111554918
20
166.12524242635587
10
463.70742111554921
20
166.12524242636056
10
463.70742111552659
20
162.92524242624211
10
473.70742111552346
20
162.92524242617176
10
473.70742111554307
20
166.12524242636297
10
491.04042111554298
20
166.12524242636781
10
491.04042111437542
20
0.12524242637060734
10
473.70742111545155
20
0.12524242649473916
10
473.70742111547099
20
3.3252424266315179
10
463.70742111547099
20
3.3252424267118093
10
463.70742111544524
20
0.12524242656486972
10
446.37442111544533
20
0.12524242668530672
10
446.37442111546989
20
3.3252424267666632
10
436.37442111547301
20
3.3252424267567156
10
436.37442111547625
20
0.12524242675430042
10
419.04142164015553
20
0.12524242687715326
10
419.04142164176648
20
13.139460331810158
10
422.2414211155612
20
13.135150632049848
10
422.24142111554909
20
33.135150632047697
10
419.04142111569161
20
33.135150632045992
10
419.0414211156795
20
53.135150632044201
10
422.24142111553732
20
53.135150632046191
10
422.24142111554926
20
73.135150632051719
10
419.04142111566762
20
73.135150632049871
10
419.04142111564312
20
93.135150632051108
10
422.24142111551322
20
93.135150632053097
10
422.24142111550123
20
113.13515063205321
10
419.04142111562294
20
113.15606115526924
10
419.04142111559844
20
133.15606115527052
10
422.58291487248778
20
133.15606115527129
10
422.58291442727165
20
153.1560611552714
10
419.04142111545474
20
153.11102452159224
10
419.04142111555365
20
166.12524242652526
10
436.37442111555356
20
166.12524242639864
10
436.3744211155298
20
162.92524242639871
0
CIRCLE
5
276
100
AcDbEntity
8
0
100
AcDbCircle
10
460.24291474740016
20
27.47524242635976
30
0
40
4.75
210
0
220
-0
230
1
0
CIRCLE
5
277
100
AcDbEntity
8
0
100
AcDbCircle
10
460.24291474740016
20
64.575242426359608
30
0
40
4.75
210
0
220
-0
230
1
0
CIRCLE
5
278
100
AcDbEntity
8
0
100
AcDbCircle
10
460.24291474740033
20
101.6752424263596
30
0
40
4.75
210
0
220
-0
230
1
0
CIRCLE
5
279
100
AcDbEntity
8
0
100
AcDbCircle
10
48.572900277640265
20
188.40506250303005
30
0
40
3.1000000000000005
210
0
220
0
230
1
0
CIRCLE
5
280
100
AcDbEntity
8
0
100
AcDbCircle
10
33.572900277640258
20
188.40506250303005
30
0
40
3.1000000000000005
210
0
220
0
230
1
0
CIRCLE
5
281
100
AcDbEntity
8
0
100
AcDbCircle
10
185.84595843385148
20
180.30145967315551
30
0
40
2.6250000000000036
210
0
220
0
230
1
0
CIRCLE
5
282
100
AcDbEntity
8
0
100
AcDbCircle
10
321.84595843385119
20
180.30145967315599
30
0
40
2.6250000000000187
210
0
220
0
230
1
0
CIRCLE
5
283
100
AcDbEntity
8
0
100
AcDbCircle
10
156.94410562570337
20
185.5066073283713
30
0
40
2.6249999999999991
210
0
220
0
230
1
0
LINE
5
284
100
AcDbEntity
8
0
100
AcDbLine
10
100.98902461383175
20
217.11802719782696
30
0
11
114.98923871750262
21
217.11802719782696
31
0
0
LINE
5
285
100
AcDbEntity
8
0
100
AcDbLine
10
114.98923871750262
20
212.11802719782696
30
0
11
100.98902461383177
21
212.11802719782696
31
0
0
ARC
5
286
100
AcDbEntity
8
0
100
AcDbCircle
10
100.98902461383173
20
214.61802719782699
30
0
40
2.4999999999999645
210
0
220
-0
230
1
100
AcDbArc
50
89.999999999999673
51
180
0
ARC
5
287
100
AcDbEntity
8
0
100
AcDbCircle
10
100.98902461383179
20
214.61802719782699
30
0
40
2.5000000000000355
210
0
220
0
230
1
100
AcDbArc
50
180
51
269.99999999999972
0
ARC
5
288
100
AcDbEntity
8
0
100
AcDbCircle
10
114.98923871750264
20
214.61802719782699
30
0
40
2.4999999999999645
210
-0
220
0
230
1
100
AcDbArc
50
0
51
90.000000000000654
0
ARC
5
289
100
AcDbEntity
8
0
100
AcDbCircle
10
114.98923871750264
20
214.61802719782693
30
0
40
2.4999999999999645
210
0
220
0
230
1
100
AcDbArc
50
-90.000000000000654
51
0
0
CIRCLE
5
290
100
AcDbEntity
8
0
100
AcDbCircle
10
228.03401579156503
20
214.61802719909667
30
0
40
3.0499999999999998
210
0
220
0
230
1
0
CIRCLE
5
291
100
AcDbEntity
8
0
100
AcDbCircle
10
219.84595843385151
20
180.30145967315579
30
0
40
2.6250000000000036
210
0
220
0
230
1
0
CIRCLE
5
292
100
AcDbEntity
8
0
100
AcDbCircle
10
287.84595843385119
20
180.30145967315579
30
0
40
2.6250000000000036
210
0
220
0
230
1
0
LINE
5
293
100
AcDbEntity
8
0
100
AcDbLine
10
442.81596971837337
20
151.40963429908038
30
0
11
442.81596971836757
21
153.38106295416833
31
0
0
LINE
5
294
100
AcDbEntity
8
0
100
AcDbLine
10
442.81596971836757
20
153.38106295416833
30
0
11
444.53025533047389
21
153.38106295417344
31
0
0
LINE
5
295
100
AcDbEntity
8
0
100
AcDbLine
10
444.53025533047389
20
153.38106295417344
30
0
11
444.53025533049123
21
147.55249122481143
31
0
0
LINE
5
296
100
AcDbEntity
8
0
100
AcDbLine
10
444.53025533049117
20
147.55249122481143
30
0
11
442.81596971838485
21
147.55249122480632
31
0
0
LINE
5
297
100
AcDbEntity
8
0
100
AcDbLine
10
442.81596971838485
20
147.55249122480632
30
0
11
442.81596971837899
21
149.52391991714717
31
0
0
LINE
5
298
100
AcDbEntity
8
0
100
AcDbLine
10
442.81596971837899
20
149.52391991714717
30
0
11
432.53025485364816
21
149.52391991711642
31
0
0
LINE
5
299
100
AcDbEntity
8
0
100
AcDbLine
10
432.53025485364816
20
149.52391991711642
30
0
11
432.53025485364253
21
151.40963429904963
31
0
0
LINE
5
300
100
AcDbEntity
8
0
100
AcDbLine
10
432.53025485364253
20
151.40963429904963
30
0
11
442.81596971837337
21
151.40963429908038
31
0
0
SPLINE
5
301
100
AcDbEntity
8
0
100
AcDbSpline
70
0
71
2
72
6
73
3
74
0
42
0.000000001
43
0.0000000001
44
0.0000000001
40
0
40
0
40
0
40
1
40
1
40
1
10
432.53025485366464
20
143.96963397360827
30
0
10
432.53025485366049
20
145.37534812785174
30
0
10
433.2845409044549
20
146.07820550299897
30
0
0
SPLINE
5
302
100
AcDbEntity
8
0
100
AcDbSpline
70
0
71
2
72
6
73
3
74
0
42
0.000000001
43
0.0000000001
44
0.0000000001
40
0
40
0
40
0
40
1
40
1
40
1
10
433.2845409044549
20
146.07820550299897
30
0
10
434.03882576315647
20
146.78106287814617
30
0
10
435.49596859305149
20
146.78106287815052
30
0
0
LINE
5
303
100
AcDbEntity
8
0
100
AcDbLine
10
435.49596859305149
20
146.78106287815052
30
0
11
441.56454099505191
21
146.78106287816865
31
0
0
SPLINE
5
304
100
AcDbEntity
8
0
100
AcDbSpline
70
0
71
2
72
6
73
3
74
0
42
0.000000001
43
0.0000000001
44
0.0000000001
40
0
40
0
40
0
40
1
40
1
40
1
10
441.56454099505191
20
146.78106287816865
30
0
10
443.02168442099338
20
146.78106287817303
30
0
10
443.77596927969904
20
146.07820550303032
30
0
0
SPLINE
5
305
100
AcDbEntity
8
0
100
AcDbSpline
70
0
71
2
72
6
73
3
74
0
42
0.000000001
43
0.0000000001
44
0.0000000001
40
0
40
0
40
0
40
1
40
1
40
1
10
443.77596927969904
20
146.07820550303032
30
0
10
444.53025533049765
20
145.37534812788761
30
0
10
444.5302553305018
20
143.96963397364414
30
0
0
LINE
5
306
100
AcDbEntity
8
0
100
AcDbLine
10
444.5302553305018
20
143.96963397364414
30
0
11
444.53025533052005
21
137.8324911962012
31
0
0
LINE
5
307
100
AcDbEntity
8
0
100
AcDbLine
10
444.53025533052005
20
137.8324911962012
30
0
11
442.81596971841373
21
137.83249119619609
31
0
0
LINE
5
308
100
AcDbEntity
8
0
100
AcDbLine
10
442.81596971841373
20
137.83249119619609
30
0
11
442.81596971840406
21
141.08963350157023
31
0
0
LINE
5
309
100
AcDbEntity
8
0
100
AcDbLine
10
442.81596971840406
20
141.08963350157023
30
0
11
439.64454068035627
21
141.08963350156077
31
0
0
LINE
5
310
100
AcDbEntity
8
0
100
AcDbLine
10
439.64454068035627
20
141.08963350156077
30
0
11
439.64454068036395
21
138.50106219151743
31
0
0
LINE
5
311
100
AcDbEntity
8
0
100
AcDbLine
10
439.64454068036395
20
138.50106219151743
30
0
11
437.93025566430407
21
138.50106219151232
31
0
0
LINE
5
312
100
AcDbEntity
8
0
100
AcDbLine
10
437.93025566430407
20
138.50106219151229
30
0
11
437.9302556642964
21
141.08963350155562
31
0
0
LINE
5
313
100
AcDbEntity
8
0
100
AcDbLine
10
437.9302556642964
20
141.08963350155562
30
0
11
434.24454046577955
21
141.0896335015446
31
0
0
LINE
5
314
100
AcDbEntity
8
0
100
AcDbLine
10
434.24454046577955
20
141.0896335015446
30
0
11
434.24454046578921
21
137.83249119617045
31
0
0
LINE
5
315
100
AcDbEntity
8
0
100
AcDbLine
10
434.24454046578921
20
137.83249119617045
30
0
11
432.53025485368289
21
137.83249119616534
31
0
0
LINE
5
316
100
AcDbEntity
8
0
100
AcDbLine
10
432.53025485368289
20
137.83249119616534
30
0
11
432.53025485366464
21
143.96963397360827
31
0
0
LINE
5
317
100
AcDbEntity
8
0
100
AcDbLine
10
434.24454046577398
20
142.97534803248942
30
0
11
442.81596971839849
21
142.97534803251506
31
0
0
LINE
5
318
100
AcDbEntity
8
0
100
AcDbLine
10
442.81596971839849
20
142.97534803251506
30
0
11
442.81596971839565
21
143.93534818987132
31
0
0
SPLINE
5
319
100
AcDbEntity
8
0
100
AcDbSpline
70
0
71
2
72
6
73
3
74
0
42
0.000000001
43
0.0000000001
44
0.0000000001
40
0
40
0
40
0
40
1
40
1
40
1
10
442.81596971839565
20
143.93534818987132
30
0
10
442.81596971839417
20
144.39820567468882
30
0
10
442.54168344825189
20
144.6553484568993
30
0
0
SPLINE
5
320
100
AcDbEntity
8
0
100
AcDbSpline
70
0
71
2
72
6
73
3
74
0
42
0.000000001
43
0.0000000001
44
0.0000000001
40
0
40
0
40
0
40
1
40
1
40
1
10
442.54168344825189
20
144.6553484568993
30
0
10
442.2673983702025
20
144.89534834722593
30
0
10
441.65025545447679
20
144.89534834722409
30
0
0
LINE
5
321
100
AcDbEntity
8
0
100
AcDbLine
10
441.65025545447679
20
144.89534834722409
30
0
11
435.41025472968431
21
144.89534834720544
31
0
0
SPLINE
5
322
100
AcDbEntity
8
0
100
AcDbSpline
70
0
71
2
72
6
73
3
74
0
42
0.000000001
43
0.0000000001
44
0.0000000001
40
0
40
0
40
0
40
1
40
1
40
1
10
435.41025472968431
20
144.89534834720544
30
0
10
434.7931118139586
20
144.89534834720362
30
0
10
434.51882673591058
20
144.65534845687532
30
0
0
SPLINE
5
323
100
AcDbEntity
8
0
100
AcDbSpline
70
0
71
2
72
6
73
3
74
0
42
0.000000001
43
0.0000000001
44
0.0000000001
40
0
40
0
40
0
40
1
40
1
40
1
10
434.51882673591058
20
144.65534845687532
30
0
10
434.24454046576966
20
144.39820567466319
30
0
10
434.24454046577114
20
143.93534818984568
30
0
0
LINE
5
324
100
AcDbEntity
8
0
100
AcDbLine
10
434.24454046577114
20
143.93534818984568
30
0
11
434.24454046577398
21
142.97534803248942
31
0
0
LINE
5
325
100
AcDbEntity
8
0
100
AcDbLine
10
444.53025533052323
20
136.75249079565799
30
0
11
444.53025533053159
21
133.95820478300845
31
0
0
SPLINE
5
326
100
AcDbEntity
8
0
100
AcDbSpline
70
0
71
2
72
6
73
3
74
0
42
0.000000001
43
0.0000000001
44
0.0000000001
40
0
40
0
40
0
40
1
40
1
40
1
10
444.53025533053159
20
133.95820478300845
30
0
10
444.53025533053591
20
132.50106195311344
30
0
10
443.84454084727679
20
131.83249095778058
30
0
0
SPLINE
5
327
100
AcDbEntity
8
0
100
AcDbSpline
70
0
71
2
72
6
73
3
74
0
42
0.000000001
43
0.0000000001
44
0.0000000001
40
0
40
0
40
0
40
1
40
1
40
1
10
443.84454084727679
20
131.83249095778058
30
0
10
443.17596985194797
20
131.16391996244778
30
0
10
441.77025510165805
20
131.16391996244357
30
0
0
LINE
5
328
100
AcDbEntity
8
0
100
AcDbLine
10
441.77025510165805
20
131.16391996244357
30
0
11
441.03311253879184
21
131.16391996244138
31
0
0
SPLINE
5
329
100
AcDbEntity
8
0
100
AcDbSpline
70
0
71
2
72
6
73
3
74
0
42
0.000000001
43
0.0000000001
44
0.0000000001
40
0
40
0
40
0
40
1
40
1
40
1
10
441.03311253879184
20
131.16391996244138
30
0
10
439.16454089973087
20
131.16391996243578
30
0
10
438.66739822718841
20
132.39820579388572
30
0
0
LINE
5
330
100
AcDbEntity
8
0
100
AcDbLine
10
438.66739822718841
20
132.39820579388572
30
0
11
438.63311244342071
21
132.39820579388561
31
0
0
SPLINE
5
331
100
AcDbEntity
8
0
100
AcDbSpline
70
0
71
2
72
6
73
3
74
0
42
0.000000001
43
0.0000000001
44
0.0000000001
40
0
40
0
40
0
40
1
40
1
40
1
10
438.63311244342071
20
132.39820579388561
30
0
10
438.42739833686301
20
131.71249011853098
30
0
10
437.79311252925424
20
131.4382038483875
30
0
0
SPLINE
5
332
100
AcDbEntity
8
0
100
AcDbSpline
70
0
71
2
72
6
73
3
74
0
42
0.000000001
43
0.0000000001
44
0.0000000001
40
0
40
0
40
0
40
1
40
1
40
1
10
437.79311252925424
20
131.4382038483875
30
0
10
437.15882612559915
20
131.14677528240659
30
0
10
436.09596921298623
20
131.14677528240344
30
0
0
LINE
5
333
100
AcDbEntity
8
0
100
AcDbLine
10
436.09596921298623
20
131.14677528240344
30
0
11
433.98739768359781
21
131.14677528239713
31
0
0
SPLINE
5
334
100
AcDbEntity
8
0
100
AcDbSpline
70
0
71
2
72
6
73
3
74
0
42
0.000000001
43
0.0000000001
44
0.0000000001
40
0
40
0
40
0
40
1
40
1
40
1
10
433.98739768359781
20
131.14677528239713
30
0
10
433.4731121191752
20
131.14677528239557
30
0
10
433.14739776942861
20
131.11249069071982
30
0
0
SPLINE
5
335
100
AcDbEntity
8
0
100
AcDbSpline
70
0
71
2
72
6
73
3
74
0
42
0.000000001
43
0.0000000001
44
0.0000000001
40
0
40
0
40
0
40
1
40
1
40
1
10
433.14739776942861
20
131.11249069071982
30
0
10
432.83882571551942
20
131.07820609904408
30
0
10
432.53025485370335
20
130.94106296397234
30
0
0
LINE
5
336
100
AcDbEntity
8
0
100
AcDbLine
10
432.53025485370335
20
130.94106296397234
30
0
11
432.53025485369767
21
132.86106208659197
31
0
0
SPLINE
5
337
100
AcDbEntity
8
0
100
AcDbSpline
70
0
71
2
72
6
73
3
74
0
42
0.000000001
43
0.0000000001
44
0.0000000001
40
0
40
0
40
0
40
1
40
1
40
1
10
432.53025485369767
20
132.86106208659197
30
0
10
432.82168341967639
20
132.96391824580306
30
0
10
433.07882620188758
20
132.99820522166442
30
0
0
SPLINE
5
338
100
AcDbEntity
8
0
100
AcDbSpline
70
0
71
2
72
6
73
3
74
0
42
0.000000001
43
0.0000000001
44
0.0000000001
40
0
40
0
40
0
40
1
40
1
40
1
10
433.07882620188758
20
132.99820522166442
30
0
10
433.33596898409883
20
133.03248981334002
30
0
10
434.00454117152253
20
133.03248981334201
30
0
0
LINE
5
339
100
AcDbEntity
8
0
100
AcDbLine
10
434.00454117152253
20
133.03248981334201
30
0
11
436.19882656428376
21
133.03248981334855
31
0
0
SPLINE
5
340
100
AcDbEntity
8
0
100
AcDbSpline
70
0
71
2
72
6
73
3
74
0
42
0.000000001
43
0.0000000001
44
0.0000000001
40
0
40
0
40
0
40
1
40
1
40
1
10
436.19882656428376
20
133.03248981334855
30
0
10
437.02168299052278
20
133.03248981335102
30
0
10
437.34739853236147
20
133.30677608349359
30
0
0
SPLINE
5
341
100
AcDbEntity
8
0
100
AcDbSpline
70
0
71
2
72
6
73
3
74
0
42
0.000000001
43
0.0000000001
44
0.0000000001
40
0
40
0
40
0
40
1
40
1
40
1
10
437.34739853236147
20
133.30677608349359
30
0
10
437.67311169001459
20
133.56392005779875
30
0
10
437.6731116900126
20
134.21534756519927
30
0
0
LINE
5
342
100
AcDbEntity
8
0
100
AcDbLine
10
437.6731116900126
20
134.21534756519927
30
0
11
437.67311169001067
21
134.86677626469267
31
0
0
LINE
5
343
100
AcDbEntity
8
0
100
AcDbLine
10
437.67311169001067
20
134.86677626469267
30
0
11
432.5302548536917
21
134.8667762646773
31
0
0
LINE
5
344
100
AcDbEntity
8
0
100
AcDbLine
10
432.5302548536917
20
134.8667762646773
30
0
11
432.53025485368607
21
136.75249079562212
31
0
0
LINE
5
345
100
AcDbEntity
8
0
100
AcDbLine
10
432.53025485368607
20
136.75249079562212
30
0
11
444.53025533052323
21
136.75249079565799
31
0
0
SPLINE
5
346
100
AcDbEntity
8
0
100
AcDbSpline
70
0
71
2
72
6
73
3
74
0
42
0.000000001
43
0.0000000001
44
0.0000000001
40
0
40
0
40
0
40
1
40
1
40
1
10
439.38739789816555
20
134.18106178143671
30
0
10
439.38739789816714
20
133.615348137409
30
0
10
439.67882646414699
20
133.34106305936115
30
0
0
SPLINE
5
347
100
AcDbEntity
8
0
100
AcDbSpline
70
0
71
2
72
6
73
3
74
0
42
0.000000001
43
0.0000000001
44
0.0000000001
40
0
40
0
40
0
40
1
40
1
40
1
10
439.67882646414699
20
133.34106305936115
30
0
10
439.97025503012685
20
133.04963449338302
30
0
10
440.65596951338796
20
133.04963449338507
30
0
0
LINE
5
348
100
AcDbEntity
8
0
100
AcDbLine
10
440.65596951338796
20
133.04963449338507
30
0
11
441.58168388697652
21
133.04963449338783
31
0
0
SPLINE
5
349
100
AcDbEntity
8
0
100
AcDbSpline
70
0
71
2
72
6
73
3
74
0
42
0.000000001
43
0.0000000001
44
0.0000000001
40
0
40
0
40
0
40
1
40
1
40
1
10
441.58168388697652
20
133.04963449338783
30
0
10
442.23311258646993
20
133.04963449338976
30
0
10
442.52454115244825
20
133.28963378767168
30
0
0
SPLINE
5
350
100
AcDbEntity
8
0
100
AcDbSpline
70
0
71
2
72
6
73
3
74
0
42
0.000000001
43
0.0000000001
44
0.0000000001
40
0
40
0
40
0
40
1
40
1
40
1
10
442.52454115244825
20
133.28963378767168
30
0
10
442.81596971842657
20
133.51249078611613
30
0
10
442.81596971842509
20
134.00963405470134
30
0
0
LINE
5
351
100
AcDbEntity
8
0
100
AcDbLine
10
442.81596971842509
20
134.00963405470134
30
0
11
442.81596971842254
21
134.86677626470805
31
0
0
LINE
5
352
100
AcDbEntity
8
0
100
AcDbLine
10
442.81596971842254
20
134.86677626470805
30
0
11
439.38739789816344
21
134.86677626469782
31
0
0
LINE
5
353
100
AcDbEntity
8
0
100
AcDbLine
10
439.38739789816344
20
134.86677626469782
30
0
11
439.38739789816555
21
134.18106178143671
31
0
0
LINE
5
354
100
AcDbEntity
8
0
100
AcDbLine
10
444.53025533054381
20
129.8439202676276
30
0
11
444.53025533055086
21
127.47820476393498
31
0
0
LINE
5
355
100
AcDbEntity
8
0
100
AcDbLine
10
444.53025533055086
20
127.47820476393498
30
0
11
437.34739853238432
21
125.64391950466668
31
0
0
LINE
5
356
100
AcDbEntity
8
0
100
AcDbLine
10
437.34739853238432
20
125.64391950466668
30
0
11
437.34739853238437
21
125.60963252880609
31
0
0
LINE
5
357
100
AcDbEntity
8
0
100
AcDbLine
10
437.34739853238437
20
125.60963252880609
30
0
11
444.53025533055637
21
125.60963252882756
31
0
0
LINE
5
358
100
AcDbEntity
8
0
100
AcDbLine
10
444.53025533055637
20
125.60963252882756
30
0
11
444.53025533056132
21
123.92963270048894
31
0
0
LINE
5
359
100
AcDbEntity
8
0
100
AcDbLine
10
444.53025533056143
20
123.92963270048894
30
0
11
432.53025485372427
21
123.92963270045307
31
0
0
LINE
5
360
100
AcDbEntity
8
0
100
AcDbLine
10
432.53025485372427
20
123.92963270045307
30
0
11
432.53025485371847
21
125.86677650309589
31
0
0
LINE
5
361
100
AcDbEntity
8
0
100
AcDbLine
10
432.53025485371847
20
125.86677650309589
30
0
11
441.29025532101218
21
128.12963346341871
31
0
0
LINE
5
362
100
AcDbEntity
8
0
100
AcDbLine
10
441.29025532101218
20
128.12963346341871
30
0
11
441.29025532101207
21
128.16392043927931
31
0
0
LINE
5
363
100
AcDbEntity
8
0
100
AcDbLine
10
441.29025532101201
20
128.16392043927931
30
0
11
432.5302548537116
21
128.1639204392531
31
0
0
LINE
5
364
100
AcDbEntity
8
0
100
AcDbLine
10
432.5302548537116
20
128.1639204392531
30
0
11
432.53025485370665
21
129.84392026759173
31
0
0
LINE
5
365
100
AcDbEntity
8
0
100
AcDbLine
10
432.53025485370665
20
129.84392026759173
30
0
11
444.53025533054381
21
129.8439202676276
31
0
0
LINE
5
366
100
AcDbEntity
8
0
100
AcDbLine
10
121.53827568289961
20
193.56677201038366
30
0
11
121.85536468669616
21
193.88405879492848
31
0
0
LINE
5
367
100
AcDbEntity
8
0
100
AcDbLine
10
121.85536468669616
20
193.88405879492848
30
0
11
123.00923033246099
21
193.01366671297052
31
0
0
LINE
5
368
100
AcDbEntity
8
0
100
AcDbLine
10
123.00923033246099
20
193.01366671297052
30
0
11
123.01327011221591
21
193.01770901249327
31
0
0
LINE
5
369
100
AcDbEntity
8
0
100
AcDbLine
10
123.01327011221589
20
193.01770901249327
30
0
11
122.14215871302727
21
194.17103170585176
31
0
0
LINE
5
370
100
AcDbEntity
8
0
100
AcDbLine
10
122.14215871302727
20
194.17103170585176
30
0
11
122.45924771682382
21
194.48831849039658
31
0
0
LINE
5
371
100
AcDbEntity
8
0
100
AcDbLine
10
122.45924771682382
20
194.48831849039658
30
0
11
123.87390224942527
21
193.074545782835
31
0
0
LINE
5
372
100
AcDbEntity
8
0
100
AcDbLine
10
123.87390224942524
20
193.074545782835
30
0
11
123.66385603303351
21
192.86436855244608
31
0
0
LINE
5
373
100
AcDbEntity
8
0
100
AcDbLine
10
123.66385603303351
20
192.86436855244608
30
0
11
122.59276049147527
21
193.93479642649481
31
0
0
LINE
5
374
100
AcDbEntity
8
0
100
AcDbLine
10
122.59276049147527
20
193.93479642649478
30
0
11
122.5887211330574
21
193.93075454857194
31
0
0
LINE
5
375
100
AcDbEntity
8
0
100
AcDbLine
10
122.5887211330574
20
193.93075454857194
30
0
11
123.49824275923824
21
192.69865197920865
31
0
0
LINE
5
376
100
AcDbEntity
8
0
100
AcDbLine
10
123.49824275923824
20
192.69865197920865
30
0
11
123.31243248268514
21
192.51272580555695
31
0
0
LINE
5
377
100
AcDbEntity
8
0
100
AcDbLine
10
123.31243248268514
20
192.51272580555693
30
0
11
122.07976281508095
21
193.42147877349109
31
0
0
LINE
5
378
100
AcDbEntity
8
0
100
AcDbLine
10
122.07976281508097
20
193.42147877349112
30
0
11
122.0757234566631
21
193.4174368955683
31
0
0
LINE
5
379
100
AcDbEntity
8
0
100
AcDbLine
10
122.0757234566631
20
193.41743689556824
30
0
11
123.14681899822135
21
192.34700902151954
31
0
0
LINE
5
380
100
AcDbEntity
8
0
100
AcDbLine
10
123.14681899822135
20
192.34700902151957
30
0
11
122.95293021550106
21
192.15299930282211
31
0
0
LINE
5
381
100
AcDbEntity
8
0
100
AcDbLine
10
122.95293021550106
20
192.15299930282208
30
0
11
121.53827568289961
21
193.56677201038363
31
0
0
LINE
5
382
100
AcDbEntity
8
0
100
AcDbLine
10
122.62486099061908
20
194.65403506363401
30
0
11
122.84702528226441
21
194.87633792779152
31
0
0
LINE
5
383
100
AcDbEntity
8
0
100
AcDbLine
10
122.84702528226441
20
194.87633792779152
30
0
11
124.26167981486586
21
193.46256522022998
31
0
0
LINE
5
384
100
AcDbEntity
8
0
100
AcDbLine
10
124.26167981486586
20
193.46256522022995
30
0
11
124.03951552322053
21
193.24026235607244
31
0
0
LINE
5
385
100
AcDbEntity
8
0
100
AcDbLine
10
124.03951552322053
20
193.24026235607246
30
0
11
122.62486099061908
21
194.65403506363401
31
0
0
SPLINE
5
386
100
AcDbEntity
8
0
100
AcDbSpline
70
0
71
2
72
6
73
3
74
0
42
0.000000001
43
0.0000000001
44
0.0000000001
40
0
40
0
40
0
40
1
40
1
40
1
10
124.76055254499116
20
193.9213303295999
30
0
10
124.60099809815416
20
193.76167636244679
30
0
10
124.42522952891467
20
193.76768227980017
30
0
0
SPLINE
5
387
100
AcDbEntity
8
0
100
AcDbSpline
70
0
71
2
72
6
73
3
74
0
42
0.000000001
43
0.0000000001
44
0.0000000001
40
0
40
0
40
0
40
1
40
1
40
1
10
124.42522952891467
20
193.76768227980017
30
0
10
124.25148063875271
20
193.77570955758335
30
0
10
124.08576406551538
20
193.94132283137876
30
0
0
LINE
5
388
100
AcDbEntity
8
0
100
AcDbLine
10
124.08576406551538
20
193.94132283137876
30
0
11
123.32589249161745
21
194.70072073925749
31
0
0
SPLINE
5
389
100
AcDbEntity
8
0
100
AcDbSpline
70
0
71
2
72
6
73
3
74
0
42
0.000000001
43
0.0000000001
44
0.0000000001
40
0
40
0
40
0
40
1
40
1
40
1
10
123.32589249161745
20
194.70072073925749
30
0
10
123.16017581298014
20
194.86633411838713
30
0
10
123.15204040741338
20
195.04007775873927
30
0
0
SPLINE
5
390
100
AcDbEntity
8
0
100
AcDbSpline
70
0
71
2
72
6
73
3
74
0
42
0.000000001
43
0.0000000001
44
0.0000000001
40
0
40
0
40
0
40
1
40
1
40
1
10
123.15204040741338
20
195.04007775873927
30
0
10
123.14592478632413
20
195.21584265418704
30
0
10
123.30547923316112
20
195.37549662134012
30
0
0
SPLINE
5
391
100
AcDbEntity
8
0
100
AcDbSpline
70
0
71
2
72
6
73
3
74
0
42
0.000000001
43
0.0000000001
44
0.0000000001
40
0
40
0
40
0
40
1
40
1
40
1
10
123.30547923316112
20
195.37549662134012
30
0
10
123.46503325866108
20
195.53515016689335
30
0
10
123.63878204342306
20
195.52712299444437
30
0
0
SPLINE
5
392
100
AcDbEntity
8
0
100
AcDbSpline
70
0
71
2
72
6
73
3
74
0
42
0.000000001
43
0.0000000001
44
0.0000000001
40
0
40
0
40
0
40
1
40
1
40
1
10
123.63878204342306
20
195.52712299444437
30
0
10
123.81455061266254
20
195.52111707709105
30
0
10
123.98026729129984
20
195.35550369796141
30
0
0
LINE
5
393
100
AcDbEntity
8
0
100
AcDbLine
10
123.98026729129984
20
195.35550369796141
30
0
11
124.12981656364568
21
195.20604764716896
31
0
0
LINE
5
394
100
AcDbEntity
8
0
100
AcDbLine
10
124.1298165636457
20
195.20604764716896
30
0
11
123.91977034725397
21
194.99587041678006
31
0
0
LINE
5
395
100
AcDbEntity
8
0
100
AcDbLine
10
123.91977034725394
20
194.99587041678006
30
0
11
123.75607450217811
21
195.15946422203501
31
0
0
SPLINE
5
396
100
AcDbEntity
8
0
100
AcDbSpline
70
0
71
2
72
6
73
3
74
0
42
0.000000001
43
0.0000000001
44
0.0000000001
40
0
40
0
40
0
40
1
40
1
40
1
10
123.75607450217811
20
195.15946422203501
30
0
10
123.62471378588509
20
195.29074305461282
30
0
10
123.51363164006243
20
195.17959162253405
30
0
0
SPLINE
5
397
100
AcDbEntity
8
0
100
AcDbSpline
70
0
71
2
72
6
73
3
74
0
42
0.000000001
43
0.0000000001
44
0.0000000001
40
0
40
0
40
0
40
1
40
1
40
1
10
123.51363164006243
20
195.17959162253405
30
0
10
123.40254949423976
20
195.06844019045531
30
0
10
123.53391021053277
20
194.9371613578775
30
0
0
LINE
5
398
100
AcDbEntity
8
0
100
AcDbLine
10
123.53391021053277
20
194.9371613578775
30
0
11
124.32409586885213
21
194.14746826186476
31
0
0
SPLINE
5
399
100
AcDbEntity
8
0
100
AcDbSpline
70
0
71
2
72
6
73
3
74
0
42
0.000000001
43
0.0000000001
44
0.0000000001
40
0
40
0
40
0
40
1
40
1
40
1
10
124.32409586885214
20
194.14746826186476
30
0
10
124.45343575158368
20
194.01820900316167
30
0
10
124.56451789740635
20
194.12936043524041
30
0
0
SPLINE
5
400
100
AcDbEntity
8
0
100
AcDbSpline
70
0
71
2
72
6
73
3
74
0
42
0.000000001
43
0.0000000001
44
0.0000000001
40
0
40
0
40
0
40
1
40
1
40
1
10
124.56451789740635
20
194.12936043524041
30
0
10
124.67560004322903
20
194.24051186731916
30
0
10
124.54626016049745
20
194.36977112602227
30
0
0
LINE
5
401
100
AcDbEntity
8
0
100
AcDbLine
10
124.54626016049745
20
194.36977112602227
30
0
11
124.33002011322438
21
194.58587638004099
31
0
0
LINE
5
402
100
AcDbEntity
8
0
100
AcDbLine
10
124.33002011322438
20
194.58587638004099
30
0
11
124.54006632961611
21
194.79605361042988
31
0
0
LINE
5
403
100
AcDbEntity
8
0
100
AcDbLine
10
124.54006632961614
20
194.79605361042988
30
0
11
124.74013886519778
21
194.59610579008267
31
0
0
SPLINE
5
404
100
AcDbEntity
8
0
100
AcDbSpline
70
0
71
2
72
6
73
3
74
0
42
0.000000001
43
0.0000000001
44
0.0000000001
40
0
40
0
40
0
40
1
40
1
40
1
10
124.74013886519778
20
194.59610579008267
30
0
10
124.90585543843511
20
194.4304925162873
30
0
10
124.91197116492435
20
194.25472751550527
30
0
0
SPLINE
5
405
100
AcDbEntity
8
0
100
AcDbSpline
70
0
71
2
72
6
73
3
74
0
42
0.000000001
43
0.0000000001
44
0.0000000001
40
0
40
0
40
0
40
1
40
1
40
1
10
124.91197116492435
20
194.25472751550527
30
0
10
124.9201065704911
20
194.08098387515312
30
0
10
124.76055254499116
20
193.9213303295999
30
0
0
LINE
5
406
100
AcDbEntity
8
0
100
AcDbLine
10
155.38680255564768
20
180.9632414486768
30
0
11
155.85245508232936
21
180.95565418100207
31
0
0
SPLINE
5
407
100
AcDbEntity
8
0
100
AcDbSpline
70
0
71
2
72
6
73
3
74
0
42
0.000000001
43
0.0000000001
44
0.0000000001
40
0
40
0
40
0
40
1
40
1
40
1
10
155.85245508232936
20
180.95565418100207
30
0
10
156.0952801877431
20
180.95169762763373
30
0
10
156.20483199348004
20
180.83561179039486
30
0
0
SPLINE
5
408
100
AcDbEntity
8
0
100
AcDbSpline
70
0
71
2
72
6
73
3
74
0
42
0.000000001
43
0.0000000001
44
0.0000000001
40
0
40
0
40
0
40
1
40
1
40
1
10
156.20483199348004
20
180.83561179039486
30
0
10
156.31443034453318
20
180.72238257361585
30
0
10
156.3106134368239
20
180.48812792554912
30
0
0
LINE
5
409
100
AcDbEntity
8
0
100
AcDbLine
10
156.3106134368239
20
180.48812792554912
30
0
11
156.30861188869548
21
180.36528713710823
31
0
0
SPLINE
5
410
100
AcDbEntity
8
0
100
AcDbSpline
70
0
71
2
72
6
73
3
74
0
42
0.000000001
43
0.0000000001
44
0.0000000001
40
0
40
0
40
0
40
1
40
1
40
1
10
156.30861188869548
20
180.36528713710823
30
0
10
156.30353819433105
20
180.05389986283654
30
0
10
156.0965012072194
20
179.97440498143507
30
0
0
LINE
5
411
100
AcDbEntity
8
0
100
AcDbLine
10
156.0965012072194
20
179.97440498143507
30
0
11
156.09640811415946
21
179.96869159152342
31
0
0
SPLINE
5
412
100
AcDbEntity
8
0
100
AcDbSpline
70
0
71
2
72
6
73
3
74
0
42
0.000000001
43
0.0000000001
44
0.0000000001
40
0
40
0
40
0
40
1
40
1
40
1
10
156.09640811415946
20
179.96869159152342
30
0
10
156.21012031930314
20
179.93254844835033
30
0
10
156.25410636643764
20
179.8261033637271
30
0
0
SPLINE
5
413
100
AcDbEntity
8
0
100
AcDbSpline
70
0
71
2
72
6
73
3
74
0
42
0.000000001
43
0.0000000001
44
0.0000000001
40
0
40
0
40
0
40
1
40
1
40
1
10
156.25410636643764
20
179.8261033637271
30
0
10
156.30094888746788
20
179.71961188520714
30
0
10
156.2980629322071
20
179.54249247718332
30
0
0
LINE
5
414
100
AcDbEntity
8
0
100
AcDbLine
10
156.2980629322071
20
179.54249247718332
30
0
11
156.29233757185702
21
179.19111057957917
31
0
0
SPLINE
5
415
100
AcDbEntity
8
0
100
AcDbSpline
70
0
71
2
72
6
73
3
74
0
42
0.000000001
43
0.0000000001
44
0.0000000001
40
0
40
0
40
0
40
1
40
1
40
1
10
156.29233757185702
20
179.19111057957912
30
0
10
156.29094114197042
20
179.10540764501894
30
0
10
156.29577027616921
20
179.05103607894023
30
0
0
SPLINE
5
416
100
AcDbEntity
8
0
100
AcDbSpline
70
0
71
2
72
6
73
3
74
0
42
0.000000001
43
0.0000000001
44
0.0000000001
40
0
40
0
40
0
40
1
40
1
40
1
10
156.29577027616921
20
179.05103607894023
30
0
10
156.3006459581118
20
178.99952128231322
30
0
10
156.32266225433713
20
178.94772705023155
30
0
0
LINE
5
417
100
AcDbEntity
8
0
100
AcDbLine
10
156.32266225433713
20
178.94772705023155
30
0
11
156.00270467171021
21
178.95294038782737
31
0
0
SPLINE
5
418
100
AcDbEntity
8
0
100
AcDbSpline
70
0
71
2
72
6
73
3
74
0
42
0.000000001
43
0.0000000001
44
0.0000000001
40
0
40
0
40
0
40
1
40
1
40
1
10
156.00270467171021
20
178.9529403878274
30
0
10
155.98635536664455
20
179.00178475496972
30
0
10
155.98134004147053
20
179.04472924324151
30
0
0
SPLINE
5
419
100
AcDbEntity
8
0
100
AcDbSpline
70
0
71
2
72
6
73
3
74
0
42
0.000000001
43
0.0000000001
44
0.0000000001
40
0
40
0
40
0
40
1
40
1
40
1
10
155.98134004147053
20
179.04472924324151
30
0
10
155.97632471629655
20
179.08767373151332
30
0
10
155.97814007587741
20
179.19908759113909
30
0
0
LINE
5
420
100
AcDbEntity
8
0
100
AcDbLine
10
155.97814007587741
20
179.19908759113909
30
0
11
155.98409817494652
21
179.56475333600193
31
0
0
SPLINE
5
421
100
AcDbEntity
8
0
100
AcDbSpline
70
0
71
2
72
6
73
3
74
0
42
0.000000001
43
0.0000000001
44
0.0000000001
40
0
40
0
40
0
40
1
40
1
40
1
10
155.98409817494652
20
179.56475333600193
30
0
10
155.98633246179398
20
179.70187797170152
30
0
10
155.94150855769857
20
179.75690135518536
30
0
0
SPLINE
5
422
100
AcDbEntity
8
0
100
AcDbSpline
70
0
71
2
72
6
73
3
74
0
42
0.000000001
43
0.0000000001
44
0.0000000001
40
0
40
0
40
0
40
1
40
1
40
1
10
155.94150855769857
20
179.75690135518536
30
0
10
155.89954171861092
20
179.81187803707829
30
0
10
155.79098447944503
20
179.81364685134298
30
0
0
LINE
5
423
100
AcDbEntity
8
0
100
AcDbLine
10
155.79098447944503
20
179.81364685134298
30
0
11
155.6824275382628
21
179.81541566075236
31
0
0
LINE
5
424
100
AcDbEntity
8
0
100
AcDbLine
10
155.6824275382628
20
179.81541566075236
30
0
11
155.66846324182467
21
178.95838646414228
31
0
0
LINE
5
425
100
AcDbEntity
8
0
100
AcDbLine
10
155.66846324182467
20
178.95838646414228
30
0
11
155.35421919810122
21
178.96350670625051
31
0
0
LINE
5
426
100
AcDbEntity
8
0
100
AcDbLine
10
155.35421919810122
20
178.96350670625051
30
0
11
155.38680255564768
21
180.9632414486768
31
0
0
SPLINE
5
427
100
AcDbEntity
8
0
100
AcDbSpline
70
0
71
2
72
6
73
3
74
0
42
0.000000001
43
0.0000000001
44
0.0000000001
40
0
40
0
40
0
40
1
40
1
40
1
10
155.80135278301864
20
180.09923010506145
30
0
10
155.89562617492589
20
180.09769402951579
30
0
10
155.94212549738705
20
180.14551420215784
30
0
0
SPLINE
5
428
100
AcDbEntity
8
0
100
AcDbSpline
70
0
71
2
72
6
73
3
74
0
42
0.000000001
43
0.0000000001
44
0.0000000001
40
0
40
0
40
0
40
1
40
1
40
1
10
155.94212549738705
20
180.14551420215784
30
0
10
155.99148188971125
20
180.1932879711926
30
0
10
155.99334379460825
20
180.30755845127828
30
0
0
LINE
5
429
100
AcDbEntity
8
0
100
AcDbLine
10
155.99334379460825
20
180.30755845127828
30
0
11
155.99585736791857
21
180.46182370368825
31
0
0
SPLINE
5
430
100
AcDbEntity
8
0
100
AcDbSpline
70
0
71
2
72
6
73
3
74
0
42
0.000000001
43
0.0000000001
44
0.0000000001
40
0
40
0
40
0
40
1
40
1
40
1
10
155.99585736791857
20
180.46182370368828
30
0
10
155.99762617975563
20
180.57038079386234
30
0
10
155.9584230146321
20
180.61959738910801
30
0
0
SPLINE
5
431
100
AcDbEntity
8
0
100
AcDbSpline
70
0
71
2
72
6
73
3
74
0
42
0.000000001
43
0.0000000001
44
0.0000000001
40
0
40
0
40
0
40
1
40
1
40
1
10
155.9584230146321
20
180.61959738910801
30
0
10
155.92207632340427
20
180.66876759045698
30
0
10
155.83923000930398
20
180.67011747502738
30
0
0
LINE
5
432
100
AcDbEntity
8
0
100
AcDbLine
10
155.83923000930398
20
180.67011747502738
30
0
11
155.69639183470093
21
180.67244485736245
31
0
0
LINE
5
433
100
AcDbEntity
8
0
100
AcDbLine
10
155.69639183470093
20
180.67244485736245
30
0
11
155.68708230293294
21
180.10109200995845
31
0
0
LINE
5
434
100
AcDbEntity
8
0
100
AcDbLine
10
155.68708230293296
20
180.10109200995845
30
0
11
155.80135278301867
21
180.09923010506145
31
0
0
LINE
5
435
100
AcDbEntity
8
0
100
AcDbLine
10
156.53807855881089
20
180.94448274190944
30
0
11
157.39510790441284
21
180.9305184430437
31
0
0
LINE
5
436
100
AcDbEntity
8
0
100
AcDbLine
10
157.39510790441284
20
180.93051844304372
30
0
11
157.39045313974265
21
180.64484209383764
31
0
0
LINE
5
437
100
AcDbEntity
8
0
100
AcDbLine
10
157.39045313974268
20
180.64484209383764
30
0
11
156.84766783786418
21
180.65368615059515
31
0
0
LINE
5
438
100
AcDbEntity
8
0
100
AcDbLine
10
156.84766783786418
20
180.65368615059515
30
0
11
156.83905651982565
21
180.12518469597529
31
0
0
LINE
5
439
100
AcDbEntity
8
0
100
AcDbLine
10
156.83905651982565
20
180.12518469597529
30
0
11
157.27042781308651
21
180.11815600122628
31
0
0
LINE
5
440
100
AcDbEntity
8
0
100
AcDbLine
10
157.27042781308651
20
180.11815600122628
30
0
11
157.26577304841635
21
179.8324796520202
31
0
0
LINE
5
441
100
AcDbEntity
8
0
100
AcDbLine
10
157.26577304841635
20
179.8324796520202
30
0
11
156.83440175515548
21
179.83950834676921
31
0
0
LINE
5
442
100
AcDbEntity
8
0
100
AcDbLine
10
156.83440175515551
20
179.83950834676921
30
0
11
156.82439400965805
21
179.22530410658101
31
0
0
LINE
5
443
100
AcDbEntity
8
0
100
AcDbLine
10
156.82439400965805
20
179.22530410658101
30
0
11
157.36717931153657
21
179.2164600498235
31
0
0
LINE
5
444
100
AcDbEntity
8
0
100
AcDbLine
10
157.36717931153657
20
179.2164600498235
30
0
11
157.36252454686638
21
178.93078370061741
31
0
0
LINE
5
445
100
AcDbEntity
8
0
100
AcDbLine
10
157.36252454686638
20
178.93078370061741
30
0
11
156.50549520126444
21
178.94474799948316
31
0
0
LINE
5
446
100
AcDbEntity
8
0
100
AcDbLine
10
156.50549520126444
20
178.94474799948316
30
0
11
156.53807855881089
21
180.94448274190944
31
0
0
SPLINE
5
447
100
AcDbEntity
8
0
100
AcDbSpline
70
0
71
2
72
6
73
3
74
0
42
0.000000001
43
0.0000000001
44
0.0000000001
40
0
40
0
40
0
40
1
40
1
40
1
10
157.9848336179717
20
178.89206861737122
30
0
10
157.75914912926837
20
178.89574588427675
30
0
10
157.64125945833922
20
179.02625536585288
30
0
0
SPLINE
5
448
100
AcDbEntity
8
0
100
AcDbSpline
70
0
71
2
72
6
73
3
74
0
42
0.000000001
43
0.0000000001
44
0.0000000001
40
0
40
0
40
0
40
1
40
1
40
1
10
157.64125945833922
20
179.02625536585288
30
0
10
157.52622685241784
20
179.15671814583803
30
0
10
157.53004376012711
20
179.39097279390472
30
0
0
LINE
5
449
100
AcDbEntity
8
0
100
AcDbLine
10
157.53004376012711
20
179.39097279390472
30
0
11
157.54754567781168
21
180.46511602187113
31
0
0
SPLINE
5
450
100
AcDbEntity
8
0
100
AcDbSpline
70
0
71
2
72
6
73
3
74
0
42
0.000000001
43
0.0000000001
44
0.0000000001
40
0
40
0
40
0
40
1
40
1
40
1
10
157.54754567781168
20
180.46511602187113
30
0
10
157.55136258552096
20
180.69937066993785
30
0
10
157.67058447867444
20
180.82601654464142
30
0
0
SPLINE
5
451
100
AcDbEntity
8
0
100
AcDbSpline
70
0
71
2
72
6
73
3
74
0
42
0.000000001
43
0.0000000001
44
0.0000000001
40
0
40
0
40
0
40
1
40
1
40
1
10
157.67058447867444
20
180.82601654464142
30
0
10
157.79266344169096
20
180.9526160157377
30
0
10
158.0183479303943
20
180.94893874883223
30
0
0
SPLINE
5
452
100
AcDbEntity
8
0
100
AcDbSpline
70
0
71
2
72
6
73
3
74
0
42
0.000000001
43
0.0000000001
44
0.0000000001
40
0
40
0
40
0
40
1
40
1
40
1
10
158.0183479303943
20
180.94893874883223
30
0
10
158.24403241909766
20
180.94526148192674
30
0
10
158.35906442662406
20
180.81479856266031
30
0
0
SPLINE
5
453
100
AcDbEntity
8
0
100
AcDbSpline
70
0
71
2
72
6
73
3
74
0
42
0.000000001
43
0.0000000001
44
0.0000000001
40
0
40
0
40
0
40
1
40
1
40
1
10
158.35906442662406
20
180.81479856266031
30
0
10
158.47695409998084
20
180.68428923007602
30
0
10
158.47313719227157
20
180.45003458200932
30
0
0
LINE
5
454
100
AcDbEntity
8
0
100
AcDbLine
10
158.47313719227157
20
180.45003458200932
30
0
11
158.46969266651277
21
180.23863408955648
31
0
0
LINE
5
455
100
AcDbEntity
8
0
100
AcDbLine
10
158.46969266651274
20
180.23863408955648
30
0
11
158.1725892394997
21
180.24347504520188
31
0
0
LINE
5
456
100
AcDbEntity
8
0
100
AcDbLine
10
158.17258923949973
20
180.24347504520188
30
0
11
158.1763595994652
21
180.4748729238168
31
0
0
SPLINE
5
457
100
AcDbEntity
8
0
100
AcDbSpline
70
0
71
2
72
6
73
3
74
0
42
0.000000001
43
0.0000000001
44
0.0000000001
40
0
40
0
40
0
40
1
40
1
40
1
10
158.1763595994652
20
180.4748729238168
30
0
10
158.17938519552973
20
180.66056249120408
30
0
10
158.02226317366802
20
180.66312261225818
30
0
0
SPLINE
5
458
100
AcDbEntity
8
0
100
AcDbSpline
70
0
71
2
72
6
73
3
74
0
42
0.000000001
43
0.0000000001
44
0.0000000001
40
0
40
0
40
0
40
1
40
1
40
1
10
158.02226317366802
20
180.66312261225818
30
0
10
157.86514115180631
20
180.66568273331228
30
0
10
157.86211555574175
20
180.47999316592507
30
0
0
LINE
5
459
100
AcDbEntity
8
0
100
AcDbLine
10
157.86211555574175
20
180.47999316592507
30
0
11
157.84391542190008
21
179.36299839618266
31
0
0
SPLINE
5
460
100
AcDbEntity
8
0
100
AcDbSpline
70
0
71
2
72
6
73
3
74
0
42
0.000000001
43
0.0000000001
44
0.0000000001
40
0
40
0
40
0
40
1
40
1
40
1
10
157.84391542190008
20
179.36299839618266
30
0
10
157.84093637357932
20
179.18016559824713
30
0
10
157.99805839544106
20
179.17760547719303
30
0
0
SPLINE
5
461
100
AcDbEntity
8
0
100
AcDbSpline
70
0
71
2
72
6
73
3
74
0
42
0.000000001
43
0.0000000001
44
0.0000000001
40
0
40
0
40
0
40
1
40
1
40
1
10
157.99805839544106
20
179.17760547719303
30
0
10
158.15518041730277
20
179.17504535613892
30
0
10
158.1581594656235
20
179.3578781540744
30
0
0
LINE
5
462
100
AcDbEntity
8
0
100
AcDbLine
10
158.1581594656235
20
179.3578781540744
30
0
11
158.16314006450031
21
179.66355188944263
31
0
0
LINE
5
463
100
AcDbEntity
8
0
100
AcDbLine
10
158.16314006450034
20
179.66355188944263
30
0
11
158.46024349151338
21
179.65871093379724
31
0
0
LINE
5
464
100
AcDbEntity
8
0
100
AcDbLine
10
158.46024349151335
20
179.65871093379724
30
0
11
158.455635274587
21
179.37589135404292
31
0
0
SPLINE
5
465
100
AcDbEntity
8
0
100
AcDbSpline
70
0
71
2
72
6
73
3
74
0
42
0.000000001
43
0.0000000001
44
0.0000000001
40
0
40
0
40
0
40
1
40
1
40
1
10
158.455635274587
20
179.37589135404292
30
0
10
158.45181836687775
20
179.1416367059762
30
0
10
158.32973940628884
20
179.01503738387174
30
0
0
SPLINE
5
466
100
AcDbEntity
8
0
100
AcDbSpline
70
0
71
2
72
6
73
3
74
0
42
0.000000001
43
0.0000000001
44
0.0000000001
40
0
40
0
40
0
40
1
40
1
40
1
10
158.32973940628884
20
179.01503738387174
30
0
10
158.21051810667507
20
178.88839135046572
30
0
10
157.9848336179717
20
178.89206861737122
30
0
0
LINE
5
467
100
AcDbEntity
8
0
100
AcDbLine
10
143.6020260271132
20
193.13025024871428
30
0
11
143.82419031875853
21
193.35255311287182
31
0
0
LINE
5
468
100
AcDbEntity
8
0
100
AcDbLine
10
143.82419031875853
20
193.35255311287182
30
0
11
145.03675137681691
21
192.14074790486637
31
0
0
LINE
5
469
100
AcDbEntity
8
0
100
AcDbLine
10
145.03675137681688
20
192.14074790486637
30
0
11
145.40231268162779
21
192.50653722448556
31
0
0
LINE
5
470
100
AcDbEntity
8
0
100
AcDbLine
10
145.40231268162779
20
192.50653722448556
30
0
11
145.60440615617085
21
192.30456972492937
31
0
0
LINE
5
471
100
AcDbEntity
8
0
100
AcDbLine
10
145.60440615617085
20
192.30456972492937
30
0
11
145.01668055971464
21
191.71647754115273
31
0
0
LINE
5
472
100
AcDbEntity
8
0
100
AcDbLine
10
145.01668055971464
20
191.71647754115273
30
0
11
143.6020260271132
21
193.13025024871428
31
0
0
LINE
5
473
100
AcDbEntity
8
0
100
AcDbLine
10
144.29679441097423
20
193.82545198664684
30
0
11
144.51895891328809
21
194.04775506160428
31
0
0
LINE
5
474
100
AcDbEntity
8
0
100
AcDbLine
10
144.51895891328809
20
194.04775506160431
30
0
11
145.93361344588953
21
192.63398235404276
31
0
0
LINE
5
475
100
AcDbEntity
8
0
100
AcDbLine
10
145.93361344588953
20
192.6339823540427
30
0
11
145.71144894357565
21
192.41167927908526
31
0
0
LINE
5
476
100
AcDbEntity
8
0
100
AcDbLine
10
145.71144894357565
20
192.41167927908526
30
0
11
144.29679441097423
21
193.82545198664684
31
0
0
LINE
5
477
100
AcDbEntity
8
0
100
AcDbLine
10
144.68457218708335
20
194.21347163484174
30
0
11
144.96328707524168
21
194.49236036831945
31
0
0
LINE
5
478
100
AcDbEntity
8
0
100
AcDbLine
10
144.96328707524168
20
194.49236036831945
30
0
11
146.02616427836819
21
193.86235672319827
31
0
0
LINE
5
479
100
AcDbEntity
8
0
100
AcDbLine
10
146.02616427836819
20
193.86235672319827
30
0
11
146.03020363678607
21
193.86639860112112
31
0
0
LINE
5
480
100
AcDbEntity
8
0
100
AcDbLine
10
146.03020363678607
20
193.86639860112115
30
0
11
145.18343189834661
21
194.71264250431545
31
0
0
LINE
5
481
100
AcDbEntity
8
0
100
AcDbLine
10
145.18343189834661
20
194.71264250431545
30
0
11
145.38136003948475
21
194.91069410093581
31
0
0
LINE
5
482
100
AcDbEntity
8
0
100
AcDbLine
10
145.38136003948478
20
194.91069410093576
30
0
11
146.79601457208622
21
193.49692139337421
31
0
0
LINE
5
483
100
AcDbEntity
8
0
100
AcDbLine
10
146.79601457208622
20
193.49692139337421
30
0
11
146.56779145348261
21
193.26855592313234
31
0
0
LINE
5
484
100
AcDbEntity
8
0
100
AcDbLine
10
146.56779145348261
20
193.26855592313234
30
0
11
145.26849599121272
21
194.03384605463674
31
0
0
LINE
5
485
100
AcDbEntity
8
0
100
AcDbLine
10
145.26849599121272
20
194.03384605463674
30
0
11
145.2644570541319
21
194.02980459831377
31
0
0
LINE
5
486
100
AcDbEntity
8
0
100
AcDbLine
10
145.2644570541319
20
194.02980459831377
30
0
11
146.29715486082296
21
192.99775052390049
31
0
0
LINE
5
487
100
AcDbEntity
8
0
100
AcDbLine
10
146.29715486082296
20
192.99775052390049
30
0
11
146.09922671968479
21
192.79969892728016
31
0
0
LINE
5
488
100
AcDbEntity
8
0
100
AcDbLine
10
146.09922671968479
20
192.79969892728016
30
0
11
144.68457218708335
21
194.21347163484171
31
0
0
LINE
5
489
100
AcDbEntity
8
0
100
AcDbLine
10
145.54697331328003
20
195.07641067417325
30
0
11
146.15287623328516
21
195.68269151940271
31
0
0
LINE
5
490
100
AcDbEntity
8
0
100
AcDbLine
10
146.15287623328516
20
195.68269151940271
30
0
11
146.35496970782822
21
195.48072401984655
31
0
0
LINE
5
491
100
AcDbEntity
8
0
100
AcDbLine
10
146.35496970782822
20
195.48072401984655
30
0
11
145.97123107946845
21
195.0967460387746
31
0
0
LINE
5
492
100
AcDbEntity
8
0
100
AcDbLine
10
145.97123107946842
20
195.0967460387746
30
0
11
146.34510415493307
21
194.72310601712778
31
0
0
LINE
5
493
100
AcDbEntity
8
0
100
AcDbLine
10
146.34510415493307
20
194.72310601712775
30
0
11
146.65007550481309
21
195.02826758950386
31
0
0
LINE
5
494
100
AcDbEntity
8
0
100
AcDbLine
10
146.65007550481309
20
195.02826758950386
30
0
11
146.85216897935615
21
194.82630008994767
31
0
0
LINE
5
495
100
AcDbEntity
8
0
100
AcDbLine
10
146.85216897935615
20
194.82630008994767
30
0
11
146.54719762947616
21
194.52113851757159
31
0
0
LINE
5
496
100
AcDbEntity
8
0
100
AcDbLine
10
146.54719762947616
20
194.52113851757159
30
0
11
146.98169866298375
21
194.08690833032529
31
0
0
LINE
5
497
100
AcDbEntity
8
0
100
AcDbLine
10
146.98169866298375
20
194.08690833032529
30
0
11
147.36543729134351
21
194.47088631139724
31
0
0
LINE
5
498
100
AcDbEntity
8
0
100
AcDbLine
10
147.36543729134351
20
194.47088631139729
30
0
11
147.5675307658866
21
194.2689188118411
31
0
0
LINE
5
499
100
AcDbEntity
8
0
100
AcDbLine
10
147.5675307658866
20
194.2689188118411
30
0
11
146.96162784588148
21
193.66263796661167
31
0
0
LINE
5
500
100
AcDbEntity
8
0
100
AcDbLine
10
146.96162784588148
20
193.66263796661167
30
0
11
145.54697331328003
21
195.07641067417322
31
0
0
LINE
5
501
100
AcDbEntity
8
0
100
AcDbLine
10
21.461449967595144
20
232.01567559948137
30
0
11
20.998593063312832
21
232.01516420402538
31
0
0
SPLINE
5
502
100
AcDbEntity
8
0
100
AcDbSpline
70
0
71
2
72
6
73
3
74
0
42
0.000000001
43
0.0000000001
44
0.0000000001
40
0
40
0
40
0
40
1
40
1
40
1
10
20.998593063312832
20
232.01516420402538
30
0
10
20.764307464268278
20
232.01490534952916
30
0
10
20.647025767275711
20
232.14049008800782
30
0
0
SPLINE
5
503
100
AcDbEntity
8
0
100
AcDbSpline
70
0
71
2
72
6
73
3
74
0
42
0.000000001
43
0.0000000001
44
0.0000000001
40
0
40
0
40
0
40
1
40
1
40
1
10
20.647025767275711
20
232.14049008800782
30
0
10
20.529744144624264
20
232.26607497558032
30
0
10
20.529475819823571
20
232.50893201533506
30
0
0
LINE
5
504
100
AcDbEntity
8
0
100
AcDbLine
10
20.529475819823571
20
232.50893201533506
30
0
11
20.529258003478262
21
232.70607455562387
31
0
0
SPLINE
5
505
100
AcDbEntity
8
0
100
AcDbSpline
70
0
71
2
72
6
73
3
74
0
42
0.000000001
43
0.0000000001
44
0.0000000001
40
0
40
0
40
0
40
1
40
1
40
1
10
20.529258003478258
20
232.70607455562387
30
0
10
20.528989678512929
20
232.94893174439014
30
0
10
20.645993506059156
20
233.07477533728269
30
0
0
SPLINE
5
506
100
AcDbEntity
8
0
100
AcDbSpline
70
0
71
2
72
6
73
3
74
0
42
0.000000001
43
0.0000000001
44
0.0000000001
40
0
40
0
40
0
40
1
40
1
40
1
10
20.645993506059156
20
233.07477533728269
30
0
10
20.762997408111154
20
233.20061893025749
30
0
10
20.997283007155708
20
233.20087778475366
30
0
0
LINE
5
507
100
AcDbEntity
8
0
100
AcDbLine
10
20.997283007155708
20
233.20087778475366
30
0
11
21.145854348109673
21
233.20104193636934
31
0
0
LINE
5
508
100
AcDbEntity
8
0
100
AcDbLine
10
21.145854348109673
20
233.20104193636934
30
0
11
21.144954670827065
21
234.01532731372424
31
0
0
LINE
5
509
100
AcDbEntity
8
0
100
AcDbLine
10
21.144954670827065
20
234.01532731372424
30
0
11
21.459240234155416
21
234.01567455756461
31
0
0
LINE
5
510
100
AcDbEntity
8
0
100
AcDbLine
10
21.459240234155409
20
234.01567455756461
30
0
11
21.461449967595144
21
232.01567559948137
31
0
0
SPLINE
5
511
100
AcDbEntity
8
0
100
AcDbSpline
70
0
71
2
72
6
73
3
74
0
42
0.000000001
43
0.0000000001
44
0.0000000001
40
0
40
0
40
0
40
1
40
1
40
1
10
20.997598683314344
20
232.91516369045937
30
0
10
20.920455865933963
20
232.91507845788334
30
0
10
20.883360381888775
20
232.8721805144514
30
0
0
SPLINE
5
512
100
AcDbEntity
8
0
100
AcDbSpline
70
0
71
2
72
6
73
3
74
0
42
0.000000001
43
0.0000000001
44
0.0000000001
40
0
40
0
40
0
40
1
40
1
40
1
10
20.883360381888775
20
232.8721805144514
30
0
10
20.84340775126946
20
232.82927911622829
30
0
10
20.843521394594369
20
232.72642212572876
30
0
0
LINE
5
513
100
AcDbEntity
8
0
100
AcDbLine
10
20.843521394594369
20
232.72642212572876
30
0
11
20.843783406023356
21
232.48927923076928
31
0
0
SPLINE
5
514
100
AcDbEntity
8
0
100
AcDbSpline
70
0
71
2
72
6
73
3
74
0
42
0.000000001
43
0.0000000001
44
0.0000000001
40
0
40
0
40
0
40
1
40
1
40
1
10
20.843783406023356
20
232.48927923076928
30
0
10
20.843897049512911
20
232.38642209125828
30
0
10
20.883944383012746
20
232.34360923139081
30
0
0
SPLINE
5
515
100
AcDbEntity
8
0
100
AcDbSpline
70
0
71
2
72
6
73
3
74
0
42
0.000000001
43
0.0000000001
44
0.0000000001
40
0
40
0
40
0
40
1
40
1
40
1
10
20.883944383012746
20
232.34360923139081
30
0
10
20.921134569773812
20
232.30079306574368
30
0
10
20.998277387154197
20
232.30087829831967
30
0
0
LINE
5
516
100
AcDbEntity
8
0
100
AcDbLine
10
20.998277387154197
20
232.30087829831967
30
0
11
21.146848728108161
21
232.30104244993532
31
0
0
LINE
5
517
100
AcDbEntity
8
0
100
AcDbLine
10
21.146848728108161
20
232.30104244993532
30
0
11
21.146170024268308
21
232.91532784207502
31
0
0
LINE
5
518
100
AcDbEntity
8
0
100
AcDbLine
10
21.146170024268308
20
232.91532784207502
30
0
11
20.997598683314344
21
232.91516369045934
31
0
0
LINE
5
519
100
AcDbEntity
8
0
100
AcDbLine
10
20.358593423548285
20
232.01445708935427
30
0
11
20.044307860219934
21
232.0141098455139
31
0
0
LINE
5
520
100
AcDbEntity
8
0
100
AcDbLine
10
20.044307860219934
20
232.0141098455139
30
0
11
20.043408182937327
21
232.82839522286881
31
0
0
LINE
5
521
100
AcDbEntity
8
0
100
AcDbLine
10
20.043408182937327
20
232.82839522286883
30
0
11
19.706265444381749
21
232.82802272488311
31
0
0
LINE
5
522
100
AcDbEntity
8
0
100
AcDbLine
10
19.706265444381749
20
232.82802272488311
30
0
11
19.707165121664357
21
232.01373734752821
31
0
0
LINE
5
523
100
AcDbEntity
8
0
100
AcDbLine
10
19.707165121664357
20
232.01373734752821
30
0
11
19.392879558336009
21
232.01339010368784
31
0
0
LINE
5
524
100
AcDbEntity
8
0
100
AcDbLine
10
19.392879558336009
20
232.01339010368784
30
0
11
19.390669824896275
21
234.01338906177105
31
0
0
LINE
5
525
100
AcDbEntity
8
0
100
AcDbLine
10
19.390669824896275
20
234.01338906177102
30
0
11
19.704955388224622
21
234.01373630561139
31
0
0
LINE
5
526
100
AcDbEntity
8
0
100
AcDbLine
10
19.704955388224622
20
234.01373630561139
30
0
11
19.705949768223114
21
233.1137368191774
31
0
0
LINE
5
527
100
AcDbEntity
8
0
100
AcDbLine
10
19.705949768223114
20
233.1137368191774
30
0
11
20.043092506778692
21
233.11410931716313
31
0
0
LINE
5
528
100
AcDbEntity
8
0
100
AcDbLine
10
20.043092506778692
20
233.11410931716313
30
0
11
20.042098126780203
21
234.01410880359714
31
0
0
LINE
5
529
100
AcDbEntity
8
0
100
AcDbLine
10
20.042098126780203
20
234.01410880359714
30
0
11
20.356383690108551
21
234.01445604743748
31
0
0
LINE
5
530
100
AcDbEntity
8
0
100
AcDbLine
10
20.356383690108547
20
234.01445604743748
30
0
11
20.358593423548285
21
232.01445708935427
31
0
0
SPLINE
5
531
100
AcDbEntity
8
0
100
AcDbSpline
70
0
71
2
72
6
73
3
74
0
42
0.000000001
43
0.0000000001
44
0.0000000001
40
0
40
0
40
0
40
1
40
1
40
1
10
18.702067045586375
20
234.04119975099275
30
0
10
18.933495646739054
20
234.04145544888539
30
0
10
19.056497876569011
20
233.91016273005397
30
0
0
SPLINE
5
532
100
AcDbEntity
8
0
100
AcDbSpline
70
0
71
2
72
6
73
3
74
0
42
0.000000001
43
0.0000000001
44
0.0000000001
40
0
40
0
40
0
40
1
40
1
40
1
10
19.056497876569011
20
233.91016273005397
30
0
10
19.179500106398969
20
233.77887001122252
30
0
10
19.179765274596132
20
233.53886996935967
30
0
0
LINE
5
533
100
AcDbEntity
8
0
100
AcDbLine
10
19.179765274596132
20
233.53886996935967
30
0
11
19.180926962978454
21
232.48744199506831
31
0
0
SPLINE
5
534
100
AcDbEntity
8
0
100
AcDbSpline
70
0
71
2
72
6
73
3
74
0
42
0.000000001
43
0.0000000001
44
0.0000000001
40
0
40
0
40
0
40
1
40
1
40
1
10
19.180926962978454
20
232.48744199506831
30
0
10
19.181192131010981
20
232.24744210221695
30
0
10
19.058480323194285
20
232.11587790198132
30
0
0
SPLINE
5
535
100
AcDbEntity
8
0
100
AcDbSpline
70
0
71
2
72
6
73
3
74
0
42
0.000000001
43
0.0000000001
44
0.0000000001
40
0
40
0
40
0
40
1
40
1
40
1
10
19.058480323194285
20
232.11587790198132
30
0
10
18.935768515542225
20
231.98431355273411
30
0
10
18.70433991438955
20
231.98405785484147
30
0
0
SPLINE
5
536
100
AcDbEntity
8
0
100
AcDbSpline
70
0
71
2
72
6
73
3
74
0
42
0.000000001
43
0.0000000001
44
0.0000000001
40
0
40
0
40
0
40
1
40
1
40
1
10
18.70433991438955
20
231.98405785484147
30
0
10
18.472911611259914
20
231.98380215727809
30
0
10
18.34990938126532
20
232.11509502512104
30
0
0
SPLINE
5
537
100
AcDbEntity
8
0
100
AcDbSpline
70
0
71
2
72
6
73
3
74
0
42
0.000000001
43
0.0000000001
44
0.0000000001
40
0
40
0
40
0
40
1
40
1
40
1
10
18.34990938126532
20
232.11509502512104
30
0
10
18.226907151435363
20
232.24638774395245
30
0
10
18.226641983402839
20
232.48638763680384
30
0
0
LINE
5
538
100
AcDbEntity
8
0
100
AcDbLine
10
18.226641983402839
20
232.48638763680384
30
0
11
18.225480295020514
21
233.53781561109517
31
0
0
SPLINE
5
539
100
AcDbEntity
8
0
100
AcDbSpline
70
0
71
2
72
6
73
3
74
0
42
0.000000001
43
0.0000000001
44
0.0000000001
40
0
40
0
40
0
40
1
40
1
40
1
10
18.225480295020514
20
233.53781561109517
30
0
10
18.225215126823354
20
233.77781565295805
30
0
10
18.34792693464005
20
233.90937985319371
30
0
0
SPLINE
5
540
100
AcDbEntity
8
0
100
AcDbSpline
70
0
71
2
72
6
73
3
74
0
42
0.000000001
43
0.0000000001
44
0.0000000001
40
0
40
0
40
0
40
1
40
1
40
1
10
18.34792693464005
20
233.90937985319371
30
0
10
18.470638742456742
20
234.04094405342937
30
0
10
18.702067045586375
20
234.04119975099275
30
0
0
SPLINE
5
541
100
AcDbEntity
8
0
100
AcDbSpline
70
0
71
2
72
6
73
3
74
0
42
0.000000001
43
0.0000000001
44
0.0000000001
40
0
40
0
40
0
40
1
40
1
40
1
10
18.702382721745014
20
233.75548565669845
30
0
10
18.539525944297075
20
233.75530572157118
30
0
10
18.53974376097166
20
233.55816288325937
30
0
0
LINE
5
542
100
AcDbEntity
8
0
100
AcDbLine
10
18.53974376097166
20
233.55816288325937
30
0
11
18.540949644108387
21
232.46673485232037
31
0
0
SPLINE
5
543
100
AcDbEntity
8
0
100
AcDbSpline
70
0
71
2
72
6
73
3
74
0
42
0.000000001
43
0.0000000001
44
0.0000000001
40
0
40
0
40
0
40
1
40
1
40
1
10
18.540949644108387
20
232.46673485232037
30
0
10
18.541167460618336
20
232.26959216302006
30
0
10
18.704024238066275
20
232.26977209814731
30
0
0
SPLINE
5
544
100
AcDbEntity
8
0
100
AcDbSpline
70
0
71
2
72
6
73
3
74
0
42
0.000000001
43
0.0000000001
44
0.0000000001
40
0
40
0
40
0
40
1
40
1
40
1
10
18.704024238066275
20
232.26977209814731
30
0
10
18.866881313537256
20
232.26995203360383
30
0
10
18.866663497027311
20
232.46709472290411
30
0
0
LINE
5
545
100
AcDbEntity
8
0
100
AcDbLine
10
18.866663497027311
20
232.46709472290411
30
0
11
18.86545761389058
21
233.55852275384311
31
0
0
SPLINE
5
546
100
AcDbEntity
8
0
100
AcDbSpline
70
0
71
2
72
6
73
3
74
0
42
0.000000001
43
0.0000000001
44
0.0000000001
40
0
40
0
40
0
40
1
40
1
40
1
10
18.86545761389058
20
233.55852275384311
30
0
10
18.865239797215999
20
233.75566559215497
30
0
10
18.702382721745014
20
233.75548565669845
30
0
0
LINE
5
547
100
AcDbEntity
8
0
100
AcDbLine
10
18.015737135079654
20
232.01186854406316
30
0
11
17.621451756479036
21
232.01143291104327
31
0
0
LINE
5
548
100
AcDbEntity
8
0
100
AcDbLine
10
17.621451756479036
20
232.01143291104327
30
0
11
17.314414950631086
21
233.20823730584934
31
0
0
LINE
5
549
100
AcDbEntity
8
0
100
AcDbLine
10
17.314414950631086
20
233.20823730584934
30
0
11
17.308700656824278
21
233.20823099231296
31
0
0
LINE
5
550
100
AcDbEntity
8
0
100
AcDbLine
10
17.308700656824278
20
233.20823099231302
30
0
11
17.310023340054094
21
232.01108882397111
31
0
0
LINE
5
551
100
AcDbEntity
8
0
100
AcDbLine
10
17.310023340054094
20
232.01108882397108
30
0
11
17.030023539566592
21
232.01077946134876
31
0
0
LINE
5
552
100
AcDbEntity
8
0
100
AcDbLine
10
17.030023539566592
20
232.01077946134882
30
0
11
17.027813806126858
21
234.01077841943203
31
0
0
LINE
5
553
100
AcDbEntity
8
0
100
AcDbLine
10
17.027813806126858
20
234.01077841943197
30
0
11
17.350670810165418
21
234.01113513357686
31
0
0
LINE
5
554
100
AcDbEntity
8
0
100
AcDbLine
10
17.350670810165418
20
234.01113513357686
30
0
11
17.729426412753323
21
232.55155258956722
31
0
0
LINE
5
555
100
AcDbEntity
8
0
100
AcDbLine
10
17.729426412753323
20
232.55155258956722
30
0
11
17.735140706560134
21
232.5515589031036
31
0
0
LINE
5
556
100
AcDbEntity
8
0
100
AcDbLine
10
17.735140706560131
20
232.5515589031036
30
0
11
17.733527601152417
21
234.01155813952411
31
0
0
LINE
5
557
100
AcDbEntity
8
0
100
AcDbLine
10
17.733527601152417
20
234.01155813952408
30
0
11
18.013527401639919
21
234.01186750214637
31
0
0
LINE
5
558
100
AcDbEntity
8
0
100
AcDbLine
10
18.013527401639919
20
234.01186750214637
30
0
11
18.015737135079654
21
232.01186854406316
31
0
0
LINE
5
559
100
AcDbEntity
8
0
100
AcDbLine
10
16.795737791510511
20
232.01052060668798
30
0
11
15.938595508627586
21
232.00957357821207
31
0
0
LINE
5
560
100
AcDbEntity
8
0
100
AcDbLine
10
15.938595508627586
20
232.00957357821207
30
0
11
15.938279832468949
21
232.29528767250639
31
0
0
LINE
5
561
100
AcDbEntity
8
0
100
AcDbLine
10
15.93827983246895
20
232.29528767250639
30
0
11
16.481136552023528
21
232.29588745714196
31
0
0
LINE
5
562
100
AcDbEntity
8
0
100
AcDbLine
10
16.481136552023528
20
232.29588745714193
30
0
11
16.480552550899557
21
232.82445874020252
31
0
0
LINE
5
563
100
AcDbEntity
8
0
100
AcDbLine
10
16.480552550899557
20
232.82445874020254
30
0
11
16.049124262554692
21
232.8239820691964
31
0
0
LINE
5
564
100
AcDbEntity
8
0
100
AcDbLine
10
16.049124262554688
20
232.8239820691964
30
0
11
16.048808586396049
21
233.10969616349072
31
0
0
LINE
5
565
100
AcDbEntity
8
0
100
AcDbLine
10
16.048808586396053
20
233.1096961634907
30
0
11
16.480236874740918
21
233.11017283449684
31
0
0
LINE
5
566
100
AcDbEntity
8
0
100
AcDbLine
10
16.480236874740918
20
233.11017283449684
30
0
11
16.479558170901068
21
233.7244582266365
31
0
0
LINE
5
567
100
AcDbEntity
8
0
100
AcDbLine
10
16.479558170901068
20
233.7244582266365
30
0
11
15.936701451346488
21
233.72385844200093
31
0
0
LINE
5
568
100
AcDbEntity
8
0
100
AcDbLine
10
15.93670145134649
20
233.72385844200096
30
0
11
15.936385775187853
21
234.00957253629528
31
0
0
LINE
5
569
100
AcDbEntity
8
0
100
AcDbLine
10
15.936385775187851
20
234.00957253629525
30
0
11
16.793528058070777
21
234.01051956477116
31
0
0
LINE
5
570
100
AcDbEntity
8
0
100
AcDbLine
10
16.793528058070777
20
234.01051956477119
30
0
11
16.795737791510511
21
232.01052060668798
31
0
0
SPLINE
5
571
100
AcDbEntity
8
0
100
AcDbSpline
70
0
71
2
72
6
73
3
74
0
42
0.000000001
43
0.0000000001
44
0.0000000001
40
0
40
0
40
0
40
1
40
1
40
1
10
15.347783137497093
20
234.03749371240298
30
0
10
15.576354889769405
20
234.03774625385671
30
0
10
15.693639669024385
20
233.90930436839238
30
0
0
SPLINE
5
572
100
AcDbEntity
8
0
100
AcDbSpline
70
0
71
2
72
6
73
3
74
0
42
0.000000001
43
0.0000000001
44
0.0000000001
40
0
40
0
40
0
40
1
40
1
40
1
10
15.693639669024385
20
233.90930436839238
30
0
10
15.810927605376811
20
233.77800503800157
30
0
10
15.811195930012868
20
233.53514814725833
30
0
0
LINE
5
573
100
AcDbEntity
8
0
100
AcDbLine
10
15.811195930012868
20
233.53514814725833
30
0
11
15.811322200410469
21
233.42086256914524
31
0
0
LINE
5
574
100
AcDbEntity
8
0
100
AcDbLine
10
15.811322200410469
20
233.42086256914519
30
0
11
15.514179518502544
21
233.42053426591389
31
0
0
LINE
5
575
100
AcDbEntity
8
0
100
AcDbLine
10
15.514179518502544
20
233.42053426591389
30
0
11
15.514027993959569
21
233.55767701925424
31
0
0
SPLINE
5
576
100
AcDbEntity
8
0
100
AcDbSpline
70
0
71
2
72
6
73
3
74
0
42
0.000000001
43
0.0000000001
44
0.0000000001
40
0
40
0
40
0
40
1
40
1
40
1
10
15.514027993959569
20
233.55767701925424
30
0
10
15.513813334053157
20
233.75196271066267
30
0
10
15.350956258582176
20
233.75178277520615
30
0
0
SPLINE
5
577
100
AcDbEntity
8
0
100
AcDbSpline
70
0
71
2
72
6
73
3
74
0
42
0.000000001
43
0.0000000001
44
0.0000000001
40
0
40
0
40
0
40
1
40
1
40
1
10
15.350956258582176
20
233.75178277520615
30
0
10
15.270956145286867
20
233.75169438569731
30
0
10
15.231006596929962
20
233.70593584048845
30
0
0
SPLINE
5
578
100
AcDbEntity
8
0
100
AcDbSpline
70
0
71
2
72
6
73
3
74
0
42
0.000000001
43
0.0000000001
44
0.0000000001
40
0
40
0
40
0
40
1
40
1
40
1
10
15.231006596929962
20
233.70593584048845
30
0
10
15.188203356460868
20
233.65731699193728
30
0
10
15.188320156553949
20
233.55160285453437
30
0
0
SPLINE
5
579
100
AcDbEntity
8
0
100
AcDbSpline
70
0
71
2
72
6
73
3
74
0
42
0.000000001
43
0.0000000001
44
0.0000000001
40
0
40
0
40
0
40
1
40
1
40
1
10
15.188320156553949
20
233.55160285453437
30
0
10
15.188459054024237
20
233.42588868880765
30
0
10
15.245706165112711
20
233.33166627438177
30
0
0
SPLINE
5
580
100
AcDbEntity
8
0
100
AcDbSpline
70
0
71
2
72
6
73
3
74
0
42
0.000000001
43
0.0000000001
44
0.0000000001
40
0
40
0
40
0
40
1
40
1
40
1
10
15.245706165112711
20
233.33166627438177
30
0
10
15.302956433298636
20
233.2345864150295
30
0
10
15.457390137811164
20
233.10047127341531
30
0
0
SPLINE
5
581
100
AcDbEntity
8
0
100
AcDbSpline
70
0
71
2
72
6
73
3
74
0
42
0.000000001
43
0.0000000001
44
0.0000000001
40
0
40
0
40
0
40
1
40
1
40
1
10
15.457390137811164
20
233.10047127341531
30
0
10
15.651864936957587
20
232.92925741681125
30
0
10
15.729159725915508
20
232.79219989654081
30
0
0
SPLINE
5
582
100
AcDbEntity
8
0
100
AcDbSpline
70
0
71
2
72
6
73
3
74
0
42
0.000000001
43
0.0000000001
44
0.0000000001
40
0
40
0
40
0
40
1
40
1
40
1
10
15.729159725915508
20
232.79219989654081
30
0
10
15.806457075595519
20
232.65228522870842
30
0
10
15.80664963812473
20
232.4779995656238
30
0
0
SPLINE
5
583
100
AcDbEntity
8
0
100
AcDbSpline
70
0
71
2
72
6
73
3
74
0
42
0.000000001
43
0.0000000001
44
0.0000000001
40
0
40
0
40
0
40
1
40
1
40
1
10
15.80664963812473
20
232.4779995656238
30
0
10
15.806911649389082
20
232.24085681967586
30
0
10
15.687053533684576
20
232.11215292278251
30
0
0
SPLINE
5
584
100
AcDbEntity
8
0
100
AcDbSpline
70
0
71
2
72
6
73
3
74
0
42
0.000000001
43
0.0000000001
44
0.0000000001
40
0
40
0
40
0
40
1
40
1
40
1
10
15.687053533684576
20
232.11215292278251
30
0
10
15.567199170958963
20
231.9805917306328
30
0
10
15.338628014732731
20
231.98033918983757
30
0
0
SPLINE
5
585
100
AcDbEntity
8
0
100
AcDbSpline
70
0
71
2
72
6
73
3
74
0
42
0.000000001
43
0.0000000001
44
0.0000000001
40
0
40
0
40
0
40
1
40
1
40
1
10
15.338628014732731
20
231.98033918983757
30
0
10
15.112913707386863
20
231.98008980548127
30
0
10
14.998482620079439
20
232.11139214329944
30
0
0
SPLINE
5
586
100
AcDbEntity
8
0
100
AcDbSpline
70
0
71
2
72
6
73
3
74
0
42
0.000000001
43
0.0000000001
44
0.0000000001
40
0
40
0
40
0
40
1
40
1
40
1
10
14.998482620079439
20
232.11139214329944
30
0
10
14.881197840824463
20
232.23983402876382
30
0
10
14.880929516023764
20
232.48269106851859
30
0
0
LINE
5
587
100
AcDbEntity
8
0
100
AcDbLine
10
14.880929516023764
20
232.48269106851859
30
0
11
14.880837969911418
21
232.56554817970579
31
0
0
LINE
5
588
100
AcDbEntity
8
0
100
AcDbLine
10
14.880837969911418
20
232.56554817970579
30
0
11
15.177980651819343
21
232.56587648293709
31
0
0
LINE
5
589
100
AcDbEntity
8
0
100
AcDbLine
10
15.17798065181934
20
232.56587648293709
30
0
11
15.17809429530889
21
232.46301934342608
31
0
0
SPLINE
5
590
100
AcDbEntity
8
0
100
AcDbSpline
70
0
71
2
72
6
73
3
74
0
42
0.000000001
43
0.0000000001
44
0.0000000001
40
0
40
0
40
0
40
1
40
1
40
1
10
15.178094295308892
20
232.46301934342608
30
0
10
15.17820793879844
20
232.36016220391505
30
0
10
15.218258503572208
20
232.31449219722651
30
0
0
SPLINE
5
591
100
AcDbEntity
8
0
100
AcDbSpline
70
0
71
2
72
6
73
3
74
0
42
0.000000001
43
0.0000000001
44
0.0000000001
40
0
40
0
40
0
40
1
40
1
40
1
10
15.218258503572208
20
232.31449219722651
30
0
10
15.258312225114148
20
232.26596504363459
30
0
10
15.335454893483011
20
232.26605027604595
30
0
0
SPLINE
5
592
100
AcDbEntity
8
0
100
AcDbSpline
70
0
71
2
72
6
73
3
74
0
42
0.000000001
43
0.0000000001
44
0.0000000001
40
0
40
0
40
0
40
1
40
1
40
1
10
15.335454893483011
20
232.26605027604595
30
0
10
15.492597675147186
20
232.26622389796614
30
0
10
15.492386172173585
20
232.45765229345963
30
0
0
SPLINE
5
593
100
AcDbEntity
8
0
100
AcDbSpline
70
0
71
2
72
6
73
3
74
0
42
0.000000001
43
0.0000000001
44
0.0000000001
40
0
40
0
40
0
40
1
40
1
40
1
10
15.492386172173585
20
232.45765229345963
30
0
10
15.492266215147691
20
232.56622372677748
30
0
10
15.435019103894575
20
232.66044629021482
30
0
0
SPLINE
5
594
100
AcDbEntity
8
0
100
AcDbSpline
70
0
71
2
72
6
73
3
74
0
42
0.000000001
43
0.0000000001
44
0.0000000001
40
0
40
0
40
0
40
1
40
1
40
1
10
15.435019103894575
20
232.66044629021482
30
0
10
15.37491514392574
20
232.75466554820179
30
0
10
15.220480843367126
20
232.88878068915744
30
0
0
SPLINE
5
595
100
AcDbEntity
8
0
100
AcDbSpline
70
0
71
2
72
6
73
3
74
0
42
0.000000001
43
0.0000000001
44
0.0000000001
40
0
40
0
40
0
40
1
40
1
40
1
10
15.220480843367126
20
232.88878068915744
30
0
10
15.023149195340345
20
233.05999138932262
30
0
10
14.948708694540693
20
233.19990921359388
30
0
0
SPLINE
5
596
100
AcDbEntity
8
0
100
AcDbSpline
70
0
71
2
72
6
73
3
74
0
42
0.000000001
43
0.0000000001
44
0.0000000001
40
0
40
0
40
0
40
1
40
1
40
1
10
14.948708694540693
20
233.19990921359388
30
0
10
14.874268193741047
20
233.33982703786518
30
0
10
14.874059847370978
20
233.52839843546678
30
0
0
SPLINE
5
597
100
AcDbEntity
8
0
100
AcDbSpline
70
0
71
2
72
6
73
3
74
0
42
0.000000001
43
0.0000000001
44
0.0000000001
40
0
40
0
40
0
40
1
40
1
40
1
10
14.874059847370978
20
233.52839843546678
30
0
10
14.87378836563747
20
233.77411277113649
30
0
10
14.996500173454166
20
233.90567697137215
30
0
0
SPLINE
5
598
100
AcDbEntity
8
0
100
AcDbSpline
70
0
71
2
72
6
73
3
74
0
42
0.000000001
43
0.0000000001
44
0.0000000001
40
0
40
0
40
0
40
1
40
1
40
1
10
14.996500173454166
20
233.90567697137215
30
0
10
15.116355132390499
20
234.0372380151689
30
0
10
15.347783137497093
20
234.03749371240298
30
0
0
LINE
5
599
100
AcDbEntity
8
0
100
AcDbLine
10
70.152878512100187
20
232.01588710261962
30
0
11
69.838592948771833
21
232.01553985877925
31
0
0
LINE
5
600
100
AcDbEntity
8
0
100
AcDbLine
10
69.838592948771833
20
232.01553985877928
30
0
11
69.836698891490741
21
233.7298247225682
31
0
0
LINE
5
601
100
AcDbEntity
8
0
100
AcDbLine
10
69.836698891490727
20
233.72982472256814
30
0
11
69.319556345055261
21
233.72925334868148
31
0
0
LINE
5
602
100
AcDbEntity
8
0
100
AcDbLine
10
69.319556345055275
20
233.72925334868154
30
0
11
69.31924066889664
21
234.01496744297586
31
0
0
LINE
5
603
100
AcDbEntity
8
0
100
AcDbLine
10
69.31924066889664
20
234.01496744297583
30
0
11
70.150668778660446
21
234.01588606070283
31
0
0
LINE
5
604
100
AcDbEntity
8
0
100
AcDbLine
10
70.150668778660446
20
234.01588606070283
30
0
11
70.152878512100173
21
232.01588710261962
31
0
0
LINE
5
605
100
AcDbEntity
8
0
100
AcDbLine
10
69.170021839973245
20
232.01480117642646
30
0
11
68.85573627664489
21
232.01445393258609
31
0
0
LINE
5
606
100
AcDbEntity
8
0
100
AcDbLine
10
68.855736276644905
20
232.01445393258609
30
0
11
68.853526543205163
21
234.0144528906693
31
0
0
LINE
5
607
100
AcDbEntity
8
0
100
AcDbLine
10
68.853526543205163
20
234.0144528906693
30
0
11
69.167812106533518
21
234.01480013450967
31
0
0
LINE
5
608
100
AcDbEntity
8
0
100
AcDbLine
10
69.167812106533518
20
234.01480013450967
30
0
11
69.170021839973245
21
232.01480117642646
31
0
0
LINE
5
609
100
AcDbEntity
8
0
100
AcDbLine
10
68.621450826611863
20
232.01419507825455
30
0
11
68.227165298999722
21
232.01375944507004
31
0
0
LINE
5
610
100
AcDbEntity
8
0
100
AcDbLine
10
68.227165298999722
20
232.01375944507004
30
0
11
67.920128642163291
21
233.21056384004072
31
0
0
LINE
5
611
100
AcDbEntity
8
0
100
AcDbLine
10
67.920128642163291
20
233.21056384004072
30
0
11
67.914414348356487
21
233.21055752650437
31
0
0
LINE
5
612
100
AcDbEntity
8
0
100
AcDbLine
10
67.914414348356487
20
233.21055752650437
30
0
11
67.915737031586303
21
232.01341535816249
31
0
0
LINE
5
613
100
AcDbEntity
8
0
100
AcDbLine
10
67.915737031586303
20
232.01341535816249
30
0
11
67.635736933075748
21
232.01310599521091
31
0
0
LINE
5
614
100
AcDbEntity
8
0
100
AcDbLine
10
67.635736933075762
20
232.01310599521091
30
0
11
67.633527199636035
21
234.01310495329412
31
0
0
LINE
5
615
100
AcDbEntity
8
0
100
AcDbLine
10
67.633527199636021
20
234.01310495329412
30
0
11
67.956384203674574
21
234.013461667439
31
0
0
LINE
5
616
100
AcDbEntity
8
0
100
AcDbLine
10
67.956384203674588
20
234.013461667439
30
0
11
68.335140104285529
21
232.55387912375863
31
0
0
LINE
5
617
100
AcDbEntity
8
0
100
AcDbLine
10
68.335140104285529
20
232.55387912375863
30
0
11
68.34085424908082
21
232.5538854371303
31
0
0
LINE
5
618
100
AcDbEntity
8
0
100
AcDbLine
10
68.34085424908082
20
232.5538854371303
30
0
11
68.339241143673107
21
234.01388467355082
31
0
0
LINE
5
619
100
AcDbEntity
8
0
100
AcDbLine
10
68.339241143673092
20
234.01388467355082
30
0
11
68.619241093172121
21
234.01419403633778
31
0
0
LINE
5
620
100
AcDbEntity
8
0
100
AcDbLine
10
68.619241093172121
20
234.01419403633778
30
0
11
68.621450826611849
21
232.01419507825455
31
0
0
LINE
5
621
100
AcDbEntity
8
0
100
AcDbLine
10
67.401451185019681
20
232.01284714055009
30
0
11
66.544308902136748
21
232.01190011207419
31
0
0
LINE
5
622
100
AcDbEntity
8
0
100
AcDbLine
10
66.544308902136748
20
232.01190011207416
30
0
11
66.543993225978113
21
232.29761420636848
31
0
0
LINE
5
623
100
AcDbEntity
8
0
100
AcDbLine
10
66.543993225978113
20
232.29761420636848
30
0
11
67.086849945532691
21
232.29821399100405
31
0
0
LINE
5
624
100
AcDbEntity
8
0
100
AcDbLine
10
67.086849945532691
20
232.29821399100405
30
0
11
67.086265944408709
21
232.82678527406463
31
0
0
LINE
5
625
100
AcDbEntity
8
0
100
AcDbLine
10
67.086265944408723
20
232.82678527406463
30
0
11
66.654837656063847
21
232.82630860305852
31
0
0
LINE
5
626
100
AcDbEntity
8
0
100
AcDbLine
10
66.654837656063847
20
232.82630860305852
30
0
11
66.654521979905212
21
233.11202269735281
31
0
0
LINE
5
627
100
AcDbEntity
8
0
100
AcDbLine
10
66.654521979905212
20
233.11202269735281
30
0
11
67.085950268250087
21
233.11249936835895
31
0
0
LINE
5
628
100
AcDbEntity
8
0
100
AcDbLine
10
67.085950268250087
20
233.11249936835895
30
0
11
67.085271564410235
21
233.72678476049862
31
0
0
LINE
5
629
100
AcDbEntity
8
0
100
AcDbLine
10
67.085271564410235
20
233.72678476049862
30
0
11
66.542414844855656
21
233.72618497586305
31
0
0
LINE
5
630
100
AcDbEntity
8
0
100
AcDbLine
10
66.542414844855656
20
233.72618497586305
30
0
11
66.542099168697021
21
234.01189907015737
31
0
0
LINE
5
631
100
AcDbEntity
8
0
100
AcDbLine
10
66.542099168697021
20
234.01189907015737
30
0
11
67.39924145157994
21
234.01284609863328
31
0
0
LINE
5
632
100
AcDbEntity
8
0
100
AcDbLine
10
67.39924145157994
20
234.01284609863328
30
0
11
67.401451185019681
21
232.01284714055006
31
0
0
SPLINE
5
633
100
AcDbEntity
8
0
100
AcDbSpline
70
0
71
2
72
6
73
3
74
0
42
0.000000001
43
0.0000000001
44
0.0000000001
40
0
40
0
40
0
40
1
40
1
40
1
10
65.907782478574845
20
234.03976973830365
30
0
10
66.139210781704477
20
234.04002543586699
30
0
10
66.262213309557467
20
233.90873271736484
30
0
0
SPLINE
5
634
100
AcDbEntity
8
0
100
AcDbSpline
70
0
71
2
72
6
73
3
74
0
42
0.000000001
43
0.0000000001
44
0.0000000001
40
0
40
0
40
0
40
1
40
1
40
1
10
66.262213309557467
20
233.90873271736484
30
0
10
66.385215539387431
20
233.77743999853345
30
0
10
66.385480707584591
20
233.53743995667057
30
0
0
LINE
5
635
100
AcDbEntity
8
0
100
AcDbLine
10
66.385480707584591
20
233.53743995667057
30
0
11
66.386642395966916
21
232.48601198237921
31
0
0
SPLINE
5
636
100
AcDbEntity
8
0
100
AcDbSpline
70
0
71
2
72
6
73
3
74
0
42
0.000000001
43
0.0000000001
44
0.0000000001
40
0
40
0
40
0
40
1
40
1
40
1
10
66.386642395966916
20
232.48601198237921
30
0
10
66.386907563999443
20
232.24601208952782
30
0
10
66.264195756182744
20
232.11444788929217
30
0
0
SPLINE
5
637
100
AcDbEntity
8
0
100
AcDbSpline
70
0
71
2
72
6
73
3
74
0
42
0.000000001
43
0.0000000001
44
0.0000000001
40
0
40
0
40
0
40
1
40
1
40
1
10
66.264195756182744
20
232.11444788929217
30
0
10
66.141483650507638
20
231.98288353971574
30
0
10
65.910055347378005
20
231.98262784215234
30
0
0
SPLINE
5
638
100
AcDbEntity
8
0
100
AcDbSpline
70
0
71
2
72
6
73
3
74
0
42
0.000000001
43
0.0000000001
44
0.0000000001
40
0
40
0
40
0
40
1
40
1
40
1
10
65.910055347378005
20
231.98262784215234
30
0
10
65.678627044248373
20
231.98237214458896
30
0
10
65.555624516230736
20
232.11366501210264
30
0
0
SPLINE
5
639
100
AcDbEntity
8
0
100
AcDbSpline
70
0
71
2
72
6
73
3
74
0
42
0.000000001
43
0.0000000001
44
0.0000000001
40
0
40
0
40
0
40
1
40
1
40
1
10
65.555624516230736
20
232.11366501210264
30
0
10
65.432621988377733
20
232.2449577306048
30
0
10
65.43235682034522
20
232.48495762345615
30
0
0
LINE
5
640
100
AcDbEntity
8
0
100
AcDbLine
10
65.43235682034522
20
232.48495762345615
30
0
11
65.431195131962895
21
233.53638559774751
31
0
0
SPLINE
5
641
100
AcDbEntity
8
0
100
AcDbSpline
70
0
71
2
72
6
73
3
74
0
42
0.000000001
43
0.0000000001
44
0.0000000001
40
0
40
0
40
0
40
1
40
1
40
1
10
65.431195131962895
20
233.53638559774751
30
0
10
65.430929963765735
20
233.7763856396104
30
0
10
65.553642069605459
20
233.90794984017532
30
0
0
SPLINE
5
642
100
AcDbEntity
8
0
100
AcDbSpline
70
0
71
2
72
6
73
3
74
0
42
0.000000001
43
0.0000000001
44
0.0000000001
40
0
40
0
40
0
40
1
40
1
40
1
10
65.553642069605459
20
233.90794984017532
30
0
10
65.676354175445198
20
234.03951404074024
30
0
10
65.907782478574845
20
234.03976973830365
30
0
0
SPLINE
5
643
100
AcDbEntity
8
0
100
AcDbSpline
70
0
71
2
72
6
73
3
74
0
42
0.000000001
43
0.0000000001
44
0.0000000001
40
0
40
0
40
0
40
1
40
1
40
1
10
65.90809815473348
20
233.75405564400933
30
0
10
65.745241079262499
20
233.75387570855281
30
0
10
65.745458895937077
20
233.55673287024098
30
0
0
LINE
5
644
100
AcDbEntity
8
0
100
AcDbLine
10
65.745458895937077
20
233.55673287024098
30
0
11
65.746664779073811
21
232.46530483930198
31
0
0
SPLINE
5
645
100
AcDbEntity
8
0
100
AcDbSpline
70
0
71
2
72
6
73
3
74
0
42
0.000000001
43
0.0000000001
44
0.0000000001
40
0
40
0
40
0
40
1
40
1
40
1
10
65.746664779073811
20
232.46530483930198
30
0
10
65.746882595583742
20
232.26816215000167
30
0
10
65.909739671054723
20
232.26834208545819
30
0
0
SPLINE
5
646
100
AcDbEntity
8
0
100
AcDbSpline
70
0
71
2
72
6
73
3
74
0
42
0.000000001
43
0.0000000001
44
0.0000000001
40
0
40
0
40
0
40
1
40
1
40
1
10
65.909739671054723
20
232.26834208545819
30
0
10
66.072596746525704
20
232.2685220209147
30
0
10
66.072378930015773
20
232.46566471021504
30
0
0
LINE
5
647
100
AcDbEntity
8
0
100
AcDbLine
10
66.072378930015773
20
232.46566471021504
30
0
11
66.071173046879039
21
233.55709274115401
31
0
0
SPLINE
5
648
100
AcDbEntity
8
0
100
AcDbSpline
70
0
71
2
72
6
73
3
74
0
42
0.000000001
43
0.0000000001
44
0.0000000001
40
0
40
0
40
0
40
1
40
1
40
1
10
66.071173046879039
20
233.55709274115401
30
0
10
66.070955230204461
20
233.75423557946584
30
0
10
65.90809815473348
20
233.75405564400933
30
0
0
SPLINE
5
649
100
AcDbEntity
8
0
100
AcDbSpline
70
0
71
2
72
6
73
3
74
0
42
0.000000001
43
0.0000000001
44
0.0000000001
40
0
40
0
40
0
40
1
40
1
40
1
10
64.762068954494197
20
234.03850387690088
30
0
10
64.99064011072042
20
234.03875641769611
30
0
10
65.110781738855763
20
233.91031768867063
30
0
0
SPLINE
5
650
100
AcDbEntity
8
0
100
AcDbSpline
70
0
71
2
72
6
73
3
74
0
42
0.000000001
43
0.0000000001
44
0.0000000001
40
0
40
0
40
0
40
1
40
1
40
1
10
65.110781738855763
20
233.91031768867063
30
0
10
65.230927120134638
20
233.77902151537728
30
0
10
65.231195444770705
20
233.53616462463404
30
0
0
LINE
5
651
100
AcDbEntity
8
0
100
AcDbLine
10
65.231195444770705
20
233.53616462463404
30
0
11
65.232881155681724
21
232.01045115844676
31
0
0
LINE
5
652
100
AcDbEntity
8
0
100
AcDbLine
10
65.232881155681724
20
232.01045115844676
30
0
11
64.918595592353384
21
232.01010391460639
31
0
0
LINE
5
653
100
AcDbEntity
8
0
100
AcDbLine
10
64.918595592353384
20
232.01010391460639
30
0
11
64.916884627296966
21
233.55867455602089
31
0
0
SPLINE
5
654
100
AcDbEntity
8
0
100
AcDbSpline
70
0
71
2
72
6
73
3
74
0
42
0.000000001
43
0.0000000001
44
0.0000000001
40
0
40
0
40
0
40
1
40
1
40
1
10
64.91688462729698
20
233.55867455602092
30
0
10
64.916770983972057
20
233.66153154652039
30
0
10
64.87672041903366
20
233.70720170222046
30
0
0
SPLINE
5
655
100
AcDbEntity
8
0
100
AcDbSpline
70
0
71
2
72
6
73
3
74
0
42
0.000000001
43
0.0000000001
44
0.0000000001
40
0
40
0
40
0
40
1
40
1
40
1
10
64.87672041903366
20
233.70720170222046
30
0
10
64.833813005214893
20
233.75286870148162
30
0
10
64.756670336846028
20
233.75278346907024
30
0
0
SPLINE
5
656
100
AcDbEntity
8
0
100
AcDbSpline
70
0
71
2
72
6
73
3
74
0
42
0.000000001
43
0.0000000001
44
0.0000000001
40
0
40
0
40
0
40
1
40
1
40
1
10
64.756670336846028
20
233.75278346907024
30
0
10
64.679527072431085
20
233.75269823600033
30
0
10
64.639578120120262
20
233.70693969145003
30
0
0
SPLINE
5
657
100
AcDbEntity
8
0
100
AcDbSpline
70
0
71
2
72
6
73
3
74
0
42
0.000000001
43
0.0000000001
44
0.0000000001
40
0
40
0
40
0
40
1
40
1
40
1
10
64.639578120120262
20
233.70693969145003
30
0
10
64.596771126836913
20
233.66117798914371
30
0
10
64.596884770161822
20
233.55832099864418
30
0
0
LINE
5
658
100
AcDbEntity
8
0
100
AcDbLine
10
64.596884770161822
20
233.55832099864418
30
0
11
64.598595735218225
21
232.00975035722968
31
0
0
LINE
5
659
100
AcDbEntity
8
0
100
AcDbLine
10
64.598595735218225
20
232.00975035722968
30
0
11
64.295738759503493
21
232.009415740462
31
0
0
LINE
5
660
100
AcDbEntity
8
0
100
AcDbLine
10
64.295738759503493
20
232.009415740462
30
0
11
64.29405304859246
21
233.53512920664929
31
0
0
SPLINE
5
661
100
AcDbEntity
8
0
100
AcDbSpline
70
0
71
2
72
6
73
3
74
0
42
0.000000001
43
0.0000000001
44
0.0000000001
40
0
40
0
40
0
40
1
40
1
40
1
10
64.29405304859246
20
233.53512920664929
30
0
10
64.293784723956406
20
233.77798609739256
30
0
10
64.413639682563456
20
233.90954743921236
30
0
0
SPLINE
5
662
100
AcDbEntity
8
0
100
AcDbSpline
70
0
71
2
72
6
73
3
74
0
42
0.000000001
43
0.0000000001
44
0.0000000001
40
0
40
0
40
0
40
1
40
1
40
1
10
64.413639682563456
20
233.90954743921236
30
0
10
64.533497202221895
20
234.03825133544714
30
0
10
64.762068954494197
20
234.03850387690088
30
0
0
LINE
5
663
100
AcDbEntity
8
0
100
AcDbLine
10
63.826851587232696
20
232.2946121254347
30
0
11
64.155423183101107
21
232.29497515344519
31
0
0
LINE
5
664
100
AcDbEntity
8
0
100
AcDbLine
10
64.155423183101107
20
232.29497515344517
30
0
11
64.155738859259742
21
232.00926105915084
31
0
0
LINE
5
665
100
AcDbEntity
8
0
100
AcDbLine
10
64.155738859259742
20
232.00926105915087
30
0
11
63.184310700240658
21
232.00818775994807
31
0
0
LINE
5
666
100
AcDbEntity
8
0
100
AcDbLine
10
63.184310700240658
20
232.00818775994807
30
0
11
63.183995024082023
21
232.29390185424239
31
0
0
LINE
5
667
100
AcDbEntity
8
0
100
AcDbLine
10
63.183995024082023
20
232.29390185424236
30
0
11
63.512566023904348
21
232.2942648815943
31
0
0
LINE
5
668
100
AcDbEntity
8
0
100
AcDbLine
10
63.512566023904348
20
232.29426488159433
30
0
11
63.510671966623249
21
234.00854974538322
31
0
0
LINE
5
669
100
AcDbEntity
8
0
100
AcDbLine
10
63.510671966623249
20
234.00854974538322
30
0
11
63.824957529951604
21
234.00889698922359
31
0
0
LINE
5
670
100
AcDbEntity
8
0
100
AcDbLine
10
63.824957529951604
20
234.00889698922356
30
0
11
63.826851587232696
21
232.29461212543467
31
0
0
ENDSEC
0
SECTION
2
OBJECTS
0
DICTIONARY
5
C
100
AcDbDictionary
3
ACAD_GROUP
350
D
3
ACAD_MLINESTYLE
350
17
0
DICTIONARY
5
D
100
AcDbDictionary
0
DICTIONARY
5
1A
330
C
100
AcDbDictionary
0
DICTIONARY
5
17
100
AcDbDictionary
0
ENDSEC
0
EOF
