%TF.GenerationSoftware,KiCad,Pcbnew,9.0.5*%
%TF.CreationDate,2026-09-10T12:50:29+02:00*%
%TF.ProjectId,toern_revH,746f6572-6e5f-4726-9576-482e6b696361,rev?*%
%TF.SameCoordinates,Original*%
%TF.FileFunction,Soldermask,Bot*%
%TF.FilePolarity,Negative*%
%FSLAX46Y46*%
G04 Gerber Fmt 4.6, Leading zero omitted, Abs format (unit mm)*
G04 Created by KiCad (PCBNEW 9.0.5) date 2026-09-10 12:50:29*
%MOMM*%
%LPD*%
G01*
G04 APERTURE LIST*
G04 Aperture macros list*
%AMRoundRect*
0 Rectangle with rounded corners*
0 $1 Rounding radius*
0 $2 $3 $4 $5 $6 $7 $8 $9 X,Y pos of 4 corners*
0 Add a 4 corners polygon primitive as box body*
4,1,4,$2,$3,$4,$5,$6,$7,$8,$9,$2,$3,0*
0 Add four circle primitives for the rounded corners*
1,1,$1+$1,$2,$3*
1,1,$1+$1,$4,$5*
1,1,$1+$1,$6,$7*
1,1,$1+$1,$8,$9*
0 Add four rect primitives between the rounded corners*
20,1,$1+$1,$2,$3,$4,$5,0*
20,1,$1+$1,$4,$5,$6,$7,0*
20,1,$1+$1,$6,$7,$8,$9,0*
20,1,$1+$1,$8,$9,$2,$3,0*%
G04 Aperture macros list end*
%ADD10C,2.200000*%
%ADD11C,0.650000*%
%ADD12O,2.100000X1.000000*%
%ADD13O,1.600000X1.000000*%
%ADD14C,1.700000*%
%ADD15R,1.700000X1.700000*%
%ADD16C,3.000000*%
%ADD17C,1.524000*%
%ADD18C,1.600000*%
%ADD19R,1.600000X1.600000*%
%ADD20O,1.200000X1.750000*%
%ADD21RoundRect,0.250000X-0.350000X-0.625000X0.350000X-0.625000X0.350000X0.625000X-0.350000X0.625000X0*%
%ADD22O,1.712000X3.220000*%
%ADD23C,1.950000*%
%ADD24C,1.500000*%
%ADD25RoundRect,0.250000X0.350000X0.625000X-0.350000X0.625000X-0.350000X-0.625000X0.350000X-0.625000X0*%
%ADD26O,1.750000X1.200000*%
%ADD27RoundRect,0.250000X-0.625000X0.350000X-0.625000X-0.350000X0.625000X-0.350000X0.625000X0.350000X0*%
%ADD28RoundRect,0.250000X0.625000X-0.350000X0.625000X0.350000X-0.625000X0.350000X-0.625000X-0.350000X0*%
%ADD29C,1.000000*%
%ADD30RoundRect,0.250000X-0.250000X0.250000X-0.250000X-0.250000X0.250000X-0.250000X0.250000X0.250000X0*%
G04 APERTURE END LIST*
D10*
X87800000Y-44650000D03*
X167550000Y-51800000D03*
X34350000Y-61850000D03*
X119600000Y-69500000D03*
X71450000Y-74700000D03*
D11*
X36550000Y-49970000D03*
X36550000Y-55750000D03*
D12*
X37080000Y-48540000D03*
D13*
X32900000Y-48540000D03*
D12*
X37080000Y-57180000D03*
D13*
X32900000Y-57180000D03*
D14*
X156001958Y-63600000D03*
X156001958Y-61060000D03*
X156001958Y-58520000D03*
X156001958Y-55980000D03*
D15*
X156001958Y-53440000D03*
D16*
X48700000Y-75000000D03*
X48700000Y-91230000D03*
X36000000Y-75000000D03*
X36000000Y-91230000D03*
X42350000Y-75000000D03*
X42350000Y-91230000D03*
D17*
X116270000Y-36030000D03*
X116270000Y-33030000D03*
D18*
X115560000Y-26910000D03*
X118100000Y-26910000D03*
X120640000Y-26910000D03*
X123180000Y-26910000D03*
X125720000Y-26910000D03*
X128260000Y-26910000D03*
X130800000Y-26910000D03*
X133340000Y-26910000D03*
X135880000Y-26910000D03*
X138420000Y-26910000D03*
X140960000Y-26910000D03*
X143500000Y-26910000D03*
X146040000Y-26910000D03*
X148580000Y-26910000D03*
X151120000Y-26910000D03*
X153660000Y-26910000D03*
X156200000Y-26910000D03*
X158740000Y-26910000D03*
X161280000Y-26910000D03*
X163820000Y-26910000D03*
X166360000Y-26910000D03*
X168900000Y-26910000D03*
X171440000Y-26910000D03*
X173980000Y-26910000D03*
X173980000Y-42150000D03*
X171440000Y-42150000D03*
X168900000Y-42150000D03*
X166360000Y-42150000D03*
X163820000Y-42150000D03*
X161280000Y-42150000D03*
X158740000Y-42150000D03*
X156200000Y-42150000D03*
X153660000Y-42150000D03*
X151120000Y-42150000D03*
X148580000Y-42150000D03*
X146040000Y-42150000D03*
X143500000Y-42150000D03*
X140960000Y-42150000D03*
X138420000Y-42150000D03*
X135880000Y-42150000D03*
X133340000Y-42150000D03*
X130800000Y-42150000D03*
X128260000Y-42150000D03*
X125720000Y-42150000D03*
X123180000Y-42150000D03*
X120640000Y-42150000D03*
X118100000Y-42150000D03*
D19*
X115560000Y-42150000D03*
D20*
X69000000Y-30000000D03*
X67000000Y-30000000D03*
X65000000Y-30000000D03*
X63000000Y-30000000D03*
D21*
X61000000Y-30000000D03*
D14*
X177002175Y-63600000D03*
X177002175Y-61060000D03*
X177002175Y-58520000D03*
X177002175Y-55980000D03*
D15*
X177002175Y-53440000D03*
D16*
X156645000Y-79000000D03*
X172875000Y-79000000D03*
X156645000Y-91700000D03*
X172875000Y-91700000D03*
X156645000Y-85350000D03*
X172875000Y-85350000D03*
D14*
X140000000Y-63600000D03*
X140000000Y-61060000D03*
X140000000Y-58520000D03*
X140000000Y-55980000D03*
D15*
X140000000Y-53440000D03*
D22*
X181750000Y-77900000D03*
X187250000Y-77900000D03*
X189650000Y-75900000D03*
D23*
X180500000Y-37000000D03*
X186500000Y-37000000D03*
X180500000Y-49000000D03*
X186500000Y-49000000D03*
D24*
X182250000Y-47000000D03*
X182250000Y-43000000D03*
X182250000Y-39000000D03*
X184750000Y-39000000D03*
X184750000Y-43000000D03*
X184750000Y-47000000D03*
D14*
X81998914Y-63600000D03*
X81998914Y-61060000D03*
X81998914Y-58520000D03*
X81998914Y-55980000D03*
D15*
X81998914Y-53440000D03*
D20*
X82500000Y-38000000D03*
X80500000Y-38000000D03*
X78500000Y-38000000D03*
X76500000Y-38000000D03*
D21*
X74500000Y-38000000D03*
D20*
X186000000Y-28500000D03*
D25*
X188000000Y-28500000D03*
D26*
X149200000Y-62250000D03*
D27*
X149200000Y-60250000D03*
D26*
X149200000Y-55250000D03*
D27*
X149200000Y-53250000D03*
D26*
X35000000Y-68000000D03*
D28*
X35000000Y-70000000D03*
D16*
X48681020Y-27077339D03*
X48681020Y-43307339D03*
X35981020Y-27077339D03*
X35981020Y-43307339D03*
X42331020Y-27077339D03*
X42331020Y-43307339D03*
D14*
X102998419Y-63600000D03*
X102998419Y-61060000D03*
X102998419Y-58520000D03*
X102998419Y-55980000D03*
D15*
X102998419Y-53440000D03*
D14*
X66000000Y-63600000D03*
X66000000Y-61060000D03*
X66000000Y-58520000D03*
X66000000Y-55980000D03*
D15*
X66000000Y-53440000D03*
D16*
X133890000Y-79000000D03*
X150120000Y-79000000D03*
X133890000Y-91700000D03*
X150120000Y-91700000D03*
X133890000Y-85350000D03*
X150120000Y-85350000D03*
D14*
X119000726Y-63600000D03*
X119000726Y-61060000D03*
X119000726Y-58520000D03*
X119000726Y-55980000D03*
D15*
X119000726Y-53440000D03*
D20*
X82400000Y-30000000D03*
X80400000Y-30000000D03*
D21*
X78400000Y-30000000D03*
D22*
X181750000Y-90950000D03*
X187250000Y-90950000D03*
X189650000Y-88950000D03*
D20*
X69000000Y-38000000D03*
X67000000Y-38000000D03*
X65000000Y-38000000D03*
X63000000Y-38000000D03*
D21*
X61000000Y-38000000D03*
D20*
X71000000Y-90000000D03*
X69000000Y-90000000D03*
X67000000Y-90000000D03*
X65000000Y-90000000D03*
D21*
X63000000Y-90000000D03*
D20*
X71000000Y-81600000D03*
X69000000Y-81600000D03*
X67000000Y-81600000D03*
X65000000Y-81600000D03*
D21*
X63000000Y-81600000D03*
D26*
X185000000Y-54865836D03*
X185000000Y-56865836D03*
X185000000Y-58865836D03*
X185000000Y-60865836D03*
D28*
X185000000Y-62865836D03*
D20*
X187250000Y-68150000D03*
D21*
X185250000Y-68150000D03*
D14*
X45000000Y-63600000D03*
X45000000Y-61060000D03*
X45000000Y-58520000D03*
X45000000Y-55980000D03*
D15*
X45000000Y-53440000D03*
D29*
X112000000Y-68400000D03*
D30*
X112000000Y-66500000D03*
M02*
