%TF.GenerationSoftware,KiCad,Pcbnew,8.0.0*%
%TF.CreationDate,2024-12-17T13:35:23+01:00*%
%TF.ProjectId,teensyAudioMidi,7465656e-7379-4417-9564-696f4d696469,rev?*%
%TF.SameCoordinates,Original*%
%TF.FileFunction,Drillmap*%
%TF.FilePolarity,Positive*%
%FSLAX45Y45*%
G04 Gerber Fmt 4.5, Leading zero omitted, Abs format (unit mm)*
G04 Created by KiCad (PCBNEW 8.0.0) date 2024-12-17 13:35:23*
%MOMM*%
%LPD*%
G01*
G04 APERTURE LIST*
%ADD10C,0.050000*%
%ADD11C,0.200000*%
%ADD12C,0.100000*%
%ADD13C,0.110000*%
%ADD14C,0.130000*%
%ADD15C,0.140000*%
G04 APERTURE END LIST*
D10*
X3098000Y-2504000D02*
X19098000Y-2504000D01*
X19098000Y-9600000D01*
X3098000Y-9600000D01*
X3098000Y-2504000D01*
D11*
D12*
X3636000Y-5298000D02*
X3666000Y-5328000D01*
X3666000Y-5298000D02*
X3636000Y-5328000D01*
X3642117Y-5367733D02*
X3672117Y-5397733D01*
X3672117Y-5367733D02*
X3642117Y-5397733D01*
X4035000Y-6935000D02*
X4065000Y-6965000D01*
X4065000Y-6935000D02*
X4035000Y-6965000D01*
X4062000Y-5182000D02*
X4092000Y-5212000D01*
X4092000Y-5182000D02*
X4062000Y-5212000D01*
X4062000Y-5278000D02*
X4092000Y-5308000D01*
X4092000Y-5278000D02*
X4062000Y-5308000D01*
X4062000Y-5377000D02*
X4092000Y-5407000D01*
X4092000Y-5377000D02*
X4062000Y-5407000D01*
X4062000Y-5479000D02*
X4092000Y-5509000D01*
X4092000Y-5479000D02*
X4062000Y-5509000D01*
X4275000Y-5768000D02*
X4305000Y-5798000D01*
X4305000Y-5768000D02*
X4275000Y-5798000D01*
X4277000Y-5880000D02*
X4307000Y-5910000D01*
X4307000Y-5880000D02*
X4277000Y-5910000D01*
X4885000Y-5985000D02*
X4915000Y-6015000D01*
X4915000Y-5985000D02*
X4885000Y-6015000D01*
X5885000Y-5385000D02*
X5915000Y-5415000D01*
X5915000Y-5385000D02*
X5885000Y-5415000D01*
X6985000Y-6785000D02*
X7015000Y-6815000D01*
X7015000Y-6785000D02*
X6985000Y-6815000D01*
X6985000Y-7185000D02*
X7015000Y-7215000D01*
X7015000Y-7185000D02*
X6985000Y-7215000D01*
X7565625Y-5304375D02*
X7595625Y-5334375D01*
X7595625Y-5304375D02*
X7565625Y-5334375D01*
X8560000Y-5160000D02*
X8590000Y-5190000D01*
X8590000Y-5160000D02*
X8560000Y-5190000D01*
X8760000Y-5160000D02*
X8790000Y-5190000D01*
X8790000Y-5160000D02*
X8760000Y-5190000D01*
X8835000Y-9135000D02*
X8865000Y-9165000D01*
X8865000Y-9135000D02*
X8835000Y-9165000D01*
X8935000Y-4935000D02*
X8965000Y-4965000D01*
X8965000Y-4935000D02*
X8935000Y-4965000D01*
X8935000Y-5085000D02*
X8965000Y-5115000D01*
X8965000Y-5085000D02*
X8935000Y-5115000D01*
X8935000Y-5285000D02*
X8965000Y-5315000D01*
X8965000Y-5285000D02*
X8935000Y-5315000D01*
X9542000Y-3553000D02*
X9572000Y-3583000D01*
X9572000Y-3553000D02*
X9542000Y-3583000D01*
X9679000Y-3909000D02*
X9709000Y-3939000D01*
X9709000Y-3909000D02*
X9679000Y-3939000D01*
X9779000Y-3390000D02*
X9809000Y-3420000D01*
X9809000Y-3390000D02*
X9779000Y-3420000D01*
X9869000Y-5205000D02*
X9899000Y-5235000D01*
X9899000Y-5205000D02*
X9869000Y-5235000D01*
X9883000Y-4738000D02*
X9913000Y-4768000D01*
X9913000Y-4738000D02*
X9883000Y-4768000D01*
X9978000Y-3907000D02*
X10008000Y-3937000D01*
X10008000Y-3907000D02*
X9978000Y-3937000D01*
X10017000Y-5449000D02*
X10047000Y-5479000D01*
X10047000Y-5449000D02*
X10017000Y-5479000D01*
X10032000Y-4969000D02*
X10062000Y-4999000D01*
X10062000Y-4969000D02*
X10032000Y-4999000D01*
X10130000Y-3838000D02*
X10160000Y-3868000D01*
X10160000Y-3838000D02*
X10130000Y-3868000D01*
X10278000Y-4339000D02*
X10308000Y-4369000D01*
X10308000Y-4339000D02*
X10278000Y-4369000D01*
X10310582Y-4457534D02*
X10340582Y-4487534D01*
X10340582Y-4457534D02*
X10310582Y-4487534D01*
X10385000Y-9235000D02*
X10415000Y-9265000D01*
X10415000Y-9235000D02*
X10385000Y-9265000D01*
X10390000Y-5289000D02*
X10420000Y-5319000D01*
X10420000Y-5289000D02*
X10390000Y-5319000D01*
X10396000Y-4811000D02*
X10426000Y-4841000D01*
X10426000Y-4811000D02*
X10396000Y-4841000D01*
X10435000Y-3185000D02*
X10465000Y-3215000D01*
X10465000Y-3185000D02*
X10435000Y-3215000D01*
X10473000Y-4702000D02*
X10503000Y-4732000D01*
X10503000Y-4702000D02*
X10473000Y-4732000D01*
X10535000Y-2835000D02*
X10565000Y-2865000D01*
X10565000Y-2835000D02*
X10535000Y-2865000D01*
X10548000Y-3799000D02*
X10578000Y-3829000D01*
X10578000Y-3799000D02*
X10548000Y-3829000D01*
X10551000Y-4818000D02*
X10581000Y-4848000D01*
X10581000Y-4818000D02*
X10551000Y-4848000D01*
X10609000Y-5038000D02*
X10639000Y-5068000D01*
X10639000Y-5038000D02*
X10609000Y-5068000D01*
X10727000Y-4904000D02*
X10757000Y-4934000D01*
X10757000Y-4904000D02*
X10727000Y-4934000D01*
X10733000Y-5039500D02*
X10763000Y-5069500D01*
X10763000Y-5039500D02*
X10733000Y-5069500D01*
X10824000Y-3909000D02*
X10854000Y-3939000D01*
X10854000Y-3909000D02*
X10824000Y-3939000D01*
X10881000Y-4929000D02*
X10911000Y-4959000D01*
X10911000Y-4929000D02*
X10881000Y-4959000D01*
X10968000Y-4913000D02*
X10998000Y-4943000D01*
X10998000Y-4913000D02*
X10968000Y-4943000D01*
X11002000Y-5040000D02*
X11032000Y-5070000D01*
X11032000Y-5040000D02*
X11002000Y-5070000D01*
X11003000Y-5154000D02*
X11033000Y-5184000D01*
X11033000Y-5154000D02*
X11003000Y-5184000D01*
X11005000Y-4174000D02*
X11035000Y-4204000D01*
X11035000Y-4174000D02*
X11005000Y-4204000D01*
X11008000Y-4055000D02*
X11038000Y-4085000D01*
X11038000Y-4055000D02*
X11008000Y-4085000D01*
X11023000Y-3796000D02*
X11053000Y-3826000D01*
X11053000Y-3796000D02*
X11023000Y-3826000D01*
X11145000Y-3576000D02*
X11175000Y-3606000D01*
X11175000Y-3576000D02*
X11145000Y-3606000D01*
X11177000Y-4887000D02*
X11207000Y-4917000D01*
X11207000Y-4887000D02*
X11177000Y-4917000D01*
X11197891Y-4347891D02*
X11227891Y-4377891D01*
X11227891Y-4347891D02*
X11197891Y-4377891D01*
X11286000Y-2962000D02*
X11316000Y-2992000D01*
X11316000Y-2962000D02*
X11286000Y-2992000D01*
X11402000Y-4902000D02*
X11432000Y-4932000D01*
X11432000Y-4902000D02*
X11402000Y-4932000D01*
X11464000Y-3340500D02*
X11494000Y-3370500D01*
X11494000Y-3340500D02*
X11464000Y-3370500D01*
X11464000Y-3415500D02*
X11494000Y-3445500D01*
X11494000Y-3415500D02*
X11464000Y-3445500D01*
X11835000Y-5735000D02*
X11865000Y-5765000D01*
X11865000Y-5735000D02*
X11835000Y-5765000D01*
X11970000Y-3222000D02*
X12000000Y-3252000D01*
X12000000Y-3222000D02*
X11970000Y-3252000D01*
X12098000Y-2959000D02*
X12128000Y-2989000D01*
X12128000Y-2959000D02*
X12098000Y-2989000D01*
X12277000Y-7685000D02*
X12307000Y-7715000D01*
X12307000Y-7685000D02*
X12277000Y-7715000D01*
X12305000Y-3288000D02*
X12335000Y-3318000D01*
X12335000Y-3288000D02*
X12305000Y-3318000D01*
X12347621Y-7780000D02*
X12377621Y-7810000D01*
X12377621Y-7780000D02*
X12347621Y-7810000D01*
X12363000Y-7537000D02*
X12393000Y-7567000D01*
X12393000Y-7537000D02*
X12363000Y-7567000D01*
X12527000Y-3295000D02*
X12557000Y-3325000D01*
X12557000Y-3295000D02*
X12527000Y-3325000D01*
X12551000Y-5694000D02*
X12581000Y-5724000D01*
X12581000Y-5694000D02*
X12551000Y-5724000D01*
X12576000Y-5270000D02*
X12606000Y-5300000D01*
X12606000Y-5270000D02*
X12576000Y-5300000D01*
X12601000Y-2935000D02*
X12631000Y-2965000D01*
X12631000Y-2935000D02*
X12601000Y-2965000D01*
X12662500Y-7780000D02*
X12692500Y-7810000D01*
X12692500Y-7780000D02*
X12662500Y-7810000D01*
X12835000Y-7485000D02*
X12865000Y-7515000D01*
X12865000Y-7485000D02*
X12835000Y-7515000D01*
X13176000Y-5785000D02*
X13206000Y-5815000D01*
X13206000Y-5785000D02*
X13176000Y-5815000D01*
X13222325Y-3311325D02*
X13252325Y-3341325D01*
X13252325Y-3311325D02*
X13222325Y-3341325D01*
X13292000Y-5285000D02*
X13322000Y-5315000D01*
X13322000Y-5285000D02*
X13292000Y-5315000D01*
X13292000Y-5597000D02*
X13322000Y-5627000D01*
X13322000Y-5597000D02*
X13292000Y-5627000D01*
X13385000Y-5685000D02*
X13415000Y-5715000D01*
X13415000Y-5685000D02*
X13385000Y-5715000D01*
X13484000Y-4483000D02*
X13514000Y-4513000D01*
X13514000Y-4483000D02*
X13484000Y-4513000D01*
X13489000Y-3096000D02*
X13519000Y-3126000D01*
X13519000Y-3096000D02*
X13489000Y-3126000D01*
X13490000Y-3370000D02*
X13520000Y-3400000D01*
X13520000Y-3370000D02*
X13490000Y-3400000D01*
X13525000Y-5027000D02*
X13555000Y-5057000D01*
X13555000Y-5027000D02*
X13525000Y-5057000D01*
X13600000Y-3103000D02*
X13630000Y-3133000D01*
X13630000Y-3103000D02*
X13600000Y-3133000D01*
X13603000Y-3373000D02*
X13633000Y-3403000D01*
X13633000Y-3373000D02*
X13603000Y-3403000D01*
X13650000Y-4854000D02*
X13680000Y-4884000D01*
X13680000Y-4854000D02*
X13650000Y-4884000D01*
X13685000Y-5446109D02*
X13715000Y-5476109D01*
X13715000Y-5446109D02*
X13685000Y-5476109D01*
X13852000Y-3946000D02*
X13882000Y-3976000D01*
X13882000Y-3946000D02*
X13852000Y-3976000D01*
X13963000Y-3953000D02*
X13993000Y-3983000D01*
X13993000Y-3953000D02*
X13963000Y-3983000D01*
X14077000Y-3098000D02*
X14107000Y-3128000D01*
X14107000Y-3098000D02*
X14077000Y-3128000D01*
X14077000Y-3410000D02*
X14107000Y-3440000D01*
X14107000Y-3410000D02*
X14077000Y-3440000D01*
X14144000Y-5029000D02*
X14174000Y-5059000D01*
X14174000Y-5029000D02*
X14144000Y-5059000D01*
X14260000Y-5301000D02*
X14290000Y-5331000D01*
X14290000Y-5301000D02*
X14260000Y-5331000D01*
X14345000Y-5220000D02*
X14375000Y-5250000D01*
X14375000Y-5220000D02*
X14345000Y-5250000D01*
X14593000Y-3368000D02*
X14623000Y-3398000D01*
X14623000Y-3368000D02*
X14593000Y-3398000D01*
X14607000Y-3827000D02*
X14637000Y-3857000D01*
X14637000Y-3827000D02*
X14607000Y-3857000D01*
X14993000Y-4457000D02*
X15023000Y-4487000D01*
X15023000Y-4457000D02*
X14993000Y-4487000D01*
X15175000Y-5347000D02*
X15205000Y-5377000D01*
X15205000Y-5347000D02*
X15175000Y-5377000D01*
X15335000Y-5335000D02*
X15365000Y-5365000D01*
X15365000Y-5335000D02*
X15335000Y-5365000D01*
X15461000Y-3853000D02*
X15491000Y-3883000D01*
X15491000Y-3853000D02*
X15461000Y-3883000D01*
X15508000Y-5359000D02*
X15538000Y-5389000D01*
X15538000Y-5359000D02*
X15508000Y-5389000D01*
X15609000Y-4634000D02*
X15639000Y-4664000D01*
X15639000Y-4634000D02*
X15609000Y-4664000D01*
X15622000Y-3332000D02*
X15652000Y-3362000D01*
X15652000Y-3332000D02*
X15622000Y-3362000D01*
X15855000Y-4970000D02*
X15885000Y-5000000D01*
X15885000Y-4970000D02*
X15855000Y-5000000D01*
X15935000Y-7035000D02*
X15965000Y-7065000D01*
X15965000Y-7035000D02*
X15935000Y-7065000D01*
X15972000Y-4655000D02*
X16002000Y-4685000D01*
X16002000Y-4655000D02*
X15972000Y-4685000D01*
X16083000Y-4769000D02*
X16113000Y-4799000D01*
X16113000Y-4769000D02*
X16083000Y-4799000D01*
X16654000Y-3052000D02*
X16684000Y-3082000D01*
X16684000Y-3052000D02*
X16654000Y-3082000D01*
X16785000Y-5735000D02*
X16815000Y-5765000D01*
X16815000Y-5735000D02*
X16785000Y-5765000D01*
X17276000Y-3451000D02*
X17306000Y-3481000D01*
X17306000Y-3451000D02*
X17276000Y-3481000D01*
X17292000Y-5597000D02*
X17322000Y-5627000D01*
X17322000Y-5597000D02*
X17292000Y-5627000D01*
X17294000Y-5365000D02*
X17324000Y-5395000D01*
X17324000Y-5365000D02*
X17294000Y-5395000D01*
X17485000Y-3835000D02*
X17515000Y-3865000D01*
X17515000Y-3835000D02*
X17485000Y-3865000D01*
X17565344Y-5965344D02*
X17595344Y-5995344D01*
X17595344Y-5965344D02*
X17565344Y-5995344D01*
X17579000Y-3576000D02*
X17609000Y-3606000D01*
X17609000Y-3576000D02*
X17579000Y-3606000D01*
X17585000Y-8885000D02*
X17615000Y-8915000D01*
X17615000Y-8885000D02*
X17585000Y-8915000D01*
X17685000Y-3735000D02*
X17715000Y-3765000D01*
X17715000Y-3735000D02*
X17685000Y-3765000D01*
X17791000Y-2635000D02*
X17821000Y-2665000D01*
X17821000Y-2635000D02*
X17791000Y-2665000D01*
X17801000Y-2898000D02*
X17831000Y-2928000D01*
X17831000Y-2898000D02*
X17801000Y-2928000D01*
X18144000Y-2900000D02*
X18174000Y-2930000D01*
X18174000Y-2900000D02*
X18144000Y-2930000D01*
X18273000Y-2976000D02*
X18303000Y-3006000D01*
X18303000Y-2976000D02*
X18273000Y-3006000D01*
X18530000Y-2634000D02*
X18560000Y-2664000D01*
X18560000Y-2634000D02*
X18530000Y-2664000D01*
X3320000Y-4854000D02*
G75*
G02*
X3260000Y-4854000I-30000J0D01*
G01*
X3260000Y-4854000D02*
G75*
G02*
X3320000Y-4854000I30000J0D01*
G01*
X3320000Y-4824000D02*
X3260000Y-4824000D01*
X3260000Y-4884000D02*
G75*
G02*
X3260000Y-4824000I0J30000D01*
G01*
X3260000Y-4884000D02*
X3320000Y-4884000D01*
X3320000Y-4884000D02*
G75*
G03*
X3320000Y-4824000I0J30000D01*
G01*
X3320000Y-5718000D02*
G75*
G02*
X3260000Y-5718000I-30000J0D01*
G01*
X3260000Y-5718000D02*
G75*
G02*
X3320000Y-5718000I30000J0D01*
G01*
X3320000Y-5688000D02*
X3260000Y-5688000D01*
X3260000Y-5748000D02*
G75*
G02*
X3260000Y-5688000I0J30000D01*
G01*
X3260000Y-5748000D02*
X3320000Y-5748000D01*
X3320000Y-5748000D02*
G75*
G03*
X3320000Y-5688000I0J30000D01*
G01*
X3738000Y-4854000D02*
G75*
G02*
X3678000Y-4854000I-30000J0D01*
G01*
X3678000Y-4854000D02*
G75*
G02*
X3738000Y-4854000I30000J0D01*
G01*
X3763000Y-4824000D02*
X3653000Y-4824000D01*
X3653000Y-4884000D02*
G75*
G02*
X3653000Y-4824000I0J30000D01*
G01*
X3653000Y-4884000D02*
X3763000Y-4884000D01*
X3763000Y-4884000D02*
G75*
G03*
X3763000Y-4824000I0J30000D01*
G01*
X3738000Y-5718000D02*
G75*
G02*
X3678000Y-5718000I-30000J0D01*
G01*
X3678000Y-5718000D02*
G75*
G02*
X3738000Y-5718000I30000J0D01*
G01*
X3763000Y-5688000D02*
X3653000Y-5688000D01*
X3653000Y-5748000D02*
G75*
G02*
X3653000Y-5688000I0J30000D01*
G01*
X3653000Y-5748000D02*
X3763000Y-5748000D01*
X3763000Y-5748000D02*
G75*
G03*
X3763000Y-5688000I0J30000D01*
G01*
X10610000Y-8817500D02*
X10610000Y-8882500D01*
X10577500Y-8850000D02*
X10642500Y-8850000D01*
X10800000Y-8817500D02*
X10800000Y-8882500D01*
X10767500Y-8850000D02*
X10832500Y-8850000D01*
X4376517Y-4901517D02*
X4376517Y-4848483D01*
X4323483Y-4848483D01*
X4323483Y-4901517D01*
X4376517Y-4901517D01*
X4576517Y-4901517D02*
X4576517Y-4848483D01*
X4523483Y-4848483D01*
X4523483Y-4901517D01*
X4576517Y-4901517D01*
X4776517Y-4901517D02*
X4776517Y-4848483D01*
X4723483Y-4848483D01*
X4723483Y-4901517D01*
X4776517Y-4901517D01*
X4976517Y-4901517D02*
X4976517Y-4848483D01*
X4923483Y-4848483D01*
X4923483Y-4901517D01*
X4976517Y-4901517D01*
X5176517Y-4901517D02*
X5176517Y-4848483D01*
X5123483Y-4848483D01*
X5123483Y-4901517D01*
X5176517Y-4901517D01*
X6576517Y-8276517D02*
X6576517Y-8223483D01*
X6523483Y-8223483D01*
X6523483Y-8276517D01*
X6576517Y-8276517D01*
X6576517Y-8476517D02*
X6576517Y-8423483D01*
X6523483Y-8423483D01*
X6523483Y-8476517D01*
X6576517Y-8476517D01*
X6576517Y-8676517D02*
X6576517Y-8623483D01*
X6523483Y-8623483D01*
X6523483Y-8676517D01*
X6576517Y-8676517D01*
X6576517Y-8876517D02*
X6576517Y-8823483D01*
X6523483Y-8823483D01*
X6523483Y-8876517D01*
X6576517Y-8876517D01*
X6576517Y-9076517D02*
X6576517Y-9023483D01*
X6523483Y-9023483D01*
X6523483Y-9076517D01*
X6576517Y-9076517D01*
X6676517Y-4876517D02*
X6676517Y-4823483D01*
X6623483Y-4823483D01*
X6623483Y-4876517D01*
X6676517Y-4876517D01*
X6876517Y-3131517D02*
X6876517Y-3078483D01*
X6823483Y-3078483D01*
X6823483Y-3131517D01*
X6876517Y-3131517D01*
X6876517Y-4876517D02*
X6876517Y-4823483D01*
X6823483Y-4823483D01*
X6823483Y-4876517D01*
X6876517Y-4876517D01*
X7076517Y-3131517D02*
X7076517Y-3078483D01*
X7023483Y-3078483D01*
X7023483Y-3131517D01*
X7076517Y-3131517D01*
X7076517Y-4876517D02*
X7076517Y-4823483D01*
X7023483Y-4823483D01*
X7023483Y-4876517D01*
X7076517Y-4876517D01*
X7276517Y-3131517D02*
X7276517Y-3078483D01*
X7223483Y-3078483D01*
X7223483Y-3131517D01*
X7276517Y-3131517D01*
X7276517Y-4876517D02*
X7276517Y-4823483D01*
X7223483Y-4823483D01*
X7223483Y-4876517D01*
X7276517Y-4876517D01*
X7476517Y-4876517D02*
X7476517Y-4823483D01*
X7423483Y-4823483D01*
X7423483Y-4876517D01*
X7476517Y-4876517D01*
X7476517Y-8276517D02*
X7476517Y-8223483D01*
X7423483Y-8223483D01*
X7423483Y-8276517D01*
X7476517Y-8276517D01*
X7476517Y-8476517D02*
X7476517Y-8423483D01*
X7423483Y-8423483D01*
X7423483Y-8476517D01*
X7476517Y-8476517D01*
X7476517Y-8676517D02*
X7476517Y-8623483D01*
X7423483Y-8623483D01*
X7423483Y-8676517D01*
X7476517Y-8676517D01*
X7476517Y-8876517D02*
X7476517Y-8823483D01*
X7423483Y-8823483D01*
X7423483Y-8876517D01*
X7476517Y-8876517D01*
X7476517Y-9076517D02*
X7476517Y-9023483D01*
X7423483Y-9023483D01*
X7423483Y-9076517D01*
X7476517Y-9076517D01*
X12385517Y-4901517D02*
X12385517Y-4848483D01*
X12332483Y-4848483D01*
X12332483Y-4901517D01*
X12385517Y-4901517D01*
X12585517Y-4901517D02*
X12585517Y-4848483D01*
X12532483Y-4848483D01*
X12532483Y-4901517D01*
X12585517Y-4901517D01*
X12785517Y-4901517D02*
X12785517Y-4848483D01*
X12732483Y-4848483D01*
X12732483Y-4901517D01*
X12785517Y-4901517D01*
X12985517Y-4901517D02*
X12985517Y-4848483D01*
X12932483Y-4848483D01*
X12932483Y-4901517D01*
X12985517Y-4901517D01*
X13185517Y-4901517D02*
X13185517Y-4848483D01*
X13132483Y-4848483D01*
X13132483Y-4901517D01*
X13185517Y-4901517D01*
X16467850Y-4901517D02*
X16467850Y-4848483D01*
X16414817Y-4848483D01*
X16414817Y-4901517D01*
X16467850Y-4901517D01*
X16667850Y-4901517D02*
X16667850Y-4848483D01*
X16614817Y-4848483D01*
X16614817Y-4901517D01*
X16667850Y-4901517D01*
X16867850Y-4901517D02*
X16867850Y-4848483D01*
X16814817Y-4848483D01*
X16814817Y-4901517D01*
X16867850Y-4901517D01*
X17067850Y-4901517D02*
X17067850Y-4848483D01*
X17014817Y-4848483D01*
X17014817Y-4901517D01*
X17067850Y-4901517D01*
X17267850Y-4901517D02*
X17267850Y-4848483D01*
X17214817Y-4848483D01*
X17214817Y-4901517D01*
X17267850Y-4901517D01*
X18726517Y-3126517D02*
X18726517Y-3073483D01*
X18673483Y-3073483D01*
X18673483Y-3126517D01*
X18726517Y-3126517D01*
X18726517Y-3326517D02*
X18726517Y-3273483D01*
X18673483Y-3273483D01*
X18673483Y-3326517D01*
X18726517Y-3326517D01*
X11629000Y-3366000D02*
X11669000Y-3326000D01*
X11629000Y-3286000D01*
X11589000Y-3326000D01*
X11629000Y-3366000D01*
X11629000Y-3620000D02*
X11669000Y-3580000D01*
X11629000Y-3540000D01*
X11589000Y-3580000D01*
X11629000Y-3620000D01*
X12853000Y-2974840D02*
X12893000Y-2934840D01*
X12853000Y-2894840D01*
X12813000Y-2934840D01*
X12853000Y-2974840D01*
X12853000Y-3174840D02*
X12893000Y-3134840D01*
X12853000Y-3094840D01*
X12813000Y-3134840D01*
X12853000Y-3174840D01*
X12853000Y-3374840D02*
X12893000Y-3334840D01*
X12853000Y-3294840D01*
X12813000Y-3334840D01*
X12853000Y-3374840D01*
X13053000Y-2974840D02*
X13093000Y-2934840D01*
X13053000Y-2894840D01*
X13013000Y-2934840D01*
X13053000Y-2974840D01*
X13053000Y-3174840D02*
X13093000Y-3134840D01*
X13053000Y-3094840D01*
X13013000Y-3134840D01*
X13053000Y-3174840D01*
X13053000Y-3374840D02*
X13093000Y-3334840D01*
X13053000Y-3294840D01*
X13013000Y-3334840D01*
X13053000Y-3374840D01*
X18175000Y-4041000D02*
X18275000Y-4141000D01*
X18275000Y-4041000D02*
X18175000Y-4141000D01*
X18275000Y-4091000D02*
G75*
G02*
X18175000Y-4091000I-50000J0D01*
G01*
X18175000Y-4091000D02*
G75*
G02*
X18275000Y-4091000I50000J0D01*
G01*
X18175000Y-4441000D02*
X18275000Y-4541000D01*
X18275000Y-4441000D02*
X18175000Y-4541000D01*
X18275000Y-4491000D02*
G75*
G02*
X18175000Y-4491000I-50000J0D01*
G01*
X18175000Y-4491000D02*
G75*
G02*
X18275000Y-4491000I50000J0D01*
G01*
X18175000Y-4841000D02*
X18275000Y-4941000D01*
X18275000Y-4841000D02*
X18175000Y-4941000D01*
X18275000Y-4891000D02*
G75*
G02*
X18175000Y-4891000I-50000J0D01*
G01*
X18175000Y-4891000D02*
G75*
G02*
X18275000Y-4891000I50000J0D01*
G01*
X18425000Y-4041000D02*
X18525000Y-4141000D01*
X18525000Y-4041000D02*
X18425000Y-4141000D01*
X18525000Y-4091000D02*
G75*
G02*
X18425000Y-4091000I-50000J0D01*
G01*
X18425000Y-4091000D02*
G75*
G02*
X18525000Y-4091000I50000J0D01*
G01*
X18425000Y-4441000D02*
X18525000Y-4541000D01*
X18525000Y-4441000D02*
X18425000Y-4541000D01*
X18525000Y-4491000D02*
G75*
G02*
X18425000Y-4491000I-50000J0D01*
G01*
X18425000Y-4491000D02*
G75*
G02*
X18525000Y-4491000I50000J0D01*
G01*
X18425000Y-4841000D02*
X18525000Y-4941000D01*
X18525000Y-4841000D02*
X18425000Y-4941000D01*
X18525000Y-4891000D02*
G75*
G02*
X18425000Y-4891000I-50000J0D01*
G01*
X18425000Y-4891000D02*
G75*
G02*
X18525000Y-4891000I50000J0D01*
G01*
D13*
X11501000Y-2636000D02*
X11611000Y-2746000D01*
X11611000Y-2636000D02*
X11501000Y-2746000D01*
X11556000Y-2636000D02*
X11556000Y-2746000D01*
X11501000Y-2691000D02*
X11611000Y-2691000D01*
X11501000Y-4160000D02*
X11611000Y-4270000D01*
X11611000Y-4160000D02*
X11501000Y-4270000D01*
X11556000Y-4160000D02*
X11556000Y-4270000D01*
X11501000Y-4215000D02*
X11611000Y-4215000D01*
X11755000Y-2636000D02*
X11865000Y-2746000D01*
X11865000Y-2636000D02*
X11755000Y-2746000D01*
X11810000Y-2636000D02*
X11810000Y-2746000D01*
X11755000Y-2691000D02*
X11865000Y-2691000D01*
X11755000Y-2890000D02*
X11865000Y-3000000D01*
X11865000Y-2890000D02*
X11755000Y-3000000D01*
X11810000Y-2890000D02*
X11810000Y-3000000D01*
X11755000Y-2945000D02*
X11865000Y-2945000D01*
X11755000Y-4160000D02*
X11865000Y-4270000D01*
X11865000Y-4160000D02*
X11755000Y-4270000D01*
X11810000Y-4160000D02*
X11810000Y-4270000D01*
X11755000Y-4215000D02*
X11865000Y-4215000D01*
X12009000Y-2636000D02*
X12119000Y-2746000D01*
X12119000Y-2636000D02*
X12009000Y-2746000D01*
X12064000Y-2636000D02*
X12064000Y-2746000D01*
X12009000Y-2691000D02*
X12119000Y-2691000D01*
X12009000Y-4160000D02*
X12119000Y-4270000D01*
X12119000Y-4160000D02*
X12009000Y-4270000D01*
X12064000Y-4160000D02*
X12064000Y-4270000D01*
X12009000Y-4215000D02*
X12119000Y-4215000D01*
X12130920Y-3854920D02*
X12240920Y-3964920D01*
X12240920Y-3854920D02*
X12130920Y-3964920D01*
X12185920Y-3854920D02*
X12185920Y-3964920D01*
X12130920Y-3909920D02*
X12240920Y-3909920D01*
X12263000Y-2636000D02*
X12373000Y-2746000D01*
X12373000Y-2636000D02*
X12263000Y-2746000D01*
X12318000Y-2636000D02*
X12318000Y-2746000D01*
X12263000Y-2691000D02*
X12373000Y-2691000D01*
X12263000Y-4160000D02*
X12373000Y-4270000D01*
X12373000Y-4160000D02*
X12263000Y-4270000D01*
X12318000Y-4160000D02*
X12318000Y-4270000D01*
X12263000Y-4215000D02*
X12373000Y-4215000D01*
X12384920Y-3854920D02*
X12494920Y-3964920D01*
X12494920Y-3854920D02*
X12384920Y-3964920D01*
X12439920Y-3854920D02*
X12439920Y-3964920D01*
X12384920Y-3909920D02*
X12494920Y-3909920D01*
X12517000Y-2636000D02*
X12627000Y-2746000D01*
X12627000Y-2636000D02*
X12517000Y-2746000D01*
X12572000Y-2636000D02*
X12572000Y-2746000D01*
X12517000Y-2691000D02*
X12627000Y-2691000D01*
X12517000Y-4160000D02*
X12627000Y-4270000D01*
X12627000Y-4160000D02*
X12517000Y-4270000D01*
X12572000Y-4160000D02*
X12572000Y-4270000D01*
X12517000Y-4215000D02*
X12627000Y-4215000D01*
X12638920Y-3854920D02*
X12748920Y-3964920D01*
X12748920Y-3854920D02*
X12638920Y-3964920D01*
X12693920Y-3854920D02*
X12693920Y-3964920D01*
X12638920Y-3909920D02*
X12748920Y-3909920D01*
X12771000Y-2636000D02*
X12881000Y-2746000D01*
X12881000Y-2636000D02*
X12771000Y-2746000D01*
X12826000Y-2636000D02*
X12826000Y-2746000D01*
X12771000Y-2691000D02*
X12881000Y-2691000D01*
X12771000Y-4160000D02*
X12881000Y-4270000D01*
X12881000Y-4160000D02*
X12771000Y-4270000D01*
X12826000Y-4160000D02*
X12826000Y-4270000D01*
X12771000Y-4215000D02*
X12881000Y-4215000D01*
X12892920Y-3854920D02*
X13002920Y-3964920D01*
X13002920Y-3854920D02*
X12892920Y-3964920D01*
X12947920Y-3854920D02*
X12947920Y-3964920D01*
X12892920Y-3909920D02*
X13002920Y-3909920D01*
X13025000Y-2636000D02*
X13135000Y-2746000D01*
X13135000Y-2636000D02*
X13025000Y-2746000D01*
X13080000Y-2636000D02*
X13080000Y-2746000D01*
X13025000Y-2691000D02*
X13135000Y-2691000D01*
X13025000Y-4160000D02*
X13135000Y-4270000D01*
X13135000Y-4160000D02*
X13025000Y-4270000D01*
X13080000Y-4160000D02*
X13080000Y-4270000D01*
X13025000Y-4215000D02*
X13135000Y-4215000D01*
X13146920Y-3854920D02*
X13256920Y-3964920D01*
X13256920Y-3854920D02*
X13146920Y-3964920D01*
X13201920Y-3854920D02*
X13201920Y-3964920D01*
X13146920Y-3909920D02*
X13256920Y-3909920D01*
X13279000Y-2636000D02*
X13389000Y-2746000D01*
X13389000Y-2636000D02*
X13279000Y-2746000D01*
X13334000Y-2636000D02*
X13334000Y-2746000D01*
X13279000Y-2691000D02*
X13389000Y-2691000D01*
X13279000Y-4160000D02*
X13389000Y-4270000D01*
X13389000Y-4160000D02*
X13279000Y-4270000D01*
X13334000Y-4160000D02*
X13334000Y-4270000D01*
X13279000Y-4215000D02*
X13389000Y-4215000D01*
X13533000Y-2636000D02*
X13643000Y-2746000D01*
X13643000Y-2636000D02*
X13533000Y-2746000D01*
X13588000Y-2636000D02*
X13588000Y-2746000D01*
X13533000Y-2691000D02*
X13643000Y-2691000D01*
X13533000Y-4160000D02*
X13643000Y-4270000D01*
X13643000Y-4160000D02*
X13533000Y-4270000D01*
X13588000Y-4160000D02*
X13588000Y-4270000D01*
X13533000Y-4215000D02*
X13643000Y-4215000D01*
X13787000Y-2636000D02*
X13897000Y-2746000D01*
X13897000Y-2636000D02*
X13787000Y-2746000D01*
X13842000Y-2636000D02*
X13842000Y-2746000D01*
X13787000Y-2691000D02*
X13897000Y-2691000D01*
X13787000Y-4160000D02*
X13897000Y-4270000D01*
X13897000Y-4160000D02*
X13787000Y-4270000D01*
X13842000Y-4160000D02*
X13842000Y-4270000D01*
X13787000Y-4215000D02*
X13897000Y-4215000D01*
X14041000Y-2636000D02*
X14151000Y-2746000D01*
X14151000Y-2636000D02*
X14041000Y-2746000D01*
X14096000Y-2636000D02*
X14096000Y-2746000D01*
X14041000Y-2691000D02*
X14151000Y-2691000D01*
X14041000Y-4160000D02*
X14151000Y-4270000D01*
X14151000Y-4160000D02*
X14041000Y-4270000D01*
X14096000Y-4160000D02*
X14096000Y-4270000D01*
X14041000Y-4215000D02*
X14151000Y-4215000D01*
X14295000Y-2636000D02*
X14405000Y-2746000D01*
X14405000Y-2636000D02*
X14295000Y-2746000D01*
X14350000Y-2636000D02*
X14350000Y-2746000D01*
X14295000Y-2691000D02*
X14405000Y-2691000D01*
X14295000Y-4160000D02*
X14405000Y-4270000D01*
X14405000Y-4160000D02*
X14295000Y-4270000D01*
X14350000Y-4160000D02*
X14350000Y-4270000D01*
X14295000Y-4215000D02*
X14405000Y-4215000D01*
X14549000Y-2636000D02*
X14659000Y-2746000D01*
X14659000Y-2636000D02*
X14549000Y-2746000D01*
X14604000Y-2636000D02*
X14604000Y-2746000D01*
X14549000Y-2691000D02*
X14659000Y-2691000D01*
X14549000Y-4160000D02*
X14659000Y-4270000D01*
X14659000Y-4160000D02*
X14549000Y-4270000D01*
X14604000Y-4160000D02*
X14604000Y-4270000D01*
X14549000Y-4215000D02*
X14659000Y-4215000D01*
X14803000Y-2636000D02*
X14913000Y-2746000D01*
X14913000Y-2636000D02*
X14803000Y-2746000D01*
X14858000Y-2636000D02*
X14858000Y-2746000D01*
X14803000Y-2691000D02*
X14913000Y-2691000D01*
X14803000Y-4160000D02*
X14913000Y-4270000D01*
X14913000Y-4160000D02*
X14803000Y-4270000D01*
X14858000Y-4160000D02*
X14858000Y-4270000D01*
X14803000Y-4215000D02*
X14913000Y-4215000D01*
X15057000Y-2636000D02*
X15167000Y-2746000D01*
X15167000Y-2636000D02*
X15057000Y-2746000D01*
X15112000Y-2636000D02*
X15112000Y-2746000D01*
X15057000Y-2691000D02*
X15167000Y-2691000D01*
X15057000Y-4160000D02*
X15167000Y-4270000D01*
X15167000Y-4160000D02*
X15057000Y-4270000D01*
X15112000Y-4160000D02*
X15112000Y-4270000D01*
X15057000Y-4215000D02*
X15167000Y-4215000D01*
X15311000Y-2636000D02*
X15421000Y-2746000D01*
X15421000Y-2636000D02*
X15311000Y-2746000D01*
X15366000Y-2636000D02*
X15366000Y-2746000D01*
X15311000Y-2691000D02*
X15421000Y-2691000D01*
X15311000Y-4160000D02*
X15421000Y-4270000D01*
X15421000Y-4160000D02*
X15311000Y-4270000D01*
X15366000Y-4160000D02*
X15366000Y-4270000D01*
X15311000Y-4215000D02*
X15421000Y-4215000D01*
X15565000Y-2636000D02*
X15675000Y-2746000D01*
X15675000Y-2636000D02*
X15565000Y-2746000D01*
X15620000Y-2636000D02*
X15620000Y-2746000D01*
X15565000Y-2691000D02*
X15675000Y-2691000D01*
X15565000Y-4160000D02*
X15675000Y-4270000D01*
X15675000Y-4160000D02*
X15565000Y-4270000D01*
X15620000Y-4160000D02*
X15620000Y-4270000D01*
X15565000Y-4215000D02*
X15675000Y-4215000D01*
X15819000Y-2636000D02*
X15929000Y-2746000D01*
X15929000Y-2636000D02*
X15819000Y-2746000D01*
X15874000Y-2636000D02*
X15874000Y-2746000D01*
X15819000Y-2691000D02*
X15929000Y-2691000D01*
X15819000Y-4160000D02*
X15929000Y-4270000D01*
X15929000Y-4160000D02*
X15819000Y-4270000D01*
X15874000Y-4160000D02*
X15874000Y-4270000D01*
X15819000Y-4215000D02*
X15929000Y-4215000D01*
X16073000Y-2636000D02*
X16183000Y-2746000D01*
X16183000Y-2636000D02*
X16073000Y-2746000D01*
X16128000Y-2636000D02*
X16128000Y-2746000D01*
X16073000Y-2691000D02*
X16183000Y-2691000D01*
X16073000Y-2890000D02*
X16183000Y-3000000D01*
X16183000Y-2890000D02*
X16073000Y-3000000D01*
X16128000Y-2890000D02*
X16128000Y-3000000D01*
X16073000Y-2945000D02*
X16183000Y-2945000D01*
X16073000Y-3144000D02*
X16183000Y-3254000D01*
X16183000Y-3144000D02*
X16073000Y-3254000D01*
X16128000Y-3144000D02*
X16128000Y-3254000D01*
X16073000Y-3199000D02*
X16183000Y-3199000D01*
X16073000Y-3398000D02*
X16183000Y-3508000D01*
X16183000Y-3398000D02*
X16073000Y-3508000D01*
X16128000Y-3398000D02*
X16128000Y-3508000D01*
X16073000Y-3453000D02*
X16183000Y-3453000D01*
X16073000Y-3652000D02*
X16183000Y-3762000D01*
X16183000Y-3652000D02*
X16073000Y-3762000D01*
X16128000Y-3652000D02*
X16128000Y-3762000D01*
X16073000Y-3707000D02*
X16183000Y-3707000D01*
X16073000Y-3906000D02*
X16183000Y-4016000D01*
X16183000Y-3906000D02*
X16073000Y-4016000D01*
X16128000Y-3906000D02*
X16128000Y-4016000D01*
X16073000Y-3961000D02*
X16183000Y-3961000D01*
X16073000Y-4160000D02*
X16183000Y-4270000D01*
X16183000Y-4160000D02*
X16073000Y-4270000D01*
X16128000Y-4160000D02*
X16128000Y-4270000D01*
X16073000Y-4215000D02*
X16183000Y-4215000D01*
X16327000Y-2636000D02*
X16437000Y-2746000D01*
X16437000Y-2636000D02*
X16327000Y-2746000D01*
X16382000Y-2636000D02*
X16382000Y-2746000D01*
X16327000Y-2691000D02*
X16437000Y-2691000D01*
X16327000Y-4160000D02*
X16437000Y-4270000D01*
X16437000Y-4160000D02*
X16327000Y-4270000D01*
X16382000Y-4160000D02*
X16382000Y-4270000D01*
X16327000Y-4215000D02*
X16437000Y-4215000D01*
X16581000Y-2636000D02*
X16691000Y-2746000D01*
X16691000Y-2636000D02*
X16581000Y-2746000D01*
X16636000Y-2636000D02*
X16636000Y-2746000D01*
X16581000Y-2691000D02*
X16691000Y-2691000D01*
X16581000Y-4160000D02*
X16691000Y-4270000D01*
X16691000Y-4160000D02*
X16581000Y-4270000D01*
X16636000Y-4160000D02*
X16636000Y-4270000D01*
X16581000Y-4215000D02*
X16691000Y-4215000D01*
X16835000Y-2636000D02*
X16945000Y-2746000D01*
X16945000Y-2636000D02*
X16835000Y-2746000D01*
X16890000Y-2636000D02*
X16890000Y-2746000D01*
X16835000Y-2691000D02*
X16945000Y-2691000D01*
X16835000Y-4160000D02*
X16945000Y-4270000D01*
X16945000Y-4160000D02*
X16835000Y-4270000D01*
X16890000Y-4160000D02*
X16890000Y-4270000D01*
X16835000Y-4215000D02*
X16945000Y-4215000D01*
X17089000Y-2636000D02*
X17199000Y-2746000D01*
X17199000Y-2636000D02*
X17089000Y-2746000D01*
X17144000Y-2636000D02*
X17144000Y-2746000D01*
X17089000Y-2691000D02*
X17199000Y-2691000D01*
X17089000Y-4160000D02*
X17199000Y-4270000D01*
X17199000Y-4160000D02*
X17089000Y-4270000D01*
X17144000Y-4160000D02*
X17144000Y-4270000D01*
X17089000Y-4215000D02*
X17199000Y-4215000D01*
X17343000Y-2636000D02*
X17453000Y-2746000D01*
X17453000Y-2636000D02*
X17343000Y-2746000D01*
X17398000Y-2636000D02*
X17398000Y-2746000D01*
X17343000Y-2691000D02*
X17453000Y-2691000D01*
X17343000Y-4160000D02*
X17453000Y-4270000D01*
X17453000Y-4160000D02*
X17343000Y-4270000D01*
X17398000Y-4160000D02*
X17398000Y-4270000D01*
X17343000Y-4215000D02*
X17453000Y-4215000D01*
D14*
X17985000Y-3826000D02*
X18115000Y-3956000D01*
X18115000Y-3826000D02*
X17985000Y-3956000D01*
X18095962Y-3936962D02*
X18095962Y-3845038D01*
X18004038Y-3845038D01*
X18004038Y-3936962D01*
X18095962Y-3936962D01*
X17985000Y-5026000D02*
X18115000Y-5156000D01*
X18115000Y-5026000D02*
X17985000Y-5156000D01*
X18095962Y-5136962D02*
X18095962Y-5045038D01*
X18004038Y-5045038D01*
X18004038Y-5136962D01*
X18095962Y-5136962D01*
X18585000Y-3826000D02*
X18715000Y-3956000D01*
X18715000Y-3826000D02*
X18585000Y-3956000D01*
X18695962Y-3936962D02*
X18695962Y-3845038D01*
X18604038Y-3845038D01*
X18604038Y-3936962D01*
X18695962Y-3936962D01*
X18585000Y-5026000D02*
X18715000Y-5156000D01*
X18715000Y-5026000D02*
X18585000Y-5156000D01*
X18695962Y-5136962D02*
X18695962Y-5045038D01*
X18604038Y-5045038D01*
X18604038Y-5136962D01*
X18695962Y-5136962D01*
D15*
X3528102Y-2637734D02*
X3668102Y-2777734D01*
X3668102Y-2637734D02*
X3528102Y-2777734D01*
X3598102Y-2777734D02*
X3668102Y-2707734D01*
X3598102Y-2637734D01*
X3528102Y-2707734D01*
X3598102Y-2777734D01*
X3528102Y-4260734D02*
X3668102Y-4400734D01*
X3668102Y-4260734D02*
X3528102Y-4400734D01*
X3598102Y-4400734D02*
X3668102Y-4330734D01*
X3598102Y-4260734D01*
X3528102Y-4330734D01*
X3598102Y-4400734D01*
X3530000Y-7430000D02*
X3670000Y-7570000D01*
X3670000Y-7430000D02*
X3530000Y-7570000D01*
X3600000Y-7570000D02*
X3670000Y-7500000D01*
X3600000Y-7430000D01*
X3530000Y-7500000D01*
X3600000Y-7570000D01*
X3530000Y-9053000D02*
X3670000Y-9193000D01*
X3670000Y-9053000D02*
X3530000Y-9193000D01*
X3600000Y-9193000D02*
X3670000Y-9123000D01*
X3600000Y-9053000D01*
X3530000Y-9123000D01*
X3600000Y-9193000D01*
X4163102Y-2637734D02*
X4303102Y-2777734D01*
X4303102Y-2637734D02*
X4163102Y-2777734D01*
X4233102Y-2777734D02*
X4303102Y-2707734D01*
X4233102Y-2637734D01*
X4163102Y-2707734D01*
X4233102Y-2777734D01*
X4163102Y-4260734D02*
X4303102Y-4400734D01*
X4303102Y-4260734D02*
X4163102Y-4400734D01*
X4233102Y-4400734D02*
X4303102Y-4330734D01*
X4233102Y-4260734D01*
X4163102Y-4330734D01*
X4233102Y-4400734D01*
X4165000Y-7430000D02*
X4305000Y-7570000D01*
X4305000Y-7430000D02*
X4165000Y-7570000D01*
X4235000Y-7570000D02*
X4305000Y-7500000D01*
X4235000Y-7430000D01*
X4165000Y-7500000D01*
X4235000Y-7570000D01*
X4165000Y-9053000D02*
X4305000Y-9193000D01*
X4305000Y-9053000D02*
X4165000Y-9193000D01*
X4235000Y-9193000D02*
X4305000Y-9123000D01*
X4235000Y-9053000D01*
X4165000Y-9123000D01*
X4235000Y-9193000D01*
X4798102Y-2637734D02*
X4938102Y-2777734D01*
X4938102Y-2637734D02*
X4798102Y-2777734D01*
X4868102Y-2777734D02*
X4938102Y-2707734D01*
X4868102Y-2637734D01*
X4798102Y-2707734D01*
X4868102Y-2777734D01*
X4798102Y-4260734D02*
X4938102Y-4400734D01*
X4938102Y-4260734D02*
X4798102Y-4400734D01*
X4868102Y-4400734D02*
X4938102Y-4330734D01*
X4868102Y-4260734D01*
X4798102Y-4330734D01*
X4868102Y-4400734D01*
X4800000Y-7430000D02*
X4940000Y-7570000D01*
X4940000Y-7430000D02*
X4800000Y-7570000D01*
X4870000Y-7570000D02*
X4940000Y-7500000D01*
X4870000Y-7430000D01*
X4800000Y-7500000D01*
X4870000Y-7570000D01*
X4800000Y-9053000D02*
X4940000Y-9193000D01*
X4940000Y-9053000D02*
X4800000Y-9193000D01*
X4870000Y-9193000D02*
X4940000Y-9123000D01*
X4870000Y-9053000D01*
X4800000Y-9123000D01*
X4870000Y-9193000D01*
X13319000Y-7830000D02*
X13459000Y-7970000D01*
X13459000Y-7830000D02*
X13319000Y-7970000D01*
X13389000Y-7970000D02*
X13459000Y-7900000D01*
X13389000Y-7830000D01*
X13319000Y-7900000D01*
X13389000Y-7970000D01*
X13319000Y-8465000D02*
X13459000Y-8605000D01*
X13459000Y-8465000D02*
X13319000Y-8605000D01*
X13389000Y-8605000D02*
X13459000Y-8535000D01*
X13389000Y-8465000D01*
X13319000Y-8535000D01*
X13389000Y-8605000D01*
X13319000Y-9100000D02*
X13459000Y-9240000D01*
X13459000Y-9100000D02*
X13319000Y-9240000D01*
X13389000Y-9240000D02*
X13459000Y-9170000D01*
X13389000Y-9100000D01*
X13319000Y-9170000D01*
X13389000Y-9240000D01*
X14942000Y-7830000D02*
X15082000Y-7970000D01*
X15082000Y-7830000D02*
X14942000Y-7970000D01*
X15012000Y-7970000D02*
X15082000Y-7900000D01*
X15012000Y-7830000D01*
X14942000Y-7900000D01*
X15012000Y-7970000D01*
X14942000Y-8465000D02*
X15082000Y-8605000D01*
X15082000Y-8465000D02*
X14942000Y-8605000D01*
X15012000Y-8605000D02*
X15082000Y-8535000D01*
X15012000Y-8465000D01*
X14942000Y-8535000D01*
X15012000Y-8605000D01*
X14942000Y-9100000D02*
X15082000Y-9240000D01*
X15082000Y-9100000D02*
X14942000Y-9240000D01*
X15012000Y-9240000D02*
X15082000Y-9170000D01*
X15012000Y-9100000D01*
X14942000Y-9170000D01*
X15012000Y-9240000D01*
X15594500Y-7830000D02*
X15734500Y-7970000D01*
X15734500Y-7830000D02*
X15594500Y-7970000D01*
X15664500Y-7970000D02*
X15734500Y-7900000D01*
X15664500Y-7830000D01*
X15594500Y-7900000D01*
X15664500Y-7970000D01*
X15594500Y-8465000D02*
X15734500Y-8605000D01*
X15734500Y-8465000D02*
X15594500Y-8605000D01*
X15664500Y-8605000D02*
X15734500Y-8535000D01*
X15664500Y-8465000D01*
X15594500Y-8535000D01*
X15664500Y-8605000D01*
X15594500Y-9100000D02*
X15734500Y-9240000D01*
X15734500Y-9100000D02*
X15594500Y-9240000D01*
X15664500Y-9240000D02*
X15734500Y-9170000D01*
X15664500Y-9100000D01*
X15594500Y-9170000D01*
X15664500Y-9240000D01*
X17217500Y-7830000D02*
X17357500Y-7970000D01*
X17357500Y-7830000D02*
X17217500Y-7970000D01*
X17287500Y-7970000D02*
X17357500Y-7900000D01*
X17287500Y-7830000D01*
X17217500Y-7900000D01*
X17287500Y-7970000D01*
X17217500Y-8465000D02*
X17357500Y-8605000D01*
X17357500Y-8465000D02*
X17217500Y-8605000D01*
X17287500Y-8605000D02*
X17357500Y-8535000D01*
X17287500Y-8465000D01*
X17217500Y-8535000D01*
X17287500Y-8605000D01*
X17217500Y-9100000D02*
X17357500Y-9240000D01*
X17357500Y-9100000D02*
X17217500Y-9240000D01*
X17287500Y-9240000D02*
X17357500Y-9170000D01*
X17287500Y-9100000D01*
X17217500Y-9170000D01*
X17287500Y-9240000D01*
D11*
X3356277Y-9913984D02*
X3356277Y-9713984D01*
X3356277Y-9713984D02*
X3403896Y-9713984D01*
X3403896Y-9713984D02*
X3432467Y-9723508D01*
X3432467Y-9723508D02*
X3451515Y-9742555D01*
X3451515Y-9742555D02*
X3461039Y-9761603D01*
X3461039Y-9761603D02*
X3470562Y-9799698D01*
X3470562Y-9799698D02*
X3470562Y-9828270D01*
X3470562Y-9828270D02*
X3461039Y-9866365D01*
X3461039Y-9866365D02*
X3451515Y-9885412D01*
X3451515Y-9885412D02*
X3432467Y-9904460D01*
X3432467Y-9904460D02*
X3403896Y-9913984D01*
X3403896Y-9913984D02*
X3356277Y-9913984D01*
X3556277Y-9913984D02*
X3556277Y-9780650D01*
X3556277Y-9818746D02*
X3565801Y-9799698D01*
X3565801Y-9799698D02*
X3575324Y-9790174D01*
X3575324Y-9790174D02*
X3594372Y-9780650D01*
X3594372Y-9780650D02*
X3613420Y-9780650D01*
X3680086Y-9913984D02*
X3680086Y-9780650D01*
X3680086Y-9713984D02*
X3670562Y-9723508D01*
X3670562Y-9723508D02*
X3680086Y-9733031D01*
X3680086Y-9733031D02*
X3689610Y-9723508D01*
X3689610Y-9723508D02*
X3680086Y-9713984D01*
X3680086Y-9713984D02*
X3680086Y-9733031D01*
X3803896Y-9913984D02*
X3784848Y-9904460D01*
X3784848Y-9904460D02*
X3775324Y-9885412D01*
X3775324Y-9885412D02*
X3775324Y-9713984D01*
X3908658Y-9913984D02*
X3889610Y-9904460D01*
X3889610Y-9904460D02*
X3880086Y-9885412D01*
X3880086Y-9885412D02*
X3880086Y-9713984D01*
X4137229Y-9913984D02*
X4137229Y-9713984D01*
X4137229Y-9713984D02*
X4203896Y-9856841D01*
X4203896Y-9856841D02*
X4270563Y-9713984D01*
X4270563Y-9713984D02*
X4270563Y-9913984D01*
X4451515Y-9913984D02*
X4451515Y-9809222D01*
X4451515Y-9809222D02*
X4441991Y-9790174D01*
X4441991Y-9790174D02*
X4422944Y-9780650D01*
X4422944Y-9780650D02*
X4384848Y-9780650D01*
X4384848Y-9780650D02*
X4365801Y-9790174D01*
X4451515Y-9904460D02*
X4432467Y-9913984D01*
X4432467Y-9913984D02*
X4384848Y-9913984D01*
X4384848Y-9913984D02*
X4365801Y-9904460D01*
X4365801Y-9904460D02*
X4356277Y-9885412D01*
X4356277Y-9885412D02*
X4356277Y-9866365D01*
X4356277Y-9866365D02*
X4365801Y-9847317D01*
X4365801Y-9847317D02*
X4384848Y-9837793D01*
X4384848Y-9837793D02*
X4432467Y-9837793D01*
X4432467Y-9837793D02*
X4451515Y-9828270D01*
X4546753Y-9780650D02*
X4546753Y-9980650D01*
X4546753Y-9790174D02*
X4565801Y-9780650D01*
X4565801Y-9780650D02*
X4603896Y-9780650D01*
X4603896Y-9780650D02*
X4622944Y-9790174D01*
X4622944Y-9790174D02*
X4632467Y-9799698D01*
X4632467Y-9799698D02*
X4641991Y-9818746D01*
X4641991Y-9818746D02*
X4641991Y-9875889D01*
X4641991Y-9875889D02*
X4632467Y-9894936D01*
X4632467Y-9894936D02*
X4622944Y-9904460D01*
X4622944Y-9904460D02*
X4603896Y-9913984D01*
X4603896Y-9913984D02*
X4565801Y-9913984D01*
X4565801Y-9913984D02*
X4546753Y-9904460D01*
X4727705Y-9894936D02*
X4737229Y-9904460D01*
X4737229Y-9904460D02*
X4727705Y-9913984D01*
X4727705Y-9913984D02*
X4718182Y-9904460D01*
X4718182Y-9904460D02*
X4727705Y-9894936D01*
X4727705Y-9894936D02*
X4727705Y-9913984D01*
X4727705Y-9790174D02*
X4737229Y-9799698D01*
X4737229Y-9799698D02*
X4727705Y-9809222D01*
X4727705Y-9809222D02*
X4718182Y-9799698D01*
X4718182Y-9799698D02*
X4727705Y-9790174D01*
X4727705Y-9790174D02*
X4727705Y-9809222D01*
D12*
X3065500Y-10227500D02*
X3095500Y-10257500D01*
X3095500Y-10227500D02*
X3065500Y-10257500D01*
D11*
X3394372Y-10133984D02*
X3413420Y-10133984D01*
X3413420Y-10133984D02*
X3432467Y-10143508D01*
X3432467Y-10143508D02*
X3441991Y-10153031D01*
X3441991Y-10153031D02*
X3451515Y-10172079D01*
X3451515Y-10172079D02*
X3461039Y-10210174D01*
X3461039Y-10210174D02*
X3461039Y-10257793D01*
X3461039Y-10257793D02*
X3451515Y-10295889D01*
X3451515Y-10295889D02*
X3441991Y-10314936D01*
X3441991Y-10314936D02*
X3432467Y-10324460D01*
X3432467Y-10324460D02*
X3413420Y-10333984D01*
X3413420Y-10333984D02*
X3394372Y-10333984D01*
X3394372Y-10333984D02*
X3375324Y-10324460D01*
X3375324Y-10324460D02*
X3365801Y-10314936D01*
X3365801Y-10314936D02*
X3356277Y-10295889D01*
X3356277Y-10295889D02*
X3346753Y-10257793D01*
X3346753Y-10257793D02*
X3346753Y-10210174D01*
X3346753Y-10210174D02*
X3356277Y-10172079D01*
X3356277Y-10172079D02*
X3365801Y-10153031D01*
X3365801Y-10153031D02*
X3375324Y-10143508D01*
X3375324Y-10143508D02*
X3394372Y-10133984D01*
X3546753Y-10314936D02*
X3556277Y-10324460D01*
X3556277Y-10324460D02*
X3546753Y-10333984D01*
X3546753Y-10333984D02*
X3537229Y-10324460D01*
X3537229Y-10324460D02*
X3546753Y-10314936D01*
X3546753Y-10314936D02*
X3546753Y-10333984D01*
X3622943Y-10133984D02*
X3746753Y-10133984D01*
X3746753Y-10133984D02*
X3680086Y-10210174D01*
X3680086Y-10210174D02*
X3708658Y-10210174D01*
X3708658Y-10210174D02*
X3727705Y-10219698D01*
X3727705Y-10219698D02*
X3737229Y-10229222D01*
X3737229Y-10229222D02*
X3746753Y-10248270D01*
X3746753Y-10248270D02*
X3746753Y-10295889D01*
X3746753Y-10295889D02*
X3737229Y-10314936D01*
X3737229Y-10314936D02*
X3727705Y-10324460D01*
X3727705Y-10324460D02*
X3708658Y-10333984D01*
X3708658Y-10333984D02*
X3651515Y-10333984D01*
X3651515Y-10333984D02*
X3632467Y-10324460D01*
X3632467Y-10324460D02*
X3622943Y-10314936D01*
X3870562Y-10133984D02*
X3889610Y-10133984D01*
X3889610Y-10133984D02*
X3908658Y-10143508D01*
X3908658Y-10143508D02*
X3918182Y-10153031D01*
X3918182Y-10153031D02*
X3927705Y-10172079D01*
X3927705Y-10172079D02*
X3937229Y-10210174D01*
X3937229Y-10210174D02*
X3937229Y-10257793D01*
X3937229Y-10257793D02*
X3927705Y-10295889D01*
X3927705Y-10295889D02*
X3918182Y-10314936D01*
X3918182Y-10314936D02*
X3908658Y-10324460D01*
X3908658Y-10324460D02*
X3889610Y-10333984D01*
X3889610Y-10333984D02*
X3870562Y-10333984D01*
X3870562Y-10333984D02*
X3851515Y-10324460D01*
X3851515Y-10324460D02*
X3841991Y-10314936D01*
X3841991Y-10314936D02*
X3832467Y-10295889D01*
X3832467Y-10295889D02*
X3822943Y-10257793D01*
X3822943Y-10257793D02*
X3822943Y-10210174D01*
X3822943Y-10210174D02*
X3832467Y-10172079D01*
X3832467Y-10172079D02*
X3841991Y-10153031D01*
X3841991Y-10153031D02*
X3851515Y-10143508D01*
X3851515Y-10143508D02*
X3870562Y-10133984D01*
X4061039Y-10133984D02*
X4080086Y-10133984D01*
X4080086Y-10133984D02*
X4099134Y-10143508D01*
X4099134Y-10143508D02*
X4108658Y-10153031D01*
X4108658Y-10153031D02*
X4118182Y-10172079D01*
X4118182Y-10172079D02*
X4127705Y-10210174D01*
X4127705Y-10210174D02*
X4127705Y-10257793D01*
X4127705Y-10257793D02*
X4118182Y-10295889D01*
X4118182Y-10295889D02*
X4108658Y-10314936D01*
X4108658Y-10314936D02*
X4099134Y-10324460D01*
X4099134Y-10324460D02*
X4080086Y-10333984D01*
X4080086Y-10333984D02*
X4061039Y-10333984D01*
X4061039Y-10333984D02*
X4041991Y-10324460D01*
X4041991Y-10324460D02*
X4032467Y-10314936D01*
X4032467Y-10314936D02*
X4022943Y-10295889D01*
X4022943Y-10295889D02*
X4013420Y-10257793D01*
X4013420Y-10257793D02*
X4013420Y-10210174D01*
X4013420Y-10210174D02*
X4022943Y-10172079D01*
X4022943Y-10172079D02*
X4032467Y-10153031D01*
X4032467Y-10153031D02*
X4041991Y-10143508D01*
X4041991Y-10143508D02*
X4061039Y-10133984D01*
X4213420Y-10333984D02*
X4213420Y-10200650D01*
X4213420Y-10219698D02*
X4222944Y-10210174D01*
X4222944Y-10210174D02*
X4241991Y-10200650D01*
X4241991Y-10200650D02*
X4270563Y-10200650D01*
X4270563Y-10200650D02*
X4289610Y-10210174D01*
X4289610Y-10210174D02*
X4299134Y-10229222D01*
X4299134Y-10229222D02*
X4299134Y-10333984D01*
X4299134Y-10229222D02*
X4308658Y-10210174D01*
X4308658Y-10210174D02*
X4327705Y-10200650D01*
X4327705Y-10200650D02*
X4356277Y-10200650D01*
X4356277Y-10200650D02*
X4375325Y-10210174D01*
X4375325Y-10210174D02*
X4384848Y-10229222D01*
X4384848Y-10229222D02*
X4384848Y-10333984D01*
X4480086Y-10333984D02*
X4480086Y-10200650D01*
X4480086Y-10219698D02*
X4489610Y-10210174D01*
X4489610Y-10210174D02*
X4508658Y-10200650D01*
X4508658Y-10200650D02*
X4537229Y-10200650D01*
X4537229Y-10200650D02*
X4556277Y-10210174D01*
X4556277Y-10210174D02*
X4565801Y-10229222D01*
X4565801Y-10229222D02*
X4565801Y-10333984D01*
X4565801Y-10229222D02*
X4575325Y-10210174D01*
X4575325Y-10210174D02*
X4594372Y-10200650D01*
X4594372Y-10200650D02*
X4622944Y-10200650D01*
X4622944Y-10200650D02*
X4641991Y-10210174D01*
X4641991Y-10210174D02*
X4651515Y-10229222D01*
X4651515Y-10229222D02*
X4651515Y-10333984D01*
X5041991Y-10124460D02*
X4870563Y-10381603D01*
X5299134Y-10133984D02*
X5318182Y-10133984D01*
X5318182Y-10133984D02*
X5337229Y-10143508D01*
X5337229Y-10143508D02*
X5346753Y-10153031D01*
X5346753Y-10153031D02*
X5356277Y-10172079D01*
X5356277Y-10172079D02*
X5365801Y-10210174D01*
X5365801Y-10210174D02*
X5365801Y-10257793D01*
X5365801Y-10257793D02*
X5356277Y-10295889D01*
X5356277Y-10295889D02*
X5346753Y-10314936D01*
X5346753Y-10314936D02*
X5337229Y-10324460D01*
X5337229Y-10324460D02*
X5318182Y-10333984D01*
X5318182Y-10333984D02*
X5299134Y-10333984D01*
X5299134Y-10333984D02*
X5280087Y-10324460D01*
X5280087Y-10324460D02*
X5270563Y-10314936D01*
X5270563Y-10314936D02*
X5261039Y-10295889D01*
X5261039Y-10295889D02*
X5251515Y-10257793D01*
X5251515Y-10257793D02*
X5251515Y-10210174D01*
X5251515Y-10210174D02*
X5261039Y-10172079D01*
X5261039Y-10172079D02*
X5270563Y-10153031D01*
X5270563Y-10153031D02*
X5280087Y-10143508D01*
X5280087Y-10143508D02*
X5299134Y-10133984D01*
X5451515Y-10314936D02*
X5461039Y-10324460D01*
X5461039Y-10324460D02*
X5451515Y-10333984D01*
X5451515Y-10333984D02*
X5441991Y-10324460D01*
X5441991Y-10324460D02*
X5451515Y-10314936D01*
X5451515Y-10314936D02*
X5451515Y-10333984D01*
X5584848Y-10133984D02*
X5603896Y-10133984D01*
X5603896Y-10133984D02*
X5622944Y-10143508D01*
X5622944Y-10143508D02*
X5632467Y-10153031D01*
X5632467Y-10153031D02*
X5641991Y-10172079D01*
X5641991Y-10172079D02*
X5651515Y-10210174D01*
X5651515Y-10210174D02*
X5651515Y-10257793D01*
X5651515Y-10257793D02*
X5641991Y-10295889D01*
X5641991Y-10295889D02*
X5632467Y-10314936D01*
X5632467Y-10314936D02*
X5622944Y-10324460D01*
X5622944Y-10324460D02*
X5603896Y-10333984D01*
X5603896Y-10333984D02*
X5584848Y-10333984D01*
X5584848Y-10333984D02*
X5565801Y-10324460D01*
X5565801Y-10324460D02*
X5556277Y-10314936D01*
X5556277Y-10314936D02*
X5546753Y-10295889D01*
X5546753Y-10295889D02*
X5537229Y-10257793D01*
X5537229Y-10257793D02*
X5537229Y-10210174D01*
X5537229Y-10210174D02*
X5546753Y-10172079D01*
X5546753Y-10172079D02*
X5556277Y-10153031D01*
X5556277Y-10153031D02*
X5565801Y-10143508D01*
X5565801Y-10143508D02*
X5584848Y-10133984D01*
X5841991Y-10333984D02*
X5727706Y-10333984D01*
X5784848Y-10333984D02*
X5784848Y-10133984D01*
X5784848Y-10133984D02*
X5765801Y-10162555D01*
X5765801Y-10162555D02*
X5746753Y-10181603D01*
X5746753Y-10181603D02*
X5727706Y-10191127D01*
X6032467Y-10333984D02*
X5918182Y-10333984D01*
X5975325Y-10333984D02*
X5975325Y-10133984D01*
X5975325Y-10133984D02*
X5956277Y-10162555D01*
X5956277Y-10162555D02*
X5937229Y-10181603D01*
X5937229Y-10181603D02*
X5918182Y-10191127D01*
X6146753Y-10219698D02*
X6127706Y-10210174D01*
X6127706Y-10210174D02*
X6118182Y-10200650D01*
X6118182Y-10200650D02*
X6108658Y-10181603D01*
X6108658Y-10181603D02*
X6108658Y-10172079D01*
X6108658Y-10172079D02*
X6118182Y-10153031D01*
X6118182Y-10153031D02*
X6127706Y-10143508D01*
X6127706Y-10143508D02*
X6146753Y-10133984D01*
X6146753Y-10133984D02*
X6184848Y-10133984D01*
X6184848Y-10133984D02*
X6203896Y-10143508D01*
X6203896Y-10143508D02*
X6213420Y-10153031D01*
X6213420Y-10153031D02*
X6222944Y-10172079D01*
X6222944Y-10172079D02*
X6222944Y-10181603D01*
X6222944Y-10181603D02*
X6213420Y-10200650D01*
X6213420Y-10200650D02*
X6203896Y-10210174D01*
X6203896Y-10210174D02*
X6184848Y-10219698D01*
X6184848Y-10219698D02*
X6146753Y-10219698D01*
X6146753Y-10219698D02*
X6127706Y-10229222D01*
X6127706Y-10229222D02*
X6118182Y-10238746D01*
X6118182Y-10238746D02*
X6108658Y-10257793D01*
X6108658Y-10257793D02*
X6108658Y-10295889D01*
X6108658Y-10295889D02*
X6118182Y-10314936D01*
X6118182Y-10314936D02*
X6127706Y-10324460D01*
X6127706Y-10324460D02*
X6146753Y-10333984D01*
X6146753Y-10333984D02*
X6184848Y-10333984D01*
X6184848Y-10333984D02*
X6203896Y-10324460D01*
X6203896Y-10324460D02*
X6213420Y-10314936D01*
X6213420Y-10314936D02*
X6222944Y-10295889D01*
X6222944Y-10295889D02*
X6222944Y-10257793D01*
X6222944Y-10257793D02*
X6213420Y-10238746D01*
X6213420Y-10238746D02*
X6203896Y-10229222D01*
X6203896Y-10229222D02*
X6184848Y-10219698D01*
X6299134Y-10133984D02*
X6299134Y-10172079D01*
X6375325Y-10133984D02*
X6375325Y-10172079D01*
X6670563Y-10410174D02*
X6661039Y-10400650D01*
X6661039Y-10400650D02*
X6641991Y-10372079D01*
X6641991Y-10372079D02*
X6632468Y-10353031D01*
X6632468Y-10353031D02*
X6622944Y-10324460D01*
X6622944Y-10324460D02*
X6613420Y-10276841D01*
X6613420Y-10276841D02*
X6613420Y-10238746D01*
X6613420Y-10238746D02*
X6622944Y-10191127D01*
X6622944Y-10191127D02*
X6632468Y-10162555D01*
X6632468Y-10162555D02*
X6641991Y-10143508D01*
X6641991Y-10143508D02*
X6661039Y-10114936D01*
X6661039Y-10114936D02*
X6670563Y-10105412D01*
X6851515Y-10333984D02*
X6737229Y-10333984D01*
X6794372Y-10333984D02*
X6794372Y-10133984D01*
X6794372Y-10133984D02*
X6775325Y-10162555D01*
X6775325Y-10162555D02*
X6756277Y-10181603D01*
X6756277Y-10181603D02*
X6737229Y-10191127D01*
X7041991Y-10333984D02*
X6927706Y-10333984D01*
X6984848Y-10333984D02*
X6984848Y-10133984D01*
X6984848Y-10133984D02*
X6965801Y-10162555D01*
X6965801Y-10162555D02*
X6946753Y-10181603D01*
X6946753Y-10181603D02*
X6927706Y-10191127D01*
X7156277Y-10219698D02*
X7137229Y-10210174D01*
X7137229Y-10210174D02*
X7127706Y-10200650D01*
X7127706Y-10200650D02*
X7118182Y-10181603D01*
X7118182Y-10181603D02*
X7118182Y-10172079D01*
X7118182Y-10172079D02*
X7127706Y-10153031D01*
X7127706Y-10153031D02*
X7137229Y-10143508D01*
X7137229Y-10143508D02*
X7156277Y-10133984D01*
X7156277Y-10133984D02*
X7194372Y-10133984D01*
X7194372Y-10133984D02*
X7213420Y-10143508D01*
X7213420Y-10143508D02*
X7222944Y-10153031D01*
X7222944Y-10153031D02*
X7232468Y-10172079D01*
X7232468Y-10172079D02*
X7232468Y-10181603D01*
X7232468Y-10181603D02*
X7222944Y-10200650D01*
X7222944Y-10200650D02*
X7213420Y-10210174D01*
X7213420Y-10210174D02*
X7194372Y-10219698D01*
X7194372Y-10219698D02*
X7156277Y-10219698D01*
X7156277Y-10219698D02*
X7137229Y-10229222D01*
X7137229Y-10229222D02*
X7127706Y-10238746D01*
X7127706Y-10238746D02*
X7118182Y-10257793D01*
X7118182Y-10257793D02*
X7118182Y-10295889D01*
X7118182Y-10295889D02*
X7127706Y-10314936D01*
X7127706Y-10314936D02*
X7137229Y-10324460D01*
X7137229Y-10324460D02*
X7156277Y-10333984D01*
X7156277Y-10333984D02*
X7194372Y-10333984D01*
X7194372Y-10333984D02*
X7213420Y-10324460D01*
X7213420Y-10324460D02*
X7222944Y-10314936D01*
X7222944Y-10314936D02*
X7232468Y-10295889D01*
X7232468Y-10295889D02*
X7232468Y-10257793D01*
X7232468Y-10257793D02*
X7222944Y-10238746D01*
X7222944Y-10238746D02*
X7213420Y-10229222D01*
X7213420Y-10229222D02*
X7194372Y-10219698D01*
X7470563Y-10333984D02*
X7470563Y-10133984D01*
X7556277Y-10333984D02*
X7556277Y-10229222D01*
X7556277Y-10229222D02*
X7546753Y-10210174D01*
X7546753Y-10210174D02*
X7527706Y-10200650D01*
X7527706Y-10200650D02*
X7499134Y-10200650D01*
X7499134Y-10200650D02*
X7480087Y-10210174D01*
X7480087Y-10210174D02*
X7470563Y-10219698D01*
X7680087Y-10333984D02*
X7661039Y-10324460D01*
X7661039Y-10324460D02*
X7651515Y-10314936D01*
X7651515Y-10314936D02*
X7641991Y-10295889D01*
X7641991Y-10295889D02*
X7641991Y-10238746D01*
X7641991Y-10238746D02*
X7651515Y-10219698D01*
X7651515Y-10219698D02*
X7661039Y-10210174D01*
X7661039Y-10210174D02*
X7680087Y-10200650D01*
X7680087Y-10200650D02*
X7708658Y-10200650D01*
X7708658Y-10200650D02*
X7727706Y-10210174D01*
X7727706Y-10210174D02*
X7737230Y-10219698D01*
X7737230Y-10219698D02*
X7746753Y-10238746D01*
X7746753Y-10238746D02*
X7746753Y-10295889D01*
X7746753Y-10295889D02*
X7737230Y-10314936D01*
X7737230Y-10314936D02*
X7727706Y-10324460D01*
X7727706Y-10324460D02*
X7708658Y-10333984D01*
X7708658Y-10333984D02*
X7680087Y-10333984D01*
X7861039Y-10333984D02*
X7841991Y-10324460D01*
X7841991Y-10324460D02*
X7832468Y-10305412D01*
X7832468Y-10305412D02*
X7832468Y-10133984D01*
X8013420Y-10324460D02*
X7994372Y-10333984D01*
X7994372Y-10333984D02*
X7956277Y-10333984D01*
X7956277Y-10333984D02*
X7937230Y-10324460D01*
X7937230Y-10324460D02*
X7927706Y-10305412D01*
X7927706Y-10305412D02*
X7927706Y-10229222D01*
X7927706Y-10229222D02*
X7937230Y-10210174D01*
X7937230Y-10210174D02*
X7956277Y-10200650D01*
X7956277Y-10200650D02*
X7994372Y-10200650D01*
X7994372Y-10200650D02*
X8013420Y-10210174D01*
X8013420Y-10210174D02*
X8022944Y-10229222D01*
X8022944Y-10229222D02*
X8022944Y-10248270D01*
X8022944Y-10248270D02*
X7927706Y-10267317D01*
X8099134Y-10324460D02*
X8118182Y-10333984D01*
X8118182Y-10333984D02*
X8156277Y-10333984D01*
X8156277Y-10333984D02*
X8175325Y-10324460D01*
X8175325Y-10324460D02*
X8184849Y-10305412D01*
X8184849Y-10305412D02*
X8184849Y-10295889D01*
X8184849Y-10295889D02*
X8175325Y-10276841D01*
X8175325Y-10276841D02*
X8156277Y-10267317D01*
X8156277Y-10267317D02*
X8127706Y-10267317D01*
X8127706Y-10267317D02*
X8108658Y-10257793D01*
X8108658Y-10257793D02*
X8099134Y-10238746D01*
X8099134Y-10238746D02*
X8099134Y-10229222D01*
X8099134Y-10229222D02*
X8108658Y-10210174D01*
X8108658Y-10210174D02*
X8127706Y-10200650D01*
X8127706Y-10200650D02*
X8156277Y-10200650D01*
X8156277Y-10200650D02*
X8175325Y-10210174D01*
X8251515Y-10410174D02*
X8261039Y-10400650D01*
X8261039Y-10400650D02*
X8280087Y-10372079D01*
X8280087Y-10372079D02*
X8289611Y-10353031D01*
X8289611Y-10353031D02*
X8299134Y-10324460D01*
X8299134Y-10324460D02*
X8308658Y-10276841D01*
X8308658Y-10276841D02*
X8308658Y-10238746D01*
X8308658Y-10238746D02*
X8299134Y-10191127D01*
X8299134Y-10191127D02*
X8289611Y-10162555D01*
X8289611Y-10162555D02*
X8280087Y-10143508D01*
X8280087Y-10143508D02*
X8261039Y-10114936D01*
X8261039Y-10114936D02*
X8251515Y-10105412D01*
D12*
X3095500Y-10506500D02*
G75*
G02*
X3035500Y-10506500I-30000J0D01*
G01*
X3035500Y-10506500D02*
G75*
G02*
X3095500Y-10506500I30000J0D01*
G01*
D11*
X3394372Y-10397984D02*
X3413420Y-10397984D01*
X3413420Y-10397984D02*
X3432467Y-10407508D01*
X3432467Y-10407508D02*
X3441991Y-10417031D01*
X3441991Y-10417031D02*
X3451515Y-10436079D01*
X3451515Y-10436079D02*
X3461039Y-10474174D01*
X3461039Y-10474174D02*
X3461039Y-10521793D01*
X3461039Y-10521793D02*
X3451515Y-10559889D01*
X3451515Y-10559889D02*
X3441991Y-10578936D01*
X3441991Y-10578936D02*
X3432467Y-10588460D01*
X3432467Y-10588460D02*
X3413420Y-10597984D01*
X3413420Y-10597984D02*
X3394372Y-10597984D01*
X3394372Y-10597984D02*
X3375324Y-10588460D01*
X3375324Y-10588460D02*
X3365801Y-10578936D01*
X3365801Y-10578936D02*
X3356277Y-10559889D01*
X3356277Y-10559889D02*
X3346753Y-10521793D01*
X3346753Y-10521793D02*
X3346753Y-10474174D01*
X3346753Y-10474174D02*
X3356277Y-10436079D01*
X3356277Y-10436079D02*
X3365801Y-10417031D01*
X3365801Y-10417031D02*
X3375324Y-10407508D01*
X3375324Y-10407508D02*
X3394372Y-10397984D01*
X3546753Y-10578936D02*
X3556277Y-10588460D01*
X3556277Y-10588460D02*
X3546753Y-10597984D01*
X3546753Y-10597984D02*
X3537229Y-10588460D01*
X3537229Y-10588460D02*
X3546753Y-10578936D01*
X3546753Y-10578936D02*
X3546753Y-10597984D01*
X3727705Y-10397984D02*
X3689610Y-10397984D01*
X3689610Y-10397984D02*
X3670562Y-10407508D01*
X3670562Y-10407508D02*
X3661039Y-10417031D01*
X3661039Y-10417031D02*
X3641991Y-10445603D01*
X3641991Y-10445603D02*
X3632467Y-10483698D01*
X3632467Y-10483698D02*
X3632467Y-10559889D01*
X3632467Y-10559889D02*
X3641991Y-10578936D01*
X3641991Y-10578936D02*
X3651515Y-10588460D01*
X3651515Y-10588460D02*
X3670562Y-10597984D01*
X3670562Y-10597984D02*
X3708658Y-10597984D01*
X3708658Y-10597984D02*
X3727705Y-10588460D01*
X3727705Y-10588460D02*
X3737229Y-10578936D01*
X3737229Y-10578936D02*
X3746753Y-10559889D01*
X3746753Y-10559889D02*
X3746753Y-10512270D01*
X3746753Y-10512270D02*
X3737229Y-10493222D01*
X3737229Y-10493222D02*
X3727705Y-10483698D01*
X3727705Y-10483698D02*
X3708658Y-10474174D01*
X3708658Y-10474174D02*
X3670562Y-10474174D01*
X3670562Y-10474174D02*
X3651515Y-10483698D01*
X3651515Y-10483698D02*
X3641991Y-10493222D01*
X3641991Y-10493222D02*
X3632467Y-10512270D01*
X3870562Y-10397984D02*
X3889610Y-10397984D01*
X3889610Y-10397984D02*
X3908658Y-10407508D01*
X3908658Y-10407508D02*
X3918182Y-10417031D01*
X3918182Y-10417031D02*
X3927705Y-10436079D01*
X3927705Y-10436079D02*
X3937229Y-10474174D01*
X3937229Y-10474174D02*
X3937229Y-10521793D01*
X3937229Y-10521793D02*
X3927705Y-10559889D01*
X3927705Y-10559889D02*
X3918182Y-10578936D01*
X3918182Y-10578936D02*
X3908658Y-10588460D01*
X3908658Y-10588460D02*
X3889610Y-10597984D01*
X3889610Y-10597984D02*
X3870562Y-10597984D01*
X3870562Y-10597984D02*
X3851515Y-10588460D01*
X3851515Y-10588460D02*
X3841991Y-10578936D01*
X3841991Y-10578936D02*
X3832467Y-10559889D01*
X3832467Y-10559889D02*
X3822943Y-10521793D01*
X3822943Y-10521793D02*
X3822943Y-10474174D01*
X3822943Y-10474174D02*
X3832467Y-10436079D01*
X3832467Y-10436079D02*
X3841991Y-10417031D01*
X3841991Y-10417031D02*
X3851515Y-10407508D01*
X3851515Y-10407508D02*
X3870562Y-10397984D01*
X4061039Y-10397984D02*
X4080086Y-10397984D01*
X4080086Y-10397984D02*
X4099134Y-10407508D01*
X4099134Y-10407508D02*
X4108658Y-10417031D01*
X4108658Y-10417031D02*
X4118182Y-10436079D01*
X4118182Y-10436079D02*
X4127705Y-10474174D01*
X4127705Y-10474174D02*
X4127705Y-10521793D01*
X4127705Y-10521793D02*
X4118182Y-10559889D01*
X4118182Y-10559889D02*
X4108658Y-10578936D01*
X4108658Y-10578936D02*
X4099134Y-10588460D01*
X4099134Y-10588460D02*
X4080086Y-10597984D01*
X4080086Y-10597984D02*
X4061039Y-10597984D01*
X4061039Y-10597984D02*
X4041991Y-10588460D01*
X4041991Y-10588460D02*
X4032467Y-10578936D01*
X4032467Y-10578936D02*
X4022943Y-10559889D01*
X4022943Y-10559889D02*
X4013420Y-10521793D01*
X4013420Y-10521793D02*
X4013420Y-10474174D01*
X4013420Y-10474174D02*
X4022943Y-10436079D01*
X4022943Y-10436079D02*
X4032467Y-10417031D01*
X4032467Y-10417031D02*
X4041991Y-10407508D01*
X4041991Y-10407508D02*
X4061039Y-10397984D01*
X4213420Y-10597984D02*
X4213420Y-10464650D01*
X4213420Y-10483698D02*
X4222944Y-10474174D01*
X4222944Y-10474174D02*
X4241991Y-10464650D01*
X4241991Y-10464650D02*
X4270563Y-10464650D01*
X4270563Y-10464650D02*
X4289610Y-10474174D01*
X4289610Y-10474174D02*
X4299134Y-10493222D01*
X4299134Y-10493222D02*
X4299134Y-10597984D01*
X4299134Y-10493222D02*
X4308658Y-10474174D01*
X4308658Y-10474174D02*
X4327705Y-10464650D01*
X4327705Y-10464650D02*
X4356277Y-10464650D01*
X4356277Y-10464650D02*
X4375325Y-10474174D01*
X4375325Y-10474174D02*
X4384848Y-10493222D01*
X4384848Y-10493222D02*
X4384848Y-10597984D01*
X4480086Y-10597984D02*
X4480086Y-10464650D01*
X4480086Y-10483698D02*
X4489610Y-10474174D01*
X4489610Y-10474174D02*
X4508658Y-10464650D01*
X4508658Y-10464650D02*
X4537229Y-10464650D01*
X4537229Y-10464650D02*
X4556277Y-10474174D01*
X4556277Y-10474174D02*
X4565801Y-10493222D01*
X4565801Y-10493222D02*
X4565801Y-10597984D01*
X4565801Y-10493222D02*
X4575325Y-10474174D01*
X4575325Y-10474174D02*
X4594372Y-10464650D01*
X4594372Y-10464650D02*
X4622944Y-10464650D01*
X4622944Y-10464650D02*
X4641991Y-10474174D01*
X4641991Y-10474174D02*
X4651515Y-10493222D01*
X4651515Y-10493222D02*
X4651515Y-10597984D01*
X5041991Y-10388460D02*
X4870563Y-10645603D01*
X5299134Y-10397984D02*
X5318182Y-10397984D01*
X5318182Y-10397984D02*
X5337229Y-10407508D01*
X5337229Y-10407508D02*
X5346753Y-10417031D01*
X5346753Y-10417031D02*
X5356277Y-10436079D01*
X5356277Y-10436079D02*
X5365801Y-10474174D01*
X5365801Y-10474174D02*
X5365801Y-10521793D01*
X5365801Y-10521793D02*
X5356277Y-10559889D01*
X5356277Y-10559889D02*
X5346753Y-10578936D01*
X5346753Y-10578936D02*
X5337229Y-10588460D01*
X5337229Y-10588460D02*
X5318182Y-10597984D01*
X5318182Y-10597984D02*
X5299134Y-10597984D01*
X5299134Y-10597984D02*
X5280087Y-10588460D01*
X5280087Y-10588460D02*
X5270563Y-10578936D01*
X5270563Y-10578936D02*
X5261039Y-10559889D01*
X5261039Y-10559889D02*
X5251515Y-10521793D01*
X5251515Y-10521793D02*
X5251515Y-10474174D01*
X5251515Y-10474174D02*
X5261039Y-10436079D01*
X5261039Y-10436079D02*
X5270563Y-10417031D01*
X5270563Y-10417031D02*
X5280087Y-10407508D01*
X5280087Y-10407508D02*
X5299134Y-10397984D01*
X5451515Y-10578936D02*
X5461039Y-10588460D01*
X5461039Y-10588460D02*
X5451515Y-10597984D01*
X5451515Y-10597984D02*
X5441991Y-10588460D01*
X5441991Y-10588460D02*
X5451515Y-10578936D01*
X5451515Y-10578936D02*
X5451515Y-10597984D01*
X5584848Y-10397984D02*
X5603896Y-10397984D01*
X5603896Y-10397984D02*
X5622944Y-10407508D01*
X5622944Y-10407508D02*
X5632467Y-10417031D01*
X5632467Y-10417031D02*
X5641991Y-10436079D01*
X5641991Y-10436079D02*
X5651515Y-10474174D01*
X5651515Y-10474174D02*
X5651515Y-10521793D01*
X5651515Y-10521793D02*
X5641991Y-10559889D01*
X5641991Y-10559889D02*
X5632467Y-10578936D01*
X5632467Y-10578936D02*
X5622944Y-10588460D01*
X5622944Y-10588460D02*
X5603896Y-10597984D01*
X5603896Y-10597984D02*
X5584848Y-10597984D01*
X5584848Y-10597984D02*
X5565801Y-10588460D01*
X5565801Y-10588460D02*
X5556277Y-10578936D01*
X5556277Y-10578936D02*
X5546753Y-10559889D01*
X5546753Y-10559889D02*
X5537229Y-10521793D01*
X5537229Y-10521793D02*
X5537229Y-10474174D01*
X5537229Y-10474174D02*
X5546753Y-10436079D01*
X5546753Y-10436079D02*
X5556277Y-10417031D01*
X5556277Y-10417031D02*
X5565801Y-10407508D01*
X5565801Y-10407508D02*
X5584848Y-10397984D01*
X5727706Y-10417031D02*
X5737229Y-10407508D01*
X5737229Y-10407508D02*
X5756277Y-10397984D01*
X5756277Y-10397984D02*
X5803896Y-10397984D01*
X5803896Y-10397984D02*
X5822944Y-10407508D01*
X5822944Y-10407508D02*
X5832467Y-10417031D01*
X5832467Y-10417031D02*
X5841991Y-10436079D01*
X5841991Y-10436079D02*
X5841991Y-10455127D01*
X5841991Y-10455127D02*
X5832467Y-10483698D01*
X5832467Y-10483698D02*
X5718182Y-10597984D01*
X5718182Y-10597984D02*
X5841991Y-10597984D01*
X5908658Y-10397984D02*
X6032467Y-10397984D01*
X6032467Y-10397984D02*
X5965801Y-10474174D01*
X5965801Y-10474174D02*
X5994372Y-10474174D01*
X5994372Y-10474174D02*
X6013420Y-10483698D01*
X6013420Y-10483698D02*
X6022944Y-10493222D01*
X6022944Y-10493222D02*
X6032467Y-10512270D01*
X6032467Y-10512270D02*
X6032467Y-10559889D01*
X6032467Y-10559889D02*
X6022944Y-10578936D01*
X6022944Y-10578936D02*
X6013420Y-10588460D01*
X6013420Y-10588460D02*
X5994372Y-10597984D01*
X5994372Y-10597984D02*
X5937229Y-10597984D01*
X5937229Y-10597984D02*
X5918182Y-10588460D01*
X5918182Y-10588460D02*
X5908658Y-10578936D01*
X6203896Y-10397984D02*
X6165801Y-10397984D01*
X6165801Y-10397984D02*
X6146753Y-10407508D01*
X6146753Y-10407508D02*
X6137229Y-10417031D01*
X6137229Y-10417031D02*
X6118182Y-10445603D01*
X6118182Y-10445603D02*
X6108658Y-10483698D01*
X6108658Y-10483698D02*
X6108658Y-10559889D01*
X6108658Y-10559889D02*
X6118182Y-10578936D01*
X6118182Y-10578936D02*
X6127706Y-10588460D01*
X6127706Y-10588460D02*
X6146753Y-10597984D01*
X6146753Y-10597984D02*
X6184848Y-10597984D01*
X6184848Y-10597984D02*
X6203896Y-10588460D01*
X6203896Y-10588460D02*
X6213420Y-10578936D01*
X6213420Y-10578936D02*
X6222944Y-10559889D01*
X6222944Y-10559889D02*
X6222944Y-10512270D01*
X6222944Y-10512270D02*
X6213420Y-10493222D01*
X6213420Y-10493222D02*
X6203896Y-10483698D01*
X6203896Y-10483698D02*
X6184848Y-10474174D01*
X6184848Y-10474174D02*
X6146753Y-10474174D01*
X6146753Y-10474174D02*
X6127706Y-10483698D01*
X6127706Y-10483698D02*
X6118182Y-10493222D01*
X6118182Y-10493222D02*
X6108658Y-10512270D01*
X6299134Y-10397984D02*
X6299134Y-10436079D01*
X6375325Y-10397984D02*
X6375325Y-10436079D01*
X6670563Y-10674174D02*
X6661039Y-10664650D01*
X6661039Y-10664650D02*
X6641991Y-10636079D01*
X6641991Y-10636079D02*
X6632468Y-10617031D01*
X6632468Y-10617031D02*
X6622944Y-10588460D01*
X6622944Y-10588460D02*
X6613420Y-10540841D01*
X6613420Y-10540841D02*
X6613420Y-10502746D01*
X6613420Y-10502746D02*
X6622944Y-10455127D01*
X6622944Y-10455127D02*
X6632468Y-10426555D01*
X6632468Y-10426555D02*
X6641991Y-10407508D01*
X6641991Y-10407508D02*
X6661039Y-10378936D01*
X6661039Y-10378936D02*
X6670563Y-10369412D01*
X6784848Y-10397984D02*
X6803896Y-10397984D01*
X6803896Y-10397984D02*
X6822944Y-10407508D01*
X6822944Y-10407508D02*
X6832468Y-10417031D01*
X6832468Y-10417031D02*
X6841991Y-10436079D01*
X6841991Y-10436079D02*
X6851515Y-10474174D01*
X6851515Y-10474174D02*
X6851515Y-10521793D01*
X6851515Y-10521793D02*
X6841991Y-10559889D01*
X6841991Y-10559889D02*
X6832468Y-10578936D01*
X6832468Y-10578936D02*
X6822944Y-10588460D01*
X6822944Y-10588460D02*
X6803896Y-10597984D01*
X6803896Y-10597984D02*
X6784848Y-10597984D01*
X6784848Y-10597984D02*
X6765801Y-10588460D01*
X6765801Y-10588460D02*
X6756277Y-10578936D01*
X6756277Y-10578936D02*
X6746753Y-10559889D01*
X6746753Y-10559889D02*
X6737229Y-10521793D01*
X6737229Y-10521793D02*
X6737229Y-10474174D01*
X6737229Y-10474174D02*
X6746753Y-10436079D01*
X6746753Y-10436079D02*
X6756277Y-10417031D01*
X6756277Y-10417031D02*
X6765801Y-10407508D01*
X6765801Y-10407508D02*
X6784848Y-10397984D01*
X7089610Y-10597984D02*
X7089610Y-10397984D01*
X7175325Y-10597984D02*
X7175325Y-10493222D01*
X7175325Y-10493222D02*
X7165801Y-10474174D01*
X7165801Y-10474174D02*
X7146753Y-10464650D01*
X7146753Y-10464650D02*
X7118182Y-10464650D01*
X7118182Y-10464650D02*
X7099134Y-10474174D01*
X7099134Y-10474174D02*
X7089610Y-10483698D01*
X7299134Y-10597984D02*
X7280087Y-10588460D01*
X7280087Y-10588460D02*
X7270563Y-10578936D01*
X7270563Y-10578936D02*
X7261039Y-10559889D01*
X7261039Y-10559889D02*
X7261039Y-10502746D01*
X7261039Y-10502746D02*
X7270563Y-10483698D01*
X7270563Y-10483698D02*
X7280087Y-10474174D01*
X7280087Y-10474174D02*
X7299134Y-10464650D01*
X7299134Y-10464650D02*
X7327706Y-10464650D01*
X7327706Y-10464650D02*
X7346753Y-10474174D01*
X7346753Y-10474174D02*
X7356277Y-10483698D01*
X7356277Y-10483698D02*
X7365801Y-10502746D01*
X7365801Y-10502746D02*
X7365801Y-10559889D01*
X7365801Y-10559889D02*
X7356277Y-10578936D01*
X7356277Y-10578936D02*
X7346753Y-10588460D01*
X7346753Y-10588460D02*
X7327706Y-10597984D01*
X7327706Y-10597984D02*
X7299134Y-10597984D01*
X7480087Y-10597984D02*
X7461039Y-10588460D01*
X7461039Y-10588460D02*
X7451515Y-10569412D01*
X7451515Y-10569412D02*
X7451515Y-10397984D01*
X7632468Y-10588460D02*
X7613420Y-10597984D01*
X7613420Y-10597984D02*
X7575325Y-10597984D01*
X7575325Y-10597984D02*
X7556277Y-10588460D01*
X7556277Y-10588460D02*
X7546753Y-10569412D01*
X7546753Y-10569412D02*
X7546753Y-10493222D01*
X7546753Y-10493222D02*
X7556277Y-10474174D01*
X7556277Y-10474174D02*
X7575325Y-10464650D01*
X7575325Y-10464650D02*
X7613420Y-10464650D01*
X7613420Y-10464650D02*
X7632468Y-10474174D01*
X7632468Y-10474174D02*
X7641991Y-10493222D01*
X7641991Y-10493222D02*
X7641991Y-10512270D01*
X7641991Y-10512270D02*
X7546753Y-10531317D01*
X7718182Y-10588460D02*
X7737230Y-10597984D01*
X7737230Y-10597984D02*
X7775325Y-10597984D01*
X7775325Y-10597984D02*
X7794372Y-10588460D01*
X7794372Y-10588460D02*
X7803896Y-10569412D01*
X7803896Y-10569412D02*
X7803896Y-10559889D01*
X7803896Y-10559889D02*
X7794372Y-10540841D01*
X7794372Y-10540841D02*
X7775325Y-10531317D01*
X7775325Y-10531317D02*
X7746753Y-10531317D01*
X7746753Y-10531317D02*
X7727706Y-10521793D01*
X7727706Y-10521793D02*
X7718182Y-10502746D01*
X7718182Y-10502746D02*
X7718182Y-10493222D01*
X7718182Y-10493222D02*
X7727706Y-10474174D01*
X7727706Y-10474174D02*
X7746753Y-10464650D01*
X7746753Y-10464650D02*
X7775325Y-10464650D01*
X7775325Y-10464650D02*
X7794372Y-10474174D01*
X8041992Y-10521793D02*
X8194373Y-10521793D01*
X8118182Y-10597984D02*
X8118182Y-10445603D01*
X8527706Y-10464650D02*
X8527706Y-10597984D01*
X8480087Y-10388460D02*
X8432468Y-10531317D01*
X8432468Y-10531317D02*
X8556277Y-10531317D01*
X8775325Y-10588460D02*
X8794373Y-10597984D01*
X8794373Y-10597984D02*
X8832468Y-10597984D01*
X8832468Y-10597984D02*
X8851516Y-10588460D01*
X8851516Y-10588460D02*
X8861039Y-10569412D01*
X8861039Y-10569412D02*
X8861039Y-10559889D01*
X8861039Y-10559889D02*
X8851516Y-10540841D01*
X8851516Y-10540841D02*
X8832468Y-10531317D01*
X8832468Y-10531317D02*
X8803896Y-10531317D01*
X8803896Y-10531317D02*
X8784849Y-10521793D01*
X8784849Y-10521793D02*
X8775325Y-10502746D01*
X8775325Y-10502746D02*
X8775325Y-10493222D01*
X8775325Y-10493222D02*
X8784849Y-10474174D01*
X8784849Y-10474174D02*
X8803896Y-10464650D01*
X8803896Y-10464650D02*
X8832468Y-10464650D01*
X8832468Y-10464650D02*
X8851516Y-10474174D01*
X8975325Y-10597984D02*
X8956277Y-10588460D01*
X8956277Y-10588460D02*
X8946754Y-10569412D01*
X8946754Y-10569412D02*
X8946754Y-10397984D01*
X9080087Y-10597984D02*
X9061039Y-10588460D01*
X9061039Y-10588460D02*
X9051516Y-10578936D01*
X9051516Y-10578936D02*
X9041992Y-10559889D01*
X9041992Y-10559889D02*
X9041992Y-10502746D01*
X9041992Y-10502746D02*
X9051516Y-10483698D01*
X9051516Y-10483698D02*
X9061039Y-10474174D01*
X9061039Y-10474174D02*
X9080087Y-10464650D01*
X9080087Y-10464650D02*
X9108658Y-10464650D01*
X9108658Y-10464650D02*
X9127706Y-10474174D01*
X9127706Y-10474174D02*
X9137230Y-10483698D01*
X9137230Y-10483698D02*
X9146754Y-10502746D01*
X9146754Y-10502746D02*
X9146754Y-10559889D01*
X9146754Y-10559889D02*
X9137230Y-10578936D01*
X9137230Y-10578936D02*
X9127706Y-10588460D01*
X9127706Y-10588460D02*
X9108658Y-10597984D01*
X9108658Y-10597984D02*
X9080087Y-10597984D01*
X9203897Y-10464650D02*
X9280087Y-10464650D01*
X9232468Y-10397984D02*
X9232468Y-10569412D01*
X9232468Y-10569412D02*
X9241992Y-10588460D01*
X9241992Y-10588460D02*
X9261039Y-10597984D01*
X9261039Y-10597984D02*
X9280087Y-10597984D01*
X9337230Y-10588460D02*
X9356277Y-10597984D01*
X9356277Y-10597984D02*
X9394373Y-10597984D01*
X9394373Y-10597984D02*
X9413420Y-10588460D01*
X9413420Y-10588460D02*
X9422944Y-10569412D01*
X9422944Y-10569412D02*
X9422944Y-10559889D01*
X9422944Y-10559889D02*
X9413420Y-10540841D01*
X9413420Y-10540841D02*
X9394373Y-10531317D01*
X9394373Y-10531317D02*
X9365801Y-10531317D01*
X9365801Y-10531317D02*
X9346754Y-10521793D01*
X9346754Y-10521793D02*
X9337230Y-10502746D01*
X9337230Y-10502746D02*
X9337230Y-10493222D01*
X9337230Y-10493222D02*
X9346754Y-10474174D01*
X9346754Y-10474174D02*
X9365801Y-10464650D01*
X9365801Y-10464650D02*
X9394373Y-10464650D01*
X9394373Y-10464650D02*
X9413420Y-10474174D01*
X9489611Y-10674174D02*
X9499135Y-10664650D01*
X9499135Y-10664650D02*
X9518182Y-10636079D01*
X9518182Y-10636079D02*
X9527706Y-10617031D01*
X9527706Y-10617031D02*
X9537230Y-10588460D01*
X9537230Y-10588460D02*
X9546754Y-10540841D01*
X9546754Y-10540841D02*
X9546754Y-10502746D01*
X9546754Y-10502746D02*
X9537230Y-10455127D01*
X9537230Y-10455127D02*
X9527706Y-10426555D01*
X9527706Y-10426555D02*
X9518182Y-10407508D01*
X9518182Y-10407508D02*
X9499135Y-10378936D01*
X9499135Y-10378936D02*
X9489611Y-10369412D01*
D12*
X3063000Y-10738000D02*
X3063000Y-10803000D01*
X3030500Y-10770500D02*
X3095500Y-10770500D01*
D11*
X3394372Y-10661984D02*
X3413420Y-10661984D01*
X3413420Y-10661984D02*
X3432467Y-10671508D01*
X3432467Y-10671508D02*
X3441991Y-10681031D01*
X3441991Y-10681031D02*
X3451515Y-10700079D01*
X3451515Y-10700079D02*
X3461039Y-10738174D01*
X3461039Y-10738174D02*
X3461039Y-10785793D01*
X3461039Y-10785793D02*
X3451515Y-10823889D01*
X3451515Y-10823889D02*
X3441991Y-10842936D01*
X3441991Y-10842936D02*
X3432467Y-10852460D01*
X3432467Y-10852460D02*
X3413420Y-10861984D01*
X3413420Y-10861984D02*
X3394372Y-10861984D01*
X3394372Y-10861984D02*
X3375324Y-10852460D01*
X3375324Y-10852460D02*
X3365801Y-10842936D01*
X3365801Y-10842936D02*
X3356277Y-10823889D01*
X3356277Y-10823889D02*
X3346753Y-10785793D01*
X3346753Y-10785793D02*
X3346753Y-10738174D01*
X3346753Y-10738174D02*
X3356277Y-10700079D01*
X3356277Y-10700079D02*
X3365801Y-10681031D01*
X3365801Y-10681031D02*
X3375324Y-10671508D01*
X3375324Y-10671508D02*
X3394372Y-10661984D01*
X3546753Y-10842936D02*
X3556277Y-10852460D01*
X3556277Y-10852460D02*
X3546753Y-10861984D01*
X3546753Y-10861984D02*
X3537229Y-10852460D01*
X3537229Y-10852460D02*
X3546753Y-10842936D01*
X3546753Y-10842936D02*
X3546753Y-10861984D01*
X3727705Y-10661984D02*
X3689610Y-10661984D01*
X3689610Y-10661984D02*
X3670562Y-10671508D01*
X3670562Y-10671508D02*
X3661039Y-10681031D01*
X3661039Y-10681031D02*
X3641991Y-10709603D01*
X3641991Y-10709603D02*
X3632467Y-10747698D01*
X3632467Y-10747698D02*
X3632467Y-10823889D01*
X3632467Y-10823889D02*
X3641991Y-10842936D01*
X3641991Y-10842936D02*
X3651515Y-10852460D01*
X3651515Y-10852460D02*
X3670562Y-10861984D01*
X3670562Y-10861984D02*
X3708658Y-10861984D01*
X3708658Y-10861984D02*
X3727705Y-10852460D01*
X3727705Y-10852460D02*
X3737229Y-10842936D01*
X3737229Y-10842936D02*
X3746753Y-10823889D01*
X3746753Y-10823889D02*
X3746753Y-10776270D01*
X3746753Y-10776270D02*
X3737229Y-10757222D01*
X3737229Y-10757222D02*
X3727705Y-10747698D01*
X3727705Y-10747698D02*
X3708658Y-10738174D01*
X3708658Y-10738174D02*
X3670562Y-10738174D01*
X3670562Y-10738174D02*
X3651515Y-10747698D01*
X3651515Y-10747698D02*
X3641991Y-10757222D01*
X3641991Y-10757222D02*
X3632467Y-10776270D01*
X3927705Y-10661984D02*
X3832467Y-10661984D01*
X3832467Y-10661984D02*
X3822943Y-10757222D01*
X3822943Y-10757222D02*
X3832467Y-10747698D01*
X3832467Y-10747698D02*
X3851515Y-10738174D01*
X3851515Y-10738174D02*
X3899134Y-10738174D01*
X3899134Y-10738174D02*
X3918182Y-10747698D01*
X3918182Y-10747698D02*
X3927705Y-10757222D01*
X3927705Y-10757222D02*
X3937229Y-10776270D01*
X3937229Y-10776270D02*
X3937229Y-10823889D01*
X3937229Y-10823889D02*
X3927705Y-10842936D01*
X3927705Y-10842936D02*
X3918182Y-10852460D01*
X3918182Y-10852460D02*
X3899134Y-10861984D01*
X3899134Y-10861984D02*
X3851515Y-10861984D01*
X3851515Y-10861984D02*
X3832467Y-10852460D01*
X3832467Y-10852460D02*
X3822943Y-10842936D01*
X4061039Y-10661984D02*
X4080086Y-10661984D01*
X4080086Y-10661984D02*
X4099134Y-10671508D01*
X4099134Y-10671508D02*
X4108658Y-10681031D01*
X4108658Y-10681031D02*
X4118182Y-10700079D01*
X4118182Y-10700079D02*
X4127705Y-10738174D01*
X4127705Y-10738174D02*
X4127705Y-10785793D01*
X4127705Y-10785793D02*
X4118182Y-10823889D01*
X4118182Y-10823889D02*
X4108658Y-10842936D01*
X4108658Y-10842936D02*
X4099134Y-10852460D01*
X4099134Y-10852460D02*
X4080086Y-10861984D01*
X4080086Y-10861984D02*
X4061039Y-10861984D01*
X4061039Y-10861984D02*
X4041991Y-10852460D01*
X4041991Y-10852460D02*
X4032467Y-10842936D01*
X4032467Y-10842936D02*
X4022943Y-10823889D01*
X4022943Y-10823889D02*
X4013420Y-10785793D01*
X4013420Y-10785793D02*
X4013420Y-10738174D01*
X4013420Y-10738174D02*
X4022943Y-10700079D01*
X4022943Y-10700079D02*
X4032467Y-10681031D01*
X4032467Y-10681031D02*
X4041991Y-10671508D01*
X4041991Y-10671508D02*
X4061039Y-10661984D01*
X4213420Y-10861984D02*
X4213420Y-10728650D01*
X4213420Y-10747698D02*
X4222944Y-10738174D01*
X4222944Y-10738174D02*
X4241991Y-10728650D01*
X4241991Y-10728650D02*
X4270563Y-10728650D01*
X4270563Y-10728650D02*
X4289610Y-10738174D01*
X4289610Y-10738174D02*
X4299134Y-10757222D01*
X4299134Y-10757222D02*
X4299134Y-10861984D01*
X4299134Y-10757222D02*
X4308658Y-10738174D01*
X4308658Y-10738174D02*
X4327705Y-10728650D01*
X4327705Y-10728650D02*
X4356277Y-10728650D01*
X4356277Y-10728650D02*
X4375325Y-10738174D01*
X4375325Y-10738174D02*
X4384848Y-10757222D01*
X4384848Y-10757222D02*
X4384848Y-10861984D01*
X4480086Y-10861984D02*
X4480086Y-10728650D01*
X4480086Y-10747698D02*
X4489610Y-10738174D01*
X4489610Y-10738174D02*
X4508658Y-10728650D01*
X4508658Y-10728650D02*
X4537229Y-10728650D01*
X4537229Y-10728650D02*
X4556277Y-10738174D01*
X4556277Y-10738174D02*
X4565801Y-10757222D01*
X4565801Y-10757222D02*
X4565801Y-10861984D01*
X4565801Y-10757222D02*
X4575325Y-10738174D01*
X4575325Y-10738174D02*
X4594372Y-10728650D01*
X4594372Y-10728650D02*
X4622944Y-10728650D01*
X4622944Y-10728650D02*
X4641991Y-10738174D01*
X4641991Y-10738174D02*
X4651515Y-10757222D01*
X4651515Y-10757222D02*
X4651515Y-10861984D01*
X5041991Y-10652460D02*
X4870563Y-10909603D01*
X5299134Y-10661984D02*
X5318182Y-10661984D01*
X5318182Y-10661984D02*
X5337229Y-10671508D01*
X5337229Y-10671508D02*
X5346753Y-10681031D01*
X5346753Y-10681031D02*
X5356277Y-10700079D01*
X5356277Y-10700079D02*
X5365801Y-10738174D01*
X5365801Y-10738174D02*
X5365801Y-10785793D01*
X5365801Y-10785793D02*
X5356277Y-10823889D01*
X5356277Y-10823889D02*
X5346753Y-10842936D01*
X5346753Y-10842936D02*
X5337229Y-10852460D01*
X5337229Y-10852460D02*
X5318182Y-10861984D01*
X5318182Y-10861984D02*
X5299134Y-10861984D01*
X5299134Y-10861984D02*
X5280087Y-10852460D01*
X5280087Y-10852460D02*
X5270563Y-10842936D01*
X5270563Y-10842936D02*
X5261039Y-10823889D01*
X5261039Y-10823889D02*
X5251515Y-10785793D01*
X5251515Y-10785793D02*
X5251515Y-10738174D01*
X5251515Y-10738174D02*
X5261039Y-10700079D01*
X5261039Y-10700079D02*
X5270563Y-10681031D01*
X5270563Y-10681031D02*
X5280087Y-10671508D01*
X5280087Y-10671508D02*
X5299134Y-10661984D01*
X5451515Y-10842936D02*
X5461039Y-10852460D01*
X5461039Y-10852460D02*
X5451515Y-10861984D01*
X5451515Y-10861984D02*
X5441991Y-10852460D01*
X5441991Y-10852460D02*
X5451515Y-10842936D01*
X5451515Y-10842936D02*
X5451515Y-10861984D01*
X5584848Y-10661984D02*
X5603896Y-10661984D01*
X5603896Y-10661984D02*
X5622944Y-10671508D01*
X5622944Y-10671508D02*
X5632467Y-10681031D01*
X5632467Y-10681031D02*
X5641991Y-10700079D01*
X5641991Y-10700079D02*
X5651515Y-10738174D01*
X5651515Y-10738174D02*
X5651515Y-10785793D01*
X5651515Y-10785793D02*
X5641991Y-10823889D01*
X5641991Y-10823889D02*
X5632467Y-10842936D01*
X5632467Y-10842936D02*
X5622944Y-10852460D01*
X5622944Y-10852460D02*
X5603896Y-10861984D01*
X5603896Y-10861984D02*
X5584848Y-10861984D01*
X5584848Y-10861984D02*
X5565801Y-10852460D01*
X5565801Y-10852460D02*
X5556277Y-10842936D01*
X5556277Y-10842936D02*
X5546753Y-10823889D01*
X5546753Y-10823889D02*
X5537229Y-10785793D01*
X5537229Y-10785793D02*
X5537229Y-10738174D01*
X5537229Y-10738174D02*
X5546753Y-10700079D01*
X5546753Y-10700079D02*
X5556277Y-10681031D01*
X5556277Y-10681031D02*
X5565801Y-10671508D01*
X5565801Y-10671508D02*
X5584848Y-10661984D01*
X5727706Y-10681031D02*
X5737229Y-10671508D01*
X5737229Y-10671508D02*
X5756277Y-10661984D01*
X5756277Y-10661984D02*
X5803896Y-10661984D01*
X5803896Y-10661984D02*
X5822944Y-10671508D01*
X5822944Y-10671508D02*
X5832467Y-10681031D01*
X5832467Y-10681031D02*
X5841991Y-10700079D01*
X5841991Y-10700079D02*
X5841991Y-10719127D01*
X5841991Y-10719127D02*
X5832467Y-10747698D01*
X5832467Y-10747698D02*
X5718182Y-10861984D01*
X5718182Y-10861984D02*
X5841991Y-10861984D01*
X6022944Y-10661984D02*
X5927706Y-10661984D01*
X5927706Y-10661984D02*
X5918182Y-10757222D01*
X5918182Y-10757222D02*
X5927706Y-10747698D01*
X5927706Y-10747698D02*
X5946753Y-10738174D01*
X5946753Y-10738174D02*
X5994372Y-10738174D01*
X5994372Y-10738174D02*
X6013420Y-10747698D01*
X6013420Y-10747698D02*
X6022944Y-10757222D01*
X6022944Y-10757222D02*
X6032467Y-10776270D01*
X6032467Y-10776270D02*
X6032467Y-10823889D01*
X6032467Y-10823889D02*
X6022944Y-10842936D01*
X6022944Y-10842936D02*
X6013420Y-10852460D01*
X6013420Y-10852460D02*
X5994372Y-10861984D01*
X5994372Y-10861984D02*
X5946753Y-10861984D01*
X5946753Y-10861984D02*
X5927706Y-10852460D01*
X5927706Y-10852460D02*
X5918182Y-10842936D01*
X6203896Y-10661984D02*
X6165801Y-10661984D01*
X6165801Y-10661984D02*
X6146753Y-10671508D01*
X6146753Y-10671508D02*
X6137229Y-10681031D01*
X6137229Y-10681031D02*
X6118182Y-10709603D01*
X6118182Y-10709603D02*
X6108658Y-10747698D01*
X6108658Y-10747698D02*
X6108658Y-10823889D01*
X6108658Y-10823889D02*
X6118182Y-10842936D01*
X6118182Y-10842936D02*
X6127706Y-10852460D01*
X6127706Y-10852460D02*
X6146753Y-10861984D01*
X6146753Y-10861984D02*
X6184848Y-10861984D01*
X6184848Y-10861984D02*
X6203896Y-10852460D01*
X6203896Y-10852460D02*
X6213420Y-10842936D01*
X6213420Y-10842936D02*
X6222944Y-10823889D01*
X6222944Y-10823889D02*
X6222944Y-10776270D01*
X6222944Y-10776270D02*
X6213420Y-10757222D01*
X6213420Y-10757222D02*
X6203896Y-10747698D01*
X6203896Y-10747698D02*
X6184848Y-10738174D01*
X6184848Y-10738174D02*
X6146753Y-10738174D01*
X6146753Y-10738174D02*
X6127706Y-10747698D01*
X6127706Y-10747698D02*
X6118182Y-10757222D01*
X6118182Y-10757222D02*
X6108658Y-10776270D01*
X6299134Y-10661984D02*
X6299134Y-10700079D01*
X6375325Y-10661984D02*
X6375325Y-10700079D01*
X6670563Y-10938174D02*
X6661039Y-10928650D01*
X6661039Y-10928650D02*
X6641991Y-10900079D01*
X6641991Y-10900079D02*
X6632468Y-10881031D01*
X6632468Y-10881031D02*
X6622944Y-10852460D01*
X6622944Y-10852460D02*
X6613420Y-10804841D01*
X6613420Y-10804841D02*
X6613420Y-10766746D01*
X6613420Y-10766746D02*
X6622944Y-10719127D01*
X6622944Y-10719127D02*
X6632468Y-10690555D01*
X6632468Y-10690555D02*
X6641991Y-10671508D01*
X6641991Y-10671508D02*
X6661039Y-10642936D01*
X6661039Y-10642936D02*
X6670563Y-10633412D01*
X6737229Y-10681031D02*
X6746753Y-10671508D01*
X6746753Y-10671508D02*
X6765801Y-10661984D01*
X6765801Y-10661984D02*
X6813420Y-10661984D01*
X6813420Y-10661984D02*
X6832468Y-10671508D01*
X6832468Y-10671508D02*
X6841991Y-10681031D01*
X6841991Y-10681031D02*
X6851515Y-10700079D01*
X6851515Y-10700079D02*
X6851515Y-10719127D01*
X6851515Y-10719127D02*
X6841991Y-10747698D01*
X6841991Y-10747698D02*
X6727706Y-10861984D01*
X6727706Y-10861984D02*
X6851515Y-10861984D01*
X7089610Y-10861984D02*
X7089610Y-10661984D01*
X7175325Y-10861984D02*
X7175325Y-10757222D01*
X7175325Y-10757222D02*
X7165801Y-10738174D01*
X7165801Y-10738174D02*
X7146753Y-10728650D01*
X7146753Y-10728650D02*
X7118182Y-10728650D01*
X7118182Y-10728650D02*
X7099134Y-10738174D01*
X7099134Y-10738174D02*
X7089610Y-10747698D01*
X7299134Y-10861984D02*
X7280087Y-10852460D01*
X7280087Y-10852460D02*
X7270563Y-10842936D01*
X7270563Y-10842936D02*
X7261039Y-10823889D01*
X7261039Y-10823889D02*
X7261039Y-10766746D01*
X7261039Y-10766746D02*
X7270563Y-10747698D01*
X7270563Y-10747698D02*
X7280087Y-10738174D01*
X7280087Y-10738174D02*
X7299134Y-10728650D01*
X7299134Y-10728650D02*
X7327706Y-10728650D01*
X7327706Y-10728650D02*
X7346753Y-10738174D01*
X7346753Y-10738174D02*
X7356277Y-10747698D01*
X7356277Y-10747698D02*
X7365801Y-10766746D01*
X7365801Y-10766746D02*
X7365801Y-10823889D01*
X7365801Y-10823889D02*
X7356277Y-10842936D01*
X7356277Y-10842936D02*
X7346753Y-10852460D01*
X7346753Y-10852460D02*
X7327706Y-10861984D01*
X7327706Y-10861984D02*
X7299134Y-10861984D01*
X7480087Y-10861984D02*
X7461039Y-10852460D01*
X7461039Y-10852460D02*
X7451515Y-10833412D01*
X7451515Y-10833412D02*
X7451515Y-10661984D01*
X7632468Y-10852460D02*
X7613420Y-10861984D01*
X7613420Y-10861984D02*
X7575325Y-10861984D01*
X7575325Y-10861984D02*
X7556277Y-10852460D01*
X7556277Y-10852460D02*
X7546753Y-10833412D01*
X7546753Y-10833412D02*
X7546753Y-10757222D01*
X7546753Y-10757222D02*
X7556277Y-10738174D01*
X7556277Y-10738174D02*
X7575325Y-10728650D01*
X7575325Y-10728650D02*
X7613420Y-10728650D01*
X7613420Y-10728650D02*
X7632468Y-10738174D01*
X7632468Y-10738174D02*
X7641991Y-10757222D01*
X7641991Y-10757222D02*
X7641991Y-10776270D01*
X7641991Y-10776270D02*
X7546753Y-10795317D01*
X7718182Y-10852460D02*
X7737230Y-10861984D01*
X7737230Y-10861984D02*
X7775325Y-10861984D01*
X7775325Y-10861984D02*
X7794372Y-10852460D01*
X7794372Y-10852460D02*
X7803896Y-10833412D01*
X7803896Y-10833412D02*
X7803896Y-10823889D01*
X7803896Y-10823889D02*
X7794372Y-10804841D01*
X7794372Y-10804841D02*
X7775325Y-10795317D01*
X7775325Y-10795317D02*
X7746753Y-10795317D01*
X7746753Y-10795317D02*
X7727706Y-10785793D01*
X7727706Y-10785793D02*
X7718182Y-10766746D01*
X7718182Y-10766746D02*
X7718182Y-10757222D01*
X7718182Y-10757222D02*
X7727706Y-10738174D01*
X7727706Y-10738174D02*
X7746753Y-10728650D01*
X7746753Y-10728650D02*
X7775325Y-10728650D01*
X7775325Y-10728650D02*
X7794372Y-10738174D01*
X7870563Y-10938174D02*
X7880087Y-10928650D01*
X7880087Y-10928650D02*
X7899134Y-10900079D01*
X7899134Y-10900079D02*
X7908658Y-10881031D01*
X7908658Y-10881031D02*
X7918182Y-10852460D01*
X7918182Y-10852460D02*
X7927706Y-10804841D01*
X7927706Y-10804841D02*
X7927706Y-10766746D01*
X7927706Y-10766746D02*
X7918182Y-10719127D01*
X7918182Y-10719127D02*
X7908658Y-10690555D01*
X7908658Y-10690555D02*
X7899134Y-10671508D01*
X7899134Y-10671508D02*
X7880087Y-10642936D01*
X7880087Y-10642936D02*
X7870563Y-10633412D01*
D12*
X3084517Y-11061017D02*
X3084517Y-11007983D01*
X3031483Y-11007983D01*
X3031483Y-11061017D01*
X3084517Y-11061017D01*
D11*
X3394372Y-10925984D02*
X3413420Y-10925984D01*
X3413420Y-10925984D02*
X3432467Y-10935508D01*
X3432467Y-10935508D02*
X3441991Y-10945031D01*
X3441991Y-10945031D02*
X3451515Y-10964079D01*
X3451515Y-10964079D02*
X3461039Y-11002174D01*
X3461039Y-11002174D02*
X3461039Y-11049793D01*
X3461039Y-11049793D02*
X3451515Y-11087889D01*
X3451515Y-11087889D02*
X3441991Y-11106936D01*
X3441991Y-11106936D02*
X3432467Y-11116460D01*
X3432467Y-11116460D02*
X3413420Y-11125984D01*
X3413420Y-11125984D02*
X3394372Y-11125984D01*
X3394372Y-11125984D02*
X3375324Y-11116460D01*
X3375324Y-11116460D02*
X3365801Y-11106936D01*
X3365801Y-11106936D02*
X3356277Y-11087889D01*
X3356277Y-11087889D02*
X3346753Y-11049793D01*
X3346753Y-11049793D02*
X3346753Y-11002174D01*
X3346753Y-11002174D02*
X3356277Y-10964079D01*
X3356277Y-10964079D02*
X3365801Y-10945031D01*
X3365801Y-10945031D02*
X3375324Y-10935508D01*
X3375324Y-10935508D02*
X3394372Y-10925984D01*
X3546753Y-11106936D02*
X3556277Y-11116460D01*
X3556277Y-11116460D02*
X3546753Y-11125984D01*
X3546753Y-11125984D02*
X3537229Y-11116460D01*
X3537229Y-11116460D02*
X3546753Y-11106936D01*
X3546753Y-11106936D02*
X3546753Y-11125984D01*
X3622943Y-10925984D02*
X3756277Y-10925984D01*
X3756277Y-10925984D02*
X3670562Y-11125984D01*
X3927705Y-10925984D02*
X3832467Y-10925984D01*
X3832467Y-10925984D02*
X3822943Y-11021222D01*
X3822943Y-11021222D02*
X3832467Y-11011698D01*
X3832467Y-11011698D02*
X3851515Y-11002174D01*
X3851515Y-11002174D02*
X3899134Y-11002174D01*
X3899134Y-11002174D02*
X3918182Y-11011698D01*
X3918182Y-11011698D02*
X3927705Y-11021222D01*
X3927705Y-11021222D02*
X3937229Y-11040270D01*
X3937229Y-11040270D02*
X3937229Y-11087889D01*
X3937229Y-11087889D02*
X3927705Y-11106936D01*
X3927705Y-11106936D02*
X3918182Y-11116460D01*
X3918182Y-11116460D02*
X3899134Y-11125984D01*
X3899134Y-11125984D02*
X3851515Y-11125984D01*
X3851515Y-11125984D02*
X3832467Y-11116460D01*
X3832467Y-11116460D02*
X3822943Y-11106936D01*
X4061039Y-10925984D02*
X4080086Y-10925984D01*
X4080086Y-10925984D02*
X4099134Y-10935508D01*
X4099134Y-10935508D02*
X4108658Y-10945031D01*
X4108658Y-10945031D02*
X4118182Y-10964079D01*
X4118182Y-10964079D02*
X4127705Y-11002174D01*
X4127705Y-11002174D02*
X4127705Y-11049793D01*
X4127705Y-11049793D02*
X4118182Y-11087889D01*
X4118182Y-11087889D02*
X4108658Y-11106936D01*
X4108658Y-11106936D02*
X4099134Y-11116460D01*
X4099134Y-11116460D02*
X4080086Y-11125984D01*
X4080086Y-11125984D02*
X4061039Y-11125984D01*
X4061039Y-11125984D02*
X4041991Y-11116460D01*
X4041991Y-11116460D02*
X4032467Y-11106936D01*
X4032467Y-11106936D02*
X4022943Y-11087889D01*
X4022943Y-11087889D02*
X4013420Y-11049793D01*
X4013420Y-11049793D02*
X4013420Y-11002174D01*
X4013420Y-11002174D02*
X4022943Y-10964079D01*
X4022943Y-10964079D02*
X4032467Y-10945031D01*
X4032467Y-10945031D02*
X4041991Y-10935508D01*
X4041991Y-10935508D02*
X4061039Y-10925984D01*
X4213420Y-11125984D02*
X4213420Y-10992650D01*
X4213420Y-11011698D02*
X4222944Y-11002174D01*
X4222944Y-11002174D02*
X4241991Y-10992650D01*
X4241991Y-10992650D02*
X4270563Y-10992650D01*
X4270563Y-10992650D02*
X4289610Y-11002174D01*
X4289610Y-11002174D02*
X4299134Y-11021222D01*
X4299134Y-11021222D02*
X4299134Y-11125984D01*
X4299134Y-11021222D02*
X4308658Y-11002174D01*
X4308658Y-11002174D02*
X4327705Y-10992650D01*
X4327705Y-10992650D02*
X4356277Y-10992650D01*
X4356277Y-10992650D02*
X4375325Y-11002174D01*
X4375325Y-11002174D02*
X4384848Y-11021222D01*
X4384848Y-11021222D02*
X4384848Y-11125984D01*
X4480086Y-11125984D02*
X4480086Y-10992650D01*
X4480086Y-11011698D02*
X4489610Y-11002174D01*
X4489610Y-11002174D02*
X4508658Y-10992650D01*
X4508658Y-10992650D02*
X4537229Y-10992650D01*
X4537229Y-10992650D02*
X4556277Y-11002174D01*
X4556277Y-11002174D02*
X4565801Y-11021222D01*
X4565801Y-11021222D02*
X4565801Y-11125984D01*
X4565801Y-11021222D02*
X4575325Y-11002174D01*
X4575325Y-11002174D02*
X4594372Y-10992650D01*
X4594372Y-10992650D02*
X4622944Y-10992650D01*
X4622944Y-10992650D02*
X4641991Y-11002174D01*
X4641991Y-11002174D02*
X4651515Y-11021222D01*
X4651515Y-11021222D02*
X4651515Y-11125984D01*
X5041991Y-10916460D02*
X4870563Y-11173603D01*
X5299134Y-10925984D02*
X5318182Y-10925984D01*
X5318182Y-10925984D02*
X5337229Y-10935508D01*
X5337229Y-10935508D02*
X5346753Y-10945031D01*
X5346753Y-10945031D02*
X5356277Y-10964079D01*
X5356277Y-10964079D02*
X5365801Y-11002174D01*
X5365801Y-11002174D02*
X5365801Y-11049793D01*
X5365801Y-11049793D02*
X5356277Y-11087889D01*
X5356277Y-11087889D02*
X5346753Y-11106936D01*
X5346753Y-11106936D02*
X5337229Y-11116460D01*
X5337229Y-11116460D02*
X5318182Y-11125984D01*
X5318182Y-11125984D02*
X5299134Y-11125984D01*
X5299134Y-11125984D02*
X5280087Y-11116460D01*
X5280087Y-11116460D02*
X5270563Y-11106936D01*
X5270563Y-11106936D02*
X5261039Y-11087889D01*
X5261039Y-11087889D02*
X5251515Y-11049793D01*
X5251515Y-11049793D02*
X5251515Y-11002174D01*
X5251515Y-11002174D02*
X5261039Y-10964079D01*
X5261039Y-10964079D02*
X5270563Y-10945031D01*
X5270563Y-10945031D02*
X5280087Y-10935508D01*
X5280087Y-10935508D02*
X5299134Y-10925984D01*
X5451515Y-11106936D02*
X5461039Y-11116460D01*
X5461039Y-11116460D02*
X5451515Y-11125984D01*
X5451515Y-11125984D02*
X5441991Y-11116460D01*
X5441991Y-11116460D02*
X5451515Y-11106936D01*
X5451515Y-11106936D02*
X5451515Y-11125984D01*
X5584848Y-10925984D02*
X5603896Y-10925984D01*
X5603896Y-10925984D02*
X5622944Y-10935508D01*
X5622944Y-10935508D02*
X5632467Y-10945031D01*
X5632467Y-10945031D02*
X5641991Y-10964079D01*
X5641991Y-10964079D02*
X5651515Y-11002174D01*
X5651515Y-11002174D02*
X5651515Y-11049793D01*
X5651515Y-11049793D02*
X5641991Y-11087889D01*
X5641991Y-11087889D02*
X5632467Y-11106936D01*
X5632467Y-11106936D02*
X5622944Y-11116460D01*
X5622944Y-11116460D02*
X5603896Y-11125984D01*
X5603896Y-11125984D02*
X5584848Y-11125984D01*
X5584848Y-11125984D02*
X5565801Y-11116460D01*
X5565801Y-11116460D02*
X5556277Y-11106936D01*
X5556277Y-11106936D02*
X5546753Y-11087889D01*
X5546753Y-11087889D02*
X5537229Y-11049793D01*
X5537229Y-11049793D02*
X5537229Y-11002174D01*
X5537229Y-11002174D02*
X5546753Y-10964079D01*
X5546753Y-10964079D02*
X5556277Y-10945031D01*
X5556277Y-10945031D02*
X5565801Y-10935508D01*
X5565801Y-10935508D02*
X5584848Y-10925984D01*
X5727706Y-10945031D02*
X5737229Y-10935508D01*
X5737229Y-10935508D02*
X5756277Y-10925984D01*
X5756277Y-10925984D02*
X5803896Y-10925984D01*
X5803896Y-10925984D02*
X5822944Y-10935508D01*
X5822944Y-10935508D02*
X5832467Y-10945031D01*
X5832467Y-10945031D02*
X5841991Y-10964079D01*
X5841991Y-10964079D02*
X5841991Y-10983127D01*
X5841991Y-10983127D02*
X5832467Y-11011698D01*
X5832467Y-11011698D02*
X5718182Y-11125984D01*
X5718182Y-11125984D02*
X5841991Y-11125984D01*
X5937229Y-11125984D02*
X5975325Y-11125984D01*
X5975325Y-11125984D02*
X5994372Y-11116460D01*
X5994372Y-11116460D02*
X6003896Y-11106936D01*
X6003896Y-11106936D02*
X6022944Y-11078365D01*
X6022944Y-11078365D02*
X6032467Y-11040270D01*
X6032467Y-11040270D02*
X6032467Y-10964079D01*
X6032467Y-10964079D02*
X6022944Y-10945031D01*
X6022944Y-10945031D02*
X6013420Y-10935508D01*
X6013420Y-10935508D02*
X5994372Y-10925984D01*
X5994372Y-10925984D02*
X5956277Y-10925984D01*
X5956277Y-10925984D02*
X5937229Y-10935508D01*
X5937229Y-10935508D02*
X5927706Y-10945031D01*
X5927706Y-10945031D02*
X5918182Y-10964079D01*
X5918182Y-10964079D02*
X5918182Y-11011698D01*
X5918182Y-11011698D02*
X5927706Y-11030746D01*
X5927706Y-11030746D02*
X5937229Y-11040270D01*
X5937229Y-11040270D02*
X5956277Y-11049793D01*
X5956277Y-11049793D02*
X5994372Y-11049793D01*
X5994372Y-11049793D02*
X6013420Y-11040270D01*
X6013420Y-11040270D02*
X6022944Y-11030746D01*
X6022944Y-11030746D02*
X6032467Y-11011698D01*
X6213420Y-10925984D02*
X6118182Y-10925984D01*
X6118182Y-10925984D02*
X6108658Y-11021222D01*
X6108658Y-11021222D02*
X6118182Y-11011698D01*
X6118182Y-11011698D02*
X6137229Y-11002174D01*
X6137229Y-11002174D02*
X6184848Y-11002174D01*
X6184848Y-11002174D02*
X6203896Y-11011698D01*
X6203896Y-11011698D02*
X6213420Y-11021222D01*
X6213420Y-11021222D02*
X6222944Y-11040270D01*
X6222944Y-11040270D02*
X6222944Y-11087889D01*
X6222944Y-11087889D02*
X6213420Y-11106936D01*
X6213420Y-11106936D02*
X6203896Y-11116460D01*
X6203896Y-11116460D02*
X6184848Y-11125984D01*
X6184848Y-11125984D02*
X6137229Y-11125984D01*
X6137229Y-11125984D02*
X6118182Y-11116460D01*
X6118182Y-11116460D02*
X6108658Y-11106936D01*
X6299134Y-10925984D02*
X6299134Y-10964079D01*
X6375325Y-10925984D02*
X6375325Y-10964079D01*
X6670563Y-11202174D02*
X6661039Y-11192650D01*
X6661039Y-11192650D02*
X6641991Y-11164079D01*
X6641991Y-11164079D02*
X6632468Y-11145031D01*
X6632468Y-11145031D02*
X6622944Y-11116460D01*
X6622944Y-11116460D02*
X6613420Y-11068841D01*
X6613420Y-11068841D02*
X6613420Y-11030746D01*
X6613420Y-11030746D02*
X6622944Y-10983127D01*
X6622944Y-10983127D02*
X6632468Y-10954555D01*
X6632468Y-10954555D02*
X6641991Y-10935508D01*
X6641991Y-10935508D02*
X6661039Y-10906936D01*
X6661039Y-10906936D02*
X6670563Y-10897412D01*
X6727706Y-10925984D02*
X6851515Y-10925984D01*
X6851515Y-10925984D02*
X6784848Y-11002174D01*
X6784848Y-11002174D02*
X6813420Y-11002174D01*
X6813420Y-11002174D02*
X6832468Y-11011698D01*
X6832468Y-11011698D02*
X6841991Y-11021222D01*
X6841991Y-11021222D02*
X6851515Y-11040270D01*
X6851515Y-11040270D02*
X6851515Y-11087889D01*
X6851515Y-11087889D02*
X6841991Y-11106936D01*
X6841991Y-11106936D02*
X6832468Y-11116460D01*
X6832468Y-11116460D02*
X6813420Y-11125984D01*
X6813420Y-11125984D02*
X6756277Y-11125984D01*
X6756277Y-11125984D02*
X6737229Y-11116460D01*
X6737229Y-11116460D02*
X6727706Y-11106936D01*
X7032468Y-10925984D02*
X6937229Y-10925984D01*
X6937229Y-10925984D02*
X6927706Y-11021222D01*
X6927706Y-11021222D02*
X6937229Y-11011698D01*
X6937229Y-11011698D02*
X6956277Y-11002174D01*
X6956277Y-11002174D02*
X7003896Y-11002174D01*
X7003896Y-11002174D02*
X7022944Y-11011698D01*
X7022944Y-11011698D02*
X7032468Y-11021222D01*
X7032468Y-11021222D02*
X7041991Y-11040270D01*
X7041991Y-11040270D02*
X7041991Y-11087889D01*
X7041991Y-11087889D02*
X7032468Y-11106936D01*
X7032468Y-11106936D02*
X7022944Y-11116460D01*
X7022944Y-11116460D02*
X7003896Y-11125984D01*
X7003896Y-11125984D02*
X6956277Y-11125984D01*
X6956277Y-11125984D02*
X6937229Y-11116460D01*
X6937229Y-11116460D02*
X6927706Y-11106936D01*
X7280087Y-11125984D02*
X7280087Y-10925984D01*
X7365801Y-11125984D02*
X7365801Y-11021222D01*
X7365801Y-11021222D02*
X7356277Y-11002174D01*
X7356277Y-11002174D02*
X7337230Y-10992650D01*
X7337230Y-10992650D02*
X7308658Y-10992650D01*
X7308658Y-10992650D02*
X7289610Y-11002174D01*
X7289610Y-11002174D02*
X7280087Y-11011698D01*
X7489610Y-11125984D02*
X7470563Y-11116460D01*
X7470563Y-11116460D02*
X7461039Y-11106936D01*
X7461039Y-11106936D02*
X7451515Y-11087889D01*
X7451515Y-11087889D02*
X7451515Y-11030746D01*
X7451515Y-11030746D02*
X7461039Y-11011698D01*
X7461039Y-11011698D02*
X7470563Y-11002174D01*
X7470563Y-11002174D02*
X7489610Y-10992650D01*
X7489610Y-10992650D02*
X7518182Y-10992650D01*
X7518182Y-10992650D02*
X7537230Y-11002174D01*
X7537230Y-11002174D02*
X7546753Y-11011698D01*
X7546753Y-11011698D02*
X7556277Y-11030746D01*
X7556277Y-11030746D02*
X7556277Y-11087889D01*
X7556277Y-11087889D02*
X7546753Y-11106936D01*
X7546753Y-11106936D02*
X7537230Y-11116460D01*
X7537230Y-11116460D02*
X7518182Y-11125984D01*
X7518182Y-11125984D02*
X7489610Y-11125984D01*
X7670563Y-11125984D02*
X7651515Y-11116460D01*
X7651515Y-11116460D02*
X7641991Y-11097412D01*
X7641991Y-11097412D02*
X7641991Y-10925984D01*
X7822944Y-11116460D02*
X7803896Y-11125984D01*
X7803896Y-11125984D02*
X7765801Y-11125984D01*
X7765801Y-11125984D02*
X7746753Y-11116460D01*
X7746753Y-11116460D02*
X7737230Y-11097412D01*
X7737230Y-11097412D02*
X7737230Y-11021222D01*
X7737230Y-11021222D02*
X7746753Y-11002174D01*
X7746753Y-11002174D02*
X7765801Y-10992650D01*
X7765801Y-10992650D02*
X7803896Y-10992650D01*
X7803896Y-10992650D02*
X7822944Y-11002174D01*
X7822944Y-11002174D02*
X7832468Y-11021222D01*
X7832468Y-11021222D02*
X7832468Y-11040270D01*
X7832468Y-11040270D02*
X7737230Y-11059317D01*
X7908658Y-11116460D02*
X7927706Y-11125984D01*
X7927706Y-11125984D02*
X7965801Y-11125984D01*
X7965801Y-11125984D02*
X7984849Y-11116460D01*
X7984849Y-11116460D02*
X7994372Y-11097412D01*
X7994372Y-11097412D02*
X7994372Y-11087889D01*
X7994372Y-11087889D02*
X7984849Y-11068841D01*
X7984849Y-11068841D02*
X7965801Y-11059317D01*
X7965801Y-11059317D02*
X7937230Y-11059317D01*
X7937230Y-11059317D02*
X7918182Y-11049793D01*
X7918182Y-11049793D02*
X7908658Y-11030746D01*
X7908658Y-11030746D02*
X7908658Y-11021222D01*
X7908658Y-11021222D02*
X7918182Y-11002174D01*
X7918182Y-11002174D02*
X7937230Y-10992650D01*
X7937230Y-10992650D02*
X7965801Y-10992650D01*
X7965801Y-10992650D02*
X7984849Y-11002174D01*
X8061039Y-11202174D02*
X8070563Y-11192650D01*
X8070563Y-11192650D02*
X8089611Y-11164079D01*
X8089611Y-11164079D02*
X8099134Y-11145031D01*
X8099134Y-11145031D02*
X8108658Y-11116460D01*
X8108658Y-11116460D02*
X8118182Y-11068841D01*
X8118182Y-11068841D02*
X8118182Y-11030746D01*
X8118182Y-11030746D02*
X8108658Y-10983127D01*
X8108658Y-10983127D02*
X8099134Y-10954555D01*
X8099134Y-10954555D02*
X8089611Y-10935508D01*
X8089611Y-10935508D02*
X8070563Y-10906936D01*
X8070563Y-10906936D02*
X8061039Y-10897412D01*
D12*
X3055500Y-11338500D02*
X3095500Y-11298500D01*
X3055500Y-11258500D01*
X3015500Y-11298500D01*
X3055500Y-11338500D01*
D11*
X3394372Y-11189984D02*
X3413420Y-11189984D01*
X3413420Y-11189984D02*
X3432467Y-11199508D01*
X3432467Y-11199508D02*
X3441991Y-11209031D01*
X3441991Y-11209031D02*
X3451515Y-11228079D01*
X3451515Y-11228079D02*
X3461039Y-11266174D01*
X3461039Y-11266174D02*
X3461039Y-11313793D01*
X3461039Y-11313793D02*
X3451515Y-11351888D01*
X3451515Y-11351888D02*
X3441991Y-11370936D01*
X3441991Y-11370936D02*
X3432467Y-11380460D01*
X3432467Y-11380460D02*
X3413420Y-11389984D01*
X3413420Y-11389984D02*
X3394372Y-11389984D01*
X3394372Y-11389984D02*
X3375324Y-11380460D01*
X3375324Y-11380460D02*
X3365801Y-11370936D01*
X3365801Y-11370936D02*
X3356277Y-11351888D01*
X3356277Y-11351888D02*
X3346753Y-11313793D01*
X3346753Y-11313793D02*
X3346753Y-11266174D01*
X3346753Y-11266174D02*
X3356277Y-11228079D01*
X3356277Y-11228079D02*
X3365801Y-11209031D01*
X3365801Y-11209031D02*
X3375324Y-11199508D01*
X3375324Y-11199508D02*
X3394372Y-11189984D01*
X3546753Y-11370936D02*
X3556277Y-11380460D01*
X3556277Y-11380460D02*
X3546753Y-11389984D01*
X3546753Y-11389984D02*
X3537229Y-11380460D01*
X3537229Y-11380460D02*
X3546753Y-11370936D01*
X3546753Y-11370936D02*
X3546753Y-11389984D01*
X3670562Y-11275698D02*
X3651515Y-11266174D01*
X3651515Y-11266174D02*
X3641991Y-11256650D01*
X3641991Y-11256650D02*
X3632467Y-11237603D01*
X3632467Y-11237603D02*
X3632467Y-11228079D01*
X3632467Y-11228079D02*
X3641991Y-11209031D01*
X3641991Y-11209031D02*
X3651515Y-11199508D01*
X3651515Y-11199508D02*
X3670562Y-11189984D01*
X3670562Y-11189984D02*
X3708658Y-11189984D01*
X3708658Y-11189984D02*
X3727705Y-11199508D01*
X3727705Y-11199508D02*
X3737229Y-11209031D01*
X3737229Y-11209031D02*
X3746753Y-11228079D01*
X3746753Y-11228079D02*
X3746753Y-11237603D01*
X3746753Y-11237603D02*
X3737229Y-11256650D01*
X3737229Y-11256650D02*
X3727705Y-11266174D01*
X3727705Y-11266174D02*
X3708658Y-11275698D01*
X3708658Y-11275698D02*
X3670562Y-11275698D01*
X3670562Y-11275698D02*
X3651515Y-11285222D01*
X3651515Y-11285222D02*
X3641991Y-11294746D01*
X3641991Y-11294746D02*
X3632467Y-11313793D01*
X3632467Y-11313793D02*
X3632467Y-11351888D01*
X3632467Y-11351888D02*
X3641991Y-11370936D01*
X3641991Y-11370936D02*
X3651515Y-11380460D01*
X3651515Y-11380460D02*
X3670562Y-11389984D01*
X3670562Y-11389984D02*
X3708658Y-11389984D01*
X3708658Y-11389984D02*
X3727705Y-11380460D01*
X3727705Y-11380460D02*
X3737229Y-11370936D01*
X3737229Y-11370936D02*
X3746753Y-11351888D01*
X3746753Y-11351888D02*
X3746753Y-11313793D01*
X3746753Y-11313793D02*
X3737229Y-11294746D01*
X3737229Y-11294746D02*
X3727705Y-11285222D01*
X3727705Y-11285222D02*
X3708658Y-11275698D01*
X3870562Y-11189984D02*
X3889610Y-11189984D01*
X3889610Y-11189984D02*
X3908658Y-11199508D01*
X3908658Y-11199508D02*
X3918182Y-11209031D01*
X3918182Y-11209031D02*
X3927705Y-11228079D01*
X3927705Y-11228079D02*
X3937229Y-11266174D01*
X3937229Y-11266174D02*
X3937229Y-11313793D01*
X3937229Y-11313793D02*
X3927705Y-11351888D01*
X3927705Y-11351888D02*
X3918182Y-11370936D01*
X3918182Y-11370936D02*
X3908658Y-11380460D01*
X3908658Y-11380460D02*
X3889610Y-11389984D01*
X3889610Y-11389984D02*
X3870562Y-11389984D01*
X3870562Y-11389984D02*
X3851515Y-11380460D01*
X3851515Y-11380460D02*
X3841991Y-11370936D01*
X3841991Y-11370936D02*
X3832467Y-11351888D01*
X3832467Y-11351888D02*
X3822943Y-11313793D01*
X3822943Y-11313793D02*
X3822943Y-11266174D01*
X3822943Y-11266174D02*
X3832467Y-11228079D01*
X3832467Y-11228079D02*
X3841991Y-11209031D01*
X3841991Y-11209031D02*
X3851515Y-11199508D01*
X3851515Y-11199508D02*
X3870562Y-11189984D01*
X4061039Y-11189984D02*
X4080086Y-11189984D01*
X4080086Y-11189984D02*
X4099134Y-11199508D01*
X4099134Y-11199508D02*
X4108658Y-11209031D01*
X4108658Y-11209031D02*
X4118182Y-11228079D01*
X4118182Y-11228079D02*
X4127705Y-11266174D01*
X4127705Y-11266174D02*
X4127705Y-11313793D01*
X4127705Y-11313793D02*
X4118182Y-11351888D01*
X4118182Y-11351888D02*
X4108658Y-11370936D01*
X4108658Y-11370936D02*
X4099134Y-11380460D01*
X4099134Y-11380460D02*
X4080086Y-11389984D01*
X4080086Y-11389984D02*
X4061039Y-11389984D01*
X4061039Y-11389984D02*
X4041991Y-11380460D01*
X4041991Y-11380460D02*
X4032467Y-11370936D01*
X4032467Y-11370936D02*
X4022943Y-11351888D01*
X4022943Y-11351888D02*
X4013420Y-11313793D01*
X4013420Y-11313793D02*
X4013420Y-11266174D01*
X4013420Y-11266174D02*
X4022943Y-11228079D01*
X4022943Y-11228079D02*
X4032467Y-11209031D01*
X4032467Y-11209031D02*
X4041991Y-11199508D01*
X4041991Y-11199508D02*
X4061039Y-11189984D01*
X4213420Y-11389984D02*
X4213420Y-11256650D01*
X4213420Y-11275698D02*
X4222944Y-11266174D01*
X4222944Y-11266174D02*
X4241991Y-11256650D01*
X4241991Y-11256650D02*
X4270563Y-11256650D01*
X4270563Y-11256650D02*
X4289610Y-11266174D01*
X4289610Y-11266174D02*
X4299134Y-11285222D01*
X4299134Y-11285222D02*
X4299134Y-11389984D01*
X4299134Y-11285222D02*
X4308658Y-11266174D01*
X4308658Y-11266174D02*
X4327705Y-11256650D01*
X4327705Y-11256650D02*
X4356277Y-11256650D01*
X4356277Y-11256650D02*
X4375325Y-11266174D01*
X4375325Y-11266174D02*
X4384848Y-11285222D01*
X4384848Y-11285222D02*
X4384848Y-11389984D01*
X4480086Y-11389984D02*
X4480086Y-11256650D01*
X4480086Y-11275698D02*
X4489610Y-11266174D01*
X4489610Y-11266174D02*
X4508658Y-11256650D01*
X4508658Y-11256650D02*
X4537229Y-11256650D01*
X4537229Y-11256650D02*
X4556277Y-11266174D01*
X4556277Y-11266174D02*
X4565801Y-11285222D01*
X4565801Y-11285222D02*
X4565801Y-11389984D01*
X4565801Y-11285222D02*
X4575325Y-11266174D01*
X4575325Y-11266174D02*
X4594372Y-11256650D01*
X4594372Y-11256650D02*
X4622944Y-11256650D01*
X4622944Y-11256650D02*
X4641991Y-11266174D01*
X4641991Y-11266174D02*
X4651515Y-11285222D01*
X4651515Y-11285222D02*
X4651515Y-11389984D01*
X5041991Y-11180460D02*
X4870563Y-11437603D01*
X5299134Y-11189984D02*
X5318182Y-11189984D01*
X5318182Y-11189984D02*
X5337229Y-11199508D01*
X5337229Y-11199508D02*
X5346753Y-11209031D01*
X5346753Y-11209031D02*
X5356277Y-11228079D01*
X5356277Y-11228079D02*
X5365801Y-11266174D01*
X5365801Y-11266174D02*
X5365801Y-11313793D01*
X5365801Y-11313793D02*
X5356277Y-11351888D01*
X5356277Y-11351888D02*
X5346753Y-11370936D01*
X5346753Y-11370936D02*
X5337229Y-11380460D01*
X5337229Y-11380460D02*
X5318182Y-11389984D01*
X5318182Y-11389984D02*
X5299134Y-11389984D01*
X5299134Y-11389984D02*
X5280087Y-11380460D01*
X5280087Y-11380460D02*
X5270563Y-11370936D01*
X5270563Y-11370936D02*
X5261039Y-11351888D01*
X5261039Y-11351888D02*
X5251515Y-11313793D01*
X5251515Y-11313793D02*
X5251515Y-11266174D01*
X5251515Y-11266174D02*
X5261039Y-11228079D01*
X5261039Y-11228079D02*
X5270563Y-11209031D01*
X5270563Y-11209031D02*
X5280087Y-11199508D01*
X5280087Y-11199508D02*
X5299134Y-11189984D01*
X5451515Y-11370936D02*
X5461039Y-11380460D01*
X5461039Y-11380460D02*
X5451515Y-11389984D01*
X5451515Y-11389984D02*
X5441991Y-11380460D01*
X5441991Y-11380460D02*
X5451515Y-11370936D01*
X5451515Y-11370936D02*
X5451515Y-11389984D01*
X5584848Y-11189984D02*
X5603896Y-11189984D01*
X5603896Y-11189984D02*
X5622944Y-11199508D01*
X5622944Y-11199508D02*
X5632467Y-11209031D01*
X5632467Y-11209031D02*
X5641991Y-11228079D01*
X5641991Y-11228079D02*
X5651515Y-11266174D01*
X5651515Y-11266174D02*
X5651515Y-11313793D01*
X5651515Y-11313793D02*
X5641991Y-11351888D01*
X5641991Y-11351888D02*
X5632467Y-11370936D01*
X5632467Y-11370936D02*
X5622944Y-11380460D01*
X5622944Y-11380460D02*
X5603896Y-11389984D01*
X5603896Y-11389984D02*
X5584848Y-11389984D01*
X5584848Y-11389984D02*
X5565801Y-11380460D01*
X5565801Y-11380460D02*
X5556277Y-11370936D01*
X5556277Y-11370936D02*
X5546753Y-11351888D01*
X5546753Y-11351888D02*
X5537229Y-11313793D01*
X5537229Y-11313793D02*
X5537229Y-11266174D01*
X5537229Y-11266174D02*
X5546753Y-11228079D01*
X5546753Y-11228079D02*
X5556277Y-11209031D01*
X5556277Y-11209031D02*
X5565801Y-11199508D01*
X5565801Y-11199508D02*
X5584848Y-11189984D01*
X5718182Y-11189984D02*
X5841991Y-11189984D01*
X5841991Y-11189984D02*
X5775325Y-11266174D01*
X5775325Y-11266174D02*
X5803896Y-11266174D01*
X5803896Y-11266174D02*
X5822944Y-11275698D01*
X5822944Y-11275698D02*
X5832467Y-11285222D01*
X5832467Y-11285222D02*
X5841991Y-11304269D01*
X5841991Y-11304269D02*
X5841991Y-11351888D01*
X5841991Y-11351888D02*
X5832467Y-11370936D01*
X5832467Y-11370936D02*
X5822944Y-11380460D01*
X5822944Y-11380460D02*
X5803896Y-11389984D01*
X5803896Y-11389984D02*
X5746753Y-11389984D01*
X5746753Y-11389984D02*
X5727706Y-11380460D01*
X5727706Y-11380460D02*
X5718182Y-11370936D01*
X6032467Y-11389984D02*
X5918182Y-11389984D01*
X5975325Y-11389984D02*
X5975325Y-11189984D01*
X5975325Y-11189984D02*
X5956277Y-11218555D01*
X5956277Y-11218555D02*
X5937229Y-11237603D01*
X5937229Y-11237603D02*
X5918182Y-11247127D01*
X6213420Y-11189984D02*
X6118182Y-11189984D01*
X6118182Y-11189984D02*
X6108658Y-11285222D01*
X6108658Y-11285222D02*
X6118182Y-11275698D01*
X6118182Y-11275698D02*
X6137229Y-11266174D01*
X6137229Y-11266174D02*
X6184848Y-11266174D01*
X6184848Y-11266174D02*
X6203896Y-11275698D01*
X6203896Y-11275698D02*
X6213420Y-11285222D01*
X6213420Y-11285222D02*
X6222944Y-11304269D01*
X6222944Y-11304269D02*
X6222944Y-11351888D01*
X6222944Y-11351888D02*
X6213420Y-11370936D01*
X6213420Y-11370936D02*
X6203896Y-11380460D01*
X6203896Y-11380460D02*
X6184848Y-11389984D01*
X6184848Y-11389984D02*
X6137229Y-11389984D01*
X6137229Y-11389984D02*
X6118182Y-11380460D01*
X6118182Y-11380460D02*
X6108658Y-11370936D01*
X6299134Y-11189984D02*
X6299134Y-11228079D01*
X6375325Y-11189984D02*
X6375325Y-11228079D01*
X6670563Y-11466174D02*
X6661039Y-11456650D01*
X6661039Y-11456650D02*
X6641991Y-11428079D01*
X6641991Y-11428079D02*
X6632468Y-11409031D01*
X6632468Y-11409031D02*
X6622944Y-11380460D01*
X6622944Y-11380460D02*
X6613420Y-11332841D01*
X6613420Y-11332841D02*
X6613420Y-11294746D01*
X6613420Y-11294746D02*
X6622944Y-11247127D01*
X6622944Y-11247127D02*
X6632468Y-11218555D01*
X6632468Y-11218555D02*
X6641991Y-11199508D01*
X6641991Y-11199508D02*
X6661039Y-11170936D01*
X6661039Y-11170936D02*
X6670563Y-11161412D01*
X6775325Y-11275698D02*
X6756277Y-11266174D01*
X6756277Y-11266174D02*
X6746753Y-11256650D01*
X6746753Y-11256650D02*
X6737229Y-11237603D01*
X6737229Y-11237603D02*
X6737229Y-11228079D01*
X6737229Y-11228079D02*
X6746753Y-11209031D01*
X6746753Y-11209031D02*
X6756277Y-11199508D01*
X6756277Y-11199508D02*
X6775325Y-11189984D01*
X6775325Y-11189984D02*
X6813420Y-11189984D01*
X6813420Y-11189984D02*
X6832468Y-11199508D01*
X6832468Y-11199508D02*
X6841991Y-11209031D01*
X6841991Y-11209031D02*
X6851515Y-11228079D01*
X6851515Y-11228079D02*
X6851515Y-11237603D01*
X6851515Y-11237603D02*
X6841991Y-11256650D01*
X6841991Y-11256650D02*
X6832468Y-11266174D01*
X6832468Y-11266174D02*
X6813420Y-11275698D01*
X6813420Y-11275698D02*
X6775325Y-11275698D01*
X6775325Y-11275698D02*
X6756277Y-11285222D01*
X6756277Y-11285222D02*
X6746753Y-11294746D01*
X6746753Y-11294746D02*
X6737229Y-11313793D01*
X6737229Y-11313793D02*
X6737229Y-11351888D01*
X6737229Y-11351888D02*
X6746753Y-11370936D01*
X6746753Y-11370936D02*
X6756277Y-11380460D01*
X6756277Y-11380460D02*
X6775325Y-11389984D01*
X6775325Y-11389984D02*
X6813420Y-11389984D01*
X6813420Y-11389984D02*
X6832468Y-11380460D01*
X6832468Y-11380460D02*
X6841991Y-11370936D01*
X6841991Y-11370936D02*
X6851515Y-11351888D01*
X6851515Y-11351888D02*
X6851515Y-11313793D01*
X6851515Y-11313793D02*
X6841991Y-11294746D01*
X6841991Y-11294746D02*
X6832468Y-11285222D01*
X6832468Y-11285222D02*
X6813420Y-11275698D01*
X7089610Y-11389984D02*
X7089610Y-11189984D01*
X7175325Y-11389984D02*
X7175325Y-11285222D01*
X7175325Y-11285222D02*
X7165801Y-11266174D01*
X7165801Y-11266174D02*
X7146753Y-11256650D01*
X7146753Y-11256650D02*
X7118182Y-11256650D01*
X7118182Y-11256650D02*
X7099134Y-11266174D01*
X7099134Y-11266174D02*
X7089610Y-11275698D01*
X7299134Y-11389984D02*
X7280087Y-11380460D01*
X7280087Y-11380460D02*
X7270563Y-11370936D01*
X7270563Y-11370936D02*
X7261039Y-11351888D01*
X7261039Y-11351888D02*
X7261039Y-11294746D01*
X7261039Y-11294746D02*
X7270563Y-11275698D01*
X7270563Y-11275698D02*
X7280087Y-11266174D01*
X7280087Y-11266174D02*
X7299134Y-11256650D01*
X7299134Y-11256650D02*
X7327706Y-11256650D01*
X7327706Y-11256650D02*
X7346753Y-11266174D01*
X7346753Y-11266174D02*
X7356277Y-11275698D01*
X7356277Y-11275698D02*
X7365801Y-11294746D01*
X7365801Y-11294746D02*
X7365801Y-11351888D01*
X7365801Y-11351888D02*
X7356277Y-11370936D01*
X7356277Y-11370936D02*
X7346753Y-11380460D01*
X7346753Y-11380460D02*
X7327706Y-11389984D01*
X7327706Y-11389984D02*
X7299134Y-11389984D01*
X7480087Y-11389984D02*
X7461039Y-11380460D01*
X7461039Y-11380460D02*
X7451515Y-11361412D01*
X7451515Y-11361412D02*
X7451515Y-11189984D01*
X7632468Y-11380460D02*
X7613420Y-11389984D01*
X7613420Y-11389984D02*
X7575325Y-11389984D01*
X7575325Y-11389984D02*
X7556277Y-11380460D01*
X7556277Y-11380460D02*
X7546753Y-11361412D01*
X7546753Y-11361412D02*
X7546753Y-11285222D01*
X7546753Y-11285222D02*
X7556277Y-11266174D01*
X7556277Y-11266174D02*
X7575325Y-11256650D01*
X7575325Y-11256650D02*
X7613420Y-11256650D01*
X7613420Y-11256650D02*
X7632468Y-11266174D01*
X7632468Y-11266174D02*
X7641991Y-11285222D01*
X7641991Y-11285222D02*
X7641991Y-11304269D01*
X7641991Y-11304269D02*
X7546753Y-11323317D01*
X7718182Y-11380460D02*
X7737230Y-11389984D01*
X7737230Y-11389984D02*
X7775325Y-11389984D01*
X7775325Y-11389984D02*
X7794372Y-11380460D01*
X7794372Y-11380460D02*
X7803896Y-11361412D01*
X7803896Y-11361412D02*
X7803896Y-11351888D01*
X7803896Y-11351888D02*
X7794372Y-11332841D01*
X7794372Y-11332841D02*
X7775325Y-11323317D01*
X7775325Y-11323317D02*
X7746753Y-11323317D01*
X7746753Y-11323317D02*
X7727706Y-11313793D01*
X7727706Y-11313793D02*
X7718182Y-11294746D01*
X7718182Y-11294746D02*
X7718182Y-11285222D01*
X7718182Y-11285222D02*
X7727706Y-11266174D01*
X7727706Y-11266174D02*
X7746753Y-11256650D01*
X7746753Y-11256650D02*
X7775325Y-11256650D01*
X7775325Y-11256650D02*
X7794372Y-11266174D01*
X7870563Y-11466174D02*
X7880087Y-11456650D01*
X7880087Y-11456650D02*
X7899134Y-11428079D01*
X7899134Y-11428079D02*
X7908658Y-11409031D01*
X7908658Y-11409031D02*
X7918182Y-11380460D01*
X7918182Y-11380460D02*
X7927706Y-11332841D01*
X7927706Y-11332841D02*
X7927706Y-11294746D01*
X7927706Y-11294746D02*
X7918182Y-11247127D01*
X7918182Y-11247127D02*
X7908658Y-11218555D01*
X7908658Y-11218555D02*
X7899134Y-11199508D01*
X7899134Y-11199508D02*
X7880087Y-11170936D01*
X7880087Y-11170936D02*
X7870563Y-11161412D01*
D12*
X2995500Y-11512500D02*
X3095500Y-11612500D01*
X3095500Y-11512500D02*
X2995500Y-11612500D01*
X3095500Y-11562500D02*
G75*
G02*
X2995500Y-11562500I-50000J0D01*
G01*
X2995500Y-11562500D02*
G75*
G02*
X3095500Y-11562500I50000J0D01*
G01*
D11*
X3461039Y-11653984D02*
X3346753Y-11653984D01*
X3403896Y-11653984D02*
X3403896Y-11453984D01*
X3403896Y-11453984D02*
X3384848Y-11482555D01*
X3384848Y-11482555D02*
X3365801Y-11501603D01*
X3365801Y-11501603D02*
X3346753Y-11511127D01*
X3546753Y-11634936D02*
X3556277Y-11644460D01*
X3556277Y-11644460D02*
X3546753Y-11653984D01*
X3546753Y-11653984D02*
X3537229Y-11644460D01*
X3537229Y-11644460D02*
X3546753Y-11634936D01*
X3546753Y-11634936D02*
X3546753Y-11653984D01*
X3680086Y-11453984D02*
X3699134Y-11453984D01*
X3699134Y-11453984D02*
X3718182Y-11463508D01*
X3718182Y-11463508D02*
X3727705Y-11473031D01*
X3727705Y-11473031D02*
X3737229Y-11492079D01*
X3737229Y-11492079D02*
X3746753Y-11530174D01*
X3746753Y-11530174D02*
X3746753Y-11577793D01*
X3746753Y-11577793D02*
X3737229Y-11615888D01*
X3737229Y-11615888D02*
X3727705Y-11634936D01*
X3727705Y-11634936D02*
X3718182Y-11644460D01*
X3718182Y-11644460D02*
X3699134Y-11653984D01*
X3699134Y-11653984D02*
X3680086Y-11653984D01*
X3680086Y-11653984D02*
X3661039Y-11644460D01*
X3661039Y-11644460D02*
X3651515Y-11634936D01*
X3651515Y-11634936D02*
X3641991Y-11615888D01*
X3641991Y-11615888D02*
X3632467Y-11577793D01*
X3632467Y-11577793D02*
X3632467Y-11530174D01*
X3632467Y-11530174D02*
X3641991Y-11492079D01*
X3641991Y-11492079D02*
X3651515Y-11473031D01*
X3651515Y-11473031D02*
X3661039Y-11463508D01*
X3661039Y-11463508D02*
X3680086Y-11453984D01*
X3870562Y-11453984D02*
X3889610Y-11453984D01*
X3889610Y-11453984D02*
X3908658Y-11463508D01*
X3908658Y-11463508D02*
X3918182Y-11473031D01*
X3918182Y-11473031D02*
X3927705Y-11492079D01*
X3927705Y-11492079D02*
X3937229Y-11530174D01*
X3937229Y-11530174D02*
X3937229Y-11577793D01*
X3937229Y-11577793D02*
X3927705Y-11615888D01*
X3927705Y-11615888D02*
X3918182Y-11634936D01*
X3918182Y-11634936D02*
X3908658Y-11644460D01*
X3908658Y-11644460D02*
X3889610Y-11653984D01*
X3889610Y-11653984D02*
X3870562Y-11653984D01*
X3870562Y-11653984D02*
X3851515Y-11644460D01*
X3851515Y-11644460D02*
X3841991Y-11634936D01*
X3841991Y-11634936D02*
X3832467Y-11615888D01*
X3832467Y-11615888D02*
X3822943Y-11577793D01*
X3822943Y-11577793D02*
X3822943Y-11530174D01*
X3822943Y-11530174D02*
X3832467Y-11492079D01*
X3832467Y-11492079D02*
X3841991Y-11473031D01*
X3841991Y-11473031D02*
X3851515Y-11463508D01*
X3851515Y-11463508D02*
X3870562Y-11453984D01*
X4061039Y-11453984D02*
X4080086Y-11453984D01*
X4080086Y-11453984D02*
X4099134Y-11463508D01*
X4099134Y-11463508D02*
X4108658Y-11473031D01*
X4108658Y-11473031D02*
X4118182Y-11492079D01*
X4118182Y-11492079D02*
X4127705Y-11530174D01*
X4127705Y-11530174D02*
X4127705Y-11577793D01*
X4127705Y-11577793D02*
X4118182Y-11615888D01*
X4118182Y-11615888D02*
X4108658Y-11634936D01*
X4108658Y-11634936D02*
X4099134Y-11644460D01*
X4099134Y-11644460D02*
X4080086Y-11653984D01*
X4080086Y-11653984D02*
X4061039Y-11653984D01*
X4061039Y-11653984D02*
X4041991Y-11644460D01*
X4041991Y-11644460D02*
X4032467Y-11634936D01*
X4032467Y-11634936D02*
X4022943Y-11615888D01*
X4022943Y-11615888D02*
X4013420Y-11577793D01*
X4013420Y-11577793D02*
X4013420Y-11530174D01*
X4013420Y-11530174D02*
X4022943Y-11492079D01*
X4022943Y-11492079D02*
X4032467Y-11473031D01*
X4032467Y-11473031D02*
X4041991Y-11463508D01*
X4041991Y-11463508D02*
X4061039Y-11453984D01*
X4213420Y-11653984D02*
X4213420Y-11520650D01*
X4213420Y-11539698D02*
X4222944Y-11530174D01*
X4222944Y-11530174D02*
X4241991Y-11520650D01*
X4241991Y-11520650D02*
X4270563Y-11520650D01*
X4270563Y-11520650D02*
X4289610Y-11530174D01*
X4289610Y-11530174D02*
X4299134Y-11549222D01*
X4299134Y-11549222D02*
X4299134Y-11653984D01*
X4299134Y-11549222D02*
X4308658Y-11530174D01*
X4308658Y-11530174D02*
X4327705Y-11520650D01*
X4327705Y-11520650D02*
X4356277Y-11520650D01*
X4356277Y-11520650D02*
X4375325Y-11530174D01*
X4375325Y-11530174D02*
X4384848Y-11549222D01*
X4384848Y-11549222D02*
X4384848Y-11653984D01*
X4480086Y-11653984D02*
X4480086Y-11520650D01*
X4480086Y-11539698D02*
X4489610Y-11530174D01*
X4489610Y-11530174D02*
X4508658Y-11520650D01*
X4508658Y-11520650D02*
X4537229Y-11520650D01*
X4537229Y-11520650D02*
X4556277Y-11530174D01*
X4556277Y-11530174D02*
X4565801Y-11549222D01*
X4565801Y-11549222D02*
X4565801Y-11653984D01*
X4565801Y-11549222D02*
X4575325Y-11530174D01*
X4575325Y-11530174D02*
X4594372Y-11520650D01*
X4594372Y-11520650D02*
X4622944Y-11520650D01*
X4622944Y-11520650D02*
X4641991Y-11530174D01*
X4641991Y-11530174D02*
X4651515Y-11549222D01*
X4651515Y-11549222D02*
X4651515Y-11653984D01*
X5041991Y-11444460D02*
X4870563Y-11701603D01*
X5299134Y-11453984D02*
X5318182Y-11453984D01*
X5318182Y-11453984D02*
X5337229Y-11463508D01*
X5337229Y-11463508D02*
X5346753Y-11473031D01*
X5346753Y-11473031D02*
X5356277Y-11492079D01*
X5356277Y-11492079D02*
X5365801Y-11530174D01*
X5365801Y-11530174D02*
X5365801Y-11577793D01*
X5365801Y-11577793D02*
X5356277Y-11615888D01*
X5356277Y-11615888D02*
X5346753Y-11634936D01*
X5346753Y-11634936D02*
X5337229Y-11644460D01*
X5337229Y-11644460D02*
X5318182Y-11653984D01*
X5318182Y-11653984D02*
X5299134Y-11653984D01*
X5299134Y-11653984D02*
X5280087Y-11644460D01*
X5280087Y-11644460D02*
X5270563Y-11634936D01*
X5270563Y-11634936D02*
X5261039Y-11615888D01*
X5261039Y-11615888D02*
X5251515Y-11577793D01*
X5251515Y-11577793D02*
X5251515Y-11530174D01*
X5251515Y-11530174D02*
X5261039Y-11492079D01*
X5261039Y-11492079D02*
X5270563Y-11473031D01*
X5270563Y-11473031D02*
X5280087Y-11463508D01*
X5280087Y-11463508D02*
X5299134Y-11453984D01*
X5451515Y-11634936D02*
X5461039Y-11644460D01*
X5461039Y-11644460D02*
X5451515Y-11653984D01*
X5451515Y-11653984D02*
X5441991Y-11644460D01*
X5441991Y-11644460D02*
X5451515Y-11634936D01*
X5451515Y-11634936D02*
X5451515Y-11653984D01*
X5584848Y-11453984D02*
X5603896Y-11453984D01*
X5603896Y-11453984D02*
X5622944Y-11463508D01*
X5622944Y-11463508D02*
X5632467Y-11473031D01*
X5632467Y-11473031D02*
X5641991Y-11492079D01*
X5641991Y-11492079D02*
X5651515Y-11530174D01*
X5651515Y-11530174D02*
X5651515Y-11577793D01*
X5651515Y-11577793D02*
X5641991Y-11615888D01*
X5641991Y-11615888D02*
X5632467Y-11634936D01*
X5632467Y-11634936D02*
X5622944Y-11644460D01*
X5622944Y-11644460D02*
X5603896Y-11653984D01*
X5603896Y-11653984D02*
X5584848Y-11653984D01*
X5584848Y-11653984D02*
X5565801Y-11644460D01*
X5565801Y-11644460D02*
X5556277Y-11634936D01*
X5556277Y-11634936D02*
X5546753Y-11615888D01*
X5546753Y-11615888D02*
X5537229Y-11577793D01*
X5537229Y-11577793D02*
X5537229Y-11530174D01*
X5537229Y-11530174D02*
X5546753Y-11492079D01*
X5546753Y-11492079D02*
X5556277Y-11473031D01*
X5556277Y-11473031D02*
X5565801Y-11463508D01*
X5565801Y-11463508D02*
X5584848Y-11453984D01*
X5718182Y-11453984D02*
X5841991Y-11453984D01*
X5841991Y-11453984D02*
X5775325Y-11530174D01*
X5775325Y-11530174D02*
X5803896Y-11530174D01*
X5803896Y-11530174D02*
X5822944Y-11539698D01*
X5822944Y-11539698D02*
X5832467Y-11549222D01*
X5832467Y-11549222D02*
X5841991Y-11568269D01*
X5841991Y-11568269D02*
X5841991Y-11615888D01*
X5841991Y-11615888D02*
X5832467Y-11634936D01*
X5832467Y-11634936D02*
X5822944Y-11644460D01*
X5822944Y-11644460D02*
X5803896Y-11653984D01*
X5803896Y-11653984D02*
X5746753Y-11653984D01*
X5746753Y-11653984D02*
X5727706Y-11644460D01*
X5727706Y-11644460D02*
X5718182Y-11634936D01*
X5937229Y-11653984D02*
X5975325Y-11653984D01*
X5975325Y-11653984D02*
X5994372Y-11644460D01*
X5994372Y-11644460D02*
X6003896Y-11634936D01*
X6003896Y-11634936D02*
X6022944Y-11606365D01*
X6022944Y-11606365D02*
X6032467Y-11568269D01*
X6032467Y-11568269D02*
X6032467Y-11492079D01*
X6032467Y-11492079D02*
X6022944Y-11473031D01*
X6022944Y-11473031D02*
X6013420Y-11463508D01*
X6013420Y-11463508D02*
X5994372Y-11453984D01*
X5994372Y-11453984D02*
X5956277Y-11453984D01*
X5956277Y-11453984D02*
X5937229Y-11463508D01*
X5937229Y-11463508D02*
X5927706Y-11473031D01*
X5927706Y-11473031D02*
X5918182Y-11492079D01*
X5918182Y-11492079D02*
X5918182Y-11539698D01*
X5918182Y-11539698D02*
X5927706Y-11558746D01*
X5927706Y-11558746D02*
X5937229Y-11568269D01*
X5937229Y-11568269D02*
X5956277Y-11577793D01*
X5956277Y-11577793D02*
X5994372Y-11577793D01*
X5994372Y-11577793D02*
X6013420Y-11568269D01*
X6013420Y-11568269D02*
X6022944Y-11558746D01*
X6022944Y-11558746D02*
X6032467Y-11539698D01*
X6203896Y-11520650D02*
X6203896Y-11653984D01*
X6156277Y-11444460D02*
X6108658Y-11587317D01*
X6108658Y-11587317D02*
X6232467Y-11587317D01*
X6299134Y-11453984D02*
X6299134Y-11492079D01*
X6375325Y-11453984D02*
X6375325Y-11492079D01*
X6670563Y-11730174D02*
X6661039Y-11720650D01*
X6661039Y-11720650D02*
X6641991Y-11692079D01*
X6641991Y-11692079D02*
X6632468Y-11673031D01*
X6632468Y-11673031D02*
X6622944Y-11644460D01*
X6622944Y-11644460D02*
X6613420Y-11596841D01*
X6613420Y-11596841D02*
X6613420Y-11558746D01*
X6613420Y-11558746D02*
X6622944Y-11511127D01*
X6622944Y-11511127D02*
X6632468Y-11482555D01*
X6632468Y-11482555D02*
X6641991Y-11463508D01*
X6641991Y-11463508D02*
X6661039Y-11434936D01*
X6661039Y-11434936D02*
X6670563Y-11425412D01*
X6832468Y-11453984D02*
X6794372Y-11453984D01*
X6794372Y-11453984D02*
X6775325Y-11463508D01*
X6775325Y-11463508D02*
X6765801Y-11473031D01*
X6765801Y-11473031D02*
X6746753Y-11501603D01*
X6746753Y-11501603D02*
X6737229Y-11539698D01*
X6737229Y-11539698D02*
X6737229Y-11615888D01*
X6737229Y-11615888D02*
X6746753Y-11634936D01*
X6746753Y-11634936D02*
X6756277Y-11644460D01*
X6756277Y-11644460D02*
X6775325Y-11653984D01*
X6775325Y-11653984D02*
X6813420Y-11653984D01*
X6813420Y-11653984D02*
X6832468Y-11644460D01*
X6832468Y-11644460D02*
X6841991Y-11634936D01*
X6841991Y-11634936D02*
X6851515Y-11615888D01*
X6851515Y-11615888D02*
X6851515Y-11568269D01*
X6851515Y-11568269D02*
X6841991Y-11549222D01*
X6841991Y-11549222D02*
X6832468Y-11539698D01*
X6832468Y-11539698D02*
X6813420Y-11530174D01*
X6813420Y-11530174D02*
X6775325Y-11530174D01*
X6775325Y-11530174D02*
X6756277Y-11539698D01*
X6756277Y-11539698D02*
X6746753Y-11549222D01*
X6746753Y-11549222D02*
X6737229Y-11568269D01*
X7089610Y-11653984D02*
X7089610Y-11453984D01*
X7175325Y-11653984D02*
X7175325Y-11549222D01*
X7175325Y-11549222D02*
X7165801Y-11530174D01*
X7165801Y-11530174D02*
X7146753Y-11520650D01*
X7146753Y-11520650D02*
X7118182Y-11520650D01*
X7118182Y-11520650D02*
X7099134Y-11530174D01*
X7099134Y-11530174D02*
X7089610Y-11539698D01*
X7299134Y-11653984D02*
X7280087Y-11644460D01*
X7280087Y-11644460D02*
X7270563Y-11634936D01*
X7270563Y-11634936D02*
X7261039Y-11615888D01*
X7261039Y-11615888D02*
X7261039Y-11558746D01*
X7261039Y-11558746D02*
X7270563Y-11539698D01*
X7270563Y-11539698D02*
X7280087Y-11530174D01*
X7280087Y-11530174D02*
X7299134Y-11520650D01*
X7299134Y-11520650D02*
X7327706Y-11520650D01*
X7327706Y-11520650D02*
X7346753Y-11530174D01*
X7346753Y-11530174D02*
X7356277Y-11539698D01*
X7356277Y-11539698D02*
X7365801Y-11558746D01*
X7365801Y-11558746D02*
X7365801Y-11615888D01*
X7365801Y-11615888D02*
X7356277Y-11634936D01*
X7356277Y-11634936D02*
X7346753Y-11644460D01*
X7346753Y-11644460D02*
X7327706Y-11653984D01*
X7327706Y-11653984D02*
X7299134Y-11653984D01*
X7480087Y-11653984D02*
X7461039Y-11644460D01*
X7461039Y-11644460D02*
X7451515Y-11625412D01*
X7451515Y-11625412D02*
X7451515Y-11453984D01*
X7632468Y-11644460D02*
X7613420Y-11653984D01*
X7613420Y-11653984D02*
X7575325Y-11653984D01*
X7575325Y-11653984D02*
X7556277Y-11644460D01*
X7556277Y-11644460D02*
X7546753Y-11625412D01*
X7546753Y-11625412D02*
X7546753Y-11549222D01*
X7546753Y-11549222D02*
X7556277Y-11530174D01*
X7556277Y-11530174D02*
X7575325Y-11520650D01*
X7575325Y-11520650D02*
X7613420Y-11520650D01*
X7613420Y-11520650D02*
X7632468Y-11530174D01*
X7632468Y-11530174D02*
X7641991Y-11549222D01*
X7641991Y-11549222D02*
X7641991Y-11568269D01*
X7641991Y-11568269D02*
X7546753Y-11587317D01*
X7718182Y-11644460D02*
X7737230Y-11653984D01*
X7737230Y-11653984D02*
X7775325Y-11653984D01*
X7775325Y-11653984D02*
X7794372Y-11644460D01*
X7794372Y-11644460D02*
X7803896Y-11625412D01*
X7803896Y-11625412D02*
X7803896Y-11615888D01*
X7803896Y-11615888D02*
X7794372Y-11596841D01*
X7794372Y-11596841D02*
X7775325Y-11587317D01*
X7775325Y-11587317D02*
X7746753Y-11587317D01*
X7746753Y-11587317D02*
X7727706Y-11577793D01*
X7727706Y-11577793D02*
X7718182Y-11558746D01*
X7718182Y-11558746D02*
X7718182Y-11549222D01*
X7718182Y-11549222D02*
X7727706Y-11530174D01*
X7727706Y-11530174D02*
X7746753Y-11520650D01*
X7746753Y-11520650D02*
X7775325Y-11520650D01*
X7775325Y-11520650D02*
X7794372Y-11530174D01*
X7870563Y-11730174D02*
X7880087Y-11720650D01*
X7880087Y-11720650D02*
X7899134Y-11692079D01*
X7899134Y-11692079D02*
X7908658Y-11673031D01*
X7908658Y-11673031D02*
X7918182Y-11644460D01*
X7918182Y-11644460D02*
X7927706Y-11596841D01*
X7927706Y-11596841D02*
X7927706Y-11558746D01*
X7927706Y-11558746D02*
X7918182Y-11511127D01*
X7918182Y-11511127D02*
X7908658Y-11482555D01*
X7908658Y-11482555D02*
X7899134Y-11463508D01*
X7899134Y-11463508D02*
X7880087Y-11434936D01*
X7880087Y-11434936D02*
X7870563Y-11425412D01*
D13*
X2985500Y-11771500D02*
X3095500Y-11881500D01*
X3095500Y-11771500D02*
X2985500Y-11881500D01*
X3040500Y-11771500D02*
X3040500Y-11881500D01*
X2985500Y-11826500D02*
X3095500Y-11826500D01*
D11*
X3461039Y-11917984D02*
X3346753Y-11917984D01*
X3403896Y-11917984D02*
X3403896Y-11717984D01*
X3403896Y-11717984D02*
X3384848Y-11746555D01*
X3384848Y-11746555D02*
X3365801Y-11765603D01*
X3365801Y-11765603D02*
X3346753Y-11775127D01*
X3546753Y-11898936D02*
X3556277Y-11908460D01*
X3556277Y-11908460D02*
X3546753Y-11917984D01*
X3546753Y-11917984D02*
X3537229Y-11908460D01*
X3537229Y-11908460D02*
X3546753Y-11898936D01*
X3546753Y-11898936D02*
X3546753Y-11917984D01*
X3746753Y-11917984D02*
X3632467Y-11917984D01*
X3689610Y-11917984D02*
X3689610Y-11717984D01*
X3689610Y-11717984D02*
X3670562Y-11746555D01*
X3670562Y-11746555D02*
X3651515Y-11765603D01*
X3651515Y-11765603D02*
X3632467Y-11775127D01*
X3870562Y-11717984D02*
X3889610Y-11717984D01*
X3889610Y-11717984D02*
X3908658Y-11727508D01*
X3908658Y-11727508D02*
X3918182Y-11737031D01*
X3918182Y-11737031D02*
X3927705Y-11756079D01*
X3927705Y-11756079D02*
X3937229Y-11794174D01*
X3937229Y-11794174D02*
X3937229Y-11841793D01*
X3937229Y-11841793D02*
X3927705Y-11879888D01*
X3927705Y-11879888D02*
X3918182Y-11898936D01*
X3918182Y-11898936D02*
X3908658Y-11908460D01*
X3908658Y-11908460D02*
X3889610Y-11917984D01*
X3889610Y-11917984D02*
X3870562Y-11917984D01*
X3870562Y-11917984D02*
X3851515Y-11908460D01*
X3851515Y-11908460D02*
X3841991Y-11898936D01*
X3841991Y-11898936D02*
X3832467Y-11879888D01*
X3832467Y-11879888D02*
X3822943Y-11841793D01*
X3822943Y-11841793D02*
X3822943Y-11794174D01*
X3822943Y-11794174D02*
X3832467Y-11756079D01*
X3832467Y-11756079D02*
X3841991Y-11737031D01*
X3841991Y-11737031D02*
X3851515Y-11727508D01*
X3851515Y-11727508D02*
X3870562Y-11717984D01*
X4061039Y-11717984D02*
X4080086Y-11717984D01*
X4080086Y-11717984D02*
X4099134Y-11727508D01*
X4099134Y-11727508D02*
X4108658Y-11737031D01*
X4108658Y-11737031D02*
X4118182Y-11756079D01*
X4118182Y-11756079D02*
X4127705Y-11794174D01*
X4127705Y-11794174D02*
X4127705Y-11841793D01*
X4127705Y-11841793D02*
X4118182Y-11879888D01*
X4118182Y-11879888D02*
X4108658Y-11898936D01*
X4108658Y-11898936D02*
X4099134Y-11908460D01*
X4099134Y-11908460D02*
X4080086Y-11917984D01*
X4080086Y-11917984D02*
X4061039Y-11917984D01*
X4061039Y-11917984D02*
X4041991Y-11908460D01*
X4041991Y-11908460D02*
X4032467Y-11898936D01*
X4032467Y-11898936D02*
X4022943Y-11879888D01*
X4022943Y-11879888D02*
X4013420Y-11841793D01*
X4013420Y-11841793D02*
X4013420Y-11794174D01*
X4013420Y-11794174D02*
X4022943Y-11756079D01*
X4022943Y-11756079D02*
X4032467Y-11737031D01*
X4032467Y-11737031D02*
X4041991Y-11727508D01*
X4041991Y-11727508D02*
X4061039Y-11717984D01*
X4213420Y-11917984D02*
X4213420Y-11784650D01*
X4213420Y-11803698D02*
X4222944Y-11794174D01*
X4222944Y-11794174D02*
X4241991Y-11784650D01*
X4241991Y-11784650D02*
X4270563Y-11784650D01*
X4270563Y-11784650D02*
X4289610Y-11794174D01*
X4289610Y-11794174D02*
X4299134Y-11813222D01*
X4299134Y-11813222D02*
X4299134Y-11917984D01*
X4299134Y-11813222D02*
X4308658Y-11794174D01*
X4308658Y-11794174D02*
X4327705Y-11784650D01*
X4327705Y-11784650D02*
X4356277Y-11784650D01*
X4356277Y-11784650D02*
X4375325Y-11794174D01*
X4375325Y-11794174D02*
X4384848Y-11813222D01*
X4384848Y-11813222D02*
X4384848Y-11917984D01*
X4480086Y-11917984D02*
X4480086Y-11784650D01*
X4480086Y-11803698D02*
X4489610Y-11794174D01*
X4489610Y-11794174D02*
X4508658Y-11784650D01*
X4508658Y-11784650D02*
X4537229Y-11784650D01*
X4537229Y-11784650D02*
X4556277Y-11794174D01*
X4556277Y-11794174D02*
X4565801Y-11813222D01*
X4565801Y-11813222D02*
X4565801Y-11917984D01*
X4565801Y-11813222D02*
X4575325Y-11794174D01*
X4575325Y-11794174D02*
X4594372Y-11784650D01*
X4594372Y-11784650D02*
X4622944Y-11784650D01*
X4622944Y-11784650D02*
X4641991Y-11794174D01*
X4641991Y-11794174D02*
X4651515Y-11813222D01*
X4651515Y-11813222D02*
X4651515Y-11917984D01*
X5041991Y-11708460D02*
X4870563Y-11965603D01*
X5299134Y-11717984D02*
X5318182Y-11717984D01*
X5318182Y-11717984D02*
X5337229Y-11727508D01*
X5337229Y-11727508D02*
X5346753Y-11737031D01*
X5346753Y-11737031D02*
X5356277Y-11756079D01*
X5356277Y-11756079D02*
X5365801Y-11794174D01*
X5365801Y-11794174D02*
X5365801Y-11841793D01*
X5365801Y-11841793D02*
X5356277Y-11879888D01*
X5356277Y-11879888D02*
X5346753Y-11898936D01*
X5346753Y-11898936D02*
X5337229Y-11908460D01*
X5337229Y-11908460D02*
X5318182Y-11917984D01*
X5318182Y-11917984D02*
X5299134Y-11917984D01*
X5299134Y-11917984D02*
X5280087Y-11908460D01*
X5280087Y-11908460D02*
X5270563Y-11898936D01*
X5270563Y-11898936D02*
X5261039Y-11879888D01*
X5261039Y-11879888D02*
X5251515Y-11841793D01*
X5251515Y-11841793D02*
X5251515Y-11794174D01*
X5251515Y-11794174D02*
X5261039Y-11756079D01*
X5261039Y-11756079D02*
X5270563Y-11737031D01*
X5270563Y-11737031D02*
X5280087Y-11727508D01*
X5280087Y-11727508D02*
X5299134Y-11717984D01*
X5451515Y-11898936D02*
X5461039Y-11908460D01*
X5461039Y-11908460D02*
X5451515Y-11917984D01*
X5451515Y-11917984D02*
X5441991Y-11908460D01*
X5441991Y-11908460D02*
X5451515Y-11898936D01*
X5451515Y-11898936D02*
X5451515Y-11917984D01*
X5584848Y-11717984D02*
X5603896Y-11717984D01*
X5603896Y-11717984D02*
X5622944Y-11727508D01*
X5622944Y-11727508D02*
X5632467Y-11737031D01*
X5632467Y-11737031D02*
X5641991Y-11756079D01*
X5641991Y-11756079D02*
X5651515Y-11794174D01*
X5651515Y-11794174D02*
X5651515Y-11841793D01*
X5651515Y-11841793D02*
X5641991Y-11879888D01*
X5641991Y-11879888D02*
X5632467Y-11898936D01*
X5632467Y-11898936D02*
X5622944Y-11908460D01*
X5622944Y-11908460D02*
X5603896Y-11917984D01*
X5603896Y-11917984D02*
X5584848Y-11917984D01*
X5584848Y-11917984D02*
X5565801Y-11908460D01*
X5565801Y-11908460D02*
X5556277Y-11898936D01*
X5556277Y-11898936D02*
X5546753Y-11879888D01*
X5546753Y-11879888D02*
X5537229Y-11841793D01*
X5537229Y-11841793D02*
X5537229Y-11794174D01*
X5537229Y-11794174D02*
X5546753Y-11756079D01*
X5546753Y-11756079D02*
X5556277Y-11737031D01*
X5556277Y-11737031D02*
X5565801Y-11727508D01*
X5565801Y-11727508D02*
X5584848Y-11717984D01*
X5822944Y-11784650D02*
X5822944Y-11917984D01*
X5775325Y-11708460D02*
X5727706Y-11851317D01*
X5727706Y-11851317D02*
X5851515Y-11851317D01*
X5908658Y-11717984D02*
X6032467Y-11717984D01*
X6032467Y-11717984D02*
X5965801Y-11794174D01*
X5965801Y-11794174D02*
X5994372Y-11794174D01*
X5994372Y-11794174D02*
X6013420Y-11803698D01*
X6013420Y-11803698D02*
X6022944Y-11813222D01*
X6022944Y-11813222D02*
X6032467Y-11832269D01*
X6032467Y-11832269D02*
X6032467Y-11879888D01*
X6032467Y-11879888D02*
X6022944Y-11898936D01*
X6022944Y-11898936D02*
X6013420Y-11908460D01*
X6013420Y-11908460D02*
X5994372Y-11917984D01*
X5994372Y-11917984D02*
X5937229Y-11917984D01*
X5937229Y-11917984D02*
X5918182Y-11908460D01*
X5918182Y-11908460D02*
X5908658Y-11898936D01*
X6099134Y-11717984D02*
X6222944Y-11717984D01*
X6222944Y-11717984D02*
X6156277Y-11794174D01*
X6156277Y-11794174D02*
X6184848Y-11794174D01*
X6184848Y-11794174D02*
X6203896Y-11803698D01*
X6203896Y-11803698D02*
X6213420Y-11813222D01*
X6213420Y-11813222D02*
X6222944Y-11832269D01*
X6222944Y-11832269D02*
X6222944Y-11879888D01*
X6222944Y-11879888D02*
X6213420Y-11898936D01*
X6213420Y-11898936D02*
X6203896Y-11908460D01*
X6203896Y-11908460D02*
X6184848Y-11917984D01*
X6184848Y-11917984D02*
X6127706Y-11917984D01*
X6127706Y-11917984D02*
X6108658Y-11908460D01*
X6108658Y-11908460D02*
X6099134Y-11898936D01*
X6299134Y-11717984D02*
X6299134Y-11756079D01*
X6375325Y-11717984D02*
X6375325Y-11756079D01*
X6670563Y-11994174D02*
X6661039Y-11984650D01*
X6661039Y-11984650D02*
X6641991Y-11956079D01*
X6641991Y-11956079D02*
X6632468Y-11937031D01*
X6632468Y-11937031D02*
X6622944Y-11908460D01*
X6622944Y-11908460D02*
X6613420Y-11860841D01*
X6613420Y-11860841D02*
X6613420Y-11822746D01*
X6613420Y-11822746D02*
X6622944Y-11775127D01*
X6622944Y-11775127D02*
X6632468Y-11746555D01*
X6632468Y-11746555D02*
X6641991Y-11727508D01*
X6641991Y-11727508D02*
X6661039Y-11698936D01*
X6661039Y-11698936D02*
X6670563Y-11689412D01*
X6841991Y-11717984D02*
X6746753Y-11717984D01*
X6746753Y-11717984D02*
X6737229Y-11813222D01*
X6737229Y-11813222D02*
X6746753Y-11803698D01*
X6746753Y-11803698D02*
X6765801Y-11794174D01*
X6765801Y-11794174D02*
X6813420Y-11794174D01*
X6813420Y-11794174D02*
X6832468Y-11803698D01*
X6832468Y-11803698D02*
X6841991Y-11813222D01*
X6841991Y-11813222D02*
X6851515Y-11832269D01*
X6851515Y-11832269D02*
X6851515Y-11879888D01*
X6851515Y-11879888D02*
X6841991Y-11898936D01*
X6841991Y-11898936D02*
X6832468Y-11908460D01*
X6832468Y-11908460D02*
X6813420Y-11917984D01*
X6813420Y-11917984D02*
X6765801Y-11917984D01*
X6765801Y-11917984D02*
X6746753Y-11908460D01*
X6746753Y-11908460D02*
X6737229Y-11898936D01*
X6946753Y-11917984D02*
X6984848Y-11917984D01*
X6984848Y-11917984D02*
X7003896Y-11908460D01*
X7003896Y-11908460D02*
X7013420Y-11898936D01*
X7013420Y-11898936D02*
X7032468Y-11870365D01*
X7032468Y-11870365D02*
X7041991Y-11832269D01*
X7041991Y-11832269D02*
X7041991Y-11756079D01*
X7041991Y-11756079D02*
X7032468Y-11737031D01*
X7032468Y-11737031D02*
X7022944Y-11727508D01*
X7022944Y-11727508D02*
X7003896Y-11717984D01*
X7003896Y-11717984D02*
X6965801Y-11717984D01*
X6965801Y-11717984D02*
X6946753Y-11727508D01*
X6946753Y-11727508D02*
X6937229Y-11737031D01*
X6937229Y-11737031D02*
X6927706Y-11756079D01*
X6927706Y-11756079D02*
X6927706Y-11803698D01*
X6927706Y-11803698D02*
X6937229Y-11822746D01*
X6937229Y-11822746D02*
X6946753Y-11832269D01*
X6946753Y-11832269D02*
X6965801Y-11841793D01*
X6965801Y-11841793D02*
X7003896Y-11841793D01*
X7003896Y-11841793D02*
X7022944Y-11832269D01*
X7022944Y-11832269D02*
X7032468Y-11822746D01*
X7032468Y-11822746D02*
X7041991Y-11803698D01*
X7280087Y-11917984D02*
X7280087Y-11717984D01*
X7365801Y-11917984D02*
X7365801Y-11813222D01*
X7365801Y-11813222D02*
X7356277Y-11794174D01*
X7356277Y-11794174D02*
X7337230Y-11784650D01*
X7337230Y-11784650D02*
X7308658Y-11784650D01*
X7308658Y-11784650D02*
X7289610Y-11794174D01*
X7289610Y-11794174D02*
X7280087Y-11803698D01*
X7489610Y-11917984D02*
X7470563Y-11908460D01*
X7470563Y-11908460D02*
X7461039Y-11898936D01*
X7461039Y-11898936D02*
X7451515Y-11879888D01*
X7451515Y-11879888D02*
X7451515Y-11822746D01*
X7451515Y-11822746D02*
X7461039Y-11803698D01*
X7461039Y-11803698D02*
X7470563Y-11794174D01*
X7470563Y-11794174D02*
X7489610Y-11784650D01*
X7489610Y-11784650D02*
X7518182Y-11784650D01*
X7518182Y-11784650D02*
X7537230Y-11794174D01*
X7537230Y-11794174D02*
X7546753Y-11803698D01*
X7546753Y-11803698D02*
X7556277Y-11822746D01*
X7556277Y-11822746D02*
X7556277Y-11879888D01*
X7556277Y-11879888D02*
X7546753Y-11898936D01*
X7546753Y-11898936D02*
X7537230Y-11908460D01*
X7537230Y-11908460D02*
X7518182Y-11917984D01*
X7518182Y-11917984D02*
X7489610Y-11917984D01*
X7670563Y-11917984D02*
X7651515Y-11908460D01*
X7651515Y-11908460D02*
X7641991Y-11889412D01*
X7641991Y-11889412D02*
X7641991Y-11717984D01*
X7822944Y-11908460D02*
X7803896Y-11917984D01*
X7803896Y-11917984D02*
X7765801Y-11917984D01*
X7765801Y-11917984D02*
X7746753Y-11908460D01*
X7746753Y-11908460D02*
X7737230Y-11889412D01*
X7737230Y-11889412D02*
X7737230Y-11813222D01*
X7737230Y-11813222D02*
X7746753Y-11794174D01*
X7746753Y-11794174D02*
X7765801Y-11784650D01*
X7765801Y-11784650D02*
X7803896Y-11784650D01*
X7803896Y-11784650D02*
X7822944Y-11794174D01*
X7822944Y-11794174D02*
X7832468Y-11813222D01*
X7832468Y-11813222D02*
X7832468Y-11832269D01*
X7832468Y-11832269D02*
X7737230Y-11851317D01*
X7908658Y-11908460D02*
X7927706Y-11917984D01*
X7927706Y-11917984D02*
X7965801Y-11917984D01*
X7965801Y-11917984D02*
X7984849Y-11908460D01*
X7984849Y-11908460D02*
X7994372Y-11889412D01*
X7994372Y-11889412D02*
X7994372Y-11879888D01*
X7994372Y-11879888D02*
X7984849Y-11860841D01*
X7984849Y-11860841D02*
X7965801Y-11851317D01*
X7965801Y-11851317D02*
X7937230Y-11851317D01*
X7937230Y-11851317D02*
X7918182Y-11841793D01*
X7918182Y-11841793D02*
X7908658Y-11822746D01*
X7908658Y-11822746D02*
X7908658Y-11813222D01*
X7908658Y-11813222D02*
X7918182Y-11794174D01*
X7918182Y-11794174D02*
X7937230Y-11784650D01*
X7937230Y-11784650D02*
X7965801Y-11784650D01*
X7965801Y-11784650D02*
X7984849Y-11794174D01*
X8061039Y-11994174D02*
X8070563Y-11984650D01*
X8070563Y-11984650D02*
X8089611Y-11956079D01*
X8089611Y-11956079D02*
X8099134Y-11937031D01*
X8099134Y-11937031D02*
X8108658Y-11908460D01*
X8108658Y-11908460D02*
X8118182Y-11860841D01*
X8118182Y-11860841D02*
X8118182Y-11822746D01*
X8118182Y-11822746D02*
X8108658Y-11775127D01*
X8108658Y-11775127D02*
X8099134Y-11746555D01*
X8099134Y-11746555D02*
X8089611Y-11727508D01*
X8089611Y-11727508D02*
X8070563Y-11698936D01*
X8070563Y-11698936D02*
X8061039Y-11689412D01*
D14*
X2965500Y-12025500D02*
X3095500Y-12155500D01*
X3095500Y-12025500D02*
X2965500Y-12155500D01*
X3076462Y-12136462D02*
X3076462Y-12044538D01*
X2984538Y-12044538D01*
X2984538Y-12136462D01*
X3076462Y-12136462D01*
D11*
X3461039Y-12181984D02*
X3346753Y-12181984D01*
X3403896Y-12181984D02*
X3403896Y-11981984D01*
X3403896Y-11981984D02*
X3384848Y-12010555D01*
X3384848Y-12010555D02*
X3365801Y-12029603D01*
X3365801Y-12029603D02*
X3346753Y-12039127D01*
X3546753Y-12162936D02*
X3556277Y-12172460D01*
X3556277Y-12172460D02*
X3546753Y-12181984D01*
X3546753Y-12181984D02*
X3537229Y-12172460D01*
X3537229Y-12172460D02*
X3546753Y-12162936D01*
X3546753Y-12162936D02*
X3546753Y-12181984D01*
X3622943Y-11981984D02*
X3746753Y-11981984D01*
X3746753Y-11981984D02*
X3680086Y-12058174D01*
X3680086Y-12058174D02*
X3708658Y-12058174D01*
X3708658Y-12058174D02*
X3727705Y-12067698D01*
X3727705Y-12067698D02*
X3737229Y-12077222D01*
X3737229Y-12077222D02*
X3746753Y-12096269D01*
X3746753Y-12096269D02*
X3746753Y-12143888D01*
X3746753Y-12143888D02*
X3737229Y-12162936D01*
X3737229Y-12162936D02*
X3727705Y-12172460D01*
X3727705Y-12172460D02*
X3708658Y-12181984D01*
X3708658Y-12181984D02*
X3651515Y-12181984D01*
X3651515Y-12181984D02*
X3632467Y-12172460D01*
X3632467Y-12172460D02*
X3622943Y-12162936D01*
X3870562Y-11981984D02*
X3889610Y-11981984D01*
X3889610Y-11981984D02*
X3908658Y-11991508D01*
X3908658Y-11991508D02*
X3918182Y-12001031D01*
X3918182Y-12001031D02*
X3927705Y-12020079D01*
X3927705Y-12020079D02*
X3937229Y-12058174D01*
X3937229Y-12058174D02*
X3937229Y-12105793D01*
X3937229Y-12105793D02*
X3927705Y-12143888D01*
X3927705Y-12143888D02*
X3918182Y-12162936D01*
X3918182Y-12162936D02*
X3908658Y-12172460D01*
X3908658Y-12172460D02*
X3889610Y-12181984D01*
X3889610Y-12181984D02*
X3870562Y-12181984D01*
X3870562Y-12181984D02*
X3851515Y-12172460D01*
X3851515Y-12172460D02*
X3841991Y-12162936D01*
X3841991Y-12162936D02*
X3832467Y-12143888D01*
X3832467Y-12143888D02*
X3822943Y-12105793D01*
X3822943Y-12105793D02*
X3822943Y-12058174D01*
X3822943Y-12058174D02*
X3832467Y-12020079D01*
X3832467Y-12020079D02*
X3841991Y-12001031D01*
X3841991Y-12001031D02*
X3851515Y-11991508D01*
X3851515Y-11991508D02*
X3870562Y-11981984D01*
X4061039Y-11981984D02*
X4080086Y-11981984D01*
X4080086Y-11981984D02*
X4099134Y-11991508D01*
X4099134Y-11991508D02*
X4108658Y-12001031D01*
X4108658Y-12001031D02*
X4118182Y-12020079D01*
X4118182Y-12020079D02*
X4127705Y-12058174D01*
X4127705Y-12058174D02*
X4127705Y-12105793D01*
X4127705Y-12105793D02*
X4118182Y-12143888D01*
X4118182Y-12143888D02*
X4108658Y-12162936D01*
X4108658Y-12162936D02*
X4099134Y-12172460D01*
X4099134Y-12172460D02*
X4080086Y-12181984D01*
X4080086Y-12181984D02*
X4061039Y-12181984D01*
X4061039Y-12181984D02*
X4041991Y-12172460D01*
X4041991Y-12172460D02*
X4032467Y-12162936D01*
X4032467Y-12162936D02*
X4022943Y-12143888D01*
X4022943Y-12143888D02*
X4013420Y-12105793D01*
X4013420Y-12105793D02*
X4013420Y-12058174D01*
X4013420Y-12058174D02*
X4022943Y-12020079D01*
X4022943Y-12020079D02*
X4032467Y-12001031D01*
X4032467Y-12001031D02*
X4041991Y-11991508D01*
X4041991Y-11991508D02*
X4061039Y-11981984D01*
X4213420Y-12181984D02*
X4213420Y-12048650D01*
X4213420Y-12067698D02*
X4222944Y-12058174D01*
X4222944Y-12058174D02*
X4241991Y-12048650D01*
X4241991Y-12048650D02*
X4270563Y-12048650D01*
X4270563Y-12048650D02*
X4289610Y-12058174D01*
X4289610Y-12058174D02*
X4299134Y-12077222D01*
X4299134Y-12077222D02*
X4299134Y-12181984D01*
X4299134Y-12077222D02*
X4308658Y-12058174D01*
X4308658Y-12058174D02*
X4327705Y-12048650D01*
X4327705Y-12048650D02*
X4356277Y-12048650D01*
X4356277Y-12048650D02*
X4375325Y-12058174D01*
X4375325Y-12058174D02*
X4384848Y-12077222D01*
X4384848Y-12077222D02*
X4384848Y-12181984D01*
X4480086Y-12181984D02*
X4480086Y-12048650D01*
X4480086Y-12067698D02*
X4489610Y-12058174D01*
X4489610Y-12058174D02*
X4508658Y-12048650D01*
X4508658Y-12048650D02*
X4537229Y-12048650D01*
X4537229Y-12048650D02*
X4556277Y-12058174D01*
X4556277Y-12058174D02*
X4565801Y-12077222D01*
X4565801Y-12077222D02*
X4565801Y-12181984D01*
X4565801Y-12077222D02*
X4575325Y-12058174D01*
X4575325Y-12058174D02*
X4594372Y-12048650D01*
X4594372Y-12048650D02*
X4622944Y-12048650D01*
X4622944Y-12048650D02*
X4641991Y-12058174D01*
X4641991Y-12058174D02*
X4651515Y-12077222D01*
X4651515Y-12077222D02*
X4651515Y-12181984D01*
X5041991Y-11972460D02*
X4870563Y-12229603D01*
X5299134Y-11981984D02*
X5318182Y-11981984D01*
X5318182Y-11981984D02*
X5337229Y-11991508D01*
X5337229Y-11991508D02*
X5346753Y-12001031D01*
X5346753Y-12001031D02*
X5356277Y-12020079D01*
X5356277Y-12020079D02*
X5365801Y-12058174D01*
X5365801Y-12058174D02*
X5365801Y-12105793D01*
X5365801Y-12105793D02*
X5356277Y-12143888D01*
X5356277Y-12143888D02*
X5346753Y-12162936D01*
X5346753Y-12162936D02*
X5337229Y-12172460D01*
X5337229Y-12172460D02*
X5318182Y-12181984D01*
X5318182Y-12181984D02*
X5299134Y-12181984D01*
X5299134Y-12181984D02*
X5280087Y-12172460D01*
X5280087Y-12172460D02*
X5270563Y-12162936D01*
X5270563Y-12162936D02*
X5261039Y-12143888D01*
X5261039Y-12143888D02*
X5251515Y-12105793D01*
X5251515Y-12105793D02*
X5251515Y-12058174D01*
X5251515Y-12058174D02*
X5261039Y-12020079D01*
X5261039Y-12020079D02*
X5270563Y-12001031D01*
X5270563Y-12001031D02*
X5280087Y-11991508D01*
X5280087Y-11991508D02*
X5299134Y-11981984D01*
X5451515Y-12162936D02*
X5461039Y-12172460D01*
X5461039Y-12172460D02*
X5451515Y-12181984D01*
X5451515Y-12181984D02*
X5441991Y-12172460D01*
X5441991Y-12172460D02*
X5451515Y-12162936D01*
X5451515Y-12162936D02*
X5451515Y-12181984D01*
X5584848Y-11981984D02*
X5603896Y-11981984D01*
X5603896Y-11981984D02*
X5622944Y-11991508D01*
X5622944Y-11991508D02*
X5632467Y-12001031D01*
X5632467Y-12001031D02*
X5641991Y-12020079D01*
X5641991Y-12020079D02*
X5651515Y-12058174D01*
X5651515Y-12058174D02*
X5651515Y-12105793D01*
X5651515Y-12105793D02*
X5641991Y-12143888D01*
X5641991Y-12143888D02*
X5632467Y-12162936D01*
X5632467Y-12162936D02*
X5622944Y-12172460D01*
X5622944Y-12172460D02*
X5603896Y-12181984D01*
X5603896Y-12181984D02*
X5584848Y-12181984D01*
X5584848Y-12181984D02*
X5565801Y-12172460D01*
X5565801Y-12172460D02*
X5556277Y-12162936D01*
X5556277Y-12162936D02*
X5546753Y-12143888D01*
X5546753Y-12143888D02*
X5537229Y-12105793D01*
X5537229Y-12105793D02*
X5537229Y-12058174D01*
X5537229Y-12058174D02*
X5546753Y-12020079D01*
X5546753Y-12020079D02*
X5556277Y-12001031D01*
X5556277Y-12001031D02*
X5565801Y-11991508D01*
X5565801Y-11991508D02*
X5584848Y-11981984D01*
X5832467Y-11981984D02*
X5737229Y-11981984D01*
X5737229Y-11981984D02*
X5727706Y-12077222D01*
X5727706Y-12077222D02*
X5737229Y-12067698D01*
X5737229Y-12067698D02*
X5756277Y-12058174D01*
X5756277Y-12058174D02*
X5803896Y-12058174D01*
X5803896Y-12058174D02*
X5822944Y-12067698D01*
X5822944Y-12067698D02*
X5832467Y-12077222D01*
X5832467Y-12077222D02*
X5841991Y-12096269D01*
X5841991Y-12096269D02*
X5841991Y-12143888D01*
X5841991Y-12143888D02*
X5832467Y-12162936D01*
X5832467Y-12162936D02*
X5822944Y-12172460D01*
X5822944Y-12172460D02*
X5803896Y-12181984D01*
X5803896Y-12181984D02*
X5756277Y-12181984D01*
X5756277Y-12181984D02*
X5737229Y-12172460D01*
X5737229Y-12172460D02*
X5727706Y-12162936D01*
X6032467Y-12181984D02*
X5918182Y-12181984D01*
X5975325Y-12181984D02*
X5975325Y-11981984D01*
X5975325Y-11981984D02*
X5956277Y-12010555D01*
X5956277Y-12010555D02*
X5937229Y-12029603D01*
X5937229Y-12029603D02*
X5918182Y-12039127D01*
X6108658Y-12001031D02*
X6118182Y-11991508D01*
X6118182Y-11991508D02*
X6137229Y-11981984D01*
X6137229Y-11981984D02*
X6184848Y-11981984D01*
X6184848Y-11981984D02*
X6203896Y-11991508D01*
X6203896Y-11991508D02*
X6213420Y-12001031D01*
X6213420Y-12001031D02*
X6222944Y-12020079D01*
X6222944Y-12020079D02*
X6222944Y-12039127D01*
X6222944Y-12039127D02*
X6213420Y-12067698D01*
X6213420Y-12067698D02*
X6099134Y-12181984D01*
X6099134Y-12181984D02*
X6222944Y-12181984D01*
X6299134Y-11981984D02*
X6299134Y-12020079D01*
X6375325Y-11981984D02*
X6375325Y-12020079D01*
X6670563Y-12258174D02*
X6661039Y-12248650D01*
X6661039Y-12248650D02*
X6641991Y-12220079D01*
X6641991Y-12220079D02*
X6632468Y-12201031D01*
X6632468Y-12201031D02*
X6622944Y-12172460D01*
X6622944Y-12172460D02*
X6613420Y-12124841D01*
X6613420Y-12124841D02*
X6613420Y-12086746D01*
X6613420Y-12086746D02*
X6622944Y-12039127D01*
X6622944Y-12039127D02*
X6632468Y-12010555D01*
X6632468Y-12010555D02*
X6641991Y-11991508D01*
X6641991Y-11991508D02*
X6661039Y-11962936D01*
X6661039Y-11962936D02*
X6670563Y-11953412D01*
X6832468Y-12048650D02*
X6832468Y-12181984D01*
X6784848Y-11972460D02*
X6737229Y-12115317D01*
X6737229Y-12115317D02*
X6861039Y-12115317D01*
X7089610Y-12181984D02*
X7089610Y-11981984D01*
X7175325Y-12181984D02*
X7175325Y-12077222D01*
X7175325Y-12077222D02*
X7165801Y-12058174D01*
X7165801Y-12058174D02*
X7146753Y-12048650D01*
X7146753Y-12048650D02*
X7118182Y-12048650D01*
X7118182Y-12048650D02*
X7099134Y-12058174D01*
X7099134Y-12058174D02*
X7089610Y-12067698D01*
X7299134Y-12181984D02*
X7280087Y-12172460D01*
X7280087Y-12172460D02*
X7270563Y-12162936D01*
X7270563Y-12162936D02*
X7261039Y-12143888D01*
X7261039Y-12143888D02*
X7261039Y-12086746D01*
X7261039Y-12086746D02*
X7270563Y-12067698D01*
X7270563Y-12067698D02*
X7280087Y-12058174D01*
X7280087Y-12058174D02*
X7299134Y-12048650D01*
X7299134Y-12048650D02*
X7327706Y-12048650D01*
X7327706Y-12048650D02*
X7346753Y-12058174D01*
X7346753Y-12058174D02*
X7356277Y-12067698D01*
X7356277Y-12067698D02*
X7365801Y-12086746D01*
X7365801Y-12086746D02*
X7365801Y-12143888D01*
X7365801Y-12143888D02*
X7356277Y-12162936D01*
X7356277Y-12162936D02*
X7346753Y-12172460D01*
X7346753Y-12172460D02*
X7327706Y-12181984D01*
X7327706Y-12181984D02*
X7299134Y-12181984D01*
X7480087Y-12181984D02*
X7461039Y-12172460D01*
X7461039Y-12172460D02*
X7451515Y-12153412D01*
X7451515Y-12153412D02*
X7451515Y-11981984D01*
X7632468Y-12172460D02*
X7613420Y-12181984D01*
X7613420Y-12181984D02*
X7575325Y-12181984D01*
X7575325Y-12181984D02*
X7556277Y-12172460D01*
X7556277Y-12172460D02*
X7546753Y-12153412D01*
X7546753Y-12153412D02*
X7546753Y-12077222D01*
X7546753Y-12077222D02*
X7556277Y-12058174D01*
X7556277Y-12058174D02*
X7575325Y-12048650D01*
X7575325Y-12048650D02*
X7613420Y-12048650D01*
X7613420Y-12048650D02*
X7632468Y-12058174D01*
X7632468Y-12058174D02*
X7641991Y-12077222D01*
X7641991Y-12077222D02*
X7641991Y-12096269D01*
X7641991Y-12096269D02*
X7546753Y-12115317D01*
X7718182Y-12172460D02*
X7737230Y-12181984D01*
X7737230Y-12181984D02*
X7775325Y-12181984D01*
X7775325Y-12181984D02*
X7794372Y-12172460D01*
X7794372Y-12172460D02*
X7803896Y-12153412D01*
X7803896Y-12153412D02*
X7803896Y-12143888D01*
X7803896Y-12143888D02*
X7794372Y-12124841D01*
X7794372Y-12124841D02*
X7775325Y-12115317D01*
X7775325Y-12115317D02*
X7746753Y-12115317D01*
X7746753Y-12115317D02*
X7727706Y-12105793D01*
X7727706Y-12105793D02*
X7718182Y-12086746D01*
X7718182Y-12086746D02*
X7718182Y-12077222D01*
X7718182Y-12077222D02*
X7727706Y-12058174D01*
X7727706Y-12058174D02*
X7746753Y-12048650D01*
X7746753Y-12048650D02*
X7775325Y-12048650D01*
X7775325Y-12048650D02*
X7794372Y-12058174D01*
X7870563Y-12258174D02*
X7880087Y-12248650D01*
X7880087Y-12248650D02*
X7899134Y-12220079D01*
X7899134Y-12220079D02*
X7908658Y-12201031D01*
X7908658Y-12201031D02*
X7918182Y-12172460D01*
X7918182Y-12172460D02*
X7927706Y-12124841D01*
X7927706Y-12124841D02*
X7927706Y-12086746D01*
X7927706Y-12086746D02*
X7918182Y-12039127D01*
X7918182Y-12039127D02*
X7908658Y-12010555D01*
X7908658Y-12010555D02*
X7899134Y-11991508D01*
X7899134Y-11991508D02*
X7880087Y-11962936D01*
X7880087Y-11962936D02*
X7870563Y-11953412D01*
D15*
X2955500Y-12284500D02*
X3095500Y-12424500D01*
X3095500Y-12284500D02*
X2955500Y-12424500D01*
X3025500Y-12424500D02*
X3095500Y-12354500D01*
X3025500Y-12284500D01*
X2955500Y-12354500D01*
X3025500Y-12424500D01*
D11*
X3461039Y-12445984D02*
X3346753Y-12445984D01*
X3403896Y-12445984D02*
X3403896Y-12245984D01*
X3403896Y-12245984D02*
X3384848Y-12274555D01*
X3384848Y-12274555D02*
X3365801Y-12293603D01*
X3365801Y-12293603D02*
X3346753Y-12303127D01*
X3546753Y-12426936D02*
X3556277Y-12436460D01*
X3556277Y-12436460D02*
X3546753Y-12445984D01*
X3546753Y-12445984D02*
X3537229Y-12436460D01*
X3537229Y-12436460D02*
X3546753Y-12426936D01*
X3546753Y-12426936D02*
X3546753Y-12445984D01*
X3727705Y-12312650D02*
X3727705Y-12445984D01*
X3680086Y-12236460D02*
X3632467Y-12379317D01*
X3632467Y-12379317D02*
X3756277Y-12379317D01*
X3870562Y-12245984D02*
X3889610Y-12245984D01*
X3889610Y-12245984D02*
X3908658Y-12255508D01*
X3908658Y-12255508D02*
X3918182Y-12265031D01*
X3918182Y-12265031D02*
X3927705Y-12284079D01*
X3927705Y-12284079D02*
X3937229Y-12322174D01*
X3937229Y-12322174D02*
X3937229Y-12369793D01*
X3937229Y-12369793D02*
X3927705Y-12407888D01*
X3927705Y-12407888D02*
X3918182Y-12426936D01*
X3918182Y-12426936D02*
X3908658Y-12436460D01*
X3908658Y-12436460D02*
X3889610Y-12445984D01*
X3889610Y-12445984D02*
X3870562Y-12445984D01*
X3870562Y-12445984D02*
X3851515Y-12436460D01*
X3851515Y-12436460D02*
X3841991Y-12426936D01*
X3841991Y-12426936D02*
X3832467Y-12407888D01*
X3832467Y-12407888D02*
X3822943Y-12369793D01*
X3822943Y-12369793D02*
X3822943Y-12322174D01*
X3822943Y-12322174D02*
X3832467Y-12284079D01*
X3832467Y-12284079D02*
X3841991Y-12265031D01*
X3841991Y-12265031D02*
X3851515Y-12255508D01*
X3851515Y-12255508D02*
X3870562Y-12245984D01*
X4061039Y-12245984D02*
X4080086Y-12245984D01*
X4080086Y-12245984D02*
X4099134Y-12255508D01*
X4099134Y-12255508D02*
X4108658Y-12265031D01*
X4108658Y-12265031D02*
X4118182Y-12284079D01*
X4118182Y-12284079D02*
X4127705Y-12322174D01*
X4127705Y-12322174D02*
X4127705Y-12369793D01*
X4127705Y-12369793D02*
X4118182Y-12407888D01*
X4118182Y-12407888D02*
X4108658Y-12426936D01*
X4108658Y-12426936D02*
X4099134Y-12436460D01*
X4099134Y-12436460D02*
X4080086Y-12445984D01*
X4080086Y-12445984D02*
X4061039Y-12445984D01*
X4061039Y-12445984D02*
X4041991Y-12436460D01*
X4041991Y-12436460D02*
X4032467Y-12426936D01*
X4032467Y-12426936D02*
X4022943Y-12407888D01*
X4022943Y-12407888D02*
X4013420Y-12369793D01*
X4013420Y-12369793D02*
X4013420Y-12322174D01*
X4013420Y-12322174D02*
X4022943Y-12284079D01*
X4022943Y-12284079D02*
X4032467Y-12265031D01*
X4032467Y-12265031D02*
X4041991Y-12255508D01*
X4041991Y-12255508D02*
X4061039Y-12245984D01*
X4213420Y-12445984D02*
X4213420Y-12312650D01*
X4213420Y-12331698D02*
X4222944Y-12322174D01*
X4222944Y-12322174D02*
X4241991Y-12312650D01*
X4241991Y-12312650D02*
X4270563Y-12312650D01*
X4270563Y-12312650D02*
X4289610Y-12322174D01*
X4289610Y-12322174D02*
X4299134Y-12341222D01*
X4299134Y-12341222D02*
X4299134Y-12445984D01*
X4299134Y-12341222D02*
X4308658Y-12322174D01*
X4308658Y-12322174D02*
X4327705Y-12312650D01*
X4327705Y-12312650D02*
X4356277Y-12312650D01*
X4356277Y-12312650D02*
X4375325Y-12322174D01*
X4375325Y-12322174D02*
X4384848Y-12341222D01*
X4384848Y-12341222D02*
X4384848Y-12445984D01*
X4480086Y-12445984D02*
X4480086Y-12312650D01*
X4480086Y-12331698D02*
X4489610Y-12322174D01*
X4489610Y-12322174D02*
X4508658Y-12312650D01*
X4508658Y-12312650D02*
X4537229Y-12312650D01*
X4537229Y-12312650D02*
X4556277Y-12322174D01*
X4556277Y-12322174D02*
X4565801Y-12341222D01*
X4565801Y-12341222D02*
X4565801Y-12445984D01*
X4565801Y-12341222D02*
X4575325Y-12322174D01*
X4575325Y-12322174D02*
X4594372Y-12312650D01*
X4594372Y-12312650D02*
X4622944Y-12312650D01*
X4622944Y-12312650D02*
X4641991Y-12322174D01*
X4641991Y-12322174D02*
X4651515Y-12341222D01*
X4651515Y-12341222D02*
X4651515Y-12445984D01*
X5041991Y-12236460D02*
X4870563Y-12493603D01*
X5299134Y-12245984D02*
X5318182Y-12245984D01*
X5318182Y-12245984D02*
X5337229Y-12255508D01*
X5337229Y-12255508D02*
X5346753Y-12265031D01*
X5346753Y-12265031D02*
X5356277Y-12284079D01*
X5356277Y-12284079D02*
X5365801Y-12322174D01*
X5365801Y-12322174D02*
X5365801Y-12369793D01*
X5365801Y-12369793D02*
X5356277Y-12407888D01*
X5356277Y-12407888D02*
X5346753Y-12426936D01*
X5346753Y-12426936D02*
X5337229Y-12436460D01*
X5337229Y-12436460D02*
X5318182Y-12445984D01*
X5318182Y-12445984D02*
X5299134Y-12445984D01*
X5299134Y-12445984D02*
X5280087Y-12436460D01*
X5280087Y-12436460D02*
X5270563Y-12426936D01*
X5270563Y-12426936D02*
X5261039Y-12407888D01*
X5261039Y-12407888D02*
X5251515Y-12369793D01*
X5251515Y-12369793D02*
X5251515Y-12322174D01*
X5251515Y-12322174D02*
X5261039Y-12284079D01*
X5261039Y-12284079D02*
X5270563Y-12265031D01*
X5270563Y-12265031D02*
X5280087Y-12255508D01*
X5280087Y-12255508D02*
X5299134Y-12245984D01*
X5451515Y-12426936D02*
X5461039Y-12436460D01*
X5461039Y-12436460D02*
X5451515Y-12445984D01*
X5451515Y-12445984D02*
X5441991Y-12436460D01*
X5441991Y-12436460D02*
X5451515Y-12426936D01*
X5451515Y-12426936D02*
X5451515Y-12445984D01*
X5584848Y-12245984D02*
X5603896Y-12245984D01*
X5603896Y-12245984D02*
X5622944Y-12255508D01*
X5622944Y-12255508D02*
X5632467Y-12265031D01*
X5632467Y-12265031D02*
X5641991Y-12284079D01*
X5641991Y-12284079D02*
X5651515Y-12322174D01*
X5651515Y-12322174D02*
X5651515Y-12369793D01*
X5651515Y-12369793D02*
X5641991Y-12407888D01*
X5641991Y-12407888D02*
X5632467Y-12426936D01*
X5632467Y-12426936D02*
X5622944Y-12436460D01*
X5622944Y-12436460D02*
X5603896Y-12445984D01*
X5603896Y-12445984D02*
X5584848Y-12445984D01*
X5584848Y-12445984D02*
X5565801Y-12436460D01*
X5565801Y-12436460D02*
X5556277Y-12426936D01*
X5556277Y-12426936D02*
X5546753Y-12407888D01*
X5546753Y-12407888D02*
X5537229Y-12369793D01*
X5537229Y-12369793D02*
X5537229Y-12322174D01*
X5537229Y-12322174D02*
X5546753Y-12284079D01*
X5546753Y-12284079D02*
X5556277Y-12265031D01*
X5556277Y-12265031D02*
X5565801Y-12255508D01*
X5565801Y-12255508D02*
X5584848Y-12245984D01*
X5832467Y-12245984D02*
X5737229Y-12245984D01*
X5737229Y-12245984D02*
X5727706Y-12341222D01*
X5727706Y-12341222D02*
X5737229Y-12331698D01*
X5737229Y-12331698D02*
X5756277Y-12322174D01*
X5756277Y-12322174D02*
X5803896Y-12322174D01*
X5803896Y-12322174D02*
X5822944Y-12331698D01*
X5822944Y-12331698D02*
X5832467Y-12341222D01*
X5832467Y-12341222D02*
X5841991Y-12360269D01*
X5841991Y-12360269D02*
X5841991Y-12407888D01*
X5841991Y-12407888D02*
X5832467Y-12426936D01*
X5832467Y-12426936D02*
X5822944Y-12436460D01*
X5822944Y-12436460D02*
X5803896Y-12445984D01*
X5803896Y-12445984D02*
X5756277Y-12445984D01*
X5756277Y-12445984D02*
X5737229Y-12436460D01*
X5737229Y-12436460D02*
X5727706Y-12426936D01*
X6022944Y-12245984D02*
X5927706Y-12245984D01*
X5927706Y-12245984D02*
X5918182Y-12341222D01*
X5918182Y-12341222D02*
X5927706Y-12331698D01*
X5927706Y-12331698D02*
X5946753Y-12322174D01*
X5946753Y-12322174D02*
X5994372Y-12322174D01*
X5994372Y-12322174D02*
X6013420Y-12331698D01*
X6013420Y-12331698D02*
X6022944Y-12341222D01*
X6022944Y-12341222D02*
X6032467Y-12360269D01*
X6032467Y-12360269D02*
X6032467Y-12407888D01*
X6032467Y-12407888D02*
X6022944Y-12426936D01*
X6022944Y-12426936D02*
X6013420Y-12436460D01*
X6013420Y-12436460D02*
X5994372Y-12445984D01*
X5994372Y-12445984D02*
X5946753Y-12445984D01*
X5946753Y-12445984D02*
X5927706Y-12436460D01*
X5927706Y-12436460D02*
X5918182Y-12426936D01*
X6222944Y-12445984D02*
X6108658Y-12445984D01*
X6165801Y-12445984D02*
X6165801Y-12245984D01*
X6165801Y-12245984D02*
X6146753Y-12274555D01*
X6146753Y-12274555D02*
X6127706Y-12293603D01*
X6127706Y-12293603D02*
X6108658Y-12303127D01*
X6299134Y-12245984D02*
X6299134Y-12284079D01*
X6375325Y-12245984D02*
X6375325Y-12284079D01*
X6670563Y-12522174D02*
X6661039Y-12512650D01*
X6661039Y-12512650D02*
X6641991Y-12484079D01*
X6641991Y-12484079D02*
X6632468Y-12465031D01*
X6632468Y-12465031D02*
X6622944Y-12436460D01*
X6622944Y-12436460D02*
X6613420Y-12388841D01*
X6613420Y-12388841D02*
X6613420Y-12350746D01*
X6613420Y-12350746D02*
X6622944Y-12303127D01*
X6622944Y-12303127D02*
X6632468Y-12274555D01*
X6632468Y-12274555D02*
X6641991Y-12255508D01*
X6641991Y-12255508D02*
X6661039Y-12226936D01*
X6661039Y-12226936D02*
X6670563Y-12217412D01*
X6737229Y-12265031D02*
X6746753Y-12255508D01*
X6746753Y-12255508D02*
X6765801Y-12245984D01*
X6765801Y-12245984D02*
X6813420Y-12245984D01*
X6813420Y-12245984D02*
X6832468Y-12255508D01*
X6832468Y-12255508D02*
X6841991Y-12265031D01*
X6841991Y-12265031D02*
X6851515Y-12284079D01*
X6851515Y-12284079D02*
X6851515Y-12303127D01*
X6851515Y-12303127D02*
X6841991Y-12331698D01*
X6841991Y-12331698D02*
X6727706Y-12445984D01*
X6727706Y-12445984D02*
X6851515Y-12445984D01*
X7022944Y-12312650D02*
X7022944Y-12445984D01*
X6975325Y-12236460D02*
X6927706Y-12379317D01*
X6927706Y-12379317D02*
X7051515Y-12379317D01*
X7280087Y-12445984D02*
X7280087Y-12245984D01*
X7365801Y-12445984D02*
X7365801Y-12341222D01*
X7365801Y-12341222D02*
X7356277Y-12322174D01*
X7356277Y-12322174D02*
X7337230Y-12312650D01*
X7337230Y-12312650D02*
X7308658Y-12312650D01*
X7308658Y-12312650D02*
X7289610Y-12322174D01*
X7289610Y-12322174D02*
X7280087Y-12331698D01*
X7489610Y-12445984D02*
X7470563Y-12436460D01*
X7470563Y-12436460D02*
X7461039Y-12426936D01*
X7461039Y-12426936D02*
X7451515Y-12407888D01*
X7451515Y-12407888D02*
X7451515Y-12350746D01*
X7451515Y-12350746D02*
X7461039Y-12331698D01*
X7461039Y-12331698D02*
X7470563Y-12322174D01*
X7470563Y-12322174D02*
X7489610Y-12312650D01*
X7489610Y-12312650D02*
X7518182Y-12312650D01*
X7518182Y-12312650D02*
X7537230Y-12322174D01*
X7537230Y-12322174D02*
X7546753Y-12331698D01*
X7546753Y-12331698D02*
X7556277Y-12350746D01*
X7556277Y-12350746D02*
X7556277Y-12407888D01*
X7556277Y-12407888D02*
X7546753Y-12426936D01*
X7546753Y-12426936D02*
X7537230Y-12436460D01*
X7537230Y-12436460D02*
X7518182Y-12445984D01*
X7518182Y-12445984D02*
X7489610Y-12445984D01*
X7670563Y-12445984D02*
X7651515Y-12436460D01*
X7651515Y-12436460D02*
X7641991Y-12417412D01*
X7641991Y-12417412D02*
X7641991Y-12245984D01*
X7822944Y-12436460D02*
X7803896Y-12445984D01*
X7803896Y-12445984D02*
X7765801Y-12445984D01*
X7765801Y-12445984D02*
X7746753Y-12436460D01*
X7746753Y-12436460D02*
X7737230Y-12417412D01*
X7737230Y-12417412D02*
X7737230Y-12341222D01*
X7737230Y-12341222D02*
X7746753Y-12322174D01*
X7746753Y-12322174D02*
X7765801Y-12312650D01*
X7765801Y-12312650D02*
X7803896Y-12312650D01*
X7803896Y-12312650D02*
X7822944Y-12322174D01*
X7822944Y-12322174D02*
X7832468Y-12341222D01*
X7832468Y-12341222D02*
X7832468Y-12360269D01*
X7832468Y-12360269D02*
X7737230Y-12379317D01*
X7908658Y-12436460D02*
X7927706Y-12445984D01*
X7927706Y-12445984D02*
X7965801Y-12445984D01*
X7965801Y-12445984D02*
X7984849Y-12436460D01*
X7984849Y-12436460D02*
X7994372Y-12417412D01*
X7994372Y-12417412D02*
X7994372Y-12407888D01*
X7994372Y-12407888D02*
X7984849Y-12388841D01*
X7984849Y-12388841D02*
X7965801Y-12379317D01*
X7965801Y-12379317D02*
X7937230Y-12379317D01*
X7937230Y-12379317D02*
X7918182Y-12369793D01*
X7918182Y-12369793D02*
X7908658Y-12350746D01*
X7908658Y-12350746D02*
X7908658Y-12341222D01*
X7908658Y-12341222D02*
X7918182Y-12322174D01*
X7918182Y-12322174D02*
X7937230Y-12312650D01*
X7937230Y-12312650D02*
X7965801Y-12312650D01*
X7965801Y-12312650D02*
X7984849Y-12322174D01*
X8061039Y-12522174D02*
X8070563Y-12512650D01*
X8070563Y-12512650D02*
X8089611Y-12484079D01*
X8089611Y-12484079D02*
X8099134Y-12465031D01*
X8099134Y-12465031D02*
X8108658Y-12436460D01*
X8108658Y-12436460D02*
X8118182Y-12388841D01*
X8118182Y-12388841D02*
X8118182Y-12350746D01*
X8118182Y-12350746D02*
X8108658Y-12303127D01*
X8108658Y-12303127D02*
X8099134Y-12274555D01*
X8099134Y-12274555D02*
X8089611Y-12255508D01*
X8089611Y-12255508D02*
X8070563Y-12226936D01*
X8070563Y-12226936D02*
X8061039Y-12217412D01*
M02*
