M48
; DRILL file {KiCad 9.0.5} date 2025-10-04T17:31:32+0200
; FORMAT={-:-/ absolute / inch / decimal}
; #@! TF.CreationDate,2025-10-04T17:31:32+02:00
; #@! TF.GenerationSoftware,Kicad,Pcbnew,9.0.5
; #@! TF.FileFunction,Plated,1,4,PTH
FMAT,2
INCH
; #@! TA.AperFunction,Plated,PTH,ViaDrill
T1C0.0118
; #@! TA.AperFunction,Plated,PTH,ComponentDrill
T2C0.0236
; #@! TA.AperFunction,Plated,PTH,ComponentDrill
T3C0.0256
; #@! TA.AperFunction,Plated,PTH,ComponentDrill
T4C0.0295
; #@! TA.AperFunction,Plated,PTH,ComponentDrill
T5C0.0300
; #@! TA.AperFunction,Plated,PTH,ComponentDrill
T6C0.0394
; #@! TA.AperFunction,Plated,PTH,ComponentDrill
T7C0.0433
; #@! TA.AperFunction,Plated,PTH,ComponentDrill
T8C0.0512
; #@! TA.AperFunction,Plated,PTH,ComponentDrill
T9C0.0551
%
G90
G05
T1
X1.4374Y-2.0917
X1.4398Y-2.1192
X1.5945Y-2.7362
X1.6051Y-2.0461
X1.6051Y-2.0839
X1.6051Y-2.1228
X1.6051Y-2.163
X1.6732Y-2.3622
X1.6732Y-2.4213
X2.0079Y-2.0866
X2.0079Y-2.4606
X2.2835Y-1.3976
X2.5591Y-1.2982
X2.8543Y-1.9685
X2.9291Y-3.3701
X3.1693Y-1.8307
X3.248Y-1.9291
X3.3268Y-2.0866
X3.366Y-2.1408
X3.3661Y-1.6197
X3.4Y-2.0615
X3.4055Y-2.0079
X3.4646Y-2.126
X3.7626Y-1.4047
X3.795Y-2.0252
X3.8005Y-1.848
X3.8165Y-1.5449
X3.8559Y-1.3406
X3.9343Y-1.5441
X3.9941Y-1.3406
X4.0728Y-1.7126
X4.0945Y-1.763
X4.0945Y-3.6417
X4.1142Y-1.8898
X4.1279Y-1.8524
X4.1464Y-2.0485
X4.1535Y-1.122
X4.1535Y-1.3406
X4.1535Y-1.8701
X4.1827Y-1.9894
X4.2126Y-1.1634
X4.2126Y-1.3583
X4.2291Y-1.9366
X4.2315Y-1.99
X4.2673Y-1.5449
X4.2913Y-2.0866
X4.3071Y-1.9449
X4.3374Y-1.9902
X4.3378Y-2.035
X4.3457Y-1.5004
X4.3504Y-1.9094
X4.3937Y-1.4138
X4.4063Y-1.9299
X4.414Y-1.599
X4.4291Y-1.5748
X4.4488Y-1.6929
X4.4949Y-1.9358
X4.5193Y-1.3506
X4.7804Y-1.2826
X4.8031Y-2.874
X4.8394Y-3.0315
X4.8672Y-3.0689
X4.8732Y-2.9732
X4.8839Y-1.9882
X4.9213Y-1.1398
X4.9606Y-1.8307
X4.9911Y-3.0689
X5.0197Y-1.2402
X5.0197Y-1.9469
X5.0591Y-2.874
X5.0984Y-1.3362
X5.1181Y-1.9685
X5.1378Y-1.1811
X5.1378Y-1.5358
X5.1378Y-2.3425
X5.1378Y-3.5039
X5.1772Y-2.0079
X5.1772Y-2.874
X5.2165Y-1.5354
X5.2362Y-1.1811
X5.2559Y-1.8898
X5.3146Y-1.7709
X5.315Y-1.9291
X5.3346Y-1.1811
X5.3346Y-1.2795
X5.3799Y-1.9169
X5.4594Y-1.5594
X5.5039Y-1.5622
X5.561Y-1.5551
X5.5744Y-1.9858
X5.6102Y-2.0472
X5.6693Y-2.0472
X5.7567Y-1.5126
X5.8858Y-2.5984
X5.9087Y-1.7606
X5.9646Y-2.5984
X6.0929Y-1.5228
X6.1512Y-1.8303
X6.1563Y-1.2205
X6.248Y-1.9626
X6.2598Y-1.8016
X6.2795Y-2.7756
X6.3386Y-2.6083
X6.5063Y-1.1512
X6.5354Y-2.1457
X6.6431Y-1.29
X6.7561Y-1.8701
X6.9268Y-1.4138
X6.9291Y-3.5039
X6.9685Y-1.4764
X7.0102Y-1.0433
X7.0142Y-1.1469
X7.1492Y-1.1476
X7.1654Y-2.2244
X7.2Y-1.1776
X7.2047Y-2.815
X7.3012Y-1.0429
X7.4016Y-2.7165
T3
X4.1772Y-3.4843
X4.252Y-3.4843
T4
X2.4016Y-1.1811
X2.4016Y-1.4961
X2.4803Y-1.1811
X2.4803Y-1.4961
X2.4803Y-3.2126
X2.4803Y-3.5433
X2.5591Y-1.1811
X2.5591Y-1.4961
X2.5591Y-3.2126
X2.5591Y-3.5433
X2.6378Y-1.1811
X2.6378Y-1.4961
X2.6378Y-3.2126
X2.6378Y-3.5433
X2.7165Y-1.1811
X2.7165Y-1.4961
X2.7165Y-3.2126
X2.7165Y-3.5433
X2.7953Y-3.2126
X2.7953Y-3.5433
X2.9331Y-1.4961
X3.0118Y-1.4961
X3.0906Y-1.2205
X3.0906Y-1.4961
X3.1693Y-1.2205
X3.1693Y-1.4961
X3.248Y-1.2205
X3.248Y-1.4961
X7.2835Y-2.1601
X7.2835Y-2.2388
X7.2835Y-2.3176
X7.2835Y-2.3963
X7.2835Y-2.475
X7.3622Y-1.1811
X7.3622Y-1.2598
T5
X4.5776Y-1.3004
X4.5776Y-1.4185
T6
X1.7717Y-2.1033
X1.7717Y-2.2033
X1.7717Y-2.3033
X1.7717Y-2.4033
X1.7717Y-2.5033
X2.5984Y-2.1033
X2.5984Y-2.2033
X2.5984Y-2.3033
X2.5984Y-2.4033
X2.5984Y-2.5033
X3.2283Y-2.1033
X3.2283Y-2.2033
X3.2283Y-2.3033
X3.2283Y-2.4033
X3.2283Y-2.5033
X4.0551Y-2.1033
X4.0551Y-2.2033
X4.0551Y-2.3033
X4.0551Y-2.4033
X4.0551Y-2.5033
X4.685Y-2.1047
X4.685Y-2.2047
X4.685Y-2.3047
X4.685Y-2.4047
X4.685Y-2.5047
X5.5118Y-2.1047
X5.5118Y-2.2047
X5.5118Y-2.3047
X5.5118Y-2.4047
X5.5118Y-2.5047
X6.1417Y-2.1033
X6.1417Y-2.2033
X6.1417Y-2.3033
X6.1417Y-2.4033
X6.1417Y-2.5033
X6.9685Y-2.1033
X6.9685Y-2.2033
X6.9685Y-2.3033
X6.9685Y-2.4033
X6.9685Y-2.5033
X7.1752Y-1.5354
X7.1752Y-1.6929
X7.1752Y-1.8504
X7.2736Y-1.5354
X7.2736Y-1.6929
X7.2736Y-1.8504
T7
X4.5496Y-1.0594
X4.5496Y-1.6594
X4.6496Y-1.0594
X4.6496Y-1.6594
X4.7496Y-1.0594
X4.7496Y-1.6594
X4.8496Y-1.0594
X4.8496Y-1.6594
X4.9496Y-1.0594
X4.9496Y-1.6594
X5.0496Y-1.0594
X5.0496Y-1.6594
X5.1496Y-1.0594
X5.1496Y-1.6594
X5.2496Y-1.0594
X5.2496Y-1.6594
X5.3496Y-1.0594
X5.3496Y-1.6594
X5.4496Y-1.0594
X5.4496Y-1.6594
X5.5496Y-1.0594
X5.5496Y-1.6594
X5.6496Y-1.0594
X5.6496Y-1.6594
X5.7496Y-1.0594
X5.7496Y-1.6594
X5.8496Y-1.0594
X5.8496Y-1.6594
X5.9496Y-1.0594
X5.9496Y-1.6594
X6.0496Y-1.0594
X6.0496Y-1.6594
X6.1496Y-1.0594
X6.1496Y-1.6594
X6.2496Y-1.0594
X6.2496Y-1.6594
X6.3496Y-1.0594
X6.3496Y-1.6594
X6.4496Y-1.0594
X6.4496Y-1.6594
X6.5496Y-1.0594
X6.5496Y-1.6594
X6.6496Y-1.0594
X6.6496Y-1.6594
X6.7496Y-1.0594
X6.7496Y-1.6594
X6.8496Y-1.0594
X6.8496Y-1.6594
T8
X7.1063Y-1.4567
X7.1063Y-1.9291
X7.3425Y-1.4567
X7.3425Y-1.9291
T9
X1.4166Y-1.066
X1.4166Y-1.705
X1.4173Y-2.9528
X1.4173Y-3.5917
X1.6666Y-1.066
X1.6666Y-1.705
X1.6673Y-2.9528
X1.6673Y-3.5917
X1.9166Y-1.066
X1.9166Y-1.705
X1.9173Y-2.9528
X1.9173Y-3.5917
X5.2713Y-3.1102
X5.2713Y-3.3602
X5.2713Y-3.6102
X5.9102Y-3.1102
X5.9102Y-3.3602
X5.9102Y-3.6102
X6.1671Y-3.1102
X6.1671Y-3.3602
X6.1671Y-3.6102
X6.8061Y-3.1102
X6.8061Y-3.3602
X6.8061Y-3.6102
T2
G00X1.3071Y-1.911
M15
G01X1.2835Y-1.911
M16
G05
G00X1.3071Y-2.2512
M15
G01X1.2835Y-2.2512
M16
G05
G00X1.4815Y-1.911
M15
G01X1.4382Y-1.911
M16
G05
G00X1.4815Y-2.2512
M15
G01X1.4382Y-2.2512
M16
G05
M30
