%TF.GenerationSoftware,KiCad,Pcbnew,9.0.5*%
%TF.CreationDate,2026-01-16T18:46:35+01:00*%
%TF.ProjectId,toern_revE,746f6572-6e5f-4726-9576-452e6b696361,rev?*%
%TF.SameCoordinates,Original*%
%TF.FileFunction,Soldermask,Top*%
%TF.FilePolarity,Negative*%
%FSLAX46Y46*%
G04 Gerber Fmt 4.6, Leading zero omitted, Abs format (unit mm)*
G04 Created by KiCad (PCBNEW 9.0.5) date 2026-01-16 18:46:35*
%MOMM*%
%LPD*%
G01*
G04 APERTURE LIST*
G04 Aperture macros list*
%AMRoundRect*
0 Rectangle with rounded corners*
0 $1 Rounding radius*
0 $2 $3 $4 $5 $6 $7 $8 $9 X,Y pos of 4 corners*
0 Add a 4 corners polygon primitive as box body*
4,1,4,$2,$3,$4,$5,$6,$7,$8,$9,$2,$3,0*
0 Add four circle primitives for the rounded corners*
1,1,$1+$1,$2,$3*
1,1,$1+$1,$4,$5*
1,1,$1+$1,$6,$7*
1,1,$1+$1,$8,$9*
0 Add four rect primitives between the rounded corners*
20,1,$1+$1,$2,$3,$4,$5,0*
20,1,$1+$1,$4,$5,$6,$7,0*
20,1,$1+$1,$6,$7,$8,$9,0*
20,1,$1+$1,$8,$9,$2,$3,0*%
%AMRotRect*
0 Rectangle, with rotation*
0 The origin of the aperture is its center*
0 $1 length*
0 $2 width*
0 $3 Rotation angle, in degrees counterclockwise*
0 Add horizontal line*
21,1,$1,$2,0,0,$3*%
G04 Aperture macros list end*
%ADD10C,1.700000*%
%ADD11R,1.700000X1.700000*%
%ADD12RoundRect,0.250000X-0.475000X0.250000X-0.475000X-0.250000X0.475000X-0.250000X0.475000X0.250000X0*%
%ADD13RoundRect,0.102000X0.750000X1.500000X-0.750000X1.500000X-0.750000X-1.500000X0.750000X-1.500000X0*%
%ADD14R,1.450000X0.600000*%
%ADD15R,1.450000X0.300000*%
%ADD16O,2.100000X1.000000*%
%ADD17O,1.600000X1.000000*%
%ADD18R,0.700000X1.400000*%
%ADD19R,0.700000X1.200000*%
%ADD20R,1.200000X0.800000*%
%ADD21R,1.500000X1.900000*%
%ADD22RotRect,0.200000X0.200000X45.000000*%
%ADD23R,0.500000X0.500000*%
%ADD24R,1.000000X1.400000*%
%ADD25R,1.200000X1.200000*%
%ADD26R,1.200000X3.200000*%
%ADD27C,1.500000*%
%ADD28C,1.950000*%
%ADD29RoundRect,0.062500X0.062500X-0.337500X0.062500X0.337500X-0.062500X0.337500X-0.062500X-0.337500X0*%
%ADD30RoundRect,0.062500X0.337500X-0.062500X0.337500X0.062500X-0.337500X0.062500X-0.337500X-0.062500X0*%
%ADD31R,3.600000X3.600000*%
%ADD32C,3.000000*%
%ADD33RoundRect,0.140000X-0.140000X-0.170000X0.140000X-0.170000X0.140000X0.170000X-0.140000X0.170000X0*%
%ADD34RoundRect,0.200000X-0.275000X0.200000X-0.275000X-0.200000X0.275000X-0.200000X0.275000X0.200000X0*%
%ADD35C,1.524000*%
%ADD36C,1.600000*%
%ADD37R,1.600000X1.600000*%
%ADD38O,1.700000X1.700000*%
%ADD39RoundRect,0.135000X0.185000X-0.135000X0.185000X0.135000X-0.185000X0.135000X-0.185000X-0.135000X0*%
%ADD40RoundRect,0.140000X0.140000X0.170000X-0.140000X0.170000X-0.140000X-0.170000X0.140000X-0.170000X0*%
%ADD41O,1.200000X1.750000*%
%ADD42RoundRect,0.250000X-0.350000X-0.625000X0.350000X-0.625000X0.350000X0.625000X-0.350000X0.625000X0*%
%ADD43RoundRect,0.140000X-0.170000X0.140000X-0.170000X-0.140000X0.170000X-0.140000X0.170000X0.140000X0*%
%ADD44RoundRect,0.200000X0.275000X-0.200000X0.275000X0.200000X-0.275000X0.200000X-0.275000X-0.200000X0*%
%ADD45RoundRect,0.225000X-0.250000X0.225000X-0.250000X-0.225000X0.250000X-0.225000X0.250000X0.225000X0*%
%ADD46RoundRect,0.225000X0.225000X0.250000X-0.225000X0.250000X-0.225000X-0.250000X0.225000X-0.250000X0*%
%ADD47RoundRect,0.200000X0.200000X0.275000X-0.200000X0.275000X-0.200000X-0.275000X0.200000X-0.275000X0*%
%ADD48RoundRect,0.135000X-0.135000X-0.185000X0.135000X-0.185000X0.135000X0.185000X-0.135000X0.185000X0*%
%ADD49RoundRect,0.125000X-0.125000X0.125000X-0.125000X-0.125000X0.125000X-0.125000X0.125000X0.125000X0*%
%ADD50RoundRect,0.135000X-0.185000X0.135000X-0.185000X-0.135000X0.185000X-0.135000X0.185000X0.135000X0*%
%ADD51RoundRect,0.150000X-0.512500X-0.150000X0.512500X-0.150000X0.512500X0.150000X-0.512500X0.150000X0*%
%ADD52O,1.750000X1.200000*%
%ADD53RoundRect,0.250000X0.625000X-0.350000X0.625000X0.350000X-0.625000X0.350000X-0.625000X-0.350000X0*%
%ADD54RoundRect,0.150000X0.587500X0.150000X-0.587500X0.150000X-0.587500X-0.150000X0.587500X-0.150000X0*%
%ADD55RoundRect,0.135000X0.135000X0.185000X-0.135000X0.185000X-0.135000X-0.185000X0.135000X-0.185000X0*%
%ADD56RoundRect,0.150000X-0.150000X0.512500X-0.150000X-0.512500X0.150000X-0.512500X0.150000X0.512500X0*%
%ADD57RoundRect,0.218750X-0.218750X-0.256250X0.218750X-0.256250X0.218750X0.256250X-0.218750X0.256250X0*%
%ADD58RoundRect,0.250000X0.350000X0.625000X-0.350000X0.625000X-0.350000X-0.625000X0.350000X-0.625000X0*%
%ADD59R,1.208024X0.466344*%
%ADD60RoundRect,0.225000X-0.225000X-0.250000X0.225000X-0.250000X0.225000X0.250000X-0.225000X0.250000X0*%
%ADD61RoundRect,0.225000X0.250000X-0.225000X0.250000X0.225000X-0.250000X0.225000X-0.250000X-0.225000X0*%
%ADD62RoundRect,0.200000X-0.200000X-0.275000X0.200000X-0.275000X0.200000X0.275000X-0.200000X0.275000X0*%
%ADD63C,1.000000*%
%ADD64RoundRect,0.250000X-0.250000X-0.250000X0.250000X-0.250000X0.250000X0.250000X-0.250000X0.250000X0*%
%ADD65RoundRect,0.225000X0.225000X0.375000X-0.225000X0.375000X-0.225000X-0.375000X0.225000X-0.375000X0*%
%ADD66RoundRect,0.250000X-1.000000X1.950000X-1.000000X-1.950000X1.000000X-1.950000X1.000000X1.950000X0*%
%ADD67RoundRect,0.140000X0.170000X-0.140000X0.170000X0.140000X-0.170000X0.140000X-0.170000X-0.140000X0*%
G04 APERTURE END LIST*
D10*
%TO.C,U14-1*%
X156025000Y-63610000D03*
X156025000Y-61070000D03*
X156025000Y-58530000D03*
X156025000Y-55990000D03*
D11*
X156025000Y-53450000D03*
%TD*%
%TO.C,U13-2*%
X140025000Y-53450000D03*
D10*
X140025000Y-55990000D03*
X140025000Y-58530000D03*
X140025000Y-61070000D03*
X140025000Y-63610000D03*
%TD*%
D11*
%TO.C,U14-2*%
X177025000Y-53450000D03*
D10*
X177025000Y-55990000D03*
X177025000Y-58530000D03*
X177025000Y-61070000D03*
X177025000Y-63610000D03*
%TD*%
D11*
%TO.C,U13-1*%
X119025000Y-53450000D03*
D10*
X119025000Y-55990000D03*
X119025000Y-58530000D03*
X119025000Y-61070000D03*
X119025000Y-63610000D03*
%TD*%
D11*
%TO.C,U12-2*%
X103025000Y-53450000D03*
D10*
X103025000Y-55990000D03*
X103025000Y-58530000D03*
X103025000Y-61070000D03*
X103025000Y-63610000D03*
%TD*%
D11*
%TO.C,U12-1*%
X82025000Y-53450000D03*
D10*
X82025000Y-55990000D03*
X82025000Y-58530000D03*
X82025000Y-61070000D03*
X82025000Y-63610000D03*
%TD*%
D11*
%TO.C,U11-2*%
X66000000Y-53500000D03*
D10*
X66000000Y-56040000D03*
X66000000Y-58580000D03*
X66000000Y-61120000D03*
X66000000Y-63660000D03*
%TD*%
D11*
%TO.C,U11-1*%
X45000000Y-53500000D03*
D10*
X45000000Y-56040000D03*
X45000000Y-58580000D03*
X45000000Y-61120000D03*
X45000000Y-63660000D03*
%TD*%
D12*
%TO.C,C26*%
X74500000Y-28090000D03*
X74500000Y-29990000D03*
%TD*%
D13*
%TO.C,J2*%
X188400000Y-86500000D03*
X181500000Y-86500000D03*
X185800000Y-93500000D03*
X189400000Y-93500000D03*
X179900000Y-93500000D03*
%TD*%
%TO.C,J3*%
X188350000Y-73500000D03*
X181450000Y-73500000D03*
X185750000Y-80500000D03*
X189350000Y-80500000D03*
X179850000Y-80500000D03*
%TD*%
D14*
%TO.C,J4*%
X37995000Y-49610000D03*
X37995000Y-50410000D03*
D15*
X37995000Y-51610000D03*
X37995000Y-52610000D03*
X37995000Y-53110000D03*
X37995000Y-54110000D03*
D14*
X37995000Y-55310000D03*
X37995000Y-56110000D03*
X37995000Y-56110000D03*
X37995000Y-55310000D03*
D15*
X37995000Y-54610000D03*
X37995000Y-53610000D03*
X37995000Y-52110000D03*
X37995000Y-51110000D03*
D14*
X37995000Y-50410000D03*
X37995000Y-49610000D03*
D16*
X37080000Y-48540000D03*
D17*
X32900000Y-48540000D03*
D16*
X37080000Y-57180000D03*
D17*
X32900000Y-57180000D03*
%TD*%
D18*
%TO.C,J8*%
X118125000Y-79300000D03*
X119225000Y-79300000D03*
X120325000Y-79300000D03*
X121425000Y-79300000D03*
X122525000Y-79300000D03*
X123625000Y-79300000D03*
X124725000Y-79300000D03*
X125825000Y-79300000D03*
D19*
X126775000Y-79200000D03*
D20*
X127625000Y-89700000D03*
D21*
X114325000Y-94300000D03*
D22*
X115075000Y-94750000D03*
D23*
X115325000Y-95000000D03*
D24*
X116225000Y-79300000D03*
D25*
X127625000Y-83500000D03*
D26*
X127625000Y-93300000D03*
%TD*%
D27*
%TO.C,SW1*%
X184750000Y-47000000D03*
X184750000Y-43000000D03*
X184750000Y-39000000D03*
X182250000Y-39000000D03*
X182250000Y-43000000D03*
X182250000Y-47000000D03*
D28*
X186500000Y-49000000D03*
X180500000Y-49000000D03*
X186500000Y-37000000D03*
X180500000Y-37000000D03*
%TD*%
D29*
%TO.C,U3*%
X106410000Y-47400000D03*
X106910000Y-47400000D03*
X107410000Y-47400000D03*
X107910000Y-47400000D03*
X108410000Y-47400000D03*
X108910000Y-47400000D03*
X109410000Y-47400000D03*
X109910000Y-47400000D03*
D30*
X110610000Y-46700000D03*
X110610000Y-46200000D03*
X110610000Y-45700000D03*
X110610000Y-45200000D03*
X110610000Y-44700000D03*
X110610000Y-44200000D03*
X110610000Y-43700000D03*
X110610000Y-43200000D03*
D29*
X109910000Y-42500000D03*
X109410000Y-42500000D03*
X108910000Y-42500000D03*
X108410000Y-42500000D03*
X107910000Y-42500000D03*
X107410000Y-42500000D03*
X106910000Y-42500000D03*
X106410000Y-42500000D03*
D30*
X105710000Y-43200000D03*
X105710000Y-43700000D03*
X105710000Y-44200000D03*
X105710000Y-44700000D03*
X105710000Y-45200000D03*
X105710000Y-45700000D03*
X105710000Y-46200000D03*
X105710000Y-46700000D03*
D31*
X108160000Y-44950000D03*
%TD*%
D32*
%TO.C,J1*%
X48700000Y-75000000D03*
X48700000Y-91230000D03*
X36000000Y-75000000D03*
X36000000Y-91230000D03*
X42350000Y-75000000D03*
X42350000Y-91230000D03*
%TD*%
D33*
%TO.C,C9*%
X109400000Y-51680000D03*
X108440000Y-51680000D03*
%TD*%
D34*
%TO.C,R6*%
X146340000Y-49285000D03*
X146340000Y-47635000D03*
%TD*%
D35*
%TO.C,U6*%
X116270000Y-36030000D03*
X116270000Y-33030000D03*
D36*
X115560000Y-26910000D03*
X118100000Y-26910000D03*
X120640000Y-26910000D03*
X123180000Y-26910000D03*
X125720000Y-26910000D03*
X128260000Y-26910000D03*
X130800000Y-26910000D03*
X133340000Y-26910000D03*
X135880000Y-26910000D03*
X138420000Y-26910000D03*
X140960000Y-26910000D03*
X143500000Y-26910000D03*
X146040000Y-26910000D03*
X148580000Y-26910000D03*
X151120000Y-26910000D03*
X153660000Y-26910000D03*
X156200000Y-26910000D03*
X158740000Y-26910000D03*
X161280000Y-26910000D03*
X163820000Y-26910000D03*
X166360000Y-26910000D03*
X168900000Y-26910000D03*
X171440000Y-26910000D03*
X173980000Y-26910000D03*
X173980000Y-42150000D03*
X171440000Y-42150000D03*
X168900000Y-42150000D03*
X166360000Y-42150000D03*
X163820000Y-42150000D03*
X161280000Y-42150000D03*
X158740000Y-42150000D03*
X156200000Y-42150000D03*
X153660000Y-42150000D03*
X151120000Y-42150000D03*
X148580000Y-42150000D03*
X146040000Y-42150000D03*
X143500000Y-42150000D03*
X140960000Y-42150000D03*
X138420000Y-42150000D03*
X135880000Y-42150000D03*
X133340000Y-42150000D03*
X130800000Y-42150000D03*
X128260000Y-42150000D03*
X125720000Y-42150000D03*
X123180000Y-42150000D03*
X120640000Y-42150000D03*
X118100000Y-42150000D03*
D37*
X115560000Y-42150000D03*
%TD*%
D38*
%TO.C,U12*%
X177000000Y-63585051D03*
X156000000Y-63585000D03*
X177000000Y-61045051D03*
X156000000Y-61045000D03*
X177000000Y-58505051D03*
X156000000Y-58505000D03*
X177000000Y-55965051D03*
X156000000Y-55965000D03*
D11*
X177000000Y-53425051D03*
X156000000Y-53425000D03*
%TD*%
D33*
%TO.C,C7*%
X108000000Y-53000000D03*
X107040000Y-53000000D03*
%TD*%
D39*
%TO.C,R15*%
X128000000Y-33815000D03*
X128000000Y-34835000D03*
%TD*%
D40*
%TO.C,C23*%
X97935000Y-39232500D03*
X98895000Y-39232500D03*
%TD*%
D41*
%TO.C,J14*%
X69000000Y-30000000D03*
X67000000Y-30000000D03*
X65000000Y-30000000D03*
X63000000Y-30000000D03*
D42*
X61000000Y-30000000D03*
%TD*%
D43*
%TO.C,C2*%
X103500000Y-47460000D03*
X103500000Y-46500000D03*
%TD*%
D32*
%TO.C,J6*%
X156645000Y-79000000D03*
X172875000Y-79000000D03*
X156645000Y-91700000D03*
X172875000Y-91700000D03*
X156645000Y-85350000D03*
X172875000Y-85350000D03*
%TD*%
D33*
%TO.C,C10*%
X109360000Y-50520000D03*
X108400000Y-50520000D03*
%TD*%
D44*
%TO.C,R18*%
X183770000Y-28250000D03*
X183770000Y-29900000D03*
%TD*%
D33*
%TO.C,C11*%
X110980000Y-41000000D03*
X110020000Y-41000000D03*
%TD*%
D45*
%TO.C,C3*%
X95443778Y-51058225D03*
X95443778Y-49508225D03*
%TD*%
D46*
%TO.C,C24*%
X97330000Y-33022500D03*
X98880000Y-33022500D03*
%TD*%
D41*
%TO.C,J13*%
X82500000Y-38000000D03*
X80500000Y-38000000D03*
X78500000Y-38000000D03*
X76500000Y-38000000D03*
D42*
X74500000Y-38000000D03*
%TD*%
D47*
%TO.C,R14*%
X179315000Y-26460000D03*
X180965000Y-26460000D03*
%TD*%
D48*
%TO.C,R17*%
X177710000Y-35920000D03*
X176690000Y-35920000D03*
%TD*%
D49*
%TO.C,D1*%
X148276528Y-49547164D03*
X148276528Y-47347164D03*
%TD*%
D50*
%TO.C,R3*%
X105050000Y-40020000D03*
X105050000Y-39000000D03*
%TD*%
D51*
%TO.C,U2*%
X99907500Y-46000000D03*
X99907500Y-47900000D03*
X97632500Y-47900000D03*
X97632500Y-46950000D03*
X97632500Y-46000000D03*
%TD*%
D50*
%TO.C,R5*%
X102870000Y-40020000D03*
X102870000Y-39000000D03*
%TD*%
D52*
%TO.C,J16*%
X187000000Y-30000000D03*
D53*
X187000000Y-32000000D03*
%TD*%
D54*
%TO.C,Q1*%
X176500000Y-33055000D03*
X178375000Y-32105000D03*
X178375000Y-34005000D03*
%TD*%
D43*
%TO.C,C15*%
X141567500Y-49650000D03*
X141567500Y-48690000D03*
%TD*%
D55*
%TO.C,R16*%
X118220000Y-77500000D03*
X119240000Y-77500000D03*
%TD*%
D46*
%TO.C,C17*%
X57725000Y-45500000D03*
X59275000Y-45500000D03*
%TD*%
D45*
%TO.C,C4*%
X95450000Y-47600000D03*
X95450000Y-46050000D03*
%TD*%
D32*
%TO.C,J5*%
X48681020Y-27077339D03*
X48681020Y-43307339D03*
X35981020Y-27077339D03*
X35981020Y-43307339D03*
X42331020Y-27077339D03*
X42331020Y-43307339D03*
%TD*%
D46*
%TO.C,C20*%
X115290000Y-44790000D03*
X116840000Y-44790000D03*
%TD*%
D48*
%TO.C,R9*%
X41520000Y-62000000D03*
X40500000Y-62000000D03*
%TD*%
D47*
%TO.C,R8*%
X184000000Y-83500000D03*
X185650000Y-83500000D03*
%TD*%
D56*
%TO.C,U7*%
X98880000Y-37560000D03*
X96980000Y-37560000D03*
X96980000Y-35285000D03*
X97930000Y-35285000D03*
X98880000Y-35285000D03*
%TD*%
D38*
%TO.C,U9*%
X140000000Y-63620051D03*
X119000000Y-63620000D03*
X140000000Y-61080051D03*
X119000000Y-61080000D03*
X140000000Y-58540051D03*
X119000000Y-58540000D03*
X140000000Y-56000051D03*
X119000000Y-56000000D03*
D11*
X140000000Y-53460051D03*
X119000000Y-53460000D03*
%TD*%
D48*
%TO.C,R10*%
X41520000Y-60500000D03*
X40500000Y-60500000D03*
%TD*%
D57*
%TO.C,D3*%
X184317500Y-26460000D03*
X182742500Y-26460000D03*
%TD*%
D33*
%TO.C,C14*%
X157170000Y-45760000D03*
X156210000Y-45760000D03*
%TD*%
D32*
%TO.C,J7*%
X133890000Y-79000000D03*
X150120000Y-79000000D03*
X133890000Y-91700000D03*
X150120000Y-91700000D03*
X133890000Y-85350000D03*
X150120000Y-85350000D03*
%TD*%
D51*
%TO.C,U8*%
X181530000Y-28205000D03*
X181530000Y-30105000D03*
X179255000Y-30105000D03*
X179255000Y-29155000D03*
X179255000Y-28205000D03*
%TD*%
D43*
%TO.C,C13*%
X111900000Y-48280000D03*
X111900000Y-47320000D03*
%TD*%
D41*
%TO.C,J9*%
X78500000Y-31000000D03*
X80500000Y-31000000D03*
D58*
X82500000Y-31000000D03*
%TD*%
D50*
%TO.C,R1*%
X107230000Y-40020000D03*
X107230000Y-39000000D03*
%TD*%
D59*
%TO.C,U4*%
X157160000Y-47320000D03*
X157160000Y-48590000D03*
X157160000Y-49860000D03*
X150276600Y-49860000D03*
X150276600Y-47320000D03*
%TD*%
D50*
%TO.C,R2*%
X106140000Y-40020000D03*
X106140000Y-39000000D03*
%TD*%
D60*
%TO.C,C22*%
X122775000Y-75500000D03*
X121225000Y-75500000D03*
%TD*%
D46*
%TO.C,C19*%
X115295000Y-46310000D03*
X116845000Y-46310000D03*
%TD*%
D51*
%TO.C,U1*%
X99895920Y-49585520D03*
X99895920Y-51485520D03*
X97620920Y-51485520D03*
X97620920Y-50535520D03*
X97620920Y-49585520D03*
%TD*%
D33*
%TO.C,C12*%
X110980000Y-40000000D03*
X110020000Y-40000000D03*
%TD*%
D51*
%TO.C,U5*%
X139907500Y-47740000D03*
X139907500Y-48690000D03*
X139907500Y-49640000D03*
X137632500Y-49640000D03*
X137632500Y-48690000D03*
X137632500Y-47740000D03*
%TD*%
D43*
%TO.C,C1*%
X101617500Y-50870000D03*
X101617500Y-49910000D03*
%TD*%
D40*
%TO.C,C21*%
X121220000Y-77020000D03*
X122180000Y-77020000D03*
%TD*%
D48*
%TO.C,R13*%
X102500000Y-44680000D03*
X101480000Y-44680000D03*
%TD*%
D41*
%TO.C,J12*%
X69000000Y-38000000D03*
X67000000Y-38000000D03*
X65000000Y-38000000D03*
X63000000Y-38000000D03*
D42*
X61000000Y-38000000D03*
%TD*%
D61*
%TO.C,C5*%
X177030000Y-28560000D03*
X177030000Y-30110000D03*
%TD*%
D38*
%TO.C,U10*%
X103000000Y-63585051D03*
X82000000Y-63585000D03*
X103000000Y-61045051D03*
X82000000Y-61045000D03*
X103000000Y-58505051D03*
X82000000Y-58505000D03*
X103000000Y-55965051D03*
X82000000Y-55965000D03*
D11*
X103000000Y-53425051D03*
X82000000Y-53425000D03*
%TD*%
D50*
%TO.C,R4*%
X103920000Y-40020000D03*
X103920000Y-39000000D03*
%TD*%
D46*
%TO.C,C18*%
X115280000Y-47850000D03*
X116830000Y-47850000D03*
%TD*%
D41*
%TO.C,J11*%
X71000000Y-90000000D03*
X69000000Y-90000000D03*
X67000000Y-90000000D03*
X65000000Y-90000000D03*
D42*
X63000000Y-90000000D03*
%TD*%
D62*
%TO.C,R7*%
X188325000Y-70500000D03*
X186675000Y-70500000D03*
%TD*%
D46*
%TO.C,C16*%
X57725000Y-43500000D03*
X59275000Y-43500000D03*
%TD*%
D41*
%TO.C,J11.5*%
X71000000Y-81600000D03*
X69000000Y-81600000D03*
X67000000Y-81600000D03*
X65000000Y-81600000D03*
D42*
X63000000Y-81600000D03*
%TD*%
D52*
%TO.C,J15*%
X185000000Y-54865836D03*
X185000000Y-56865836D03*
X185000000Y-58865836D03*
X185000000Y-60865836D03*
D53*
X185000000Y-62865836D03*
%TD*%
D48*
%TO.C,R12*%
X102500000Y-43540000D03*
X101480000Y-43540000D03*
%TD*%
D34*
%TO.C,R11*%
X111000000Y-85650000D03*
X111000000Y-84000000D03*
%TD*%
D33*
%TO.C,C8*%
X103460000Y-48500000D03*
X102500000Y-48500000D03*
%TD*%
D63*
%TO.C,MK1*%
X108000000Y-88500000D03*
D64*
X106100000Y-88500000D03*
%TD*%
D50*
%TO.C,R19*%
X124500000Y-34835000D03*
X124500000Y-33815000D03*
%TD*%
D65*
%TO.C,D2*%
X180500000Y-33000000D03*
X183800000Y-33000000D03*
%TD*%
D62*
%TO.C,R20*%
X139175000Y-30500000D03*
X140825000Y-30500000D03*
%TD*%
D66*
%TO.C,C6*%
X90000000Y-31300000D03*
X90000000Y-38700000D03*
%TD*%
D67*
%TO.C,C25*%
X95565000Y-37552500D03*
X95565000Y-36592500D03*
%TD*%
D38*
%TO.C,U11*%
X66000000Y-63585051D03*
X45000000Y-63585000D03*
X66000000Y-61045051D03*
X45000000Y-61045000D03*
X66000000Y-58505051D03*
X45000000Y-58505000D03*
X66000000Y-55965051D03*
X45000000Y-55965000D03*
D11*
X66000000Y-53425051D03*
X45000000Y-53425000D03*
%TD*%
M02*
