#VRML V2.0 utf8
# Dimension-based model reconstructed from Xinyangze drawing YZP0354-20100-01.
# KiCad VRML units are 0.1 inch (2.54 mm).
# Faceted meshes are used because KiCad does not reliably render VRML primitives.

DEF GOLD Appearance {
  material Material {
    diffuseColor 0.82 0.58 0.16
    specularColor 0.75 0.62 0.28
    shininess 0.75
  }
}

# 0.6 mm diameter x 2.5 mm through-hole tail.
Shape {
  appearance USE GOLD
  geometry IndexedFaceSet {
    solid TRUE
    coord Coordinate {
      point [
        0.118110 0 -0.984252, 0.083516 0.083516 -0.984252,
        0 0.118110 -0.984252, -0.083516 0.083516 -0.984252,
        -0.118110 0 -0.984252, -0.083516 -0.083516 -0.984252,
        0 -0.118110 -0.984252, 0.083516 -0.083516 -0.984252,
        0.118110 0 0, 0.083516 0.083516 0,
        0 0.118110 0, -0.083516 0.083516 0,
        -0.118110 0 0, -0.083516 -0.083516 0,
        0 -0.118110 0, 0.083516 -0.083516 0
      ]
    }
    coordIndex [
      7,6,5,4,3,2,1,0,-1, 8,9,10,11,12,13,14,15,-1,
      0,1,9,8,-1, 1,2,10,9,-1, 2,3,11,10,-1, 3,4,12,11,-1,
      4,5,13,12,-1, 5,6,14,13,-1, 6,7,15,14,-1, 7,0,8,15,-1
    ]
  }
}

# 2.0 mm diameter stationary barrel, 5.7 mm above PCB.
Shape {
  appearance USE GOLD
  geometry IndexedFaceSet {
    solid TRUE
    coord Coordinate {
      point [
        0.393701 0 0, 0.278389 0.278389 0,
        0 0.393701 0, -0.278389 0.278389 0,
        -0.393701 0 0, -0.278389 -0.278389 0,
        0 -0.393701 0, 0.278389 -0.278389 0,
        0.393701 0 2.244094, 0.278389 0.278389 2.244094,
        0 0.393701 2.244094, -0.278389 0.278389 2.244094,
        -0.393701 0 2.244094, -0.278389 -0.278389 2.244094,
        0 -0.393701 2.244094, 0.278389 -0.278389 2.244094
      ]
    }
    coordIndex [
      7,6,5,4,3,2,1,0,-1, 8,9,10,11,12,13,14,15,-1,
      0,1,9,8,-1, 1,2,10,9,-1, 2,3,11,10,-1, 3,4,12,11,-1,
      4,5,13,12,-1, 5,6,14,13,-1, 6,7,15,14,-1, 7,0,8,15,-1
    ]
  }
}

# 1.2 mm diameter spring plunger, from 5.7 mm to 7.5 mm above PCB.
Shape {
  appearance USE GOLD
  geometry IndexedFaceSet {
    solid TRUE
    coord Coordinate {
      point [
        0.236220 0 2.244094, 0.167033 0.167033 2.244094,
        0 0.236220 2.244094, -0.167033 0.167033 2.244094,
        -0.236220 0 2.244094, -0.167033 -0.167033 2.244094,
        0 -0.236220 2.244094, 0.167033 -0.167033 2.244094,
        0.236220 0 2.952756, 0.167033 0.167033 2.952756,
        0 0.236220 2.952756, -0.167033 0.167033 2.952756,
        -0.236220 0 2.952756, -0.167033 -0.167033 2.952756,
        0 -0.236220 2.952756, 0.167033 -0.167033 2.952756
      ]
    }
    coordIndex [
      7,6,5,4,3,2,1,0,-1, 8,9,10,11,12,13,14,15,-1,
      0,1,9,8,-1, 1,2,10,9,-1, 2,3,11,10,-1, 3,4,12,11,-1,
      4,5,13,12,-1, 5,6,14,13,-1, 6,7,15,14,-1, 7,0,8,15,-1
    ]
  }
}
